<svg width="183" height="218" viewBox="0 0 183 218" fill="none" xmlns="http://www.w3.org/2000/svg">
<path d="M152.586 114.86C152.489 97.0801 160.531 83.6605 176.809 73.7774C167.701 60.7454 153.942 53.5753 135.775 52.1704C118.576 50.8139 99.7791 62.1988 92.8997 62.1988C85.6327 62.1988 68.9672 52.6549 55.8867 52.6549C28.8537 53.0909 0.125 74.2135 0.125 117.185C0.125 129.878 2.45042 142.991 7.10127 156.524C13.3024 174.304 35.6846 217.905 59.0357 217.179C71.2442 216.888 79.8676 208.507 95.758 208.507C111.164 208.507 119.158 217.179 132.771 217.179C156.316 216.839 176.566 177.21 182.477 159.382C150.89 144.509 152.586 115.78 152.586 114.86V114.86ZM125.165 35.3111C138.391 19.6145 137.18 5.32281 136.792 0.1875C125.116 0.865748 111.6 8.1327 103.897 17.0953C95.4189 26.6876 90.4289 38.557 91.4948 51.9282C104.139 52.8971 115.669 46.4053 125.165 35.3111V35.3111Z" fill="black"/>
</svg>
