<svg width="217" height="218" viewBox="0 0 217 218" fill="none" xmlns="http://www.w3.org/2000/svg">
<path d="M193.75 0.0625H23.25C17.0837 0.0625 11.17 2.51205 6.80977 6.87227C2.44955 11.2325 0 17.1462 0 23.3125L0 193.812C0 199.979 2.44955 205.893 6.80977 210.253C11.17 214.613 17.0837 217.062 23.25 217.062H89.7305V143.287H59.2148V108.562H89.7305V82.0963C89.7305 51.9923 107.652 35.3637 135.102 35.3637C148.248 35.3637 161.994 37.7081 161.994 37.7081V67.255H146.848C131.924 67.255 127.27 76.5162 127.27 86.0148V108.562H160.585L155.257 143.287H127.27V217.062H193.75C199.916 217.062 205.83 214.613 210.19 210.253C214.55 205.893 217 199.979 217 193.812V23.3125C217 17.1462 214.55 11.2325 210.19 6.87227C205.83 2.51205 199.916 0.0625 193.75 0.0625V0.0625Z" fill="black"/>
</svg>
