<svg xmlns="http://www.w3.org/2000/svg" viewBox="0 0 813.38 217.8"><defs><style>.cls-1{fill:#f24d2e;}</style></defs><g id="圖層_2" data-name="圖層 2"><g id="圖層_1-2" data-name="圖層 1"><path class="cls-1" d="M69.81,98.13S29.63,78.91,10.55,38.37c0,0-23.93,45.44.29,73.93C30.49,135.42,60.56,120.39,69.81,98.13Z"/><path class="cls-1" d="M90.53,69.81s19.22-40.18,59.76-59.26c0,0-45.44-23.93-73.93.29C53.24,30.49,68.27,60.56,90.53,69.81Z"/><path class="cls-1" d="M107.53,85s40.18,19.22,59.26,59.76c0,0,23.92-45.44-.29-73.92C146.85,47.67,116.78,62.7,107.53,85Z"/><path class="cls-1" d="M94.66,113.87S75.44,154.05,34.9,173.12c0,0,45.44,23.93,73.93-.28C132,153.18,116.92,123.12,94.66,113.87Z"/><path d="M226.68,147.52V121.9a108.73,108.73,0,0,0,20.6,11.44q10.51,4.38,17.71,4.38a22.15,22.15,0,0,0,12.81-3.66c3.58-2.44,5.36-5.37,5.36-8.76a11.79,11.79,0,0,0-3.46-8.7q-3.46-3.46-15-10-23-12.81-30.14-21.9a31.42,31.42,0,0,1-7.12-19.81,27.8,27.8,0,0,1,10.78-22.61q10.8-8.76,27.79-8.76,17.64,0,36.21,9.93V67q-21.18-12.82-34.64-12.82-6.94,0-11.18,2.95a9,9,0,0,0-4.25,7.79q0,4.19,3.85,8T269.55,82l8.5,4.84q30.09,17,30.08,37.64a29.94,29.94,0,0,1-11.57,24.25q-11.56,9.47-29.74,9.47A72.34,72.34,0,0,1,247.73,156,127.8,127.8,0,0,1,226.68,147.52Z"/><path d="M434.09,98.23H349.5q.92,17.26,11.57,27.46t27.52,10.2q23.54,0,43.41-14.65v23.27A79.13,79.13,0,0,1,410.23,155a90.69,90.69,0,0,1-25.3,3.14q-19.87,0-32.16-8.24a59.93,59.93,0,0,1-19.68-22.16q-7.38-13.92-7.38-32.22,0-27.46,15.55-44.65t40.4-17.19q23.93,0,38.18,16.73t14.25,44.85ZM350,84h60.54q-.93-14.25-8.5-22t-20.4-7.72q-12.81,0-21,7.72T350,84Z"/><path d="M441.75,55,486.47,11V35.87h38V57.31h-38v58.87q0,20.63,17.12,20.62,12.81,0,27.07-8.5v22.23a60.16,60.16,0,0,1-29.94,7.71q-16.35,0-27.2-9.54a27.45,27.45,0,0,1-5.62-6.47,34.45,34.45,0,0,1-3.72-9.42q-1.51-5.81-1.51-22.16V57.31H441.75Z"/><path d="M655.59,156.48V141.05A55.59,55.59,0,0,1,638.26,154a45.08,45.08,0,0,1-19.41,4.61,40.39,40.39,0,0,1-21-5.69,37,37,0,0,1-14.51-15.42q-4.9-9.75-4.9-32.36V36.2h23.79v68.55q0,18.93,5.43,26.44t19,7.51q17,0,28.9-16.61V36.2h23.79V156.48Z"/><path d="M704.09,217.8V36.2h41.65q32,0,49.82,15.95t17.82,44.58q0,27.06-16.77,44.45t-42.75,17.39q-11.49,0-25.46-5.1V217.8ZM745.23,58.42H728.4v74a49.64,49.64,0,0,0,23,5.62q16.71,0,27.34-11.63t10.63-29.94a42,42,0,0,0-5-20.79,30.44,30.44,0,0,0-13.69-13.14Q761.93,58.43,745.23,58.42Z"/></g></g></svg>