<svg width="801" height="569" viewBox="0 0 801 569" fill="none" xmlns="http://www.w3.org/2000/svg">
<g filter="url(#filter0_d_377:1736)">
<g clip-path="url(#clip0_377:1736)">
<rect x="4" width="793" height="561" rx="20" fill="url(#paint0_linear_377:1736)"/>
<rect x="4" y="35" width="799" height="37" fill="#A5B4D1" fill-opacity="0.5677"/>
<g clip-path="url(#clip1_377:1736)">
<path d="M79.2731 53.0549C79.2731 53.0549 75.6654 51.2806 73.9479 47.5405C73.9479 47.5405 71.7979 51.7334 73.9738 54.3615C75.7415 56.4955 78.4415 55.1083 79.2731 53.0549Z" fill="white"/>
<path d="M81.1353 50.4407C81.1353 50.4407 82.8626 46.7366 86.5062 44.9733C86.5062 44.9733 82.4224 42.7658 79.8626 44.9999C77.7842 46.8148 79.1353 49.5868 81.1353 50.4407Z" fill="white"/>
<path d="M82.6641 51.839C82.6641 51.839 86.2749 53.6125 87.9893 57.3534C87.9893 57.3534 90.1393 53.1605 87.9634 50.5323C86.1964 48.3984 83.495 49.7863 82.6641 51.839Z" fill="white"/>
<path d="M81.5066 54.5063C81.5066 54.5063 79.7778 58.2136 76.1357 59.9738C76.1357 59.9738 80.2203 62.1813 82.78 59.9472C84.8577 58.1338 83.5097 55.3595 81.5066 54.5063Z" fill="white"/>
</g>
<g clip-path="url(#clip2_377:1736)">
<path d="M94.5449 59.1822V56.3324C95.2402 56.8383 95.9869 57.265 96.7718 57.6049C97.5311 57.9297 98.1699 58.0921 98.6884 58.0921C99.1802 58.1046 99.6638 57.9613 100.074 57.6817C100.46 57.4103 100.653 57.0854 100.654 56.7073C100.659 56.5281 100.628 56.3499 100.563 56.1834C100.499 56.017 100.402 55.8659 100.278 55.7395C100.029 55.4829 99.488 55.1121 98.6559 54.6272C96.9968 53.6794 95.9116 52.8685 95.4004 52.1945C94.9047 51.573 94.6324 50.7948 94.6293 49.9909C94.6189 49.507 94.7191 49.0274 94.9218 48.5906C95.1245 48.1538 95.424 47.772 95.7963 47.4759C96.5743 46.8263 97.5758 46.5015 98.8008 46.5015C100.073 46.5015 101.379 46.8697 102.718 47.606V50.2289C101.191 49.276 99.9419 48.7992 98.9706 48.7985C98.471 48.7985 98.0679 48.9097 97.7615 49.1322C97.619 49.2239 97.5019 49.3518 97.4214 49.5036C97.3409 49.6553 97.2997 49.8258 97.3018 49.9987C97.3018 50.309 97.4413 50.6049 97.7182 50.8886C97.9951 51.1722 98.4839 51.5015 99.1816 51.8975L100.101 52.4358C102.27 53.6965 103.354 55.0921 103.354 56.6227C103.364 57.1414 103.256 57.6553 103.039 58.1236C102.821 58.5918 102.501 59.0015 102.103 59.3202C101.269 60.0224 100.197 60.3735 98.8863 60.3735C98.1901 60.3835 97.4957 60.2978 96.8216 60.1188C96.0372 59.8768 95.2753 59.5634 94.5449 59.1822V59.1822Z" fill="white"/>
<path d="M116.976 53.6996H107.828C107.895 54.9796 108.312 55.9978 109.08 56.7542C109.847 57.5106 110.84 57.8887 112.056 57.8887C113.753 57.8887 115.317 57.3456 116.75 56.2592V58.8476C116.028 59.3571 115.234 59.7495 114.395 60.0111C113.504 60.2594 112.583 60.377 111.66 60.3604C110.227 60.3604 109.068 60.0549 108.181 59.4438C107.282 58.8186 106.55 57.971 106.053 56.9788C105.519 55.9466 105.252 54.7519 105.252 53.3949C105.252 51.3585 105.814 49.703 106.937 48.4282C108.06 47.1535 109.518 46.5161 111.309 46.5161C113.034 46.5161 114.41 47.1364 115.437 48.3771C116.464 49.6177 116.977 51.2807 116.976 53.3659V53.6996ZM107.884 52.1201H114.431C114.365 51.0634 114.058 50.2477 113.512 49.673C112.965 49.0982 112.231 48.8116 111.309 48.8131C110.385 48.8131 109.628 49.0994 109.037 49.6718C108.447 50.2443 108.063 51.0604 107.884 52.1201Z" fill="white"/>
<path d="M117.806 48.8865L122.641 44V46.7631H126.757V49.1479H122.641V55.6963C122.641 57.2262 123.259 57.9907 124.494 57.99C125.418 57.99 126.393 57.6748 127.421 57.0445V59.5172C126.432 60.0892 125.314 60.3849 124.179 60.3749C123.002 60.3749 122.022 60.0211 121.239 59.3137C121 59.1083 120.795 58.8654 120.631 58.594C120.446 58.2673 120.31 57.9141 120.227 57.5462C120.122 57.1175 120.069 56.2959 120.069 55.0812V49.1479H117.806V48.8865Z" fill="white"/>
<path d="M140.933 60.1791V58.4605C140.406 59.0607 139.77 59.5486 139.06 59.8966C138.406 60.2265 137.688 60.4017 136.959 60.4094C136.16 60.4161 135.375 60.1972 134.688 59.7764C134.013 59.3746 133.468 58.7783 133.119 58.0612C132.765 57.3382 132.588 56.1383 132.589 54.4617V46.7998H135.162V54.4249C135.162 55.8287 135.358 56.8091 135.749 57.366C136.141 57.9229 136.826 58.2014 137.804 58.2014C139.03 58.2014 140.071 57.5855 140.929 56.3538V46.7998H143.503V60.1791H140.933Z" fill="white"/>
<path d="M146.179 67V46.7998H150.684C152.992 46.7998 154.788 47.3912 156.072 48.574C157.356 49.7568 157.999 51.4097 158 53.5328C158 55.5395 157.395 57.1876 156.185 58.4772C154.975 59.7668 153.434 60.4116 151.562 60.4116C150.733 60.4116 149.816 60.2225 148.809 59.8443V67H146.179ZM150.629 49.2714H148.809V57.5028C149.577 57.9146 150.431 58.1291 151.297 58.1279C152.501 58.1279 153.486 57.6967 154.253 56.8343C155.019 55.9718 155.402 54.8617 155.402 53.5039C155.419 52.698 155.233 51.9013 154.861 51.1914C154.531 50.5543 154.012 50.0422 153.38 49.7297C152.75 49.4249 151.833 49.2722 150.629 49.2714Z" fill="white"/>
</g>
<path d="M703.85 54.9034L704.182 54.1556L703.629 53.5522C702.885 52.7397 702.495 51.8147 702.495 50.8558C702.495 48.4292 705.194 45.9482 709.25 45.9482C713.306 45.9482 716.005 48.4292 716.005 50.8558C716.005 53.2824 713.306 55.7633 709.25 55.7633C707.86 55.7633 706.581 55.4478 705.514 54.9277L704.914 54.635L704.337 54.9711C704.128 55.0929 703.899 55.2114 703.651 55.3181C703.72 55.1837 703.787 55.0452 703.85 54.9034ZM720.807 59.828C720.87 59.9703 720.937 60.1092 721.006 60.2439C720.758 60.1373 720.529 60.0188 720.32 59.8972L719.741 59.5601L719.14 59.8551C718.077 60.3768 716.8 60.6894 715.407 60.6894C713.608 60.6894 712.03 60.1779 710.856 59.3916C715.28 58.8201 719.047 55.9281 719.652 51.9763C721.261 52.9277 722.162 54.3536 722.162 55.7818C722.162 56.742 721.771 57.6698 721.03 58.4765L720.476 59.0792L720.807 59.828Z" stroke="white" stroke-width="2.5"/>
<path d="M344.384 48.285H341.241V57H339.61V48.285H336.46V46.92H344.384V48.285ZM347.449 50.707C347.743 50.4177 348.065 50.1867 348.415 50.014C348.765 49.8367 349.173 49.748 349.64 49.748C350.032 49.748 350.375 49.8133 350.669 49.944C350.968 50.0747 351.217 50.259 351.418 50.497C351.623 50.735 351.777 51.022 351.88 51.358C351.983 51.6893 352.034 52.0557 352.034 52.457V57H350.536V52.457C350.536 51.9763 350.424 51.603 350.2 51.337C349.981 51.071 349.645 50.938 349.192 50.938C348.856 50.938 348.543 51.015 348.254 51.169C347.969 51.323 347.701 51.533 347.449 51.799V57H345.944V46.64H347.449V50.707ZM355.919 49.86V57H354.414V49.86H355.919ZM356.171 47.704C356.171 47.8393 356.143 47.9677 356.087 48.089C356.036 48.2103 355.964 48.3177 355.87 48.411C355.777 48.4997 355.667 48.572 355.541 48.628C355.42 48.6793 355.289 48.705 355.149 48.705C355.014 48.705 354.886 48.6793 354.764 48.628C354.648 48.572 354.545 48.4997 354.456 48.411C354.368 48.3177 354.295 48.2103 354.239 48.089C354.188 47.9677 354.162 47.8393 354.162 47.704C354.162 47.564 354.188 47.4333 354.239 47.312C354.295 47.1907 354.368 47.0857 354.456 46.997C354.545 46.9037 354.648 46.8313 354.764 46.78C354.886 46.724 355.014 46.696 355.149 46.696C355.289 46.696 355.42 46.724 355.541 46.78C355.667 46.8313 355.777 46.9037 355.87 46.997C355.964 47.0857 356.036 47.1907 356.087 47.312C356.143 47.4333 356.171 47.564 356.171 47.704ZM362.633 51.155C362.596 51.2203 362.554 51.267 362.507 51.295C362.461 51.323 362.402 51.337 362.332 51.337C362.253 51.337 362.167 51.3137 362.073 51.267C361.98 51.2157 361.87 51.1597 361.744 51.099C361.618 51.0383 361.469 50.9847 361.296 50.938C361.128 50.8867 360.93 50.861 360.701 50.861C360.515 50.861 360.344 50.8843 360.19 50.931C360.041 50.973 359.913 51.036 359.805 51.12C359.703 51.1993 359.623 51.295 359.567 51.407C359.511 51.5143 359.483 51.631 359.483 51.757C359.483 51.925 359.535 52.065 359.637 52.177C359.74 52.289 359.875 52.387 360.043 52.471C360.211 52.5503 360.403 52.6227 360.617 52.688C360.832 52.7533 361.051 52.8233 361.275 52.898C361.499 52.9727 361.719 53.059 361.933 53.157C362.148 53.255 362.339 53.3763 362.507 53.521C362.675 53.661 362.811 53.8337 362.913 54.039C363.016 54.2397 363.067 54.4847 363.067 54.774C363.067 55.11 363.007 55.4203 362.885 55.705C362.764 55.9897 362.587 56.237 362.353 56.447C362.12 56.657 361.828 56.8203 361.478 56.937C361.133 57.0537 360.736 57.112 360.288 57.112C360.041 57.112 359.801 57.0887 359.567 57.042C359.339 57 359.119 56.9417 358.909 56.867C358.704 56.7877 358.51 56.6943 358.328 56.587C358.151 56.4797 357.992 56.363 357.852 56.237L358.202 55.663C358.244 55.593 358.296 55.5393 358.356 55.502C358.422 55.46 358.501 55.439 358.594 55.439C358.692 55.439 358.788 55.4717 358.881 55.537C358.979 55.5977 359.091 55.6653 359.217 55.74C359.348 55.8147 359.504 55.8847 359.686 55.95C359.868 56.0107 360.095 56.041 360.365 56.041C360.589 56.041 360.783 56.0153 360.946 55.964C361.11 55.908 361.245 55.8333 361.352 55.74C361.46 55.6467 361.539 55.5417 361.59 55.425C361.642 55.3037 361.667 55.1753 361.667 55.04C361.667 54.858 361.616 54.7087 361.513 54.592C361.411 54.4753 361.273 54.375 361.1 54.291C360.932 54.207 360.739 54.1323 360.519 54.067C360.305 54.0017 360.085 53.9317 359.861 53.857C359.637 53.7823 359.416 53.696 359.196 53.598C358.982 53.5 358.788 53.3763 358.615 53.227C358.447 53.073 358.312 52.8887 358.209 52.674C358.107 52.4547 358.055 52.1887 358.055 51.876C358.055 51.5913 358.111 51.3207 358.223 51.064C358.34 50.8073 358.508 50.581 358.727 50.385C358.951 50.189 359.224 50.035 359.546 49.923C359.873 49.8063 360.249 49.748 360.673 49.748C361.154 49.748 361.59 49.825 361.982 49.979C362.374 50.133 362.703 50.343 362.969 50.609L362.633 51.155ZM370.656 49.86V57H369.151V49.86H370.656ZM370.908 47.704C370.908 47.8393 370.88 47.9677 370.824 48.089C370.773 48.2103 370.7 48.3177 370.607 48.411C370.514 48.4997 370.404 48.572 370.278 48.628C370.157 48.6793 370.026 48.705 369.886 48.705C369.751 48.705 369.622 48.6793 369.501 48.628C369.384 48.572 369.282 48.4997 369.193 48.411C369.104 48.3177 369.032 48.2103 368.976 48.089C368.925 47.9677 368.899 47.8393 368.899 47.704C368.899 47.564 368.925 47.4333 368.976 47.312C369.032 47.1907 369.104 47.0857 369.193 46.997C369.282 46.9037 369.384 46.8313 369.501 46.78C369.622 46.724 369.751 46.696 369.886 46.696C370.026 46.696 370.157 46.724 370.278 46.78C370.404 46.8313 370.514 46.9037 370.607 46.997C370.7 47.0857 370.773 47.1907 370.824 47.312C370.88 47.4333 370.908 47.564 370.908 47.704ZM377.37 51.155C377.333 51.2203 377.291 51.267 377.244 51.295C377.197 51.323 377.139 51.337 377.069 51.337C376.99 51.337 376.903 51.3137 376.81 51.267C376.717 51.2157 376.607 51.1597 376.481 51.099C376.355 51.0383 376.206 50.9847 376.033 50.938C375.865 50.8867 375.667 50.861 375.438 50.861C375.251 50.861 375.081 50.8843 374.927 50.931C374.778 50.973 374.649 51.036 374.542 51.12C374.439 51.1993 374.36 51.295 374.304 51.407C374.248 51.5143 374.22 51.631 374.22 51.757C374.22 51.925 374.271 52.065 374.374 52.177C374.477 52.289 374.612 52.387 374.78 52.471C374.948 52.5503 375.139 52.6227 375.354 52.688C375.569 52.7533 375.788 52.8233 376.012 52.898C376.236 52.9727 376.455 53.059 376.67 53.157C376.885 53.255 377.076 53.3763 377.244 53.521C377.412 53.661 377.547 53.8337 377.65 54.039C377.753 54.2397 377.804 54.4847 377.804 54.774C377.804 55.11 377.743 55.4203 377.622 55.705C377.501 55.9897 377.323 56.237 377.09 56.447C376.857 56.657 376.565 56.8203 376.215 56.937C375.87 57.0537 375.473 57.112 375.025 57.112C374.778 57.112 374.537 57.0887 374.304 57.042C374.075 57 373.856 56.9417 373.646 56.867C373.441 56.7877 373.247 56.6943 373.065 56.587C372.888 56.4797 372.729 56.363 372.589 56.237L372.939 55.663C372.981 55.593 373.032 55.5393 373.093 55.502C373.158 55.46 373.238 55.439 373.331 55.439C373.429 55.439 373.525 55.4717 373.618 55.537C373.716 55.5977 373.828 55.6653 373.954 55.74C374.085 55.8147 374.241 55.8847 374.423 55.95C374.605 56.0107 374.831 56.041 375.102 56.041C375.326 56.041 375.52 56.0153 375.683 55.964C375.846 55.908 375.982 55.8333 376.089 55.74C376.196 55.6467 376.276 55.5417 376.327 55.425C376.378 55.3037 376.404 55.1753 376.404 55.04C376.404 54.858 376.353 54.7087 376.25 54.592C376.147 54.4753 376.01 54.375 375.837 54.291C375.669 54.207 375.475 54.1323 375.256 54.067C375.041 54.0017 374.822 53.9317 374.598 53.857C374.374 53.7823 374.152 53.696 373.933 53.598C373.718 53.5 373.525 53.3763 373.352 53.227C373.184 53.073 373.049 52.8887 372.946 52.674C372.843 52.4547 372.792 52.1887 372.792 51.876C372.792 51.5913 372.848 51.3207 372.96 51.064C373.077 50.8073 373.245 50.581 373.464 50.385C373.688 50.189 373.961 50.035 374.283 49.923C374.61 49.8063 374.985 49.748 375.41 49.748C375.891 49.748 376.327 49.825 376.719 49.979C377.111 50.133 377.44 50.343 377.706 50.609L377.37 51.155ZM387.241 52.058C387.605 52.058 387.924 52.0113 388.2 51.918C388.48 51.8247 388.711 51.694 388.893 51.526C389.079 51.3533 389.219 51.1457 389.313 50.903C389.406 50.6603 389.453 50.3897 389.453 50.091C389.453 49.797 389.406 49.5333 389.313 49.3C389.224 49.0667 389.089 48.8683 388.907 48.705C388.725 48.5417 388.494 48.418 388.214 48.334C387.938 48.2453 387.614 48.201 387.241 48.201H385.743V52.058H387.241ZM387.241 46.92C387.899 46.92 388.468 46.997 388.949 47.151C389.434 47.305 389.833 47.522 390.146 47.802C390.463 48.0773 390.699 48.411 390.853 48.803C391.007 49.1903 391.084 49.6197 391.084 50.091C391.084 50.5717 391.002 51.0127 390.839 51.414C390.675 51.8107 390.433 52.1537 390.111 52.443C389.789 52.7277 389.387 52.9517 388.907 53.115C388.431 53.2737 387.875 53.353 387.241 53.353H385.743V57H384.105V46.92H387.241ZM400.21 54.753C400.298 54.753 400.375 54.788 400.441 54.858L401.092 55.565C400.681 56.0597 400.177 56.4423 399.58 56.713C398.982 56.979 398.268 57.112 397.438 57.112C396.7 57.112 396.033 56.986 395.436 56.734C394.843 56.4773 394.337 56.1227 393.917 55.67C393.497 55.2127 393.172 54.669 392.944 54.039C392.72 53.409 392.608 52.716 392.608 51.96C392.608 51.204 392.727 50.511 392.965 49.881C393.207 49.2463 393.546 48.7027 393.98 48.25C394.418 47.7927 394.941 47.438 395.548 47.186C396.159 46.934 396.831 46.808 397.564 46.808C398.292 46.808 398.933 46.927 399.489 47.165C400.049 47.3983 400.534 47.711 400.945 48.103L400.406 48.866C400.368 48.9173 400.324 48.9617 400.273 48.999C400.221 49.0363 400.151 49.055 400.063 49.055C399.969 49.055 399.862 49.013 399.741 48.929C399.624 48.8403 399.472 48.7447 399.286 48.642C399.104 48.5347 398.873 48.439 398.593 48.355C398.317 48.2663 397.972 48.222 397.557 48.222C397.076 48.222 396.635 48.306 396.234 48.474C395.832 48.642 395.487 48.887 395.198 49.209C394.908 49.531 394.682 49.923 394.519 50.385C394.36 50.847 394.281 51.372 394.281 51.96C394.281 52.5527 394.365 53.0823 394.533 53.549C394.701 54.011 394.932 54.403 395.226 54.725C395.52 55.0423 395.865 55.285 396.262 55.453C396.658 55.621 397.085 55.705 397.543 55.705C397.823 55.705 398.072 55.691 398.292 55.663C398.516 55.6303 398.721 55.5813 398.908 55.516C399.094 55.446 399.269 55.3597 399.433 55.257C399.601 55.1543 399.766 55.0283 399.93 54.879C400.023 54.795 400.116 54.753 400.21 54.753ZM403.816 46.248C404.026 46.6027 404.168 46.9737 404.243 47.361C404.317 47.7437 404.324 48.124 404.264 48.502C404.203 48.8753 404.075 49.2347 403.879 49.58C403.687 49.9253 403.431 50.2333 403.109 50.504L402.64 50.217C402.56 50.1657 402.523 50.1003 402.528 50.021C402.537 49.937 402.565 49.8717 402.612 49.825C402.719 49.6943 402.817 49.5287 402.906 49.328C402.994 49.1273 403.053 48.908 403.081 48.67C403.113 48.4273 403.106 48.173 403.06 47.907C403.018 47.641 402.917 47.3773 402.759 47.116C402.684 46.9947 402.663 46.8897 402.696 46.801C402.728 46.7123 402.796 46.6493 402.899 46.612L403.816 46.248ZM410.317 51.155C410.279 51.2203 410.237 51.267 410.191 51.295C410.144 51.323 410.086 51.337 410.016 51.337C409.936 51.337 409.85 51.3137 409.757 51.267C409.663 51.2157 409.554 51.1597 409.428 51.099C409.302 51.0383 409.152 50.9847 408.98 50.938C408.812 50.8867 408.613 50.861 408.385 50.861C408.198 50.861 408.028 50.8843 407.874 50.931C407.724 50.973 407.596 51.036 407.489 51.12C407.386 51.1993 407.307 51.295 407.251 51.407C407.195 51.5143 407.167 51.631 407.167 51.757C407.167 51.925 407.218 52.065 407.321 52.177C407.423 52.289 407.559 52.387 407.727 52.471C407.895 52.5503 408.086 52.6227 408.301 52.688C408.515 52.7533 408.735 52.8233 408.959 52.898C409.183 52.9727 409.402 53.059 409.617 53.157C409.831 53.255 410.023 53.3763 410.191 53.521C410.359 53.661 410.494 53.8337 410.597 54.039C410.699 54.2397 410.751 54.4847 410.751 54.774C410.751 55.11 410.69 55.4203 410.569 55.705C410.447 55.9897 410.27 56.237 410.037 56.447C409.803 56.657 409.512 56.8203 409.162 56.937C408.816 57.0537 408.42 57.112 407.972 57.112C407.724 57.112 407.484 57.0887 407.251 57.042C407.022 57 406.803 56.9417 406.593 56.867C406.387 56.7877 406.194 56.6943 406.012 56.587C405.834 56.4797 405.676 56.363 405.536 56.237L405.886 55.663C405.928 55.593 405.979 55.5393 406.04 55.502C406.105 55.46 406.184 55.439 406.278 55.439C406.376 55.439 406.471 55.4717 406.565 55.537C406.663 55.5977 406.775 55.6653 406.901 55.74C407.031 55.8147 407.188 55.8847 407.37 55.95C407.552 56.0107 407.778 56.041 408.049 56.041C408.273 56.041 408.466 56.0153 408.63 55.964C408.793 55.908 408.928 55.8333 409.036 55.74C409.143 55.6467 409.222 55.5417 409.274 55.425C409.325 55.3037 409.351 55.1753 409.351 55.04C409.351 54.858 409.299 54.7087 409.197 54.592C409.094 54.4753 408.956 54.375 408.784 54.291C408.616 54.207 408.422 54.1323 408.203 54.067C407.988 54.0017 407.769 53.9317 407.545 53.857C407.321 53.7823 407.099 53.696 406.88 53.598C406.665 53.5 406.471 53.3763 406.299 53.227C406.131 53.073 405.995 52.8887 405.893 52.674C405.79 52.4547 405.739 52.1887 405.739 51.876C405.739 51.5913 405.795 51.3207 405.907 51.064C406.023 50.8073 406.191 50.581 406.411 50.385C406.635 50.189 406.908 50.035 407.23 49.923C407.556 49.8063 407.932 49.748 408.357 49.748C408.837 49.748 409.274 49.825 409.666 49.979C410.058 50.133 410.387 50.343 410.653 50.609L410.317 51.155ZM421.034 51.155C420.997 51.2203 420.955 51.267 420.908 51.295C420.862 51.323 420.803 51.337 420.733 51.337C420.654 51.337 420.568 51.3137 420.474 51.267C420.381 51.2157 420.271 51.1597 420.145 51.099C420.019 51.0383 419.87 50.9847 419.697 50.938C419.529 50.8867 419.331 50.861 419.102 50.861C418.916 50.861 418.745 50.8843 418.591 50.931C418.442 50.973 418.314 51.036 418.206 51.12C418.104 51.1993 418.024 51.295 417.968 51.407C417.912 51.5143 417.884 51.631 417.884 51.757C417.884 51.925 417.936 52.065 418.038 52.177C418.141 52.289 418.276 52.387 418.444 52.471C418.612 52.5503 418.804 52.6227 419.018 52.688C419.233 52.7533 419.452 52.8233 419.676 52.898C419.9 52.9727 420.12 53.059 420.334 53.157C420.549 53.255 420.74 53.3763 420.908 53.521C421.076 53.661 421.212 53.8337 421.314 54.039C421.417 54.2397 421.468 54.4847 421.468 54.774C421.468 55.11 421.408 55.4203 421.286 55.705C421.165 55.9897 420.988 56.237 420.754 56.447C420.521 56.657 420.229 56.8203 419.879 56.937C419.534 57.0537 419.137 57.112 418.689 57.112C418.442 57.112 418.202 57.0887 417.968 57.042C417.74 57 417.52 56.9417 417.31 56.867C417.105 56.7877 416.911 56.6943 416.729 56.587C416.552 56.4797 416.393 56.363 416.253 56.237L416.603 55.663C416.645 55.593 416.697 55.5393 416.757 55.502C416.823 55.46 416.902 55.439 416.995 55.439C417.093 55.439 417.189 55.4717 417.282 55.537C417.38 55.5977 417.492 55.6653 417.618 55.74C417.749 55.8147 417.905 55.8847 418.087 55.95C418.269 56.0107 418.496 56.041 418.766 56.041C418.99 56.041 419.184 56.0153 419.347 55.964C419.511 55.908 419.646 55.8333 419.753 55.74C419.861 55.6467 419.94 55.5417 419.991 55.425C420.043 55.3037 420.068 55.1753 420.068 55.04C420.068 54.858 420.017 54.7087 419.914 54.592C419.812 54.4753 419.674 54.375 419.501 54.291C419.333 54.207 419.14 54.1323 418.92 54.067C418.706 54.0017 418.486 53.9317 418.262 53.857C418.038 53.7823 417.817 53.696 417.597 53.598C417.383 53.5 417.189 53.3763 417.016 53.227C416.848 53.073 416.713 52.8887 416.61 52.674C416.508 52.4547 416.456 52.1887 416.456 51.876C416.456 51.5913 416.512 51.3207 416.624 51.064C416.741 50.8073 416.909 50.581 417.128 50.385C417.352 50.189 417.625 50.035 417.947 49.923C418.274 49.8063 418.65 49.748 419.074 49.748C419.555 49.748 419.991 49.825 420.383 49.979C420.775 50.133 421.104 50.343 421.37 50.609L421.034 51.155ZM424.948 55.208C425.158 55.4787 425.386 55.67 425.634 55.782C425.886 55.8893 426.163 55.943 426.467 55.943C427.055 55.943 427.512 55.7283 427.839 55.299C428.17 54.8697 428.336 54.2303 428.336 53.381C428.336 52.9423 428.298 52.569 428.224 52.261C428.149 51.9483 428.042 51.694 427.902 51.498C427.762 51.302 427.591 51.1597 427.391 51.071C427.19 50.9823 426.964 50.938 426.712 50.938C426.329 50.938 425.998 51.022 425.718 51.19C425.442 51.3533 425.186 51.589 424.948 51.897V55.208ZM424.871 50.896C425.169 50.546 425.508 50.2637 425.886 50.049C426.268 49.8343 426.712 49.727 427.216 49.727C427.617 49.727 427.981 49.8087 428.308 49.972C428.634 50.1307 428.914 50.364 429.148 50.672C429.381 50.98 429.561 51.3627 429.687 51.82C429.817 52.2727 429.883 52.793 429.883 53.381C429.883 53.9083 429.81 54.4007 429.666 54.858C429.526 55.3107 429.323 55.705 429.057 56.041C428.791 56.3723 428.469 56.6337 428.091 56.825C427.713 57.0117 427.286 57.105 426.81 57.105C426.39 57.105 426.033 57.0373 425.739 56.902C425.449 56.7667 425.186 56.58 424.948 56.342V59.373H423.443V49.86H424.353C424.558 49.86 424.689 49.9557 424.745 50.147L424.871 50.896ZM435.72 53.878C435.183 53.8967 434.731 53.941 434.362 54.011C433.993 54.0763 433.695 54.1627 433.466 54.27C433.237 54.3727 433.072 54.4963 432.969 54.641C432.871 54.7857 432.822 54.9443 432.822 55.117C432.822 55.285 432.848 55.4297 432.899 55.551C432.955 55.6677 433.03 55.7657 433.123 55.845C433.221 55.9197 433.333 55.9757 433.459 56.013C433.59 56.0457 433.732 56.062 433.886 56.062C434.278 56.062 434.614 55.9897 434.894 55.845C435.179 55.6957 435.454 55.481 435.72 55.201V53.878ZM431.73 50.854C432.537 50.1027 433.499 49.727 434.614 49.727C435.025 49.727 435.389 49.7947 435.706 49.93C436.028 50.0607 436.296 50.2473 436.511 50.49C436.73 50.7327 436.896 51.022 437.008 51.358C437.125 51.6893 437.183 52.058 437.183 52.464V57H436.511C436.366 57 436.257 56.979 436.182 56.937C436.107 56.8903 436.044 56.7993 435.993 56.664L435.846 56.083C435.664 56.2463 435.484 56.3933 435.307 56.524C435.13 56.65 434.945 56.7573 434.754 56.846C434.567 56.9347 434.364 57 434.145 57.042C433.93 57.0887 433.692 57.112 433.431 57.112C433.142 57.112 432.871 57.0723 432.619 56.993C432.372 56.9137 432.157 56.7947 431.975 56.636C431.793 56.4727 431.648 56.272 431.541 56.034C431.438 55.796 431.387 55.516 431.387 55.194C431.387 54.9187 431.459 54.6503 431.604 54.389C431.753 54.1277 431.996 53.8943 432.332 53.689C432.673 53.479 433.118 53.3063 433.669 53.171C434.224 53.0357 434.908 52.9587 435.72 52.94V52.464C435.72 51.9507 435.61 51.568 435.391 51.316C435.172 51.064 434.85 50.938 434.425 50.938C434.136 50.938 433.893 50.9753 433.697 51.05C433.501 51.12 433.331 51.197 433.186 51.281C433.041 51.365 432.913 51.4443 432.801 51.519C432.689 51.589 432.57 51.624 432.444 51.624C432.341 51.624 432.253 51.5983 432.178 51.547C432.108 51.491 432.05 51.4233 432.003 51.344L431.73 50.854ZM444.553 51.26C444.506 51.3207 444.462 51.3673 444.42 51.4C444.378 51.4327 444.317 51.449 444.238 51.449C444.159 51.449 444.075 51.421 443.986 51.365C443.902 51.309 443.799 51.2483 443.678 51.183C443.561 51.113 443.419 51.05 443.251 50.994C443.083 50.938 442.873 50.91 442.621 50.91C442.294 50.91 442.007 50.9683 441.76 51.085C441.517 51.2017 441.312 51.3697 441.144 51.589C440.981 51.8037 440.857 52.0673 440.773 52.38C440.694 52.688 440.654 53.0357 440.654 53.423C440.654 53.8243 440.698 54.1813 440.787 54.494C440.876 54.8067 441.002 55.0703 441.165 55.285C441.333 55.4997 441.534 55.663 441.767 55.775C442.005 55.887 442.271 55.943 442.565 55.943C442.854 55.943 443.09 55.908 443.272 55.838C443.454 55.768 443.606 55.691 443.727 55.607C443.848 55.523 443.951 55.446 444.035 55.376C444.124 55.306 444.217 55.271 444.315 55.271C444.436 55.271 444.53 55.3177 444.595 55.411L445.022 55.964C444.849 56.174 444.658 56.3513 444.448 56.496C444.238 56.6407 444.016 56.7597 443.783 56.853C443.55 56.9417 443.307 57.0047 443.055 57.042C442.803 57.084 442.549 57.105 442.292 57.105C441.849 57.105 441.433 57.0233 441.046 56.86C440.663 56.692 440.327 56.4517 440.038 56.139C439.753 55.8217 439.527 55.4367 439.359 54.984C439.196 54.5267 439.114 54.0063 439.114 53.423C439.114 52.8957 439.189 52.408 439.338 51.96C439.487 51.5073 439.704 51.1177 439.989 50.791C440.278 50.4643 440.635 50.21 441.06 50.028C441.485 49.8413 441.975 49.748 442.53 49.748C443.048 49.748 443.503 49.832 443.895 50C444.292 50.168 444.644 50.406 444.952 50.714L444.553 51.26ZM451.352 52.625C451.352 52.373 451.315 52.1397 451.24 51.925C451.17 51.7057 451.065 51.5167 450.925 51.358C450.785 51.1947 450.61 51.0687 450.4 50.98C450.195 50.8867 449.957 50.84 449.686 50.84C449.14 50.84 448.711 50.9963 448.398 51.309C448.086 51.6217 447.887 52.0603 447.803 52.625H451.352ZM447.761 53.549C447.78 53.955 447.843 54.3073 447.95 54.606C448.058 54.9 448.2 55.145 448.377 55.341C448.559 55.537 448.774 55.684 449.021 55.782C449.273 55.8753 449.553 55.922 449.861 55.922C450.155 55.922 450.41 55.8893 450.624 55.824C450.839 55.754 451.026 55.6793 451.184 55.6C451.343 55.516 451.478 55.4413 451.59 55.376C451.702 55.306 451.805 55.271 451.898 55.271C452.02 55.271 452.113 55.3177 452.178 55.411L452.605 55.964C452.428 56.174 452.227 56.3513 452.003 56.496C451.779 56.6407 451.541 56.7597 451.289 56.853C451.037 56.9417 450.778 57.0047 450.512 57.042C450.246 57.084 449.987 57.105 449.735 57.105C449.241 57.105 448.781 57.0233 448.356 56.86C447.936 56.692 447.57 56.447 447.257 56.125C446.949 55.803 446.707 55.404 446.529 54.928C446.357 54.452 446.27 53.9037 446.27 53.283C446.27 52.7883 446.347 52.3263 446.501 51.897C446.66 51.4677 446.884 51.0943 447.173 50.777C447.467 50.4597 447.822 50.21 448.237 50.028C448.657 49.8413 449.131 49.748 449.658 49.748C450.097 49.748 450.503 49.8203 450.876 49.965C451.25 50.105 451.572 50.3127 451.842 50.588C452.113 50.8633 452.323 51.2017 452.472 51.603C452.626 51.9997 452.703 52.4523 452.703 52.961C452.703 53.1943 452.678 53.3507 452.626 53.43C452.575 53.5093 452.482 53.549 452.346 53.549H447.761Z" fill="#363B3F"/>
<path d="M382.908 60.57H453.746V61.242H382.908V60.57Z" fill="#363B3F"/>
<path d="M80.716 117H79.636V113.004H75.244V117H74.164V108.432H75.244V112.056H79.636V108.432H80.716V117ZM90.5465 113.772C90.5465 114.836 90.2745 115.66 89.7305 116.244C89.1945 116.828 88.4665 117.12 87.5465 117.12C86.9785 117.12 86.4705 116.992 86.0225 116.736C85.5825 116.472 85.2345 116.092 84.9785 115.596C84.7225 115.092 84.5945 114.484 84.5945 113.772C84.5945 112.708 84.8625 111.888 85.3985 111.312C85.9345 110.736 86.6625 110.448 87.5825 110.448C88.1665 110.448 88.6785 110.58 89.1185 110.844C89.5665 111.1 89.9145 111.476 90.1625 111.972C90.4185 112.46 90.5465 113.06 90.5465 113.772ZM85.6865 113.772C85.6865 114.532 85.8345 115.136 86.1305 115.584C86.4345 116.024 86.9145 116.244 87.5705 116.244C88.2185 116.244 88.6945 116.024 88.9985 115.584C89.3025 115.136 89.4545 114.532 89.4545 113.772C89.4545 113.012 89.3025 112.416 88.9985 111.984C88.6945 111.552 88.2145 111.336 87.5585 111.336C86.9025 111.336 86.4265 111.552 86.1305 111.984C85.8345 112.416 85.6865 113.012 85.6865 113.772ZM101.316 110.448C102.044 110.448 102.588 110.636 102.948 111.012C103.308 111.38 103.488 111.98 103.488 112.812V117H102.444V112.86C102.444 111.844 102.008 111.336 101.136 111.336C100.512 111.336 100.064 111.516 99.7922 111.876C99.5282 112.236 99.3962 112.76 99.3962 113.448V117H98.3522V112.86C98.3522 111.844 97.9122 111.336 97.0322 111.336C96.3842 111.336 95.9362 111.536 95.6882 111.936C95.4402 112.336 95.3162 112.912 95.3162 113.664V117H94.2602V110.568H95.1122L95.2682 111.444H95.3282C95.5282 111.108 95.7962 110.86 96.1322 110.7C96.4762 110.532 96.8402 110.448 97.2242 110.448C98.2322 110.448 98.8882 110.808 99.1922 111.528H99.2522C99.4682 111.16 99.7602 110.888 100.128 110.712C100.504 110.536 100.9 110.448 101.316 110.448ZM109.999 110.448C110.551 110.448 111.023 110.568 111.415 110.808C111.815 111.048 112.119 111.388 112.327 111.828C112.543 112.26 112.651 112.768 112.651 113.352V113.988H108.247C108.263 114.716 108.447 115.272 108.799 115.656C109.159 116.032 109.659 116.22 110.299 116.22C110.707 116.22 111.067 116.184 111.379 116.112C111.699 116.032 112.027 115.92 112.363 115.776V116.7C112.035 116.844 111.711 116.948 111.391 117.012C111.071 117.084 110.691 117.12 110.251 117.12C109.643 117.12 109.103 116.996 108.631 116.748C108.167 116.5 107.803 116.132 107.539 115.644C107.283 115.148 107.155 114.544 107.155 113.832C107.155 113.128 107.271 112.524 107.503 112.02C107.743 111.516 108.075 111.128 108.499 110.856C108.931 110.584 109.431 110.448 109.999 110.448ZM109.987 111.312C109.483 111.312 109.083 111.476 108.787 111.804C108.499 112.124 108.327 112.572 108.271 113.148H111.547C111.539 112.604 111.411 112.164 111.163 111.828C110.915 111.484 110.523 111.312 109.987 111.312ZM121.066 114.672L125.59 112.788L121.066 110.64V109.704L126.718 112.524V113.124L121.066 115.608V114.672ZM137.962 108.432C139.082 108.432 139.898 108.652 140.41 109.092C140.922 109.532 141.178 110.152 141.178 110.952C141.178 111.424 141.07 111.868 140.854 112.284C140.646 112.692 140.29 113.024 139.786 113.28C139.29 113.536 138.614 113.664 137.758 113.664H136.774V117H135.694V108.432H137.962ZM137.866 109.356H136.774V112.74H137.638C138.454 112.74 139.062 112.608 139.462 112.344C139.862 112.08 140.062 111.632 140.062 111C140.062 110.448 139.886 110.036 139.534 109.764C139.182 109.492 138.626 109.356 137.866 109.356ZM147.34 110.448C147.892 110.448 148.364 110.568 148.756 110.808C149.156 111.048 149.46 111.388 149.668 111.828C149.884 112.26 149.992 112.768 149.992 113.352V113.988H145.588C145.604 114.716 145.788 115.272 146.14 115.656C146.5 116.032 147 116.22 147.64 116.22C148.048 116.22 148.408 116.184 148.72 116.112C149.04 116.032 149.368 115.92 149.704 115.776V116.7C149.376 116.844 149.052 116.948 148.732 117.012C148.412 117.084 148.032 117.12 147.592 117.12C146.984 117.12 146.444 116.996 145.972 116.748C145.508 116.5 145.144 116.132 144.88 115.644C144.624 115.148 144.496 114.544 144.496 113.832C144.496 113.128 144.612 112.524 144.844 112.02C145.084 111.516 145.416 111.128 145.84 110.856C146.272 110.584 146.772 110.448 147.34 110.448ZM147.328 111.312C146.824 111.312 146.424 111.476 146.128 111.804C145.84 112.124 145.668 112.572 145.612 113.148H148.888C148.88 112.604 148.752 112.164 148.504 111.828C148.256 111.484 147.864 111.312 147.328 111.312ZM156.669 110.448C156.789 110.448 156.917 110.456 157.053 110.472C157.197 110.48 157.321 110.496 157.425 110.52L157.293 111.492C157.189 111.468 157.073 111.448 156.945 111.432C156.825 111.416 156.709 111.408 156.597 111.408C156.269 111.408 155.961 111.5 155.673 111.684C155.385 111.86 155.153 112.112 154.977 112.44C154.809 112.76 154.725 113.136 154.725 113.568V117H153.669V110.568H154.533L154.653 111.744H154.701C154.909 111.392 155.177 111.088 155.505 110.832C155.833 110.576 156.221 110.448 156.669 110.448ZM164.854 115.224C164.854 115.848 164.622 116.32 164.158 116.64C163.694 116.96 163.07 117.12 162.286 117.12C161.838 117.12 161.45 117.084 161.122 117.012C160.802 116.94 160.518 116.84 160.27 116.712V115.752C160.526 115.88 160.834 116 161.194 116.112C161.562 116.216 161.934 116.268 162.31 116.268C162.846 116.268 163.234 116.184 163.474 116.016C163.714 115.84 163.834 115.608 163.834 115.32C163.834 115.16 163.79 115.016 163.702 114.888C163.614 114.76 163.454 114.632 163.222 114.504C162.998 114.376 162.674 114.232 162.25 114.072C161.834 113.912 161.478 113.752 161.182 113.592C160.886 113.432 160.658 113.24 160.498 113.016C160.338 112.792 160.258 112.504 160.258 112.152C160.258 111.608 160.478 111.188 160.918 110.892C161.366 110.596 161.95 110.448 162.67 110.448C163.062 110.448 163.426 110.488 163.762 110.568C164.106 110.64 164.426 110.744 164.722 110.88L164.362 111.72C164.09 111.608 163.806 111.512 163.51 111.432C163.214 111.352 162.91 111.312 162.598 111.312C162.166 111.312 161.834 111.384 161.602 111.528C161.378 111.664 161.266 111.852 161.266 112.092C161.266 112.268 161.318 112.42 161.422 112.548C161.526 112.668 161.698 112.788 161.938 112.908C162.186 113.02 162.514 113.156 162.922 113.316C163.33 113.468 163.678 113.624 163.966 113.784C164.254 113.944 164.474 114.14 164.626 114.372C164.778 114.596 164.854 114.88 164.854 115.224ZM174.04 113.772C174.04 114.836 173.768 115.66 173.224 116.244C172.688 116.828 171.96 117.12 171.04 117.12C170.472 117.12 169.964 116.992 169.516 116.736C169.076 116.472 168.728 116.092 168.472 115.596C168.216 115.092 168.088 114.484 168.088 113.772C168.088 112.708 168.356 111.888 168.892 111.312C169.428 110.736 170.156 110.448 171.076 110.448C171.66 110.448 172.172 110.58 172.612 110.844C173.06 111.1 173.408 111.476 173.656 111.972C173.912 112.46 174.04 113.06 174.04 113.772ZM169.18 113.772C169.18 114.532 169.328 115.136 169.624 115.584C169.928 116.024 170.408 116.244 171.064 116.244C171.712 116.244 172.188 116.024 172.492 115.584C172.796 115.136 172.948 114.532 172.948 113.772C172.948 113.012 172.796 112.416 172.492 111.984C172.188 111.552 171.708 111.336 171.052 111.336C170.396 111.336 169.92 111.552 169.624 111.984C169.328 112.416 169.18 113.012 169.18 113.772ZM180.85 110.448C181.618 110.448 182.198 110.636 182.59 111.012C182.982 111.38 183.178 111.98 183.178 112.812V117H182.134V112.884C182.134 111.852 181.654 111.336 180.694 111.336C179.982 111.336 179.49 111.536 179.218 111.936C178.946 112.336 178.81 112.912 178.81 113.664V117H177.754V110.568H178.606L178.762 111.444H178.822C179.03 111.108 179.318 110.86 179.686 110.7C180.054 110.532 180.442 110.448 180.85 110.448ZM189.648 110.46C190.432 110.46 191.012 110.632 191.388 110.976C191.764 111.32 191.952 111.868 191.952 112.62V117H191.184L190.98 116.088H190.932C190.652 116.44 190.356 116.7 190.044 116.868C189.74 117.036 189.316 117.12 188.772 117.12C188.188 117.12 187.704 116.968 187.32 116.664C186.936 116.352 186.744 115.868 186.744 115.212C186.744 114.572 186.996 114.08 187.5 113.736C188.004 113.384 188.78 113.192 189.828 113.16L190.92 113.124V112.74C190.92 112.204 190.804 111.832 190.572 111.624C190.34 111.416 190.012 111.312 189.588 111.312C189.252 111.312 188.932 111.364 188.628 111.468C188.324 111.564 188.04 111.676 187.776 111.804L187.452 111.012C187.732 110.86 188.064 110.732 188.448 110.628C188.832 110.516 189.232 110.46 189.648 110.46ZM189.96 113.892C189.16 113.924 188.604 114.052 188.292 114.276C187.988 114.5 187.836 114.816 187.836 115.224C187.836 115.584 187.944 115.848 188.16 116.016C188.384 116.184 188.668 116.268 189.012 116.268C189.556 116.268 190.008 116.12 190.368 115.824C190.728 115.52 190.908 115.056 190.908 114.432V113.856L189.96 113.892ZM197.034 117H195.978V107.88H197.034V117ZM205.849 114.672L210.373 112.788L205.849 110.64V109.704L211.501 112.524V113.124L205.849 115.608V114.672ZM222.746 108.432C223.866 108.432 224.682 108.652 225.194 109.092C225.706 109.532 225.962 110.152 225.962 110.952C225.962 111.424 225.854 111.868 225.638 112.284C225.43 112.692 225.074 113.024 224.57 113.28C224.074 113.536 223.398 113.664 222.542 113.664H221.558V117H220.478V108.432H222.746ZM222.65 109.356H221.558V112.74H222.422C223.238 112.74 223.846 112.608 224.246 112.344C224.646 112.08 224.846 111.632 224.846 111C224.846 110.448 224.67 110.036 224.318 109.764C223.966 109.492 223.41 109.356 222.65 109.356ZM233.455 109.26C232.535 109.26 231.811 109.568 231.283 110.184C230.755 110.8 230.491 111.644 230.491 112.716C230.491 113.78 230.735 114.624 231.223 115.248C231.719 115.864 232.459 116.172 233.443 116.172C233.819 116.172 234.175 116.14 234.511 116.076C234.847 116.012 235.175 115.932 235.495 115.836V116.772C235.175 116.892 234.843 116.98 234.499 117.036C234.163 117.092 233.759 117.12 233.287 117.12C232.415 117.12 231.687 116.94 231.103 116.58C230.519 116.22 230.079 115.708 229.783 115.044C229.495 114.38 229.351 113.6 229.351 112.704C229.351 111.84 229.507 111.08 229.819 110.424C230.139 109.76 230.607 109.244 231.223 108.876C231.839 108.5 232.587 108.312 233.467 108.312C234.371 108.312 235.159 108.48 235.831 108.816L235.399 109.728C235.135 109.608 234.839 109.5 234.511 109.404C234.191 109.308 233.839 109.26 233.455 109.26ZM240.197 108.564C240.093 108.98 239.941 109.448 239.741 109.968C239.549 110.48 239.357 110.948 239.165 111.372H238.385C238.465 111.068 238.541 110.744 238.613 110.4C238.693 110.048 238.765 109.704 238.829 109.368C238.893 109.024 238.945 108.712 238.985 108.432H240.113L240.197 108.564ZM247.224 115.224C247.224 115.848 246.992 116.32 246.528 116.64C246.064 116.96 245.44 117.12 244.656 117.12C244.208 117.12 243.82 117.084 243.492 117.012C243.172 116.94 242.888 116.84 242.64 116.712V115.752C242.896 115.88 243.204 116 243.564 116.112C243.932 116.216 244.304 116.268 244.68 116.268C245.216 116.268 245.604 116.184 245.844 116.016C246.084 115.84 246.204 115.608 246.204 115.32C246.204 115.16 246.16 115.016 246.072 114.888C245.984 114.76 245.824 114.632 245.592 114.504C245.368 114.376 245.044 114.232 244.62 114.072C244.204 113.912 243.848 113.752 243.552 113.592C243.256 113.432 243.028 113.24 242.868 113.016C242.708 112.792 242.628 112.504 242.628 112.152C242.628 111.608 242.848 111.188 243.288 110.892C243.736 110.596 244.32 110.448 245.04 110.448C245.432 110.448 245.796 110.488 246.132 110.568C246.476 110.64 246.796 110.744 247.092 110.88L246.732 111.72C246.46 111.608 246.176 111.512 245.88 111.432C245.584 111.352 245.28 111.312 244.968 111.312C244.536 111.312 244.204 111.384 243.972 111.528C243.748 111.664 243.636 111.852 243.636 112.092C243.636 112.268 243.688 112.42 243.792 112.548C243.896 112.668 244.068 112.788 244.308 112.908C244.556 113.02 244.884 113.156 245.292 113.316C245.7 113.468 246.048 113.624 246.336 113.784C246.624 113.944 246.844 114.14 246.996 114.372C247.148 114.596 247.224 114.88 247.224 115.224ZM260.163 115.224C260.163 115.848 259.931 116.32 259.467 116.64C259.003 116.96 258.379 117.12 257.595 117.12C257.147 117.12 256.759 117.084 256.431 117.012C256.111 116.94 255.827 116.84 255.579 116.712V115.752C255.835 115.88 256.143 116 256.503 116.112C256.871 116.216 257.243 116.268 257.619 116.268C258.155 116.268 258.543 116.184 258.783 116.016C259.023 115.84 259.143 115.608 259.143 115.32C259.143 115.16 259.099 115.016 259.011 114.888C258.923 114.76 258.763 114.632 258.531 114.504C258.307 114.376 257.983 114.232 257.559 114.072C257.143 113.912 256.787 113.752 256.491 113.592C256.195 113.432 255.967 113.24 255.807 113.016C255.647 112.792 255.567 112.504 255.567 112.152C255.567 111.608 255.787 111.188 256.227 110.892C256.675 110.596 257.259 110.448 257.979 110.448C258.371 110.448 258.735 110.488 259.071 110.568C259.415 110.64 259.735 110.744 260.031 110.88L259.671 111.72C259.399 111.608 259.115 111.512 258.819 111.432C258.523 111.352 258.219 111.312 257.907 111.312C257.475 111.312 257.143 111.384 256.911 111.528C256.687 111.664 256.575 111.852 256.575 112.092C256.575 112.268 256.627 112.42 256.731 112.548C256.835 112.668 257.007 112.788 257.247 112.908C257.495 113.02 257.823 113.156 258.231 113.316C258.639 113.468 258.987 113.624 259.275 113.784C259.563 113.944 259.783 114.14 259.935 114.372C260.087 114.596 260.163 114.88 260.163 115.224ZM266.817 110.448C267.609 110.448 268.245 110.724 268.725 111.276C269.213 111.828 269.457 112.66 269.457 113.772C269.457 114.868 269.213 115.7 268.725 116.268C268.245 116.836 267.605 117.12 266.805 117.12C266.309 117.12 265.897 117.028 265.569 116.844C265.249 116.652 264.997 116.432 264.813 116.184H264.741C264.757 116.32 264.773 116.492 264.789 116.7C264.805 116.908 264.813 117.088 264.813 117.24V119.88H263.757V110.568H264.621L264.765 111.444H264.813C265.005 111.164 265.257 110.928 265.569 110.736C265.881 110.544 266.297 110.448 266.817 110.448ZM266.625 111.336C265.969 111.336 265.505 111.52 265.233 111.888C264.969 112.256 264.829 112.816 264.813 113.568V113.772C264.813 114.564 264.941 115.176 265.197 115.608C265.461 116.032 265.945 116.244 266.649 116.244C267.041 116.244 267.361 116.136 267.609 115.92C267.865 115.704 268.053 115.412 268.173 115.044C268.301 114.668 268.365 114.24 268.365 113.76C268.365 113.024 268.221 112.436 267.933 111.996C267.653 111.556 267.217 111.336 266.625 111.336ZM275.616 110.46C276.4 110.46 276.98 110.632 277.356 110.976C277.732 111.32 277.92 111.868 277.92 112.62V117H277.152L276.948 116.088H276.9C276.62 116.44 276.324 116.7 276.012 116.868C275.708 117.036 275.284 117.12 274.74 117.12C274.156 117.12 273.672 116.968 273.288 116.664C272.904 116.352 272.712 115.868 272.712 115.212C272.712 114.572 272.964 114.08 273.468 113.736C273.972 113.384 274.748 113.192 275.796 113.16L276.888 113.124V112.74C276.888 112.204 276.772 111.832 276.54 111.624C276.308 111.416 275.98 111.312 275.556 111.312C275.22 111.312 274.9 111.364 274.596 111.468C274.292 111.564 274.008 111.676 273.744 111.804L273.42 111.012C273.7 110.86 274.032 110.732 274.416 110.628C274.8 110.516 275.2 110.46 275.616 110.46ZM275.928 113.892C275.128 113.924 274.572 114.052 274.26 114.276C273.956 114.5 273.804 114.816 273.804 115.224C273.804 115.584 273.912 115.848 274.128 116.016C274.352 116.184 274.636 116.268 274.98 116.268C275.524 116.268 275.976 116.12 276.336 115.824C276.696 115.52 276.876 115.056 276.876 114.432V113.856L275.928 113.892ZM284.527 117.12C283.959 117.12 283.451 117.004 283.003 116.772C282.563 116.54 282.215 116.18 281.959 115.692C281.711 115.204 281.587 114.58 281.587 113.82C281.587 113.028 281.719 112.384 281.983 111.888C282.247 111.392 282.603 111.028 283.051 110.796C283.507 110.564 284.023 110.448 284.599 110.448C284.927 110.448 285.243 110.484 285.547 110.556C285.851 110.62 286.099 110.7 286.291 110.796L285.967 111.672C285.775 111.6 285.551 111.532 285.295 111.468C285.039 111.404 284.799 111.372 284.575 111.372C283.311 111.372 282.679 112.184 282.679 113.808C282.679 114.584 282.831 115.18 283.135 115.596C283.447 116.004 283.907 116.208 284.515 116.208C284.867 116.208 285.175 116.172 285.439 116.1C285.711 116.028 285.959 115.94 286.183 115.836V116.772C285.967 116.884 285.727 116.968 285.463 117.024C285.207 117.088 284.895 117.12 284.527 117.12ZM292.236 110.448C292.788 110.448 293.26 110.568 293.652 110.808C294.052 111.048 294.356 111.388 294.564 111.828C294.78 112.26 294.888 112.768 294.888 113.352V113.988H290.484C290.5 114.716 290.684 115.272 291.036 115.656C291.396 116.032 291.896 116.22 292.536 116.22C292.944 116.22 293.304 116.184 293.616 116.112C293.936 116.032 294.264 115.92 294.6 115.776V116.7C294.272 116.844 293.948 116.948 293.628 117.012C293.308 117.084 292.928 117.12 292.488 117.12C291.88 117.12 291.34 116.996 290.868 116.748C290.404 116.5 290.04 116.132 289.776 115.644C289.52 115.148 289.392 114.544 289.392 113.832C289.392 113.128 289.508 112.524 289.74 112.02C289.98 111.516 290.312 111.128 290.736 110.856C291.168 110.584 291.668 110.448 292.236 110.448ZM292.224 111.312C291.72 111.312 291.32 111.476 291.024 111.804C290.736 112.124 290.564 112.572 290.508 113.148H293.784C293.776 112.604 293.648 112.164 293.4 111.828C293.152 111.484 292.76 111.312 292.224 111.312ZM303.303 114.672L307.827 112.788L303.303 110.64V109.704L308.955 112.524V113.124L303.303 115.608V114.672ZM324.723 114.564C324.279 115.092 323.679 115.536 322.971 115.908C322.431 115.524 321.579 115.056 320.799 114.732C320.883 114.684 320.967 114.624 321.051 114.564H324.723ZM317.619 114.468H318.447V113.196H321.483C320.823 113.928 319.683 114.648 318.123 115.152C318.303 115.296 318.543 115.572 318.663 115.764C319.179 115.584 319.647 115.368 320.079 115.152C320.787 115.452 321.591 115.884 322.155 116.28C321.027 116.736 319.743 117.024 318.495 117.18C318.639 117.36 318.819 117.72 318.903 117.936C321.759 117.504 324.747 116.436 325.995 114.192L325.431 113.868L325.275 113.904H321.879C322.119 113.676 322.335 113.436 322.527 113.196H327.075V114.468H327.939V112.488H317.619V114.468ZM326.211 111.216H324.387V109.98H326.211V111.216ZM323.631 111.216H321.843V109.98H323.631V111.216ZM321.075 111.216H319.359V109.98H321.075V111.216ZM318.543 109.356V111.852H327.051V109.356H318.543ZM325.179 107.76V106.968H324.291V107.76H321.183V106.968H320.307V107.76H317.571V108.528H320.307V109.14H321.183V108.528H324.291V109.14H325.179V108.528H327.975V107.76H325.179ZM340.755 109.44H337.779V108.324H340.755V109.44ZM340.755 111.252H337.779V110.136H340.755V111.252ZM340.755 113.088H337.779V111.948H340.755V113.088ZM341.607 107.592H336.951V113.82H341.607V107.592ZM335.787 114.18C336.339 114.72 337.071 115.488 337.419 115.944L338.067 115.416C337.707 114.972 336.963 114.228 336.411 113.724L335.787 114.18ZM332.187 117.288C332.667 116.628 333.051 115.56 333.315 114.756L332.535 114.456C332.295 115.236 331.887 116.256 331.407 116.892L332.187 117.288ZM334.539 113.94V111.024C335.067 111.468 335.739 112.056 336.051 112.356L336.531 111.636C336.219 111.396 334.995 110.484 334.539 110.196V109.524H336.435V108.744H334.539V106.992H333.687V108.744H331.503V109.524H333.531C333.003 110.748 332.115 111.984 331.239 112.608C331.419 112.752 331.671 113.028 331.815 113.232C332.487 112.68 333.159 111.768 333.687 110.784V113.94H334.539ZM335.919 116.856C335.223 116.856 335.103 116.796 335.103 116.484V114.588H334.227V116.496C334.227 117.42 334.563 117.66 335.859 117.66H338.343C339.423 117.66 339.699 117.3 339.819 115.8C339.567 115.752 339.207 115.62 339.003 115.464C338.955 116.688 338.859 116.856 338.283 116.856H335.919ZM339.987 114.564C340.467 115.356 341.091 116.4 341.367 117.024L342.195 116.616C341.895 116.004 341.247 114.972 340.755 114.216L339.987 114.564ZM353.511 111.384V112.104H348.159V111.384H353.511ZM348.123 113.448C348.135 113.184 348.147 112.932 348.159 112.692H353.511V113.448H348.123ZM354.387 114.096V110.736H347.259V112.464C347.259 113.904 347.043 115.86 345.459 117.252C345.663 117.372 346.011 117.696 346.143 117.864C347.319 116.82 347.835 115.404 348.039 114.096H354.387ZM353.943 115.44V116.844H349.047V115.44H353.943ZM348.195 117.912H349.047V117.54H353.943V117.9H354.831V114.744H348.195V117.912ZM348.963 109.404C349.707 108.84 350.343 108.264 350.787 107.724C351.291 108.276 351.987 108.852 352.755 109.404H348.963ZM350.319 106.932C349.347 108.216 347.343 109.704 345.303 110.58C345.483 110.76 345.711 111.084 345.819 111.288C346.815 110.832 347.799 110.244 348.663 109.62V110.076H353.007V109.584C353.931 110.22 354.939 110.796 355.863 111.204C356.007 110.964 356.223 110.652 356.415 110.436C354.567 109.728 352.479 108.384 351.171 106.932H350.319ZM370.227 108.804V108.012H365.691V106.968H364.779V108.012H360.339V111.744C360.339 113.448 360.255 115.788 359.307 117.432C359.499 117.516 359.871 117.78 360.015 117.936C361.035 116.196 361.179 113.58 361.179 111.744V108.804H370.227ZM363.087 114.288V113.376H365.307V114.288H363.087ZM363.087 111.888H365.307V112.788H363.087V111.888ZM368.487 111.888V112.788H366.159V111.888H368.487ZM368.487 114.288H366.159V113.376H368.487V114.288ZM370.311 115.74H366.159V114.888H369.303V111.288H366.159V110.484H369.927V109.776H366.159V108.912H365.307V109.776H361.851V110.484H365.307V111.288H362.295V114.888H365.307V115.74H361.335V116.496H365.307V117.924H366.159V116.496H370.311V115.74Z" fill="#363B3F"/>
<path d="M316.767 118.8H370.887V119.4H316.767V118.8Z" fill="#363B3F"/>
<path d="M764.721 47.7721C764.721 50.3086 762.663 52.367 760.126 52.367C757.59 52.367 755.531 50.3086 755.531 47.7721C755.531 45.2356 757.59 43.1772 760.126 43.1772C762.663 43.1772 764.721 45.2356 764.721 47.7721ZM760.126 56.8153C761.268 56.8153 762.357 56.5809 763.347 56.1658H765.322C767.501 56.1658 769.267 57.9319 769.267 60.1113V60.7607C769.267 61.1459 768.954 61.459 768.569 61.459H751.684C751.298 61.459 750.985 61.1459 750.985 60.7607V60.1113C750.985 57.9319 752.751 56.1658 754.931 56.1658H756.906C757.897 56.5803 758.983 56.8153 760.126 56.8153Z" stroke="white" stroke-width="2.5"/>
<path d="M673.83 57.4844L673.83 57.4839C673.788 57.4392 673.741 57.3904 673.691 57.3373C673.311 56.9402 672.701 56.301 672.204 55.2957C671.638 54.1486 671.243 52.5965 671.243 50.3698C671.243 47.8408 669.48 45.8015 667.046 45.2959L666.05 45.089V44.072V43.2261C666.05 43.1985 666.028 43.1772 666.002 43.1772C665.977 43.1772 665.954 43.1985 665.954 43.2261V44.072V45.089L664.958 45.2959C662.524 45.8015 660.761 47.8408 660.761 50.3698C660.761 52.5965 660.367 54.1486 659.8 55.2957C659.304 56.301 658.693 56.9402 658.314 57.3374C658.263 57.3904 658.216 57.439 658.175 57.4837L673.83 57.4844ZM673.83 57.4844C673.833 57.4875 673.835 57.4902 673.837 57.4925C673.84 57.4959 673.842 57.4984 673.842 57.4998C673.844 57.5023 673.844 57.5033 673.844 57.5031C673.844 57.5021 673.844 57.5021 673.844 57.5053L673.844 57.5059M673.83 57.4844L673.844 57.5059M673.844 57.5059C673.844 57.5103 673.843 57.5189 673.839 57.5297C673.834 57.5405 673.829 57.5489 673.824 57.5541C673.821 57.5564 673.82 57.5578 673.819 57.5584L673.817 57.5593C673.817 57.5594 673.816 57.56 673.813 57.5606C673.81 57.5612 673.803 57.5624 673.791 57.5624H658.213C658.201 57.5624 658.195 57.5612 658.192 57.5606C658.189 57.56 658.187 57.5594 658.187 57.5594L658.186 57.5585C658.185 57.5579 658.183 57.5565 658.181 57.5542C658.176 57.549 658.17 57.5406 658.166 57.5296C658.161 57.5187 658.16 57.5099 658.16 57.5053M673.844 57.5059L658.16 57.5053M658.16 57.5053C658.16 57.5052 658.16 57.5052 658.16 57.5052C658.16 57.5022 658.161 57.5023 658.16 57.5034C658.16 57.5036 658.16 57.5025 658.162 57.4999C658.164 57.4973 658.167 57.4919 658.175 57.4839L658.16 57.5053ZM666.506 61.3613C666.351 61.4243 666.18 61.459 666.002 61.459C665.824 61.459 665.654 61.4243 665.498 61.3613H666.506Z" stroke="white" stroke-width="2.5"/>
<path d="M487.702 47.7256L491.858 51.8824L482.832 60.9089L479.126 61.3181C478.63 61.3729 478.21 60.9534 478.266 60.4573L478.678 56.7485L487.702 47.7256ZM494.43 47.1067L492.478 45.1549C491.869 44.546 490.881 44.546 490.273 45.1549L488.436 46.9911L492.593 51.148L494.43 49.3117C495.038 48.7026 495.038 47.7155 494.43 47.1067Z" fill="white"/>
<path d="M32.8154 48.0382H52.1128C52.5227 48.0382 52.855 47.7059 52.855 47.296V45.4404C52.855 45.0305 52.5227 44.6982 52.1128 44.6982H32.8154C32.4055 44.6982 32.0732 45.0305 32.0732 45.4404V47.296C32.0732 47.7059 32.4055 48.0382 32.8154 48.0382ZM32.8154 55.4602H52.1128C52.5227 55.4602 52.855 55.1279 52.855 54.718V52.8625C52.855 52.4526 52.5227 52.1203 52.1128 52.1203H32.8154C32.4055 52.1203 32.0732 52.4526 32.0732 52.8625V54.718C32.0732 55.1279 32.4055 55.4602 32.8154 55.4602ZM32.8154 62.8822H52.1128C52.5227 62.8822 52.855 62.55 52.855 62.14V60.2845C52.855 59.8746 52.5227 59.5423 52.1128 59.5423H32.8154C32.4055 59.5423 32.0732 59.8746 32.0732 60.2845V62.14C32.0732 62.55 32.4055 62.8822 32.8154 62.8822Z" fill="white"/>
<g filter="url(#filter1_d_377:1736)">
<rect x="129" y="162" width="137" height="138" rx="5" fill="url(#paint1_linear_377:1736)"/>
</g>
<g filter="url(#filter2_d_377:1736)">
<rect x="127" y="330" width="138" height="138" rx="5" fill="url(#paint2_linear_377:1736)"/>
</g>
<g filter="url(#filter3_d_377:1736)">
<rect x="334" y="162" width="138" height="138" rx="5" fill="url(#paint3_linear_377:1736)" shape-rendering="crispEdges"/>
</g>
<g filter="url(#filter4_d_377:1736)">
<rect x="541" y="162" width="139" height="138" rx="5" fill="url(#paint4_linear_377:1736)" shape-rendering="crispEdges"/>
</g>
<g filter="url(#filter5_d_377:1736)">
<rect x="334" y="330" width="137" height="138" rx="5" fill="url(#paint5_linear_377:1736)" shape-rendering="crispEdges"/>
</g>
<g filter="url(#filter6_d_377:1736)">
<rect x="539" y="330" width="139" height="138" rx="5" fill="url(#paint6_linear_377:1736)"/>
</g>
<path d="M376.358 392.85V393.522H374.286V392.85H376.358ZM374.286 395.216V394.544H376.358V395.216H374.286ZM377.912 396.336V391.73H372.634V404.19H374.286V396.336H377.912ZM380.39 395.216V394.544H382.546V395.216H380.39ZM382.546 392.85V393.522H380.39V392.85H382.546ZM377.03 399.542H379.662V400.284H377.03V399.542ZM384.226 391.73H378.794V396.336H382.546V402.314C382.546 402.468 382.504 402.51 382.378 402.51C382.294 402.524 382.126 402.524 381.916 402.524L381.944 402.314C381.594 402.244 381.034 402.048 380.782 401.852C380.754 402.58 380.698 402.678 380.53 402.678H380.124C379.956 402.678 379.942 402.65 379.942 402.356V401.236H381.034V399.416C381.104 399.472 381.174 399.514 381.244 399.556C381.468 399.29 381.944 398.842 382.266 398.632C381.44 398.254 380.67 397.554 380.362 396.742H377.576V397.904H379.536C379.69 398.142 379.872 398.38 380.082 398.604H376.624C376.96 398.198 377.254 397.75 377.464 397.316L376.176 397.008C375.896 397.68 375.252 398.408 374.51 398.828C374.79 399.01 375.21 399.374 375.448 399.612C375.546 399.556 375.644 399.486 375.742 399.416V401.236H376.498C376.344 402.034 375.952 402.538 374.538 402.832C374.818 403.084 375.182 403.63 375.322 403.938C377.1 403.406 377.646 402.552 377.842 401.236H378.57V402.37C378.57 403.504 378.794 403.854 379.872 403.854H380.712C381.272 403.854 381.608 403.686 381.79 403.14C381.902 403.504 381.972 403.91 382 404.19C382.742 404.19 383.288 404.148 383.694 403.868C384.128 403.588 384.226 403.098 384.226 402.342V391.73ZM396.266 393.27H393.732V394.236H400.718V393.284H397.89V392.794H401.082V391.772H397.89V391.156H396.266V391.772H393.256V392.794H396.266V393.27ZM395.804 395.454C395.692 395.762 395.398 395.902 394.614 395.958V395.454H395.804ZM399.654 395.79C399.626 395.818 399.556 395.832 399.416 395.832H398.688C398.464 395.832 398.436 395.804 398.436 395.552V395.454H399.654V395.79ZM394.614 396.77V396.028C394.754 396.196 394.908 396.448 394.95 396.63C396.238 396.504 396.658 396.126 396.77 395.454H397.414V395.538C397.414 396.252 397.624 396.434 398.534 396.434H399.57H399.654V396.77H394.614ZM393.312 397.596H401.026V394.642H393.312V397.596ZM392.514 391.576H388.93V392.836H392.514V391.576ZM392.892 393.452H388.272V394.768H392.892V393.452ZM392.556 395.398H388.846V396.672H392.556V395.398ZM388.846 398.562H392.556V397.316H388.846V398.562ZM391.198 400.55V402.16H390.092V400.55H391.198ZM392.528 399.248H388.804V404.022H390.092V403.462H392.528V399.248ZM395.244 400.858H399.108V401.292H395.244V400.858ZM395.244 399.822H399.108V400.256H395.244V399.822ZM395.244 398.8H399.108V399.22H395.244V398.8ZM400.648 402.146V397.946H393.774V402.146H395.118C394.46 402.566 393.452 403.014 392.556 403.238C392.878 403.504 393.34 403.924 393.592 404.204C394.628 403.924 395.902 403.322 396.672 402.734L395.72 402.146H398.282L397.526 402.762C398.45 403.21 399.528 403.812 400.116 404.19L401.502 403.336C400.914 403 399.962 402.552 399.066 402.146H400.648ZM408.782 392.584C408.222 392.122 407.102 391.534 406.248 391.212L405.338 392.444C406.22 392.822 407.312 393.466 407.816 393.956L408.782 392.584ZM408.096 396.308C407.536 395.832 406.374 395.286 405.506 394.978L404.624 396.224C405.506 396.602 406.612 397.218 407.144 397.694L408.096 396.308ZM406.472 404.022C407.256 402.65 408.082 401.04 408.782 399.556L407.522 398.52C406.724 400.158 405.716 401.922 405.016 402.986L406.472 404.022ZM411.316 400.564V399.892H415.124V400.564H411.316ZM415.124 398.212V398.828H411.316V398.212H415.124ZM416.706 396.994H409.776V404.19H411.316V401.67H415.124V402.538C415.124 402.706 415.054 402.748 414.872 402.748C414.69 402.762 414.032 402.762 413.458 402.748C413.64 403.126 413.85 403.742 413.906 404.162C414.872 404.162 415.572 404.148 416.062 403.91C416.58 403.686 416.706 403.294 416.706 402.552V396.994ZM413.892 395.286V394.712H416.916V393.592H413.892V393.06H417.294V391.87H413.892V391.142H412.24V391.87H409.02V393.06H412.24V393.592H409.398V394.712H412.24V395.286H408.586V396.476H417.742V395.286H413.892ZM431.49 393.494H429.488V392.682H431.49V393.494ZM433.044 391.688H428.018V394.488H433.044V391.688ZM425.61 393.494H423.65V392.682H425.61V393.494ZM427.164 391.688H422.166V394.488H427.164V391.688ZM424.294 399.01V398.254H426.66V399.01H424.294ZM424.294 396.322H426.66V397.064H424.294V396.322ZM430.888 397.064H428.368V396.322H430.888V397.064ZM430.888 399.01H428.368V398.254H430.888V399.01ZM433.814 401.012H428.368V400.284H432.596V395.034H422.67V400.284H426.66V401.012H421.34V402.44H426.66V404.218H428.368V402.44H433.814V401.012Z" fill="#363B3F"/>
<path d="M577.364 397.232H579.94V398.072H577.364V397.232ZM577.364 395.202H579.94V396.014H577.364V395.202ZM577.364 393.158H579.94V393.97H577.364V393.158ZM574.424 399.92C575.054 400.508 575.88 401.362 576.272 401.866L577.476 400.858C577.14 400.466 576.538 399.878 575.992 399.374H581.536V391.842H575.852V399.248L575.572 398.996L574.424 399.92ZM571.75 399.542H573.332V396.616C573.836 397.078 574.354 397.582 574.676 397.932L575.544 396.602C575.222 396.336 573.892 395.384 573.332 395.062V394.544H575.306V393.13H573.332V391.156H571.75V393.13H569.454V394.544H571.484C570.938 395.762 570.028 396.98 569.104 397.666C569.44 397.932 569.93 398.45 570.168 398.814C570.742 398.31 571.274 397.61 571.75 396.784V399.542ZM570.728 403.448C571.218 402.636 571.624 401.39 571.904 400.396L570.42 399.808C570.182 400.802 569.706 401.95 569.202 402.692L570.728 403.448ZM574.956 402.468C574.2 402.468 574.06 402.412 574.06 401.992V400.102H572.408V402.02C572.408 403.476 572.898 403.938 574.802 403.938H577.322C578.862 403.938 579.324 403.448 579.534 401.446C579.072 401.362 578.372 401.124 578.036 400.858C577.952 402.272 577.854 402.468 577.196 402.468H574.956ZM579.142 400.298C579.688 401.236 580.458 402.468 580.794 403.21L582.348 402.412C581.97 401.684 581.158 400.494 580.598 399.626L579.142 400.298ZM598.504 398.324V396.644H592.932V394.656H597.496V392.99H592.932V391.142H591.182V392.99H586.856V394.656H591.182V396.644H585.792V398.324H589.768C589.39 399.514 588.844 400.872 588.312 401.936L586.31 402.02L586.548 403.784C589.082 403.658 592.736 403.448 596.208 403.21C596.446 403.63 596.656 404.022 596.796 404.358L598.462 403.49C597.86 402.23 596.6 400.41 595.396 399.038L593.814 399.738C594.262 400.298 594.738 400.928 595.186 401.586C593.506 401.67 591.798 401.768 590.23 401.838C590.79 400.788 591.392 399.514 591.896 398.324H598.504ZM604.076 401.306V398.562H606.302V401.306H604.076ZM606.302 397.12H604.076V394.852H606.302V397.12ZM610.754 393.298C610.964 392.71 611.146 392.122 611.3 391.52L609.704 391.156C609.298 392.794 608.626 394.488 607.814 395.664V393.396H605.644C605.882 392.794 606.134 392.094 606.372 391.394L604.552 391.142C604.496 391.8 604.328 392.696 604.146 393.396H602.564V403.798H604.076V402.776H607.814V396.238C608.192 396.49 608.668 396.812 608.892 397.022C609.326 396.42 609.76 395.65 610.124 394.81H613.12C612.966 399.752 612.784 401.852 612.378 402.3C612.196 402.482 612.042 402.538 611.762 402.538C611.398 402.538 610.572 402.538 609.676 402.454C609.97 402.916 610.194 403.616 610.222 404.078C611.048 404.106 611.888 404.12 612.42 404.05C612.98 403.952 613.372 403.798 613.764 403.28C614.338 402.538 614.492 400.312 614.674 394.054C614.688 393.858 614.688 393.298 614.688 393.298H610.754ZM612.364 399.682C611.93 398.87 611.006 397.54 610.306 396.574L609.004 397.316C609.69 398.338 610.558 399.71 610.95 400.55L612.364 399.682ZM621.576 395.944H622.99V394.362H621.576V391.324H620.022V394.362H618.384V395.944H620.022V399.892C619.322 400.158 618.706 400.396 618.202 400.578L618.874 402.258C620.162 401.67 621.758 400.914 623.242 400.172L622.864 398.702C622.444 398.884 622.01 399.066 621.576 399.248V395.944ZM626.35 402.468C625.496 402.468 625.37 402.342 625.37 401.53V397.204L626.532 396.7V400.97H628.086V396.028L629.29 395.496C629.29 397.484 629.276 398.506 629.248 398.73C629.192 398.982 629.108 399.038 628.94 399.038C628.814 399.038 628.506 399.038 628.268 399.01C628.45 399.36 628.576 399.976 628.618 400.41C629.066 400.41 629.668 400.396 630.074 400.214C630.494 400.032 630.746 399.696 630.788 399.052C630.858 398.478 630.886 396.798 630.886 394.138L630.942 393.858L629.78 393.452L629.486 393.648L629.192 393.844L628.086 394.32V391.128H626.532V394.992L625.37 395.482V392.486H623.774V396.168L622.402 396.742L623.018 398.226L623.774 397.904V401.502C623.774 403.434 624.32 403.952 626.21 403.952H629.192C630.83 403.952 631.32 403.28 631.544 401.32C631.082 401.236 630.438 400.97 630.088 400.718C629.962 402.146 629.822 402.468 629.052 402.468H626.35ZM647.574 394.964V393.368H642.044V391.086H640.322V393.368H634.96V394.964H638.964C638.81 397.96 638.488 401.152 634.708 402.902C635.142 403.266 635.646 403.854 635.884 404.316C638.684 402.902 639.846 400.718 640.378 398.352H644.228C644.032 400.9 643.78 402.118 643.416 402.426C643.248 402.58 643.052 402.608 642.744 402.608C642.338 402.608 641.358 402.608 640.392 402.51C640.7 402.986 640.952 403.672 640.98 404.148C641.918 404.19 642.856 404.204 643.374 404.148C644.032 404.092 644.466 403.952 644.886 403.504C645.446 402.888 645.74 401.32 645.992 397.512C646.034 397.288 646.048 396.784 646.048 396.784H640.644C640.714 396.182 640.756 395.566 640.798 394.964H647.574Z" fill="#363B3F"/>
<line x1="365" y1="414.5" x2="441" y2="414.5" stroke="white"/>
<line x1="571" y1="414.5" x2="647" y2="414.5" stroke="white"/>
<path d="M172.08 230.336H172.682V231.582H172.08V230.336ZM171.408 232.534H173.368V229.37H171.408V232.534ZM173.438 227.718H171.366V228.74H173.438V227.718ZM168.58 232.198H169.56V230.882H168.552L168.51 229.692H169.56V228.362H168.482L168.454 227.312C168.916 227.13 169.406 226.934 169.896 226.71V233.514H168.622L168.58 232.198ZM173.774 227.018V233.514H171.058V227.018H173.774ZM178.828 235.04V233.514H177.708C177.848 231.33 177.946 228.264 177.974 225.8H175.272V227.144H176.504C176.504 227.536 176.504 227.956 176.49 228.362H175.314V229.692H176.462C176.462 230.098 176.448 230.49 176.434 230.882H175.314V232.198H176.378C176.35 232.66 176.336 233.108 176.308 233.514H174.978V225.772H169.896L169.392 225.17C169.056 225.45 168.58 225.758 168.104 226.038L166.998 225.842L167.222 233.514H166.046V235.04H169.812C168.902 235.726 167.348 236.566 166.074 237.042C166.48 237.364 167.068 237.882 167.39 238.218C168.664 237.7 170.358 236.79 171.45 235.992L170.106 235.04H174.432L173.326 236.02C174.754 236.692 176.322 237.63 177.218 238.218L178.842 237.07C177.89 236.524 176.294 235.698 174.852 235.04H178.828ZM190.252 228.18H189.258V227.046H190.252V228.18ZM193.696 229.23C193.598 230.07 193.43 230.854 193.234 231.554C192.996 230.91 192.8 230.224 192.66 229.538L191.568 229.79V229.23H193.696ZM191.568 229.86C191.82 231.036 192.156 232.184 192.604 233.192C192.31 233.752 191.96 234.242 191.568 234.62V229.86ZM189.258 233.5V231.904H190.252V233.304L189.258 233.5ZM190.252 230.644H189.258V229.44H190.252V230.644ZM186.346 233.332H187.578V231.876H186.346V230.616H187.662V229.146H186.108V227.998H187.438V227.046H187.97V233.752C187.648 233.808 187.354 233.864 187.088 233.906L187.368 235.264C188.236 235.054 189.23 234.816 190.252 234.578V236.048H191.568V234.774C191.862 235.026 192.254 235.544 192.408 235.852C192.758 235.516 193.094 235.124 193.388 234.648C193.738 235.166 194.13 235.614 194.564 235.978C194.774 235.614 195.18 235.124 195.502 234.872C194.956 234.48 194.466 233.934 194.06 233.276C194.62 231.904 194.984 230.168 195.166 228.124L194.34 227.886L194.088 227.928H191.568V227.046H194.032V225.646H187.354V226.556H186.108V225.142H184.61V226.556H182.804V227.998H184.61V229.146H182.496V230.616H184.904V234.536C184.652 234.144 184.442 233.668 184.26 233.08C184.274 232.534 184.26 231.988 184.246 231.47L182.888 231.4C182.958 233.332 182.916 235.572 182.062 237.224C182.398 237.378 182.916 237.868 183.126 238.204C183.56 237.434 183.826 236.58 184.008 235.684C185.156 237.476 186.906 237.84 189.622 237.84H194.788C194.886 237.35 195.166 236.58 195.418 236.216C194.214 236.258 190.644 236.244 189.636 236.244C188.278 236.244 187.2 236.16 186.346 235.768V233.332ZM201.858 233.416V230.014H203.174V228.446H201.858V225.282H200.29V228.446H198.848V230.014H200.29V233.99C199.632 234.228 199.03 234.438 198.54 234.592L199.072 236.272C200.416 235.754 202.096 235.068 203.664 234.396L203.314 232.87L201.858 233.416ZM209.25 234.144V236.034H205.652V234.144H209.25ZM204.07 238.19H205.652V237.546H209.25V238.134H210.916V232.66H204.07V238.19ZM208.802 228.194C208.69 228.754 208.48 229.468 208.298 229.958L208.956 230.126H205.904L206.576 229.958C206.534 229.482 206.338 228.768 206.086 228.194H208.802ZM209.824 230.126C210.048 229.664 210.286 229.034 210.552 228.404L209.642 228.194H211.49V226.71H208.228V225.198H206.576V226.71H203.342V228.194H205.47L204.532 228.404C204.728 228.936 204.91 229.608 204.98 230.126H202.964V231.624H211.742V230.126H209.824ZM225.224 235.558C224.902 235.796 224.552 236.048 224.202 236.258C223.642 236.076 223.138 235.852 222.732 235.558H225.224ZM219.414 236.51V235.558H220.982C221.206 235.852 221.444 236.104 221.724 236.342L219.414 236.51ZM223.698 233.234H219.414V232.758H223.698V233.234ZM219.414 234.55V234.074H223.698V234.55H219.414ZM223.25 230.938C223.46 231.232 223.684 231.498 223.936 231.764H222.326V231.19H220.744V231.764H219.274C219.526 231.498 219.764 231.232 219.96 230.938H223.25ZM227.758 230.938V229.706H222.396V229.23H226.4V228.068H222.396V227.578H227.044V226.36H224.762C225 226.108 225.252 225.814 225.504 225.478L223.656 225.128C223.516 225.464 223.236 225.982 222.998 226.346L223.054 226.36H220.016L220.17 226.304C220.016 225.94 219.68 225.422 219.344 225.086L217.888 225.548C218.07 225.786 218.252 226.08 218.406 226.36H216.026V227.578H220.688V228.068H216.726V229.23H220.688V229.706H215.354V230.938H218C217.202 231.708 216.096 232.338 214.92 232.772C215.256 233.052 215.802 233.654 216.04 233.976C216.628 233.71 217.216 233.402 217.762 233.024V236.608C217.216 236.65 216.726 236.678 216.292 236.692L216.46 238.12C218.098 237.994 220.31 237.798 222.424 237.602V236.874C223.586 237.63 225.098 238.05 226.974 238.232C227.184 237.798 227.576 237.168 227.884 236.832C227.1 236.79 226.358 236.72 225.686 236.608C226.176 236.328 226.694 236.006 227.156 235.67L225.938 234.984C225.784 235.124 225.588 235.278 225.378 235.446V232.954C225.924 233.318 226.512 233.612 227.114 233.822C227.352 233.416 227.814 232.828 228.164 232.506C227.002 232.212 225.91 231.638 225.098 230.938H227.758Z" fill="#363B3F"/>
<path d="M581.734 227.48V228.096H580.768V227.48H581.734ZM581.734 229.972H580.768V229.314H581.734V229.972ZM579.27 228.096H576.61V229.314H579.27V229.972H577.52V231.176H579.27V231.834H577.352V233.038H579.27V233.724H577.002V234.928H579.27V236.202H580.768V234.928H583.554V233.724H580.768V233.038H583.218V231.834H580.768V231.176H583.134V229.314H583.82V228.096H583.134V226.276H580.768V225.24H579.27V226.276H577.52V227.48H579.27V228.096ZM573.446 228.208C573.656 227.732 573.852 227.256 574.034 226.766V227.606H575.154C574.692 228.796 574.062 230.336 573.516 231.554L574.874 231.862L575.126 231.288H575.798C575.686 232.184 575.532 233.01 575.308 233.766C575.126 233.304 574.972 232.772 574.846 232.156L573.586 232.52C573.852 233.738 574.202 234.69 574.608 235.446C574.286 236.034 573.894 236.51 573.446 236.846V228.208ZM576.414 230.056L576.162 230.084H575.644C576.176 228.824 576.694 227.522 577.072 226.472L576.036 226.206L575.798 226.262H574.216C574.286 226.052 574.356 225.842 574.426 225.632L572.942 225.184C572.396 227.102 571.472 229.006 570.436 230.252C570.688 230.686 571.052 231.652 571.164 232.058C571.444 231.722 571.724 231.33 571.99 230.924V238.19H573.446V237.07C573.74 237.392 574.076 237.868 574.23 238.19C574.748 237.784 575.196 237.294 575.574 236.706C576.652 237.728 578.08 238.022 579.914 238.022H583.414C583.484 237.588 583.708 236.888 583.932 236.524C583.148 236.552 580.642 236.552 579.998 236.552C578.458 236.538 577.198 236.286 576.274 235.334C576.82 233.976 577.142 232.282 577.282 230.21L576.414 230.056ZM595.37 231.386H597.302V232.072H595.37V231.386ZM595.37 229.58H597.302V230.224H595.37V229.58ZM598.884 233.178V231.386H600.13V230.224H598.884V228.474H595.37V227.788H599.976V226.332H594.922V225.156H593.186V226.332H588.188V230.392C588.188 232.45 588.104 235.362 586.956 237.364C587.32 237.532 588.02 237.994 588.3 238.274C589.56 236.104 589.77 232.66 589.77 230.392V227.788H593.76V228.474H590.834V229.58H593.76V230.224H590.036V231.386H593.76V232.072H590.68V233.178H590.876L590.022 234.018C590.708 234.396 591.562 234.97 591.996 235.362L592.948 234.382C592.514 234.004 591.674 233.514 591.002 233.178H593.76V236.566C593.76 236.79 593.69 236.86 593.438 236.86C593.256 236.874 592.682 236.874 592.094 236.846C592.514 236.65 592.948 236.454 593.368 236.244L593.074 235.054C591.73 235.572 590.358 236.09 589.434 236.37L590.204 237.7C590.68 237.504 591.198 237.266 591.73 237.014C591.912 237.406 592.094 237.882 592.15 238.232C593.298 238.232 594.096 238.218 594.628 237.994C595.174 237.77 595.37 237.406 595.37 236.58V235.222C596.21 236.524 597.372 237.504 598.898 238.064C599.122 237.644 599.57 237.042 599.906 236.72C598.954 236.454 598.142 236.02 597.47 235.46C598.142 235.11 598.898 234.662 599.584 234.214L598.366 233.234C597.904 233.626 597.218 234.144 596.574 234.536C596.252 234.116 595.986 233.668 595.776 233.178H598.884ZM606.346 232.422H607.816V231.05H606.304L606.276 229.874H607.816V228.502H606.234L606.206 227.494C606.892 227.228 607.648 226.892 608.32 226.57V230.168H610.406V233.57H609.608V230.644H608.292V233.57H606.388L606.346 232.422ZM616.454 233.57H615.11C615.236 231.47 615.292 228.404 615.292 225.954H612.142V227.396H613.766C613.766 227.76 613.766 228.124 613.752 228.502H612.31V229.874H613.724C613.71 230.28 613.696 230.672 613.682 231.064H612.296V232.436H613.626C613.598 232.828 613.57 233.22 613.556 233.57H611.82V228.866H609.734V227.928H611.876V226.542H609.734V225.31H608.32V226.29L607.256 225.268C606.836 225.59 606.22 225.982 605.604 226.318L604.666 226.066L604.89 233.57H603.588V235.124H607.312C606.388 235.796 604.876 236.608 603.644 237.07C604.036 237.378 604.624 237.882 604.918 238.218C606.192 237.686 607.886 236.79 608.992 236.02L607.76 235.124H611.946L610.938 236.034C612.352 236.72 613.906 237.644 614.788 238.232L616.426 237.098C615.53 236.552 614.018 235.782 612.632 235.124H616.454V233.57ZM625.218 225.464C625.12 227.312 625.316 233.668 619.73 236.762C620.29 237.154 620.836 237.658 621.13 238.092C624.084 236.286 625.554 233.584 626.31 231.064C627.094 233.64 628.662 236.524 631.826 238.092C632.092 237.644 632.596 237.07 633.114 236.678C627.892 234.228 627.192 228.194 627.08 226.262C627.094 225.968 627.108 225.688 627.122 225.464H625.218ZM641.486 234.746C641.164 235.586 640.59 236.44 639.946 237.042C640.296 237.21 640.898 237.602 641.206 237.812C641.836 237.168 642.522 236.118 642.914 235.11L641.486 234.746ZM648.318 234.284V232.94H641.094V234.284H643.922V236.65C643.922 236.79 643.866 236.818 643.698 236.832C643.544 236.832 642.984 236.832 642.466 236.818C642.662 237.196 642.9 237.784 642.97 238.218C643.81 238.218 644.426 238.19 644.888 237.966C645.364 237.742 645.49 237.378 645.49 236.678V234.284H648.318ZM646.134 235.32C646.764 236.076 647.492 237.112 647.772 237.784L649.116 237.056C648.794 236.37 648.024 235.39 647.394 234.676L646.134 235.32ZM643.026 230.756C643.754 229.832 644.328 228.684 644.706 227.326C645.126 228.656 645.686 229.818 646.428 230.756H643.026ZM640.128 231.428C640.002 231.05 639.834 230.658 639.596 230.252C639.68 229.944 639.778 229.608 639.876 229.244C640.114 229.426 640.352 229.65 640.478 229.79C640.59 229.692 640.702 229.58 640.828 229.468C641.122 229.692 641.458 229.958 641.682 230.196C641.22 230.714 640.688 231.134 640.128 231.428ZM638.21 227.228H638.98C638.812 228.208 638.574 229.496 638.35 230.392C638.98 231.442 639.064 232.38 639.064 233.094C639.064 233.528 639.008 233.864 638.896 233.99C638.812 234.074 638.7 234.116 638.588 234.116C638.476 234.116 638.35 234.116 638.21 234.102V227.228ZM642.256 229.454C642.032 229.244 641.696 229.006 641.388 228.81C641.5 228.67 641.612 228.53 641.71 228.376C642.018 228.572 642.326 228.796 642.55 228.992C642.466 229.146 642.368 229.314 642.256 229.454ZM643.292 227.326C643.208 227.592 643.11 227.858 642.998 228.124C642.76 227.956 642.452 227.774 642.172 227.62C642.228 227.522 642.284 227.424 642.34 227.326H643.292ZM648.248 226.052L647.982 226.136H646.134V227.312H647.38C647.212 227.774 646.988 228.236 646.75 228.642C646.218 227.69 645.826 226.584 645.574 225.394L644.272 225.646C644.328 225.884 644.37 226.122 644.44 226.346L644.006 226.192L643.754 226.234H642.83C642.942 225.982 643.026 225.716 643.11 225.45L641.836 225.184C641.486 226.374 640.884 227.48 640.1 228.334C640.282 227.62 640.45 226.892 640.604 226.248L639.596 225.688L639.386 225.744H636.768V238.218H638.21V234.158C638.392 234.55 638.462 235.082 638.462 235.446C638.728 235.46 638.98 235.446 639.176 235.418C639.442 235.362 639.666 235.292 639.862 235.11C640.24 234.83 640.408 234.214 640.408 233.304C640.408 232.772 640.352 232.198 640.17 231.582C640.45 231.862 640.758 232.282 640.926 232.576C641.444 232.282 641.92 231.904 642.368 231.484V232.086H646.946V231.33C647.408 231.792 647.912 232.184 648.5 232.506C648.724 232.114 649.158 231.554 649.48 231.274C648.724 230.924 648.08 230.406 647.534 229.776C648.178 228.936 648.78 227.718 649.144 226.57L648.248 226.052Z" fill="#363B3F"/>
<path d="M379.34 235.572V228.334H384.044V226.598H372.858V228.334H377.436V235.572H372.102V237.252H384.828V235.572H379.34ZM391.338 225.198C390.638 227.186 389.42 229.174 388.146 230.434C388.44 230.854 388.916 231.806 389.07 232.212C389.35 231.904 389.644 231.554 389.938 231.204V238.204H391.618V228.614C392.136 227.676 392.598 226.682 392.962 225.702L391.338 225.198ZM401.376 229.006V227.424H395.944C396.21 226.85 396.434 226.276 396.63 225.688L395.02 225.282C394.39 227.284 393.284 229.3 392.052 230.56C392.402 230.826 393.06 231.414 393.326 231.722C393.956 230.994 394.6 230.042 395.16 229.006H395.692V238.218H397.4V235.11H401.208V233.57H397.4V231.988H401.026V230.476H397.4V229.006H401.376ZM414.746 234.2V234.844H411.526V234.2H414.746ZM411.526 236.552V235.922H414.746V236.552H411.526ZM409.944 238.218H411.526V237.784H414.746V238.176H416.398V233.01H409.944V238.218ZM410.84 229.776C411.036 230.21 411.218 230.784 411.288 231.162L412.24 230.84C412.17 230.504 411.974 229.93 411.778 229.51L410.84 229.776ZM414.648 231.134C414.83 230.77 415.068 230.294 415.334 229.776L414.228 229.496C414.144 229.888 413.948 230.476 413.794 230.868L414.648 231.134ZM415.502 231.33H413.612V229.3H415.502V231.33ZM410.686 229.3H412.436V231.33H410.686V229.3ZM414.242 226.822C414.55 227.256 414.914 227.704 415.292 228.11H410.812C411.148 227.676 411.456 227.214 411.708 226.738V226.822H414.242ZM411.708 225.422V226.262L410.462 225.884C409.986 226.878 409.118 227.886 408.25 228.502L408.264 228.516H407.634V225.352H406.01V228.516H404.736V230.098H406.01V233.92C405.436 234.158 404.918 234.368 404.498 234.522L405.03 236.202C406.29 235.614 407.83 234.886 409.244 234.186L408.838 232.688C408.446 232.87 408.04 233.052 407.634 233.22V230.098H408.684V228.936C408.936 229.202 409.188 229.496 409.314 229.678L409.412 229.594V232.52H416.874V229.454C417.126 229.062 417.574 228.488 417.896 228.194C416.804 227.606 415.684 226.5 415.082 225.422H411.708ZM432.204 231.428C433.492 231.428 433.926 230.91 434.108 229.118C433.66 229.02 432.974 228.754 432.638 228.502C432.582 229.72 432.484 229.93 432.036 229.93H430.51C429.978 229.93 429.894 229.874 429.894 229.37V228.544C431.112 228.18 432.414 227.732 433.478 227.228L432.414 226.024C431.756 226.388 430.832 226.822 429.894 227.186V225.184H428.242V229.398C428.242 230.938 428.634 231.428 430.272 231.428H432.204ZM423.398 234.326V233.5H425.498V234.326H423.398ZM425.498 231.54V232.268H423.398V231.54H425.498ZM427.136 230.168H421.858V238.204H423.398V235.558H425.498V236.496C425.498 236.664 425.442 236.706 425.274 236.706C425.092 236.72 424.532 236.734 424.042 236.706C424.238 237.098 424.49 237.742 424.574 238.176C425.414 238.176 426.058 238.162 426.534 237.896C426.996 237.658 427.136 237.252 427.136 236.524V230.168ZM425.036 226.598C425.26 226.962 425.484 227.354 425.694 227.746L423.832 227.83C424.182 227.088 424.56 226.248 424.882 225.436L423.146 225.086C422.908 225.94 422.516 227.018 422.124 227.9C421.732 227.914 421.368 227.928 421.032 227.928L421.172 229.51C422.6 229.426 424.504 229.314 426.352 229.188C426.464 229.454 426.548 229.706 426.604 229.93L428.13 229.314C427.864 228.404 427.122 227.074 426.436 226.08L425.036 226.598ZM430.524 236.664C429.978 236.664 429.88 236.594 429.88 236.104V234.984C431.154 234.592 432.54 234.088 433.618 233.5L432.512 232.282C431.84 232.73 430.874 233.192 429.88 233.598V231.708H428.242V236.104C428.242 237.644 428.648 238.12 430.286 238.12H432.274C433.618 238.12 434.038 237.574 434.22 235.6C433.786 235.488 433.114 235.236 432.764 234.984C432.694 236.398 432.596 236.664 432.12 236.664H430.524Z" fill="#363B3F"/>
<path d="M175.648 391.198C174.948 393.186 173.73 395.174 172.456 396.434C172.75 396.854 173.226 397.806 173.38 398.212C173.66 397.904 173.954 397.554 174.248 397.204V404.204H175.928V394.614C176.446 393.676 176.908 392.682 177.272 391.702L175.648 391.198ZM185.686 395.006V393.424H180.254C180.52 392.85 180.744 392.276 180.94 391.688L179.33 391.282C178.7 393.284 177.594 395.3 176.362 396.56C176.712 396.826 177.37 397.414 177.636 397.722C178.266 396.994 178.91 396.042 179.47 395.006H180.002V404.218H181.71V401.11H185.518V399.57H181.71V397.988H185.336V396.476H181.71V395.006H185.686ZM197.95 395.174H193.05V393.284H197.95V395.174ZM199.644 391.688H191.44V396.756H199.644V391.688ZM193.176 399.514V401.922H191.09V399.514H193.176ZM189.522 404.218H191.09V403.518H193.176V404.148H194.842V397.918H189.522V404.218ZM197.628 401.922V399.514H199.854V401.922H197.628ZM196.032 397.918V404.218H197.628V403.518H199.854V404.162H201.534V397.918H196.032ZM208.758 397.288H211.404V397.89H208.758V397.288ZM211.404 394.516H208.758V393.942H211.404V394.516ZM211.404 396.196H208.758V395.608H211.404V396.196ZM218.166 401.026V399.696H212.664V399.15H217.802V397.89H213V397.288H216.724V396.196H213V395.608H216.71V394.516H213V393.942H217.396V392.654H213.21C213.462 392.262 213.728 391.814 213.966 391.366L212.09 391.142C211.95 391.59 211.712 392.15 211.474 392.654H209.486C209.766 392.248 210.018 391.856 210.242 391.45L208.52 391.128C207.89 392.346 206.756 393.816 205.202 394.936C205.566 395.174 206.112 395.678 206.378 396.056C206.658 395.832 206.924 395.608 207.176 395.37V399.15H211.026V399.696H205.594V401.026H209.766C208.464 401.768 206.728 402.412 205.132 402.748C205.482 403.098 205.944 403.714 206.196 404.12C207.834 403.672 209.64 402.818 211.026 401.81V404.204H212.664V401.754C214.05 402.762 215.828 403.602 217.466 404.05C217.69 403.658 218.152 403.042 218.502 402.72C216.962 402.384 215.282 401.754 214.022 401.026H218.166Z" fill="#363B3F"/>
<path d="M241.762 227.168L244.74 230.146L238.274 236.611L235.62 236.904C235.264 236.944 234.964 236.643 235.004 236.288L235.299 233.631L241.762 227.168ZM246.581 226.725L245.183 225.327C244.747 224.891 244.04 224.891 243.604 225.327L242.288 226.642L245.266 229.62L246.581 228.305C247.017 227.868 247.017 227.161 246.581 226.725Z" fill="white"/>
<line x1="159" y1="246.5" x2="235" y2="246.5" stroke="white"/>
<line x1="158" y1="414.5" x2="234" y2="414.5" stroke="white"/>
<line x1="365" y1="246.5" x2="442" y2="246.5" stroke="white"/>
<line x1="572" y1="246.5" x2="648" y2="246.5" stroke="white"/>
<g filter="url(#filter7_dd_377:1736)">
<path d="M233.58 271.749V274.448C233.58 274.535 233.57 274.621 233.552 274.706L232.725 278.53C232.615 279.038 232.198 279.397 231.719 279.397H226.342C226.179 279.397 226.019 279.355 225.873 279.275C225.728 279.194 225.602 279.077 225.506 278.934L222.198 273.985C221.862 273.482 221.964 272.779 222.426 272.414C222.888 272.048 223.534 272.159 223.87 272.662L224.688 273.885V266.125C224.688 265.504 225.151 265 225.722 265C226.293 265 226.756 265.504 226.756 266.125V271.749H226.963V270.624C226.963 270.003 227.426 269.499 227.997 269.499C228.568 269.499 229.031 270.003 229.031 270.624V271.749H229.237V271.074C229.237 270.453 229.7 269.949 230.271 269.949C230.842 269.949 231.305 270.453 231.305 271.074V271.749H231.512C231.512 271.127 231.975 270.624 232.546 270.624C233.117 270.624 233.58 271.127 233.58 271.749ZM226.963 273.998H226.756V276.698H226.963V273.998ZM229.237 273.998H229.031V276.698H229.237V273.998ZM231.512 273.998H231.305V276.698H231.512V273.998Z" fill="white"/>
</g>
</g>
</g>
<defs>
<filter id="filter0_d_377:1736" x="0" y="0" width="801" height="569" filterUnits="userSpaceOnUse" color-interpolation-filters="sRGB">
<feFlood flood-opacity="0" result="BackgroundImageFix"/>
<feColorMatrix in="SourceAlpha" type="matrix" values="0 0 0 0 0 0 0 0 0 0 0 0 0 0 0 0 0 0 127 0" result="hardAlpha"/>
<feOffset dy="4"/>
<feGaussianBlur stdDeviation="2"/>
<feComposite in2="hardAlpha" operator="out"/>
<feColorMatrix type="matrix" values="0 0 0 0 0 0 0 0 0 0 0 0 0 0 0 0 0 0 0.25 0"/>
<feBlend mode="normal" in2="BackgroundImageFix" result="effect1_dropShadow_377:1736"/>
<feBlend mode="normal" in="SourceGraphic" in2="effect1_dropShadow_377:1736" result="shape"/>
</filter>
<filter id="filter1_d_377:1736" x="125" y="160" width="145" height="146" filterUnits="userSpaceOnUse" color-interpolation-filters="sRGB">
<feFlood flood-opacity="0" result="BackgroundImageFix"/>
<feColorMatrix in="SourceAlpha" type="matrix" values="0 0 0 0 0 0 0 0 0 0 0 0 0 0 0 0 0 0 127 0" result="hardAlpha"/>
<feOffset dy="2"/>
<feGaussianBlur stdDeviation="2"/>
<feComposite in2="hardAlpha" operator="out"/>
<feColorMatrix type="matrix" values="0 0 0 0 0 0 0 0 0 0 0 0 0 0 0 0 0 0 0.25 0"/>
<feBlend mode="normal" in2="BackgroundImageFix" result="effect1_dropShadow_377:1736"/>
<feBlend mode="normal" in="SourceGraphic" in2="effect1_dropShadow_377:1736" result="shape"/>
</filter>
<filter id="filter2_d_377:1736" x="123" y="328" width="146" height="146" filterUnits="userSpaceOnUse" color-interpolation-filters="sRGB">
<feFlood flood-opacity="0" result="BackgroundImageFix"/>
<feColorMatrix in="SourceAlpha" type="matrix" values="0 0 0 0 0 0 0 0 0 0 0 0 0 0 0 0 0 0 127 0" result="hardAlpha"/>
<feOffset dy="2"/>
<feGaussianBlur stdDeviation="2"/>
<feComposite in2="hardAlpha" operator="out"/>
<feColorMatrix type="matrix" values="0 0 0 0 0 0 0 0 0 0 0 0 0 0 0 0 0 0 0.25 0"/>
<feBlend mode="normal" in2="BackgroundImageFix" result="effect1_dropShadow_377:1736"/>
<feBlend mode="normal" in="SourceGraphic" in2="effect1_dropShadow_377:1736" result="shape"/>
</filter>
<filter id="filter3_d_377:1736" x="330" y="160" width="146" height="146" filterUnits="userSpaceOnUse" color-interpolation-filters="sRGB">
<feFlood flood-opacity="0" result="BackgroundImageFix"/>
<feColorMatrix in="SourceAlpha" type="matrix" values="0 0 0 0 0 0 0 0 0 0 0 0 0 0 0 0 0 0 127 0" result="hardAlpha"/>
<feOffset dy="2"/>
<feGaussianBlur stdDeviation="2"/>
<feComposite in2="hardAlpha" operator="out"/>
<feColorMatrix type="matrix" values="0 0 0 0 0 0 0 0 0 0 0 0 0 0 0 0 0 0 0.25 0"/>
<feBlend mode="normal" in2="BackgroundImageFix" result="effect1_dropShadow_377:1736"/>
<feBlend mode="normal" in="SourceGraphic" in2="effect1_dropShadow_377:1736" result="shape"/>
</filter>
<filter id="filter4_d_377:1736" x="537" y="160" width="147" height="146" filterUnits="userSpaceOnUse" color-interpolation-filters="sRGB">
<feFlood flood-opacity="0" result="BackgroundImageFix"/>
<feColorMatrix in="SourceAlpha" type="matrix" values="0 0 0 0 0 0 0 0 0 0 0 0 0 0 0 0 0 0 127 0" result="hardAlpha"/>
<feOffset dy="2"/>
<feGaussianBlur stdDeviation="2"/>
<feComposite in2="hardAlpha" operator="out"/>
<feColorMatrix type="matrix" values="0 0 0 0 0 0 0 0 0 0 0 0 0 0 0 0 0 0 0.25 0"/>
<feBlend mode="normal" in2="BackgroundImageFix" result="effect1_dropShadow_377:1736"/>
<feBlend mode="normal" in="SourceGraphic" in2="effect1_dropShadow_377:1736" result="shape"/>
</filter>
<filter id="filter5_d_377:1736" x="330" y="328" width="145" height="146" filterUnits="userSpaceOnUse" color-interpolation-filters="sRGB">
<feFlood flood-opacity="0" result="BackgroundImageFix"/>
<feColorMatrix in="SourceAlpha" type="matrix" values="0 0 0 0 0 0 0 0 0 0 0 0 0 0 0 0 0 0 127 0" result="hardAlpha"/>
<feOffset dy="2"/>
<feGaussianBlur stdDeviation="2"/>
<feComposite in2="hardAlpha" operator="out"/>
<feColorMatrix type="matrix" values="0 0 0 0 0 0 0 0 0 0 0 0 0 0 0 0 0 0 0.25 0"/>
<feBlend mode="normal" in2="BackgroundImageFix" result="effect1_dropShadow_377:1736"/>
<feBlend mode="normal" in="SourceGraphic" in2="effect1_dropShadow_377:1736" result="shape"/>
</filter>
<filter id="filter6_d_377:1736" x="535" y="328" width="147" height="146" filterUnits="userSpaceOnUse" color-interpolation-filters="sRGB">
<feFlood flood-opacity="0" result="BackgroundImageFix"/>
<feColorMatrix in="SourceAlpha" type="matrix" values="0 0 0 0 0 0 0 0 0 0 0 0 0 0 0 0 0 0 127 0" result="hardAlpha"/>
<feOffset dy="2"/>
<feGaussianBlur stdDeviation="2"/>
<feComposite in2="hardAlpha" operator="out"/>
<feColorMatrix type="matrix" values="0 0 0 0 0 0 0 0 0 0 0 0 0 0 0 0 0 0 0.25 0"/>
<feBlend mode="normal" in2="BackgroundImageFix" result="effect1_dropShadow_377:1736"/>
<feBlend mode="normal" in="SourceGraphic" in2="effect1_dropShadow_377:1736" result="shape"/>
</filter>
<filter id="filter7_dd_377:1736" x="218" y="265" width="19.5801" height="22.397" filterUnits="userSpaceOnUse" color-interpolation-filters="sRGB">
<feFlood flood-opacity="0" result="BackgroundImageFix"/>
<feColorMatrix in="SourceAlpha" type="matrix" values="0 0 0 0 0 0 0 0 0 0 0 0 0 0 0 0 0 0 127 0" result="hardAlpha"/>
<feOffset dy="4"/>
<feGaussianBlur stdDeviation="2"/>
<feComposite in2="hardAlpha" operator="out"/>
<feColorMatrix type="matrix" values="0 0 0 0 0 0 0 0 0 0 0 0 0 0 0 0 0 0 0.25 0"/>
<feBlend mode="lighten" in2="BackgroundImageFix" result="effect1_dropShadow_377:1736"/>
<feColorMatrix in="SourceAlpha" type="matrix" values="0 0 0 0 0 0 0 0 0 0 0 0 0 0 0 0 0 0 127 0" result="hardAlpha"/>
<feOffset dy="4"/>
<feGaussianBlur stdDeviation="2"/>
<feComposite in2="hardAlpha" operator="out"/>
<feColorMatrix type="matrix" values="0 0 0 0 0 0 0 0 0 0 0 0 0 0 0 0 0 0 0.25 0"/>
<feBlend mode="normal" in2="effect1_dropShadow_377:1736" result="effect2_dropShadow_377:1736"/>
<feBlend mode="normal" in="SourceGraphic" in2="effect2_dropShadow_377:1736" result="shape"/>
</filter>
<linearGradient id="paint0_linear_377:1736" x1="400.5" y1="0" x2="400.5" y2="561" gradientUnits="userSpaceOnUse">
<stop stop-color="#F7CCC5"/>
<stop offset="1" stop-color="#FEFEFE"/>
</linearGradient>
<linearGradient id="paint1_linear_377:1736" x1="197.5" y1="162" x2="197.5" y2="300" gradientUnits="userSpaceOnUse">
<stop stop-color="white"/>
<stop offset="1" stop-color="#F9D509"/>
</linearGradient>
<linearGradient id="paint2_linear_377:1736" x1="196" y1="330" x2="196" y2="468" gradientUnits="userSpaceOnUse">
<stop stop-color="white"/>
<stop offset="1" stop-color="#F24D64"/>
</linearGradient>
<linearGradient id="paint3_linear_377:1736" x1="403" y1="162" x2="403" y2="300" gradientUnits="userSpaceOnUse">
<stop stop-color="white"/>
<stop offset="1" stop-color="#FF5130" stop-opacity="0.72"/>
</linearGradient>
<linearGradient id="paint4_linear_377:1736" x1="610.5" y1="162" x2="610.5" y2="300" gradientUnits="userSpaceOnUse">
<stop stop-color="white"/>
<stop offset="1" stop-color="#9DE640" stop-opacity="0.87"/>
</linearGradient>
<linearGradient id="paint5_linear_377:1736" x1="402.5" y1="330" x2="402.5" y2="468" gradientUnits="userSpaceOnUse">
<stop stop-color="white"/>
<stop offset="1" stop-color="#FF9900" stop-opacity="0.8"/>
</linearGradient>
<linearGradient id="paint6_linear_377:1736" x1="608.5" y1="330" x2="608.5" y2="468" gradientUnits="userSpaceOnUse">
<stop stop-color="white"/>
<stop offset="1" stop-color="#FFEB7A"/>
</linearGradient>
<clipPath id="clip0_377:1736">
<rect x="4" width="793" height="561" rx="20" fill="white"/>
</clipPath>
<clipPath id="clip1_377:1736">
<rect width="15.9375" height="16.9474" fill="white" transform="translate(73 44)"/>
</clipPath>
<clipPath id="clip2_377:1736">
<rect width="63.4549" height="23" fill="white" transform="translate(94.5449 44)"/>
</clipPath>
</defs>
</svg>
