<svg width="1004" height="708" viewBox="0 0 1004 708" fill="none" xmlns="http://www.w3.org/2000/svg">
<rect x="4" width="996" height="700" rx="20" fill="white"/>
<g filter="url(#filter0_d_657:1969)">
<rect x="4" width="996" height="700" rx="20" fill="url(#paint0_linear_657:1969)"/>
<rect x="4" y="35" width="996" height="45" fill="#A5B4D1" fill-opacity="0.5677"/>
<g clip-path="url(#clip0_657:1969)">
<path d="M98.1867 58.0237C98.1867 58.0237 93.6877 55.8637 91.5459 51.3105C91.5459 51.3105 88.8647 56.4149 91.5782 59.6144C93.7826 62.2123 97.1496 60.5235 98.1867 58.0237Z" fill="white"/>
<path d="M100.509 54.8409C100.509 54.8409 102.663 50.3315 107.207 48.1848C107.207 48.1848 102.114 45.4975 98.9221 48.2172C96.3302 50.4267 98.0151 53.8013 100.509 54.8409Z" fill="white"/>
<path d="M102.415 56.5434C102.415 56.5434 106.918 58.7024 109.056 63.2566C109.056 63.2566 111.737 58.1522 109.024 54.9527C106.82 52.3548 103.451 54.0445 102.415 56.5434Z" fill="white"/>
<path d="M100.973 59.79C100.973 59.79 98.8167 64.3032 94.2749 66.4461C94.2749 66.4461 99.3685 69.1334 102.561 66.4137C105.152 64.2061 103.471 60.8286 100.973 59.79Z" fill="white"/>
</g>
<g clip-path="url(#clip1_657:1969)">
<path d="M117.232 65.4833V62.014C118.099 62.6299 119.03 63.1493 120.009 63.5631C120.956 63.9586 121.753 64.1563 122.399 64.1563C123.012 64.1714 123.616 63.997 124.127 63.6566C124.608 63.3262 124.849 62.9307 124.85 62.4703C124.856 62.2523 124.818 62.0353 124.737 61.8327C124.657 61.63 124.536 61.4461 124.382 61.2922C124.071 60.9799 123.396 60.5285 122.359 59.9381C120.29 58.7843 118.936 57.7971 118.299 56.9765C117.681 56.2199 117.341 55.2725 117.337 54.2939C117.324 53.7048 117.449 53.1209 117.702 52.5892C117.955 52.0574 118.328 51.5926 118.792 51.2321C119.763 50.4413 121.012 50.0459 122.539 50.0459C124.126 50.0459 125.755 50.4941 127.425 51.3906V54.5837C125.52 53.4236 123.962 52.8431 122.751 52.8422C122.128 52.8422 121.625 52.9777 121.243 53.2485C121.066 53.3602 120.919 53.5159 120.819 53.7007C120.719 53.8854 120.667 54.093 120.67 54.3034C120.67 54.6812 120.844 55.0414 121.189 55.3867C121.534 55.732 122.144 56.1329 123.014 56.6149L124.161 57.2704C126.865 58.8051 128.218 60.5041 128.218 62.3674C128.23 62.9989 128.095 63.6245 127.824 64.1945C127.553 64.7646 127.154 65.2634 126.657 65.6513C125.618 66.5062 124.281 66.9337 122.646 66.9337C121.778 66.9458 120.912 66.8415 120.071 66.6235C119.093 66.3289 118.143 65.9473 117.232 65.4833V65.4833Z" fill="white"/>
<path d="M145.205 58.8087H133.797C133.88 60.3668 134.4 61.6063 135.358 62.5272C136.315 63.448 137.553 63.9084 139.07 63.9084C141.185 63.9084 143.137 63.2471 144.923 61.9246V65.0757C144.022 65.6959 143.032 66.1736 141.987 66.4922C140.876 66.7944 139.727 66.9376 138.576 66.9174C136.789 66.9174 135.343 66.5454 134.237 65.8015C133.116 65.0405 132.204 64.0085 131.584 62.8007C130.918 61.5441 130.584 60.0897 130.584 58.4376C130.584 55.9586 131.285 53.9431 132.686 52.3913C134.087 50.8394 135.904 50.0635 138.138 50.0635C140.289 50.0635 142.005 50.8186 143.286 52.329C144.566 53.8393 145.206 55.8638 145.205 58.4024V58.8087ZM133.867 56.8857H142.031C141.949 55.5993 141.567 54.6062 140.885 53.9066C140.203 53.2069 139.288 52.858 138.138 52.8598C136.986 52.8598 136.042 53.2083 135.305 53.9052C134.569 54.6022 134.089 55.5957 133.867 56.8857Z" fill="white"/>
<path d="M146.24 52.9488L152.27 47V50.3637H157.402V53.2671H152.27V61.239C152.27 63.1014 153.04 64.0322 154.58 64.0313C155.732 64.0313 156.949 63.6476 158.23 62.8803V65.8906C156.997 66.5869 155.603 66.9468 154.188 66.9346C152.72 66.9346 151.497 66.504 150.521 65.6427C150.224 65.3927 149.968 65.097 149.763 64.7666C149.533 64.3689 149.363 63.939 149.26 63.491C149.128 62.9692 149.063 61.9689 149.063 60.4902V53.2671H146.24V52.9488Z" fill="white"/>
<path d="M175.081 66.6961V64.6039C174.423 65.3345 173.63 65.9285 172.744 66.3521C171.929 66.7538 171.034 66.9671 170.125 66.9764C169.129 66.9846 168.149 66.718 167.293 66.2059C166.451 65.7167 165.771 64.9908 165.336 64.1177C164.894 63.2375 164.674 61.7768 164.675 59.7357V50.4082H167.884V59.691C167.884 61.3999 168.128 62.5934 168.616 63.2714C169.104 63.9494 169.958 64.2884 171.179 64.2884C172.707 64.2884 174.006 63.5386 175.075 62.0391V50.4082H178.285V66.6961H175.081Z" fill="white"/>
<path d="M181.622 74.9998V50.4082H187.241C190.118 50.4082 192.358 51.1282 193.959 52.5681C195.561 54.008 196.362 56.0203 196.364 58.6049C196.364 61.0478 195.61 63.0543 194.101 64.6242C192.592 66.1941 190.67 66.9791 188.335 66.9791C187.302 66.9791 186.158 66.7489 184.902 66.2885V74.9998H181.622ZM187.172 53.4171H184.902V63.4379C185.86 63.9393 186.924 64.2004 188.004 64.199C189.506 64.199 190.735 63.674 191.691 62.6241C192.646 61.5742 193.124 60.2227 193.124 58.5697C193.145 57.5886 192.913 56.6187 192.45 55.7544C192.038 54.9789 191.391 54.3555 190.602 53.9751C189.817 53.604 188.674 53.4181 187.172 53.4171Z" fill="white"/>
</g>
<path d="M876.238 59.6887L876.57 58.9409L876.018 58.3376C875.047 57.2772 874.522 56.0522 874.522 54.7676C874.522 51.5017 878.105 48.3408 883.252 48.3408C888.4 48.3408 891.982 51.5017 891.982 54.7676C891.982 58.0335 888.4 61.1944 883.252 61.1944C881.473 61.1944 879.832 60.7905 878.46 60.1213L877.86 59.8287L877.283 60.1648C876.802 60.445 876.234 60.714 875.591 60.9067C875.819 60.537 876.044 60.1257 876.238 59.6887ZM897.942 65.8287C898.136 66.2666 898.361 66.6781 898.589 67.0476C897.947 66.8549 897.379 66.5862 896.898 66.3062L896.32 65.9691L895.719 66.2641C894.35 66.9358 892.711 67.3358 890.929 67.3358C888.29 67.3358 886.002 66.4738 884.435 65.1843C890.361 64.7283 895.44 60.8825 895.971 55.6738C898.297 56.8931 899.659 58.869 899.659 60.909C899.659 62.1948 899.134 63.4237 898.165 64.4772L897.611 65.08L897.942 65.8287Z" stroke="white" stroke-width="2.5"/>
<path d="M426.422 51.795H422.381V63H420.284V51.795H416.234V50.04H426.422V51.795ZM430.363 54.909C430.741 54.537 431.155 54.24 431.605 54.018C432.055 53.79 432.58 53.676 433.18 53.676C433.684 53.676 434.125 53.76 434.503 53.928C434.887 54.096 435.208 54.333 435.466 54.639C435.73 54.945 435.928 55.314 436.06 55.746C436.192 56.172 436.258 56.643 436.258 57.159V63H434.332V57.159C434.332 56.541 434.188 56.061 433.9 55.719C433.618 55.377 433.186 55.206 432.604 55.206C432.172 55.206 431.77 55.305 431.398 55.503C431.032 55.701 430.687 55.971 430.363 56.313V63H428.428V49.68H430.363V54.909ZM441.254 53.82V63H439.319V53.82H441.254ZM441.578 51.048C441.578 51.222 441.542 51.387 441.47 51.543C441.404 51.699 441.311 51.837 441.191 51.957C441.071 52.071 440.93 52.164 440.768 52.236C440.612 52.302 440.444 52.335 440.264 52.335C440.09 52.335 439.925 52.302 439.769 52.236C439.619 52.164 439.487 52.071 439.373 51.957C439.259 51.837 439.166 51.699 439.094 51.543C439.028 51.387 438.995 51.222 438.995 51.048C438.995 50.868 439.028 50.7 439.094 50.544C439.166 50.388 439.259 50.253 439.373 50.139C439.487 50.019 439.619 49.926 439.769 49.86C439.925 49.788 440.09 49.752 440.264 49.752C440.444 49.752 440.612 49.788 440.768 49.86C440.93 49.926 441.071 50.019 441.191 50.139C441.311 50.253 441.404 50.388 441.47 50.544C441.542 50.7 441.578 50.868 441.578 51.048ZM449.886 55.485C449.838 55.569 449.784 55.629 449.724 55.665C449.664 55.701 449.589 55.719 449.499 55.719C449.397 55.719 449.286 55.689 449.166 55.629C449.046 55.563 448.905 55.491 448.743 55.413C448.581 55.335 448.389 55.266 448.167 55.206C447.951 55.14 447.696 55.107 447.402 55.107C447.162 55.107 446.943 55.137 446.745 55.197C446.553 55.251 446.388 55.332 446.25 55.44C446.118 55.542 446.016 55.665 445.944 55.809C445.872 55.947 445.836 56.097 445.836 56.259C445.836 56.475 445.902 56.655 446.034 56.799C446.166 56.943 446.34 57.069 446.556 57.177C446.772 57.279 447.018 57.372 447.294 57.456C447.57 57.54 447.852 57.63 448.14 57.726C448.428 57.822 448.71 57.933 448.986 58.059C449.262 58.185 449.508 58.341 449.724 58.527C449.94 58.707 450.114 58.929 450.246 59.193C450.378 59.451 450.444 59.766 450.444 60.138C450.444 60.57 450.366 60.969 450.21 61.335C450.054 61.701 449.826 62.019 449.526 62.289C449.226 62.559 448.851 62.769 448.401 62.919C447.957 63.069 447.447 63.144 446.871 63.144C446.553 63.144 446.244 63.114 445.944 63.054C445.65 63 445.368 62.925 445.098 62.829C444.834 62.727 444.585 62.607 444.351 62.469C444.123 62.331 443.919 62.181 443.739 62.019L444.189 61.281C444.243 61.191 444.309 61.122 444.387 61.074C444.471 61.02 444.573 60.993 444.693 60.993C444.819 60.993 444.942 61.035 445.062 61.119C445.188 61.197 445.332 61.284 445.494 61.38C445.662 61.476 445.863 61.566 446.097 61.65C446.331 61.728 446.622 61.767 446.97 61.767C447.258 61.767 447.507 61.734 447.717 61.668C447.927 61.596 448.101 61.5 448.239 61.38C448.377 61.26 448.479 61.125 448.545 60.975C448.611 60.819 448.644 60.654 448.644 60.48C448.644 60.246 448.578 60.054 448.446 59.904C448.314 59.754 448.137 59.625 447.915 59.517C447.699 59.409 447.45 59.313 447.168 59.229C446.892 59.145 446.61 59.055 446.322 58.959C446.034 58.863 445.749 58.752 445.467 58.626C445.191 58.5 444.942 58.341 444.72 58.149C444.504 57.951 444.33 57.714 444.198 57.438C444.066 57.156 444 56.814 444 56.412C444 56.046 444.072 55.698 444.216 55.368C444.366 55.038 444.582 54.747 444.864 54.495C445.152 54.243 445.503 54.045 445.917 53.901C446.337 53.751 446.82 53.676 447.366 53.676C447.984 53.676 448.545 53.775 449.049 53.973C449.553 54.171 449.976 54.441 450.318 54.783L449.886 55.485ZM460.201 53.82V63H458.266V53.82H460.201ZM460.525 51.048C460.525 51.222 460.489 51.387 460.417 51.543C460.351 51.699 460.258 51.837 460.138 51.957C460.018 52.071 459.877 52.164 459.715 52.236C459.559 52.302 459.391 52.335 459.211 52.335C459.037 52.335 458.872 52.302 458.716 52.236C458.566 52.164 458.434 52.071 458.32 51.957C458.206 51.837 458.113 51.699 458.041 51.543C457.975 51.387 457.942 51.222 457.942 51.048C457.942 50.868 457.975 50.7 458.041 50.544C458.113 50.388 458.206 50.253 458.32 50.139C458.434 50.019 458.566 49.926 458.716 49.86C458.872 49.788 459.037 49.752 459.211 49.752C459.391 49.752 459.559 49.788 459.715 49.86C459.877 49.926 460.018 50.019 460.138 50.139C460.258 50.253 460.351 50.388 460.417 50.544C460.489 50.7 460.525 50.868 460.525 51.048ZM468.833 55.485C468.785 55.569 468.731 55.629 468.671 55.665C468.611 55.701 468.536 55.719 468.446 55.719C468.344 55.719 468.233 55.689 468.113 55.629C467.993 55.563 467.852 55.491 467.69 55.413C467.528 55.335 467.336 55.266 467.114 55.206C466.898 55.14 466.643 55.107 466.349 55.107C466.109 55.107 465.89 55.137 465.692 55.197C465.5 55.251 465.335 55.332 465.197 55.44C465.065 55.542 464.963 55.665 464.891 55.809C464.819 55.947 464.783 56.097 464.783 56.259C464.783 56.475 464.849 56.655 464.981 56.799C465.113 56.943 465.287 57.069 465.503 57.177C465.719 57.279 465.965 57.372 466.241 57.456C466.517 57.54 466.799 57.63 467.087 57.726C467.375 57.822 467.657 57.933 467.933 58.059C468.209 58.185 468.455 58.341 468.671 58.527C468.887 58.707 469.061 58.929 469.193 59.193C469.325 59.451 469.391 59.766 469.391 60.138C469.391 60.57 469.313 60.969 469.157 61.335C469.001 61.701 468.773 62.019 468.473 62.289C468.173 62.559 467.798 62.769 467.348 62.919C466.904 63.069 466.394 63.144 465.818 63.144C465.5 63.144 465.191 63.114 464.891 63.054C464.597 63 464.315 62.925 464.045 62.829C463.781 62.727 463.532 62.607 463.298 62.469C463.07 62.331 462.866 62.181 462.686 62.019L463.136 61.281C463.19 61.191 463.256 61.122 463.334 61.074C463.418 61.02 463.52 60.993 463.64 60.993C463.766 60.993 463.889 61.035 464.009 61.119C464.135 61.197 464.279 61.284 464.441 61.38C464.609 61.476 464.81 61.566 465.044 61.65C465.278 61.728 465.569 61.767 465.917 61.767C466.205 61.767 466.454 61.734 466.664 61.668C466.874 61.596 467.048 61.5 467.186 61.38C467.324 61.26 467.426 61.125 467.492 60.975C467.558 60.819 467.591 60.654 467.591 60.48C467.591 60.246 467.525 60.054 467.393 59.904C467.261 59.754 467.084 59.625 466.862 59.517C466.646 59.409 466.397 59.313 466.115 59.229C465.839 59.145 465.557 59.055 465.269 58.959C464.981 58.863 464.696 58.752 464.414 58.626C464.138 58.5 463.889 58.341 463.667 58.149C463.451 57.951 463.277 57.714 463.145 57.438C463.013 57.156 462.947 56.814 462.947 56.412C462.947 56.046 463.019 55.698 463.163 55.368C463.313 55.038 463.529 54.747 463.811 54.495C464.099 54.243 464.45 54.045 464.864 53.901C465.284 53.751 465.767 53.676 466.313 53.676C466.931 53.676 467.492 53.775 467.996 53.973C468.5 54.171 468.923 54.441 469.265 54.783L468.833 55.485ZM481.524 56.646C481.992 56.646 482.403 56.586 482.757 56.466C483.117 56.346 483.414 56.178 483.648 55.962C483.888 55.74 484.068 55.473 484.188 55.161C484.308 54.849 484.368 54.501 484.368 54.117C484.368 53.739 484.308 53.4 484.188 53.1C484.074 52.8 483.9 52.545 483.666 52.335C483.432 52.125 483.135 51.966 482.775 51.858C482.421 51.744 482.004 51.687 481.524 51.687H479.598V56.646H481.524ZM481.524 50.04C482.37 50.04 483.102 50.139 483.72 50.337C484.344 50.535 484.857 50.814 485.259 51.174C485.667 51.528 485.97 51.957 486.168 52.461C486.366 52.959 486.465 53.511 486.465 54.117C486.465 54.735 486.36 55.302 486.15 55.818C485.94 56.328 485.628 56.769 485.214 57.141C484.8 57.507 484.284 57.795 483.666 58.005C483.054 58.209 482.34 58.311 481.524 58.311H479.598V63H477.492V50.04H481.524ZM498.198 60.111C498.312 60.111 498.411 60.156 498.495 60.246L499.332 61.155C498.804 61.791 498.156 62.283 497.388 62.631C496.62 62.973 495.702 63.144 494.634 63.144C493.686 63.144 492.828 62.982 492.06 62.658C491.298 62.328 490.647 61.872 490.107 61.29C489.567 60.702 489.15 60.003 488.856 59.193C488.568 58.383 488.424 57.492 488.424 56.52C488.424 55.548 488.577 54.657 488.883 53.847C489.195 53.031 489.63 52.332 490.188 51.75C490.752 51.162 491.424 50.706 492.204 50.382C492.99 50.058 493.854 49.896 494.796 49.896C495.732 49.896 496.557 50.049 497.271 50.355C497.991 50.655 498.615 51.057 499.143 51.561L498.45 52.542C498.402 52.608 498.345 52.665 498.279 52.713C498.213 52.761 498.123 52.785 498.009 52.785C497.889 52.785 497.751 52.731 497.595 52.623C497.445 52.509 497.25 52.386 497.01 52.254C496.776 52.116 496.479 51.993 496.119 51.885C495.765 51.771 495.321 51.714 494.787 51.714C494.169 51.714 493.602 51.822 493.086 52.038C492.57 52.254 492.126 52.569 491.754 52.983C491.382 53.397 491.091 53.901 490.881 54.495C490.677 55.089 490.575 55.764 490.575 56.52C490.575 57.282 490.683 57.963 490.899 58.563C491.115 59.157 491.412 59.661 491.79 60.075C492.168 60.483 492.612 60.795 493.122 61.011C493.632 61.227 494.181 61.335 494.769 61.335C495.129 61.335 495.45 61.317 495.732 61.281C496.02 61.239 496.284 61.176 496.524 61.092C496.764 61.002 496.989 60.891 497.199 60.759C497.415 60.627 497.628 60.465 497.838 60.273C497.958 60.165 498.078 60.111 498.198 60.111ZM502.834 49.176C503.104 49.632 503.287 50.109 503.383 50.607C503.479 51.099 503.488 51.588 503.41 52.074C503.332 52.554 503.167 53.016 502.915 53.46C502.669 53.904 502.339 54.3 501.925 54.648L501.322 54.279C501.22 54.213 501.172 54.129 501.178 54.027C501.19 53.919 501.226 53.835 501.286 53.775C501.424 53.607 501.55 53.394 501.664 53.136C501.778 52.878 501.853 52.596 501.889 52.29C501.931 51.978 501.922 51.651 501.862 51.309C501.808 50.967 501.679 50.628 501.475 50.292C501.379 50.136 501.352 50.001 501.394 49.887C501.436 49.773 501.523 49.692 501.655 49.644L502.834 49.176ZM511.193 55.485C511.145 55.569 511.091 55.629 511.031 55.665C510.971 55.701 510.896 55.719 510.806 55.719C510.704 55.719 510.593 55.689 510.473 55.629C510.353 55.563 510.212 55.491 510.05 55.413C509.888 55.335 509.696 55.266 509.474 55.206C509.258 55.14 509.003 55.107 508.709 55.107C508.469 55.107 508.25 55.137 508.052 55.197C507.86 55.251 507.695 55.332 507.557 55.44C507.425 55.542 507.323 55.665 507.251 55.809C507.179 55.947 507.143 56.097 507.143 56.259C507.143 56.475 507.209 56.655 507.341 56.799C507.473 56.943 507.647 57.069 507.863 57.177C508.079 57.279 508.325 57.372 508.601 57.456C508.877 57.54 509.159 57.63 509.447 57.726C509.735 57.822 510.017 57.933 510.293 58.059C510.569 58.185 510.815 58.341 511.031 58.527C511.247 58.707 511.421 58.929 511.553 59.193C511.685 59.451 511.751 59.766 511.751 60.138C511.751 60.57 511.673 60.969 511.517 61.335C511.361 61.701 511.133 62.019 510.833 62.289C510.533 62.559 510.158 62.769 509.708 62.919C509.264 63.069 508.754 63.144 508.178 63.144C507.86 63.144 507.551 63.114 507.251 63.054C506.957 63 506.675 62.925 506.405 62.829C506.141 62.727 505.892 62.607 505.658 62.469C505.43 62.331 505.226 62.181 505.046 62.019L505.496 61.281C505.55 61.191 505.616 61.122 505.694 61.074C505.778 61.02 505.88 60.993 506 60.993C506.126 60.993 506.249 61.035 506.369 61.119C506.495 61.197 506.639 61.284 506.801 61.38C506.969 61.476 507.17 61.566 507.404 61.65C507.638 61.728 507.929 61.767 508.277 61.767C508.565 61.767 508.814 61.734 509.024 61.668C509.234 61.596 509.408 61.5 509.546 61.38C509.684 61.26 509.786 61.125 509.852 60.975C509.918 60.819 509.951 60.654 509.951 60.48C509.951 60.246 509.885 60.054 509.753 59.904C509.621 59.754 509.444 59.625 509.222 59.517C509.006 59.409 508.757 59.313 508.475 59.229C508.199 59.145 507.917 59.055 507.629 58.959C507.341 58.863 507.056 58.752 506.774 58.626C506.498 58.5 506.249 58.341 506.027 58.149C505.811 57.951 505.637 57.714 505.505 57.438C505.373 57.156 505.307 56.814 505.307 56.412C505.307 56.046 505.379 55.698 505.523 55.368C505.673 55.038 505.889 54.747 506.171 54.495C506.459 54.243 506.81 54.045 507.224 53.901C507.644 53.751 508.127 53.676 508.673 53.676C509.291 53.676 509.852 53.775 510.356 53.973C510.86 54.171 511.283 54.441 511.625 54.783L511.193 55.485ZM524.973 55.485C524.925 55.569 524.871 55.629 524.811 55.665C524.751 55.701 524.676 55.719 524.586 55.719C524.484 55.719 524.373 55.689 524.253 55.629C524.133 55.563 523.992 55.491 523.83 55.413C523.668 55.335 523.476 55.266 523.254 55.206C523.038 55.14 522.783 55.107 522.489 55.107C522.249 55.107 522.03 55.137 521.832 55.197C521.64 55.251 521.475 55.332 521.337 55.44C521.205 55.542 521.103 55.665 521.031 55.809C520.959 55.947 520.923 56.097 520.923 56.259C520.923 56.475 520.989 56.655 521.121 56.799C521.253 56.943 521.427 57.069 521.643 57.177C521.859 57.279 522.105 57.372 522.381 57.456C522.657 57.54 522.939 57.63 523.227 57.726C523.515 57.822 523.797 57.933 524.073 58.059C524.349 58.185 524.595 58.341 524.811 58.527C525.027 58.707 525.201 58.929 525.333 59.193C525.465 59.451 525.531 59.766 525.531 60.138C525.531 60.57 525.453 60.969 525.297 61.335C525.141 61.701 524.913 62.019 524.613 62.289C524.313 62.559 523.938 62.769 523.488 62.919C523.044 63.069 522.534 63.144 521.958 63.144C521.64 63.144 521.331 63.114 521.031 63.054C520.737 63 520.455 62.925 520.185 62.829C519.921 62.727 519.672 62.607 519.438 62.469C519.21 62.331 519.006 62.181 518.826 62.019L519.276 61.281C519.33 61.191 519.396 61.122 519.474 61.074C519.558 61.02 519.66 60.993 519.78 60.993C519.906 60.993 520.029 61.035 520.149 61.119C520.275 61.197 520.419 61.284 520.581 61.38C520.749 61.476 520.95 61.566 521.184 61.65C521.418 61.728 521.709 61.767 522.057 61.767C522.345 61.767 522.594 61.734 522.804 61.668C523.014 61.596 523.188 61.5 523.326 61.38C523.464 61.26 523.566 61.125 523.632 60.975C523.698 60.819 523.731 60.654 523.731 60.48C523.731 60.246 523.665 60.054 523.533 59.904C523.401 59.754 523.224 59.625 523.002 59.517C522.786 59.409 522.537 59.313 522.255 59.229C521.979 59.145 521.697 59.055 521.409 58.959C521.121 58.863 520.836 58.752 520.554 58.626C520.278 58.5 520.029 58.341 519.807 58.149C519.591 57.951 519.417 57.714 519.285 57.438C519.153 57.156 519.087 56.814 519.087 56.412C519.087 56.046 519.159 55.698 519.303 55.368C519.453 55.038 519.669 54.747 519.951 54.495C520.239 54.243 520.59 54.045 521.004 53.901C521.424 53.751 521.907 53.676 522.453 53.676C523.071 53.676 523.632 53.775 524.136 53.973C524.64 54.171 525.063 54.441 525.405 54.783L524.973 55.485ZM530.004 60.696C530.274 61.044 530.568 61.29 530.886 61.434C531.21 61.572 531.567 61.641 531.957 61.641C532.713 61.641 533.301 61.365 533.721 60.813C534.147 60.261 534.36 59.439 534.36 58.347C534.36 57.783 534.312 57.303 534.216 56.907C534.12 56.505 533.982 56.178 533.802 55.926C533.622 55.674 533.403 55.491 533.145 55.377C532.887 55.263 532.596 55.206 532.272 55.206C531.78 55.206 531.354 55.314 530.994 55.53C530.64 55.74 530.31 56.043 530.004 56.439V60.696ZM529.905 55.152C530.289 54.702 530.724 54.339 531.21 54.063C531.702 53.787 532.272 53.649 532.92 53.649C533.436 53.649 533.904 53.754 534.324 53.964C534.744 54.168 535.104 54.468 535.404 54.864C535.704 55.26 535.935 55.752 536.097 56.34C536.265 56.922 536.349 57.591 536.349 58.347C536.349 59.025 536.256 59.658 536.07 60.246C535.89 60.828 535.629 61.335 535.287 61.767C534.945 62.193 534.531 62.529 534.045 62.775C533.559 63.015 533.01 63.135 532.398 63.135C531.858 63.135 531.399 63.048 531.021 62.874C530.649 62.7 530.31 62.46 530.004 62.154V66.051H528.069V53.82H529.239C529.503 53.82 529.671 53.943 529.743 54.189L529.905 55.152ZM543.854 58.986C543.164 59.01 542.582 59.067 542.108 59.157C541.634 59.241 541.25 59.352 540.956 59.49C540.662 59.622 540.449 59.781 540.317 59.967C540.191 60.153 540.128 60.357 540.128 60.579C540.128 60.795 540.161 60.981 540.227 61.137C540.299 61.287 540.395 61.413 540.515 61.515C540.641 61.611 540.785 61.683 540.947 61.731C541.115 61.773 541.298 61.794 541.496 61.794C542 61.794 542.432 61.701 542.792 61.515C543.158 61.323 543.512 61.047 543.854 60.687V58.986ZM538.724 55.098C539.762 54.132 540.998 53.649 542.432 53.649C542.96 53.649 543.428 53.736 543.836 53.91C544.25 54.078 544.595 54.318 544.871 54.63C545.153 54.942 545.366 55.314 545.51 55.746C545.66 56.172 545.735 56.646 545.735 57.168V63H544.871C544.685 63 544.544 62.973 544.448 62.919C544.352 62.859 544.271 62.742 544.205 62.568L544.016 61.821C543.782 62.031 543.551 62.22 543.323 62.388C543.095 62.55 542.858 62.688 542.612 62.802C542.372 62.916 542.111 63 541.829 63.054C541.553 63.114 541.247 63.144 540.911 63.144C540.539 63.144 540.191 63.093 539.867 62.991C539.549 62.889 539.273 62.736 539.039 62.532C538.805 62.322 538.619 62.064 538.481 61.758C538.349 61.452 538.283 61.092 538.283 60.678C538.283 60.324 538.376 59.979 538.562 59.643C538.754 59.307 539.066 59.007 539.498 58.743C539.936 58.473 540.509 58.251 541.217 58.077C541.931 57.903 542.81 57.804 543.854 57.78V57.168C543.854 56.508 543.713 56.016 543.431 55.692C543.149 55.368 542.735 55.206 542.189 55.206C541.817 55.206 541.505 55.254 541.253 55.35C541.001 55.44 540.782 55.539 540.596 55.647C540.41 55.755 540.245 55.857 540.101 55.953C539.957 56.043 539.804 56.088 539.642 56.088C539.51 56.088 539.396 56.055 539.3 55.989C539.21 55.917 539.135 55.83 539.075 55.728L538.724 55.098ZM555.211 55.62C555.151 55.698 555.094 55.758 555.04 55.8C554.986 55.842 554.908 55.863 554.806 55.863C554.704 55.863 554.596 55.827 554.482 55.755C554.374 55.683 554.242 55.605 554.086 55.521C553.936 55.431 553.753 55.35 553.537 55.278C553.321 55.206 553.051 55.17 552.727 55.17C552.307 55.17 551.938 55.245 551.62 55.395C551.308 55.545 551.044 55.761 550.828 56.043C550.618 56.319 550.459 56.658 550.351 57.06C550.249 57.456 550.198 57.903 550.198 58.401C550.198 58.917 550.255 59.376 550.369 59.778C550.483 60.18 550.645 60.519 550.855 60.795C551.071 61.071 551.329 61.281 551.629 61.425C551.935 61.569 552.277 61.641 552.655 61.641C553.027 61.641 553.33 61.596 553.564 61.506C553.798 61.416 553.993 61.317 554.149 61.209C554.305 61.101 554.437 61.002 554.545 60.912C554.659 60.822 554.779 60.777 554.905 60.777C555.061 60.777 555.181 60.837 555.265 60.957L555.814 61.668C555.592 61.938 555.346 62.166 555.076 62.352C554.806 62.538 554.521 62.691 554.221 62.811C553.921 62.925 553.609 63.006 553.285 63.054C552.961 63.108 552.634 63.135 552.304 63.135C551.734 63.135 551.2 63.03 550.702 62.82C550.21 62.604 549.778 62.295 549.406 61.893C549.04 61.485 548.749 60.99 548.533 60.408C548.323 59.82 548.218 59.151 548.218 58.401C548.218 57.723 548.314 57.096 548.506 56.52C548.698 55.938 548.977 55.437 549.343 55.017C549.715 54.597 550.174 54.27 550.72 54.036C551.266 53.796 551.896 53.676 552.61 53.676C553.276 53.676 553.861 53.784 554.365 54C554.875 54.216 555.328 54.522 555.724 54.918L555.211 55.62ZM563.953 57.375C563.953 57.051 563.905 56.751 563.809 56.475C563.719 56.193 563.584 55.95 563.404 55.746C563.224 55.536 562.999 55.374 562.729 55.26C562.465 55.14 562.159 55.08 561.811 55.08C561.109 55.08 560.557 55.281 560.155 55.683C559.753 56.085 559.498 56.649 559.39 57.375H563.953ZM559.336 58.563C559.36 59.085 559.441 59.538 559.579 59.922C559.717 60.3 559.9 60.615 560.128 60.867C560.362 61.119 560.638 61.308 560.956 61.434C561.28 61.554 561.64 61.614 562.036 61.614C562.414 61.614 562.741 61.572 563.017 61.488C563.293 61.398 563.533 61.302 563.737 61.2C563.941 61.092 564.115 60.996 564.259 60.912C564.403 60.822 564.535 60.777 564.655 60.777C564.811 60.777 564.931 60.837 565.015 60.957L565.564 61.668C565.336 61.938 565.078 62.166 564.79 62.352C564.502 62.538 564.196 62.691 563.872 62.811C563.548 62.925 563.215 63.006 562.873 63.054C562.531 63.108 562.198 63.135 561.874 63.135C561.238 63.135 560.647 63.03 560.101 62.82C559.561 62.604 559.09 62.289 558.688 61.875C558.292 61.461 557.98 60.948 557.752 60.336C557.53 59.724 557.419 59.019 557.419 58.221C557.419 57.585 557.518 56.991 557.716 56.439C557.92 55.887 558.208 55.407 558.58 54.999C558.958 54.591 559.414 54.27 559.948 54.036C560.488 53.796 561.097 53.676 561.775 53.676C562.339 53.676 562.861 53.769 563.341 53.955C563.821 54.135 564.235 54.402 564.583 54.756C564.931 55.11 565.201 55.545 565.393 56.061C565.591 56.571 565.69 57.153 565.69 57.807C565.69 58.107 565.657 58.308 565.591 58.41C565.525 58.512 565.405 58.563 565.231 58.563H559.336Z" fill="#363B3F"/>
<path d="M475.953 67.59H567.031V68.454H475.953V67.59Z" fill="#363B3F"/>
<path d="M99.002 121H97.742V116.338H92.618V121H91.358V111.004H92.618V115.232H97.742V111.004H99.002V121ZM110.471 117.234C110.471 118.475 110.154 119.437 109.519 120.118C108.894 120.799 108.044 121.14 106.971 121.14C106.308 121.14 105.716 120.991 105.193 120.692C104.68 120.384 104.274 119.941 103.975 119.362C103.676 118.774 103.527 118.065 103.527 117.234C103.527 115.993 103.84 115.036 104.465 114.364C105.09 113.692 105.94 113.356 107.013 113.356C107.694 113.356 108.292 113.51 108.805 113.818C109.328 114.117 109.734 114.555 110.023 115.134C110.322 115.703 110.471 116.403 110.471 117.234ZM104.801 117.234C104.801 118.121 104.974 118.825 105.319 119.348C105.674 119.861 106.234 120.118 106.999 120.118C107.755 120.118 108.31 119.861 108.665 119.348C109.02 118.825 109.197 118.121 109.197 117.234C109.197 116.347 109.02 115.652 108.665 115.148C108.31 114.644 107.75 114.392 106.985 114.392C106.22 114.392 105.664 114.644 105.319 115.148C104.974 115.652 104.801 116.347 104.801 117.234ZM123.036 113.356C123.885 113.356 124.52 113.575 124.94 114.014C125.36 114.443 125.57 115.143 125.57 116.114V121H124.352V116.17C124.352 114.985 123.843 114.392 122.826 114.392C122.098 114.392 121.575 114.602 121.258 115.022C120.95 115.442 120.796 116.053 120.796 116.856V121H119.578V116.17C119.578 114.985 119.064 114.392 118.038 114.392C117.282 114.392 116.759 114.625 116.47 115.092C116.18 115.559 116.036 116.231 116.036 117.108V121H114.804V113.496H115.798L115.98 114.518H116.05C116.283 114.126 116.596 113.837 116.988 113.65C117.389 113.454 117.814 113.356 118.262 113.356C119.438 113.356 120.203 113.776 120.558 114.616H120.628C120.88 114.187 121.22 113.869 121.65 113.664C122.088 113.459 122.55 113.356 123.036 113.356ZM133.165 113.356C133.809 113.356 134.36 113.496 134.817 113.776C135.284 114.056 135.639 114.453 135.881 114.966C136.133 115.47 136.259 116.063 136.259 116.744V117.486H131.121C131.14 118.335 131.355 118.984 131.765 119.432C132.185 119.871 132.769 120.09 133.515 120.09C133.991 120.09 134.411 120.048 134.775 119.964C135.149 119.871 135.531 119.74 135.923 119.572V120.65C135.541 120.818 135.163 120.939 134.789 121.014C134.416 121.098 133.973 121.14 133.459 121.14C132.75 121.14 132.12 120.995 131.569 120.706C131.028 120.417 130.603 119.987 130.295 119.418C129.997 118.839 129.847 118.135 129.847 117.304C129.847 116.483 129.983 115.778 130.253 115.19C130.533 114.602 130.921 114.149 131.415 113.832C131.919 113.515 132.503 113.356 133.165 113.356ZM133.151 114.364C132.563 114.364 132.097 114.555 131.751 114.938C131.415 115.311 131.215 115.834 131.149 116.506H134.971C134.962 115.871 134.813 115.358 134.523 114.966C134.234 114.565 133.777 114.364 133.151 114.364ZM146.077 118.284L151.355 116.086L146.077 113.58V112.488L152.671 115.778V116.478L146.077 119.376V118.284ZM165.789 111.004C167.096 111.004 168.048 111.261 168.645 111.774C169.242 112.287 169.541 113.011 169.541 113.944C169.541 114.495 169.415 115.013 169.163 115.498C168.92 115.974 168.505 116.361 167.917 116.66C167.338 116.959 166.55 117.108 165.551 117.108H164.403V121H163.143V111.004H165.789ZM165.677 112.082H164.403V116.03H165.411C166.363 116.03 167.072 115.876 167.539 115.568C168.006 115.26 168.239 114.737 168.239 114C168.239 113.356 168.034 112.875 167.623 112.558C167.212 112.241 166.564 112.082 165.677 112.082ZM176.73 113.356C177.374 113.356 177.924 113.496 178.382 113.776C178.848 114.056 179.203 114.453 179.446 114.966C179.698 115.47 179.824 116.063 179.824 116.744V117.486H174.686C174.704 118.335 174.919 118.984 175.33 119.432C175.75 119.871 176.333 120.09 177.08 120.09C177.556 120.09 177.976 120.048 178.34 119.964C178.713 119.871 179.096 119.74 179.488 119.572V120.65C179.105 120.818 178.727 120.939 178.354 121.014C177.98 121.098 177.537 121.14 177.024 121.14C176.314 121.14 175.684 120.995 175.134 120.706C174.592 120.417 174.168 119.987 173.86 119.418C173.561 118.839 173.412 118.135 173.412 117.304C173.412 116.483 173.547 115.778 173.818 115.19C174.098 114.602 174.485 114.149 174.98 113.832C175.484 113.515 176.067 113.356 176.73 113.356ZM176.716 114.364C176.128 114.364 175.661 114.555 175.316 114.938C174.98 115.311 174.779 115.834 174.714 116.506H178.536C178.526 115.871 178.377 115.358 178.088 114.966C177.798 114.565 177.341 114.364 176.716 114.364ZM187.614 113.356C187.754 113.356 187.903 113.365 188.062 113.384C188.23 113.393 188.375 113.412 188.496 113.44L188.342 114.574C188.221 114.546 188.085 114.523 187.936 114.504C187.796 114.485 187.661 114.476 187.53 114.476C187.147 114.476 186.788 114.583 186.452 114.798C186.116 115.003 185.845 115.297 185.64 115.68C185.444 116.053 185.346 116.492 185.346 116.996V121H184.114V113.496H185.122L185.262 114.868H185.318C185.561 114.457 185.873 114.103 186.256 113.804C186.639 113.505 187.091 113.356 187.614 113.356ZM197.163 118.928C197.163 119.656 196.892 120.207 196.351 120.58C195.81 120.953 195.082 121.14 194.167 121.14C193.644 121.14 193.192 121.098 192.809 121.014C192.436 120.93 192.104 120.813 191.815 120.664V119.544C192.114 119.693 192.473 119.833 192.893 119.964C193.322 120.085 193.756 120.146 194.195 120.146C194.82 120.146 195.273 120.048 195.553 119.852C195.833 119.647 195.973 119.376 195.973 119.04C195.973 118.853 195.922 118.685 195.819 118.536C195.716 118.387 195.53 118.237 195.259 118.088C194.998 117.939 194.62 117.771 194.125 117.584C193.64 117.397 193.224 117.211 192.879 117.024C192.534 116.837 192.268 116.613 192.081 116.352C191.894 116.091 191.801 115.755 191.801 115.344C191.801 114.709 192.058 114.219 192.571 113.874C193.094 113.529 193.775 113.356 194.615 113.356C195.072 113.356 195.497 113.403 195.889 113.496C196.29 113.58 196.664 113.701 197.009 113.86L196.589 114.84C196.272 114.709 195.94 114.597 195.595 114.504C195.25 114.411 194.895 114.364 194.531 114.364C194.027 114.364 193.64 114.448 193.369 114.616C193.108 114.775 192.977 114.994 192.977 115.274C192.977 115.479 193.038 115.657 193.159 115.806C193.28 115.946 193.481 116.086 193.761 116.226C194.05 116.357 194.433 116.515 194.909 116.702C195.385 116.879 195.791 117.061 196.127 117.248C196.463 117.435 196.72 117.663 196.897 117.934C197.074 118.195 197.163 118.527 197.163 118.928ZM207.88 117.234C207.88 118.475 207.563 119.437 206.928 120.118C206.303 120.799 205.454 121.14 204.38 121.14C203.718 121.14 203.125 120.991 202.602 120.692C202.089 120.384 201.683 119.941 201.384 119.362C201.086 118.774 200.936 118.065 200.936 117.234C200.936 115.993 201.249 115.036 201.874 114.364C202.5 113.692 203.349 113.356 204.422 113.356C205.104 113.356 205.701 113.51 206.214 113.818C206.737 114.117 207.143 114.555 207.432 115.134C207.731 115.703 207.88 116.403 207.88 117.234ZM202.21 117.234C202.21 118.121 202.383 118.825 202.728 119.348C203.083 119.861 203.643 120.118 204.408 120.118C205.164 120.118 205.72 119.861 206.074 119.348C206.429 118.825 206.606 118.121 206.606 117.234C206.606 116.347 206.429 115.652 206.074 115.148C205.72 114.644 205.16 114.392 204.394 114.392C203.629 114.392 203.074 114.644 202.728 115.148C202.383 115.652 202.21 116.347 202.21 117.234ZM215.825 113.356C216.721 113.356 217.398 113.575 217.855 114.014C218.312 114.443 218.541 115.143 218.541 116.114V121H217.323V116.198C217.323 114.994 216.763 114.392 215.643 114.392C214.812 114.392 214.238 114.625 213.921 115.092C213.604 115.559 213.445 116.231 213.445 117.108V121H212.213V113.496H213.207L213.389 114.518H213.459C213.702 114.126 214.038 113.837 214.467 113.65C214.896 113.454 215.349 113.356 215.825 113.356ZM226.089 113.37C227.004 113.37 227.681 113.571 228.119 113.972C228.558 114.373 228.777 115.013 228.777 115.89V121H227.881L227.643 119.936H227.587C227.261 120.347 226.915 120.65 226.551 120.846C226.197 121.042 225.702 121.14 225.067 121.14C224.386 121.14 223.821 120.963 223.373 120.608C222.925 120.244 222.701 119.679 222.701 118.914C222.701 118.167 222.995 117.593 223.583 117.192C224.171 116.781 225.077 116.557 226.299 116.52L227.573 116.478V116.03C227.573 115.405 227.438 114.971 227.167 114.728C226.897 114.485 226.514 114.364 226.019 114.364C225.627 114.364 225.254 114.425 224.899 114.546C224.545 114.658 224.213 114.789 223.905 114.938L223.527 114.014C223.854 113.837 224.241 113.687 224.689 113.566C225.137 113.435 225.604 113.37 226.089 113.37ZM226.453 117.374C225.52 117.411 224.871 117.561 224.507 117.822C224.153 118.083 223.975 118.452 223.975 118.928C223.975 119.348 224.101 119.656 224.353 119.852C224.615 120.048 224.946 120.146 225.347 120.146C225.982 120.146 226.509 119.973 226.929 119.628C227.349 119.273 227.559 118.732 227.559 118.004V117.332L226.453 117.374ZM234.707 121H233.475V110.36H234.707V121ZM244.991 118.284L250.269 116.086L244.991 113.58V112.488L251.585 115.778V116.478L244.991 119.376V118.284ZM264.703 111.004C266.01 111.004 266.962 111.261 267.559 111.774C268.157 112.287 268.455 113.011 268.455 113.944C268.455 114.495 268.329 115.013 268.077 115.498C267.835 115.974 267.419 116.361 266.831 116.66C266.253 116.959 265.464 117.108 264.465 117.108H263.317V121H262.057V111.004H264.703ZM264.591 112.082H263.317V116.03H264.325C265.277 116.03 265.987 115.876 266.453 115.568C266.92 115.26 267.153 114.737 267.153 114C267.153 113.356 266.948 112.875 266.537 112.558C266.127 112.241 265.478 112.082 264.591 112.082ZM277.198 111.97C276.125 111.97 275.28 112.329 274.664 113.048C274.048 113.767 273.74 114.751 273.74 116.002C273.74 117.243 274.025 118.228 274.594 118.956C275.173 119.675 276.036 120.034 277.184 120.034C277.623 120.034 278.038 119.997 278.43 119.922C278.822 119.847 279.205 119.754 279.578 119.642V120.734C279.205 120.874 278.817 120.977 278.416 121.042C278.024 121.107 277.553 121.14 277.002 121.14C275.985 121.14 275.135 120.93 274.454 120.51C273.773 120.09 273.259 119.493 272.914 118.718C272.578 117.943 272.41 117.033 272.41 115.988C272.41 114.98 272.592 114.093 272.956 113.328C273.329 112.553 273.875 111.951 274.594 111.522C275.313 111.083 276.185 110.864 277.212 110.864C278.267 110.864 279.186 111.06 279.97 111.452L279.466 112.516C279.158 112.376 278.813 112.25 278.43 112.138C278.057 112.026 277.646 111.97 277.198 111.97ZM285.064 111.158C284.942 111.643 284.765 112.189 284.532 112.796C284.308 113.393 284.084 113.939 283.86 114.434H282.95C283.043 114.079 283.132 113.701 283.216 113.3C283.309 112.889 283.393 112.488 283.468 112.096C283.542 111.695 283.603 111.331 283.65 111.004H284.966L285.064 111.158ZM293.261 118.928C293.261 119.656 292.99 120.207 292.449 120.58C291.908 120.953 291.18 121.14 290.265 121.14C289.742 121.14 289.29 121.098 288.907 121.014C288.534 120.93 288.202 120.813 287.913 120.664V119.544C288.212 119.693 288.571 119.833 288.991 119.964C289.42 120.085 289.854 120.146 290.293 120.146C290.918 120.146 291.371 120.048 291.651 119.852C291.931 119.647 292.071 119.376 292.071 119.04C292.071 118.853 292.02 118.685 291.917 118.536C291.814 118.387 291.628 118.237 291.357 118.088C291.096 117.939 290.718 117.771 290.223 117.584C289.738 117.397 289.322 117.211 288.977 117.024C288.632 116.837 288.366 116.613 288.179 116.352C287.992 116.091 287.899 115.755 287.899 115.344C287.899 114.709 288.156 114.219 288.669 113.874C289.192 113.529 289.873 113.356 290.713 113.356C291.17 113.356 291.595 113.403 291.987 113.496C292.388 113.58 292.762 113.701 293.107 113.86L292.687 114.84C292.37 114.709 292.038 114.597 291.693 114.504C291.348 114.411 290.993 114.364 290.629 114.364C290.125 114.364 289.738 114.448 289.467 114.616C289.206 114.775 289.075 114.994 289.075 115.274C289.075 115.479 289.136 115.657 289.257 115.806C289.378 115.946 289.579 116.086 289.859 116.226C290.148 116.357 290.531 116.515 291.007 116.702C291.483 116.879 291.889 117.061 292.225 117.248C292.561 117.435 292.818 117.663 292.995 117.934C293.172 118.195 293.261 118.527 293.261 118.928ZM308.357 118.928C308.357 119.656 308.086 120.207 307.545 120.58C307.004 120.953 306.276 121.14 305.361 121.14C304.838 121.14 304.386 121.098 304.003 121.014C303.63 120.93 303.298 120.813 303.009 120.664V119.544C303.308 119.693 303.667 119.833 304.087 119.964C304.516 120.085 304.95 120.146 305.389 120.146C306.014 120.146 306.467 120.048 306.747 119.852C307.027 119.647 307.167 119.376 307.167 119.04C307.167 118.853 307.116 118.685 307.013 118.536C306.91 118.387 306.724 118.237 306.453 118.088C306.192 117.939 305.814 117.771 305.319 117.584C304.834 117.397 304.418 117.211 304.073 117.024C303.728 116.837 303.462 116.613 303.275 116.352C303.088 116.091 302.995 115.755 302.995 115.344C302.995 114.709 303.252 114.219 303.765 113.874C304.288 113.529 304.969 113.356 305.809 113.356C306.266 113.356 306.691 113.403 307.083 113.496C307.484 113.58 307.858 113.701 308.203 113.86L307.783 114.84C307.466 114.709 307.134 114.597 306.789 114.504C306.444 114.411 306.089 114.364 305.725 114.364C305.221 114.364 304.834 114.448 304.563 114.616C304.302 114.775 304.171 114.994 304.171 115.274C304.171 115.479 304.232 115.657 304.353 115.806C304.474 115.946 304.675 116.086 304.955 116.226C305.244 116.357 305.627 116.515 306.103 116.702C306.579 116.879 306.985 117.061 307.321 117.248C307.657 117.435 307.914 117.663 308.091 117.934C308.268 118.195 308.357 118.527 308.357 118.928ZM316.12 113.356C317.044 113.356 317.786 113.678 318.346 114.322C318.916 114.966 319.2 115.937 319.2 117.234C319.2 118.513 318.916 119.483 318.346 120.146C317.786 120.809 317.04 121.14 316.106 121.14C315.528 121.14 315.047 121.033 314.664 120.818C314.291 120.594 313.997 120.337 313.782 120.048H313.698C313.717 120.207 313.736 120.407 313.754 120.65C313.773 120.893 313.782 121.103 313.782 121.28V124.36H312.55V113.496H313.558L313.726 114.518H313.782C314.006 114.191 314.3 113.916 314.664 113.692C315.028 113.468 315.514 113.356 316.12 113.356ZM315.896 114.392C315.131 114.392 314.59 114.607 314.272 115.036C313.964 115.465 313.801 116.119 313.782 116.996V117.234C313.782 118.158 313.932 118.872 314.23 119.376C314.538 119.871 315.103 120.118 315.924 120.118C316.382 120.118 316.755 119.992 317.044 119.74C317.343 119.488 317.562 119.147 317.702 118.718C317.852 118.279 317.926 117.78 317.926 117.22C317.926 116.361 317.758 115.675 317.422 115.162C317.096 114.649 316.587 114.392 315.896 114.392ZM326.386 113.37C327.3 113.37 327.977 113.571 328.416 113.972C328.854 114.373 329.074 115.013 329.074 115.89V121H328.178L327.94 119.936H327.884C327.557 120.347 327.212 120.65 326.848 120.846C326.493 121.042 325.998 121.14 325.364 121.14C324.682 121.14 324.118 120.963 323.67 120.608C323.222 120.244 322.998 119.679 322.998 118.914C322.998 118.167 323.292 117.593 323.88 117.192C324.468 116.781 325.373 116.557 326.596 116.52L327.87 116.478V116.03C327.87 115.405 327.734 114.971 327.464 114.728C327.193 114.485 326.81 114.364 326.316 114.364C325.924 114.364 325.55 114.425 325.196 114.546C324.841 114.658 324.51 114.789 324.202 114.938L323.824 114.014C324.15 113.837 324.538 113.687 324.986 113.566C325.434 113.435 325.9 113.37 326.386 113.37ZM326.75 117.374C325.816 117.411 325.168 117.561 324.804 117.822C324.449 118.083 324.272 118.452 324.272 118.928C324.272 119.348 324.398 119.656 324.65 119.852C324.911 120.048 325.242 120.146 325.644 120.146C326.278 120.146 326.806 119.973 327.226 119.628C327.646 119.273 327.856 118.732 327.856 118.004V117.332L326.75 117.374ZM336.781 121.14C336.119 121.14 335.526 121.005 335.003 120.734C334.49 120.463 334.084 120.043 333.785 119.474C333.496 118.905 333.351 118.177 333.351 117.29C333.351 116.366 333.505 115.615 333.813 115.036C334.121 114.457 334.537 114.033 335.059 113.762C335.591 113.491 336.193 113.356 336.865 113.356C337.248 113.356 337.617 113.398 337.971 113.482C338.326 113.557 338.615 113.65 338.839 113.762L338.461 114.784C338.237 114.7 337.976 114.621 337.677 114.546C337.379 114.471 337.099 114.434 336.837 114.434C335.363 114.434 334.625 115.381 334.625 117.276C334.625 118.181 334.803 118.877 335.157 119.362C335.521 119.838 336.058 120.076 336.767 120.076C337.178 120.076 337.537 120.034 337.845 119.95C338.163 119.866 338.452 119.763 338.713 119.642V120.734C338.461 120.865 338.181 120.963 337.873 121.028C337.575 121.103 337.211 121.14 336.781 121.14ZM345.776 113.356C346.42 113.356 346.97 113.496 347.428 113.776C347.894 114.056 348.249 114.453 348.492 114.966C348.744 115.47 348.87 116.063 348.87 116.744V117.486H343.732C343.75 118.335 343.965 118.984 344.376 119.432C344.796 119.871 345.379 120.09 346.126 120.09C346.602 120.09 347.022 120.048 347.386 119.964C347.759 119.871 348.142 119.74 348.534 119.572V120.65C348.151 120.818 347.773 120.939 347.4 121.014C347.026 121.098 346.583 121.14 346.07 121.14C345.36 121.14 344.73 120.995 344.18 120.706C343.638 120.417 343.214 119.987 342.906 119.418C342.607 118.839 342.458 118.135 342.458 117.304C342.458 116.483 342.593 115.778 342.864 115.19C343.144 114.602 343.531 114.149 344.026 113.832C344.53 113.515 345.113 113.356 345.776 113.356ZM345.762 114.364C345.174 114.364 344.707 114.555 344.362 114.938C344.026 115.311 343.825 115.834 343.76 116.506H347.582C347.572 115.871 347.423 115.358 347.134 114.966C346.844 114.565 346.387 114.364 345.762 114.364ZM358.687 118.284L363.965 116.086L358.687 113.58V112.488L365.281 115.778V116.478L358.687 119.376V118.284ZM383.677 118.158C383.159 118.774 382.459 119.292 381.633 119.726C381.003 119.278 380.009 118.732 379.099 118.354C379.197 118.298 379.295 118.228 379.393 118.158H383.677ZM375.389 118.046H376.355V116.562H379.897C379.127 117.416 377.797 118.256 375.977 118.844C376.187 119.012 376.467 119.334 376.607 119.558C377.209 119.348 377.755 119.096 378.259 118.844C379.085 119.194 380.023 119.698 380.681 120.16C379.365 120.692 377.867 121.028 376.411 121.21C376.579 121.42 376.789 121.84 376.887 122.092C380.219 121.588 383.705 120.342 385.161 117.724L384.503 117.346L384.321 117.388H380.359C380.639 117.122 380.891 116.842 381.115 116.562H386.421V118.046H387.429V115.736H375.389V118.046ZM385.413 114.252H383.285V112.81H385.413V114.252ZM382.403 114.252H380.317V112.81H382.403V114.252ZM379.421 114.252H377.419V112.81H379.421V114.252ZM376.467 112.082V114.994H386.393V112.082H376.467ZM384.209 110.22V109.296H383.173V110.22H379.547V109.296H378.525V110.22H375.333V111.116H378.525V111.83H379.547V111.116H383.173V111.83H384.209V111.116H387.471V110.22H384.209ZM402.381 112.18H398.909V110.878H402.381V112.18ZM402.381 114.294H398.909V112.992H402.381V114.294ZM402.381 116.436H398.909V115.106H402.381V116.436ZM403.375 110.024H397.943V117.29H403.375V110.024ZM396.585 117.71C397.229 118.34 398.083 119.236 398.489 119.768L399.245 119.152C398.825 118.634 397.957 117.766 397.313 117.178L396.585 117.71ZM392.385 121.336C392.945 120.566 393.393 119.32 393.701 118.382L392.791 118.032C392.511 118.942 392.035 120.132 391.475 120.874L392.385 121.336ZM395.129 117.43V114.028C395.745 114.546 396.529 115.232 396.893 115.582L397.453 114.742C397.089 114.462 395.661 113.398 395.129 113.062V112.278H397.341V111.368H395.129V109.324H394.135V111.368H391.587V112.278H393.953C393.337 113.706 392.301 115.148 391.279 115.876C391.489 116.044 391.783 116.366 391.951 116.604C392.735 115.96 393.519 114.896 394.135 113.748V117.43H395.129ZM396.739 120.832C395.927 120.832 395.787 120.762 395.787 120.398V118.186H394.765V120.412C394.765 121.49 395.157 121.77 396.669 121.77H399.567C400.827 121.77 401.149 121.35 401.289 119.6C400.995 119.544 400.575 119.39 400.337 119.208C400.281 120.636 400.169 120.832 399.497 120.832H396.739ZM401.485 118.158C402.045 119.082 402.773 120.3 403.095 121.028L404.061 120.552C403.711 119.838 402.955 118.634 402.381 117.752L401.485 118.158ZM417.263 114.448V115.288H411.019V114.448H417.263ZM410.977 116.856C410.991 116.548 411.005 116.254 411.019 115.974H417.263V116.856H410.977ZM418.285 117.612V113.692H409.969V115.708C409.969 117.388 409.717 119.67 407.869 121.294C408.107 121.434 408.513 121.812 408.667 122.008C410.039 120.79 410.641 119.138 410.879 117.612H418.285ZM417.767 119.18V120.818H412.055V119.18H417.767ZM411.061 122.064H412.055V121.63H417.767V122.05H418.803V118.368H411.061V122.064ZM411.957 112.138C412.825 111.48 413.567 110.808 414.085 110.178C414.673 110.822 415.485 111.494 416.381 112.138H411.957ZM413.539 109.254C412.405 110.752 410.067 112.488 407.687 113.51C407.897 113.72 408.163 114.098 408.289 114.336C409.451 113.804 410.599 113.118 411.607 112.39V112.922H416.675V112.348C417.753 113.09 418.929 113.762 420.007 114.238C420.175 113.958 420.427 113.594 420.651 113.342C418.495 112.516 416.059 110.948 414.533 109.254H413.539ZM436.765 111.438V110.514H431.473V109.296H430.409V110.514H425.229V114.868C425.229 116.856 425.131 119.586 424.025 121.504C424.249 121.602 424.683 121.91 424.851 122.092C426.041 120.062 426.209 117.01 426.209 114.868V111.438H436.765ZM428.435 117.836V116.772H431.025V117.836H428.435ZM428.435 115.036H431.025V116.086H428.435V115.036ZM434.735 115.036V116.086H432.019V115.036H434.735ZM434.735 117.836H432.019V116.772H434.735V117.836ZM436.863 119.53H432.019V118.536H435.687V114.336H432.019V113.398H436.415V112.572H432.019V111.564H431.025V112.572H426.993V113.398H431.025V114.336H427.511V118.536H431.025V119.53H426.391V120.412H431.025V122.078H432.019V120.412H436.863V119.53Z" fill="#363B3F"/>
<path d="M374.395 123.1H437.535V123.8H374.395V123.1Z" fill="#363B3F"/>
<path d="M952.719 50.9237C952.719 54.2563 950.014 56.9606 946.682 56.9606C943.349 56.9606 940.645 54.2563 940.645 50.9237C940.645 47.591 943.349 44.8867 946.682 44.8867C950.014 44.8867 952.719 47.591 952.719 50.9237ZM946.682 61.8896C948.085 61.8896 949.422 61.5972 950.635 61.0799H953.159C956.046 61.0799 958.386 63.4198 958.386 66.3072V67.1168C958.386 67.7675 957.858 68.2958 957.207 68.2958H936.156C935.505 68.2958 934.977 67.7675 934.977 67.1168V66.3072C934.977 63.4198 937.317 61.0799 940.204 61.0799H942.729C943.944 61.5965 945.277 61.8896 946.682 61.8896Z" stroke="white" stroke-width="2.5"/>
<path d="M830.881 67.5572C830.516 68.0078 829.959 68.2958 829.335 68.2958C828.711 68.2958 828.154 68.0078 827.79 67.5572H830.881Z" stroke="white" stroke-width="2.5"/>
<path d="M586.77 50.865L591.953 56.0475L580.699 67.3011L576.078 67.8112C575.46 67.8796 574.937 67.3566 575.006 66.738L575.52 62.1142L586.77 50.865V50.865ZM595.158 50.0935L592.725 47.6601C591.966 46.9011 590.735 46.9011 589.976 47.6601L587.686 49.9493L592.869 55.1318L595.158 52.8426C595.917 52.0831 595.917 50.8525 595.158 50.0935V50.0935Z" fill="white"/>
<path d="M39.9253 51.2548H63.9838C64.4948 51.2548 64.9091 50.8405 64.9091 50.3295V48.0161C64.9091 47.5051 64.4948 47.0908 63.9838 47.0908H39.9253C39.4143 47.0908 39 47.5051 39 48.0161V50.3295C39 50.8405 39.4143 51.2548 39.9253 51.2548ZM39.9253 60.508H63.9838C64.4948 60.508 64.9091 60.0938 64.9091 59.5827V57.2694C64.9091 56.7583 64.4948 56.3441 63.9838 56.3441H39.9253C39.4143 56.3441 39 56.7583 39 57.2694V59.5827C39 60.0938 39.4143 60.508 39.9253 60.508ZM39.9253 69.7613H63.9838C64.4948 69.7613 64.9091 69.347 64.9091 68.836V66.5226C64.9091 66.0116 64.4948 65.5973 63.9838 65.5973H39.9253C39.4143 65.5973 39 66.0116 39 66.5226V68.836C39 69.347 39.4143 69.7613 39.9253 69.7613Z" fill="white"/>
<g filter="url(#filter1_d_657:1969)">
<rect x="130" y="195" width="186" height="186" rx="5" fill="url(#paint1_linear_657:1969)" shape-rendering="crispEdges"/>
</g>
<g filter="url(#filter2_d_657:1969)">
<rect x="128" y="420" width="186" height="186" rx="5" fill="url(#paint2_linear_657:1969)" shape-rendering="crispEdges"/>
</g>
<g filter="url(#filter3_d_657:1969)">
<rect x="407" y="195" width="186" height="186" rx="5" fill="url(#paint3_linear_657:1969)" shape-rendering="crispEdges"/>
</g>
<g filter="url(#filter4_d_657:1969)">
<rect x="685" y="195" width="186" height="186" rx="5" fill="url(#paint4_linear_657:1969)" shape-rendering="crispEdges"/>
</g>
<g filter="url(#filter5_d_657:1969)">
<rect x="406" y="420" width="186" height="186" rx="5" fill="url(#paint5_linear_657:1969)" shape-rendering="crispEdges"/>
</g>
<g filter="url(#filter6_d_657:1969)">
<rect x="683" y="420" width="186" height="186" rx="5" fill="url(#paint6_linear_657:1969)" shape-rendering="crispEdges"/>
</g>
<path d="M468.052 507.4V508.168H465.684V507.4H468.052ZM465.684 510.104V509.336H468.052V510.104H465.684ZM469.828 511.384V506.12H463.796V520.36H465.684V511.384H469.828ZM472.66 510.104V509.336H475.124V510.104H472.66ZM475.124 507.4V508.168H472.66V507.4H475.124ZM468.82 515.048H471.828V515.896H468.82V515.048ZM477.044 506.12H470.836V511.384H475.124V518.216C475.124 518.392 475.076 518.44 474.932 518.44C474.836 518.456 474.644 518.456 474.404 518.456L474.436 518.216C474.036 518.136 473.396 517.912 473.108 517.688C473.076 518.52 473.012 518.632 472.82 518.632H472.356C472.164 518.632 472.148 518.6 472.148 518.264V516.984H473.396V514.904C473.476 514.968 473.556 515.016 473.636 515.064C473.892 514.76 474.436 514.248 474.804 514.008C473.86 513.576 472.98 512.776 472.628 511.848H469.444V513.176H471.684C471.86 513.448 472.068 513.72 472.308 513.976H468.356C468.74 513.512 469.076 513 469.316 512.504L467.844 512.152C467.524 512.92 466.788 513.752 465.94 514.232C466.26 514.44 466.74 514.856 467.012 515.128C467.124 515.064 467.236 514.984 467.348 514.904V516.984H468.212C468.036 517.896 467.588 518.472 465.972 518.808C466.292 519.096 466.708 519.72 466.868 520.072C468.9 519.464 469.524 518.488 469.748 516.984H470.58V518.28C470.58 519.576 470.836 519.976 472.068 519.976H473.028C473.668 519.976 474.052 519.784 474.26 519.16C474.388 519.576 474.468 520.04 474.5 520.36C475.348 520.36 475.972 520.312 476.436 519.992C476.932 519.672 477.044 519.112 477.044 518.248V506.12ZM490.804 507.88H487.908V508.984H495.892V507.896H492.66V507.336H496.308V506.168H492.66V505.464H490.804V506.168H487.364V507.336H490.804V507.88ZM490.276 510.376C490.148 510.728 489.812 510.888 488.916 510.952V510.376H490.276ZM494.676 510.76C494.644 510.792 494.564 510.808 494.404 510.808H493.572C493.316 510.808 493.284 510.776 493.284 510.488V510.376H494.676V510.76ZM488.916 511.88V511.032C489.076 511.224 489.252 511.512 489.3 511.72C490.772 511.576 491.252 511.144 491.38 510.376H492.116V510.472C492.116 511.288 492.356 511.496 493.396 511.496H494.58H494.676V511.88H488.916ZM487.428 512.824H496.244V509.448H487.428V512.824ZM486.516 505.944H482.42V507.384H486.516V505.944ZM486.948 508.088H481.668V509.592H486.948V508.088ZM486.564 510.312H482.324V511.768H486.564V510.312ZM482.324 513.928H486.564V512.504H482.324V513.928ZM485.012 516.2V518.04H483.748V516.2H485.012ZM486.532 514.712H482.276V520.168H483.748V519.528H486.532V514.712ZM489.636 516.552H494.052V517.048H489.636V516.552ZM489.636 515.368H494.052V515.864H489.636V515.368ZM489.636 514.2H494.052V514.68H489.636V514.2ZM495.812 518.024V513.224H487.956V518.024H489.492C488.74 518.504 487.588 519.016 486.564 519.272C486.932 519.576 487.46 520.056 487.748 520.376C488.932 520.056 490.388 519.368 491.268 518.696L490.18 518.024H493.108L492.244 518.728C493.3 519.24 494.532 519.928 495.204 520.36L496.788 519.384C496.116 519 495.028 518.488 494.004 518.024H495.812ZM511.364 516.456V517.032H504.516V516.456H511.364ZM504.516 518.76V518.136H511.364V518.76H504.516ZM502.676 520.44H504.516V519.96H511.364V520.424H513.284V515.24H502.676V520.44ZM508.74 509.416H511.316V510.024H508.74V509.416ZM508.74 507.512H511.316V508.104H508.74V507.512ZM513.204 511.128V509.416H515.028V508.104H513.204V506.408H508.74V505.4H506.836V506.408H502.324V507.512H506.836V508.104H500.692V509.416H506.836V510.024H502.148V511.128H506.836V511.688H501.796V512.84H506.836V513.416H500.676V514.744H515.028V513.416H508.74V512.84H513.86V511.688H508.74V511.128H513.204ZM531.06 508.136H528.772V507.208H531.06V508.136ZM532.836 506.072H527.092V509.272H532.836V506.072ZM524.34 508.136H522.1V507.208H524.34V508.136ZM526.116 506.072H520.404V509.272H526.116V506.072ZM522.836 514.44V513.576H525.54V514.44H522.836ZM522.836 511.368H525.54V512.216H522.836V511.368ZM530.372 512.216H527.492V511.368H530.372V512.216ZM530.372 514.44H527.492V513.576H530.372V514.44ZM533.716 516.728H527.492V515.896H532.324V509.896H520.98V515.896H525.54V516.728H519.46V518.36H525.54V520.392H527.492V518.36H533.716V516.728Z" fill="#363B3F"/>
<path d="M739.916 512.408H742.86V513.368H739.916V512.408ZM739.916 510.088H742.86V511.016H739.916V510.088ZM739.916 507.752H742.86V508.68H739.916V507.752ZM736.556 515.48C737.276 516.152 738.22 517.128 738.668 517.704L740.044 516.552C739.66 516.104 738.972 515.432 738.348 514.856H744.684V506.248H738.188V514.712L737.868 514.424L736.556 515.48ZM733.5 515.048H735.308V511.704C735.884 512.232 736.476 512.808 736.844 513.208L737.836 511.688C737.468 511.384 735.948 510.296 735.308 509.928V509.336H737.564V507.72H735.308V505.464H733.5V507.72H730.876V509.336H733.196C732.572 510.728 731.532 512.12 730.476 512.904C730.86 513.208 731.42 513.8 731.692 514.216C732.348 513.64 732.956 512.84 733.5 511.896V515.048ZM732.332 519.512C732.892 518.584 733.356 517.16 733.676 516.024L731.98 515.352C731.708 516.488 731.164 517.8 730.588 518.648L732.332 519.512ZM737.164 518.392C736.3 518.392 736.14 518.328 736.14 517.848V515.688H734.252V517.88C734.252 519.544 734.812 520.072 736.988 520.072H739.868C741.628 520.072 742.156 519.512 742.396 517.224C741.868 517.128 741.068 516.856 740.684 516.552C740.588 518.168 740.476 518.392 739.724 518.392H737.164ZM741.948 515.912C742.572 516.984 743.452 518.392 743.836 519.24L745.612 518.328C745.18 517.496 744.252 516.136 743.612 515.144L741.948 515.912ZM764.076 513.656V511.736H757.708V509.464H762.924V507.56H757.708V505.448H755.708V507.56H750.764V509.464H755.708V511.736H749.548V513.656H754.092C753.66 515.016 753.036 516.568 752.428 517.784L750.14 517.88L750.412 519.896C753.308 519.752 757.484 519.512 761.452 519.24C761.724 519.72 761.964 520.168 762.124 520.552L764.028 519.56C763.34 518.12 761.9 516.04 760.524 514.472L758.716 515.272C759.228 515.912 759.772 516.632 760.284 517.384C758.364 517.48 756.412 517.592 754.62 517.672C755.26 516.472 755.948 515.016 756.524 513.656H764.076ZM770.444 517.064V513.928H772.988V517.064H770.444ZM772.988 512.28H770.444V509.688H772.988V512.28ZM778.076 507.912C778.316 507.24 778.524 506.568 778.7 505.88L776.876 505.464C776.412 507.336 775.644 509.272 774.716 510.616V508.024H772.236C772.508 507.336 772.796 506.536 773.068 505.736L770.988 505.448C770.924 506.2 770.732 507.224 770.524 508.024H768.716V519.912H770.444V518.744H774.716V511.272C775.148 511.56 775.692 511.928 775.948 512.168C776.444 511.48 776.94 510.6 777.356 509.64H780.78C780.604 515.288 780.396 517.688 779.932 518.2C779.724 518.408 779.548 518.472 779.228 518.472C778.812 518.472 777.868 518.472 776.844 518.376C777.18 518.904 777.436 519.704 777.468 520.232C778.412 520.264 779.372 520.28 779.98 520.2C780.62 520.088 781.068 519.912 781.516 519.32C782.172 518.472 782.348 515.928 782.556 508.776C782.572 508.552 782.572 507.912 782.572 507.912H778.076ZM779.916 515.208C779.42 514.28 778.364 512.76 777.564 511.656L776.076 512.504C776.86 513.672 777.852 515.24 778.3 516.2L779.916 515.208ZM790.444 510.936H792.06V509.128H790.444V505.656H788.668V509.128H786.796V510.936H788.668V515.448C787.868 515.752 787.164 516.024 786.588 516.232L787.356 518.152C788.828 517.48 790.652 516.616 792.348 515.768L791.916 514.088C791.436 514.296 790.94 514.504 790.444 514.712V510.936ZM795.9 518.392C794.924 518.392 794.78 518.248 794.78 517.32V512.376L796.108 511.8V516.68H797.884V511.032L799.26 510.424C799.26 512.696 799.244 513.864 799.212 514.12C799.148 514.408 799.052 514.472 798.86 514.472C798.716 514.472 798.364 514.472 798.092 514.44C798.3 514.84 798.444 515.544 798.492 516.04C799.004 516.04 799.692 516.024 800.156 515.816C800.636 515.608 800.924 515.224 800.972 514.488C801.052 513.832 801.084 511.912 801.084 508.872L801.148 508.552L799.82 508.088L799.484 508.312L799.148 508.536L797.884 509.08V505.432H796.108V509.848L794.78 510.408V506.984H792.956V511.192L791.388 511.848L792.092 513.544L792.956 513.176V517.288C792.956 519.496 793.58 520.088 795.74 520.088H799.148C801.02 520.088 801.58 519.32 801.836 517.08C801.308 516.984 800.572 516.68 800.172 516.392C800.028 518.024 799.868 518.392 798.988 518.392H795.9ZM820.156 509.816V507.992H813.836V505.384H811.868V507.992H805.74V509.816H810.316C810.14 513.24 809.772 516.888 805.452 518.888C805.948 519.304 806.524 519.976 806.796 520.504C809.996 518.888 811.324 516.392 811.932 513.688H816.332C816.108 516.6 815.82 517.992 815.404 518.344C815.212 518.52 814.988 518.552 814.636 518.552C814.172 518.552 813.052 518.552 811.948 518.44C812.3 518.984 812.588 519.768 812.62 520.312C813.692 520.36 814.764 520.376 815.356 520.312C816.108 520.248 816.604 520.088 817.084 519.576C817.724 518.872 818.06 517.08 818.348 512.728C818.396 512.472 818.412 511.896 818.412 511.896H812.236C812.316 511.208 812.364 510.504 812.412 509.816H820.156Z" fill="#363B3F"/>
<line x1="448" y1="534.5" x2="550" y2="534.5" stroke="white"/>
<line x1="725" y1="534.5" x2="827" y2="534.5" stroke="white"/>
<path d="M194.02 287.384H194.708V288.808H194.02V287.384ZM193.252 289.896H195.492V286.28H193.252V289.896ZM195.572 284.392H193.204V285.56H195.572V284.392ZM190.02 289.512H191.14V288.008H189.988L189.94 286.648H191.14V285.128H189.908L189.876 283.928C190.404 283.72 190.964 283.496 191.524 283.24V291.016H190.068L190.02 289.512ZM195.956 283.592V291.016H192.852V283.592H195.956ZM201.732 292.76V291.016H200.452C200.612 288.52 200.724 285.016 200.756 282.2H197.668V283.736H199.076C199.076 284.184 199.076 284.664 199.06 285.128H197.716V286.648H199.028C199.028 287.112 199.012 287.56 198.996 288.008H197.716V289.512H198.932C198.9 290.04 198.884 290.552 198.852 291.016H197.332V282.168H191.524L190.948 281.48C190.564 281.8 190.02 282.152 189.476 282.472L188.212 282.248L188.468 291.016H187.124V292.76H191.428C190.388 293.544 188.612 294.504 187.156 295.048C187.62 295.416 188.292 296.008 188.66 296.392C190.116 295.8 192.052 294.76 193.3 293.848L191.764 292.76H196.708L195.444 293.88C197.076 294.648 198.868 295.72 199.892 296.392L201.748 295.08C200.66 294.456 198.836 293.512 197.188 292.76H201.732ZM214.788 284.92H213.652V283.624H214.788V284.92ZM218.724 286.12C218.612 287.08 218.42 287.976 218.196 288.776C217.924 288.04 217.7 287.256 217.54 286.472L216.292 286.76V286.12H218.724ZM216.292 286.84C216.58 288.184 216.964 289.496 217.476 290.648C217.14 291.288 216.74 291.848 216.292 292.28V286.84ZM213.652 291V289.176H214.788V290.776L213.652 291ZM214.788 287.736H213.652V286.36H214.788V287.736ZM210.324 290.808H211.732V289.144H210.324V287.704H211.828V286.024H210.052V284.712H211.572V283.624H212.18V291.288C211.812 291.352 211.476 291.416 211.172 291.464L211.492 293.016C212.484 292.776 213.62 292.504 214.788 292.232V293.912H216.292V292.456C216.628 292.744 217.076 293.336 217.252 293.688C217.652 293.304 218.036 292.856 218.372 292.312C218.772 292.904 219.22 293.416 219.716 293.832C219.956 293.416 220.42 292.856 220.788 292.568C220.164 292.12 219.604 291.496 219.14 290.744C219.78 289.176 220.196 287.192 220.404 284.856L219.46 284.584L219.172 284.632H216.292V283.624H219.108V282.024H211.476V283.064H210.052V281.448H208.34V283.064H206.276V284.712H208.34V286.024H205.924V287.704H208.676V292.184C208.388 291.736 208.148 291.192 207.94 290.52C207.956 289.896 207.94 289.272 207.924 288.68L206.372 288.6C206.452 290.808 206.404 293.368 205.428 295.256C205.812 295.432 206.404 295.992 206.644 296.376C207.14 295.496 207.444 294.52 207.652 293.496C208.964 295.544 210.964 295.96 214.068 295.96H219.972C220.084 295.4 220.404 294.52 220.692 294.104C219.316 294.152 215.236 294.136 214.084 294.136C212.532 294.136 211.3 294.04 210.324 293.592V290.808ZM228.052 290.904V287.016H229.556V285.224H228.052V281.608H226.26V285.224H224.612V287.016H226.26V291.56C225.508 291.832 224.82 292.072 224.26 292.248L224.868 294.168C226.404 293.576 228.324 292.792 230.116 292.024L229.716 290.28L228.052 290.904ZM236.5 291.736V293.896H232.388V291.736H236.5ZM230.58 296.36H232.388V295.624H236.5V296.296H238.404V290.04H230.58V296.36ZM235.988 284.936C235.86 285.576 235.62 286.392 235.412 286.952L236.164 287.144H232.676L233.444 286.952C233.396 286.408 233.172 285.592 232.884 284.936H235.988ZM237.156 287.144C237.412 286.616 237.684 285.896 237.988 285.176L236.948 284.936H239.06V283.24H235.332V281.512H233.444V283.24H229.748V284.936H232.18L231.108 285.176C231.332 285.784 231.54 286.552 231.62 287.144H229.316V288.856H239.348V287.144H237.156ZM254.756 293.352C254.388 293.624 253.988 293.912 253.588 294.152C252.948 293.944 252.372 293.688 251.908 293.352H254.756ZM248.116 294.44V293.352H249.908C250.164 293.688 250.436 293.976 250.756 294.248L248.116 294.44ZM253.012 290.696H248.116V290.152H253.012V290.696ZM248.116 292.2V291.656H253.012V292.2H248.116ZM252.5 288.072C252.74 288.408 252.996 288.712 253.284 289.016H251.444V288.36H249.636V289.016H247.956C248.244 288.712 248.516 288.408 248.74 288.072H252.5ZM257.652 288.072V286.664H251.524V286.12H256.1V284.792H251.524V284.232H256.836V282.84H254.228C254.5 282.552 254.788 282.216 255.076 281.832L252.964 281.432C252.804 281.816 252.484 282.408 252.212 282.824L252.276 282.84H248.804L248.98 282.776C248.804 282.36 248.42 281.768 248.036 281.384L246.372 281.912C246.58 282.184 246.788 282.52 246.964 282.84H244.244V284.232H249.572V284.792H245.044V286.12H249.572V286.664H243.476V288.072H246.5C245.588 288.952 244.324 289.672 242.98 290.168C243.364 290.488 243.988 291.176 244.26 291.544C244.932 291.24 245.604 290.888 246.228 290.456V294.552C245.604 294.6 245.044 294.632 244.548 294.648L244.74 296.28C246.612 296.136 249.14 295.912 251.556 295.688V294.856C252.884 295.72 254.612 296.2 256.756 296.408C256.996 295.912 257.444 295.192 257.796 294.808C256.9 294.76 256.052 294.68 255.284 294.552C255.844 294.232 256.436 293.864 256.964 293.48L255.572 292.696C255.396 292.856 255.172 293.032 254.932 293.224V290.376C255.556 290.792 256.228 291.128 256.916 291.368C257.188 290.904 257.716 290.232 258.116 289.864C256.788 289.528 255.54 288.872 254.612 288.072H257.652Z" fill="#363B3F"/>
<path d="M745.196 284.12V284.824H744.092V284.12H745.196ZM745.196 286.968H744.092V286.216H745.196V286.968ZM742.38 284.824H739.34V286.216H742.38V286.968H740.38V288.344H742.38V289.096H740.188V290.472H742.38V291.256H739.788V292.632H742.38V294.088H744.092V292.632H747.276V291.256H744.092V290.472H746.892V289.096H744.092V288.344H746.796V286.216H747.58V284.824H746.796V282.744H744.092V281.56H742.38V282.744H740.38V284.12H742.38V284.824ZM735.724 284.952C735.964 284.408 736.188 283.864 736.396 283.304V284.264H737.676C737.148 285.624 736.428 287.384 735.804 288.776L737.356 289.128L737.644 288.472H738.412C738.284 289.496 738.108 290.44 737.852 291.304C737.644 290.776 737.468 290.168 737.324 289.464L735.884 289.88C736.188 291.272 736.588 292.36 737.052 293.224C736.684 293.896 736.236 294.44 735.724 294.824V284.952ZM739.116 287.064L738.828 287.096H738.236C738.844 285.656 739.436 284.168 739.868 282.968L738.684 282.664L738.412 282.728H736.604C736.684 282.488 736.764 282.248 736.844 282.008L735.148 281.496C734.524 283.688 733.468 285.864 732.284 287.288C732.572 287.784 732.988 288.888 733.116 289.352C733.436 288.968 733.756 288.52 734.06 288.056V296.36H735.724V295.08C736.06 295.448 736.444 295.992 736.62 296.36C737.212 295.896 737.724 295.336 738.156 294.664C739.388 295.832 741.02 296.168 743.116 296.168H747.116C747.196 295.672 747.452 294.872 747.708 294.456C746.812 294.488 743.948 294.488 743.212 294.488C741.452 294.472 740.012 294.184 738.956 293.096C739.58 291.544 739.948 289.608 740.108 287.24L739.116 287.064ZM760.78 288.584H762.988V289.368H760.78V288.584ZM760.78 286.52H762.988V287.256H760.78V286.52ZM764.796 290.632V288.584H766.22V287.256H764.796V285.256H760.78V284.472H766.044V282.808H760.268V281.464H758.284V282.808H752.572V287.448C752.572 289.8 752.476 293.128 751.164 295.416C751.58 295.608 752.38 296.136 752.7 296.456C754.14 293.976 754.38 290.04 754.38 287.448V284.472H758.94V285.256H755.596V286.52H758.94V287.256H754.684V288.584H758.94V289.368H755.42V290.632H755.644L754.668 291.592C755.452 292.024 756.428 292.68 756.924 293.128L758.012 292.008C757.516 291.576 756.556 291.016 755.788 290.632H758.94V294.504C758.94 294.76 758.86 294.84 758.572 294.84C758.364 294.856 757.708 294.856 757.036 294.824C757.516 294.6 758.012 294.376 758.492 294.136L758.156 292.776C756.62 293.368 755.052 293.96 753.996 294.28L754.876 295.8C755.42 295.576 756.012 295.304 756.62 295.016C756.828 295.464 757.036 296.008 757.1 296.408C758.412 296.408 759.324 296.392 759.932 296.136C760.556 295.88 760.78 295.464 760.78 294.52V292.968C761.74 294.456 763.068 295.576 764.812 296.216C765.068 295.736 765.58 295.048 765.964 294.68C764.876 294.376 763.948 293.88 763.18 293.24C763.948 292.84 764.812 292.328 765.596 291.816L764.204 290.696C763.676 291.144 762.892 291.736 762.156 292.184C761.788 291.704 761.484 291.192 761.244 290.632H764.796ZM773.324 289.768H775.004V288.2H773.276L773.244 286.856H775.004V285.288H773.196L773.164 284.136C773.948 283.832 774.812 283.448 775.58 283.08V287.192H777.964V291.08H777.052V287.736H775.548V291.08H773.372L773.324 289.768ZM784.876 291.08H783.34C783.484 288.68 783.548 285.176 783.548 282.376H779.948V284.024H781.804C781.804 284.44 781.804 284.856 781.788 285.288H780.14V286.856H781.756C781.74 287.32 781.724 287.768 781.708 288.216H780.124V289.784H781.644C781.612 290.232 781.58 290.68 781.564 291.08H779.58V285.704H777.196V284.632H779.644V283.048H777.196V281.64H775.58V282.76L774.364 281.592C773.884 281.96 773.18 282.408 772.476 282.792L771.404 282.504L771.66 291.08H770.172V292.856H774.428C773.372 293.624 771.644 294.552 770.236 295.08C770.684 295.432 771.356 296.008 771.692 296.392C773.148 295.784 775.084 294.76 776.348 293.88L774.94 292.856H779.724L778.572 293.896C780.188 294.68 781.964 295.736 782.972 296.408L784.844 295.112C783.82 294.488 782.092 293.608 780.508 292.856H784.876V291.08ZM794.892 281.816C794.78 283.928 795.004 291.192 788.62 294.728C789.26 295.176 789.884 295.752 790.22 296.248C793.596 294.184 795.276 291.096 796.14 288.216C797.036 291.16 798.828 294.456 802.444 296.248C802.748 295.736 803.324 295.08 803.916 294.632C797.948 291.832 797.148 284.936 797.02 282.728C797.036 282.392 797.052 282.072 797.068 281.816H794.892ZM813.484 292.424C813.116 293.384 812.46 294.36 811.724 295.048C812.124 295.24 812.812 295.688 813.164 295.928C813.884 295.192 814.668 293.992 815.116 292.84L813.484 292.424ZM821.292 291.896V290.36H813.036V291.896H816.268V294.6C816.268 294.76 816.204 294.792 816.012 294.808C815.836 294.808 815.196 294.808 814.604 294.792C814.828 295.224 815.1 295.896 815.18 296.392C816.14 296.392 816.844 296.36 817.372 296.104C817.916 295.848 818.06 295.432 818.06 294.632V291.896H821.292ZM818.796 293.08C819.516 293.944 820.348 295.128 820.668 295.896L822.204 295.064C821.836 294.28 820.956 293.16 820.236 292.344L818.796 293.08ZM815.244 287.864C816.076 286.808 816.732 285.496 817.164 283.944C817.644 285.464 818.284 286.792 819.132 287.864H815.244ZM811.932 288.632C811.788 288.2 811.596 287.752 811.324 287.288C811.42 286.936 811.532 286.552 811.644 286.136C811.916 286.344 812.188 286.6 812.332 286.76C812.46 286.648 812.588 286.52 812.732 286.392C813.068 286.648 813.452 286.952 813.708 287.224C813.18 287.816 812.572 288.296 811.932 288.632ZM809.74 283.832H810.62C810.428 284.952 810.156 286.424 809.9 287.448C810.62 288.648 810.716 289.72 810.716 290.536C810.716 291.032 810.652 291.416 810.524 291.56C810.428 291.656 810.3 291.704 810.172 291.704C810.044 291.704 809.9 291.704 809.74 291.688V283.832ZM814.364 286.376C814.108 286.136 813.724 285.864 813.372 285.64C813.5 285.48 813.628 285.32 813.74 285.144C814.092 285.368 814.444 285.624 814.7 285.848C814.604 286.024 814.492 286.216 814.364 286.376ZM815.548 283.944C815.452 284.248 815.34 284.552 815.212 284.856C814.94 284.664 814.588 284.456 814.268 284.28C814.332 284.168 814.396 284.056 814.46 283.944H815.548ZM821.212 282.488L820.908 282.584H818.796V283.928H820.22C820.028 284.456 819.772 284.984 819.5 285.448C818.892 284.36 818.444 283.096 818.156 281.736L816.668 282.024C816.732 282.296 816.78 282.568 816.86 282.824L816.364 282.648L816.076 282.696H815.02C815.148 282.408 815.244 282.104 815.34 281.8L813.884 281.496C813.484 282.856 812.796 284.12 811.9 285.096C812.108 284.28 812.3 283.448 812.476 282.712L811.324 282.072L811.084 282.136H808.092V296.392H809.74V291.752C809.948 292.2 810.028 292.808 810.028 293.224C810.332 293.24 810.62 293.224 810.844 293.192C811.148 293.128 811.404 293.048 811.628 292.84C812.06 292.52 812.252 291.816 812.252 290.776C812.252 290.168 812.188 289.512 811.98 288.808C812.3 289.128 812.652 289.608 812.844 289.944C813.436 289.608 813.98 289.176 814.492 288.696V289.384H819.724V288.52C820.252 289.048 820.828 289.496 821.5 289.864C821.756 289.416 822.252 288.776 822.62 288.456C821.756 288.056 821.02 287.464 820.396 286.744C821.132 285.784 821.82 284.392 822.236 283.08L821.212 282.488Z" fill="#363B3F"/>
<path d="M472.46 293.368V285.096H477.836V283.112H465.052V285.096H470.284V293.368H464.188V295.288H478.732V293.368H472.46ZM486.172 281.512C485.372 283.784 483.98 286.056 482.524 287.496C482.86 287.976 483.404 289.064 483.58 289.528C483.9 289.176 484.236 288.776 484.572 288.376V296.376H486.492V285.416C487.084 284.344 487.612 283.208 488.028 282.088L486.172 281.512ZM497.644 285.864V284.056H491.436C491.74 283.4 491.996 282.744 492.22 282.072L490.38 281.608C489.66 283.896 488.396 286.2 486.988 287.64C487.388 287.944 488.14 288.616 488.444 288.968C489.164 288.136 489.9 287.048 490.54 285.864H491.148V296.392H493.1V292.84H497.452V291.08H493.1V289.272H497.244V287.544H493.1V285.864H497.644ZM512.924 291.8V292.536H509.244V291.8H512.924ZM509.244 294.488V293.768H512.924V294.488H509.244ZM507.436 296.392H509.244V295.896H512.924V296.344H514.812V290.44H507.436V296.392ZM508.46 286.744C508.684 287.24 508.892 287.896 508.972 288.328L510.06 287.96C509.98 287.576 509.756 286.92 509.532 286.44L508.46 286.744ZM512.812 288.296C513.02 287.88 513.292 287.336 513.596 286.744L512.332 286.424C512.236 286.872 512.012 287.544 511.836 287.992L512.812 288.296ZM513.788 288.52H511.628V286.2H513.788V288.52ZM508.284 286.2H510.284V288.52H508.284V286.2ZM512.348 283.368C512.7 283.864 513.116 284.376 513.548 284.84H508.428C508.812 284.344 509.164 283.816 509.452 283.272V283.368H512.348ZM509.452 281.768V282.728L508.028 282.296C507.484 283.432 506.492 284.584 505.5 285.288L505.516 285.304H504.796V281.688H502.94V285.304H501.484V287.112H502.94V291.48C502.284 291.752 501.692 291.992 501.212 292.168L501.82 294.088C503.26 293.416 505.02 292.584 506.636 291.784L506.172 290.072C505.724 290.28 505.26 290.488 504.796 290.68V287.112H505.996V285.784C506.284 286.088 506.572 286.424 506.716 286.632L506.828 286.536V289.88H515.356V286.376C515.644 285.928 516.156 285.272 516.524 284.936C515.276 284.264 513.996 283 513.308 281.768H509.452ZM532.876 288.632C534.348 288.632 534.844 288.04 535.052 285.992C534.54 285.88 533.756 285.576 533.372 285.288C533.308 286.68 533.196 286.92 532.684 286.92H530.94C530.332 286.92 530.236 286.856 530.236 286.28V285.336C531.628 284.92 533.116 284.408 534.332 283.832L533.116 282.456C532.364 282.872 531.308 283.368 530.236 283.784V281.496H528.348V286.312C528.348 288.072 528.796 288.632 530.668 288.632H532.876ZM522.812 291.944V291H525.212V291.944H522.812ZM525.212 288.76V289.592H522.812V288.76H525.212ZM527.084 287.192H521.052V296.376H522.812V293.352H525.212V294.424C525.212 294.616 525.148 294.664 524.956 294.664C524.748 294.68 524.108 294.696 523.548 294.664C523.772 295.112 524.06 295.848 524.156 296.344C525.116 296.344 525.852 296.328 526.396 296.024C526.924 295.752 527.084 295.288 527.084 294.456V287.192ZM524.684 283.112C524.94 283.528 525.196 283.976 525.436 284.424L523.308 284.52C523.708 283.672 524.14 282.712 524.508 281.784L522.524 281.384C522.252 282.36 521.804 283.592 521.356 284.6C520.908 284.616 520.492 284.632 520.108 284.632L520.268 286.44C521.9 286.344 524.076 286.216 526.188 286.072C526.316 286.376 526.412 286.664 526.476 286.92L528.22 286.216C527.916 285.176 527.068 283.656 526.284 282.52L524.684 283.112ZM530.956 294.616C530.332 294.616 530.22 294.536 530.22 293.976V292.696C531.676 292.248 533.26 291.672 534.492 291L533.228 289.608C532.46 290.12 531.356 290.648 530.22 291.112V288.952H528.348V293.976C528.348 295.736 528.812 296.28 530.684 296.28H532.956C534.492 296.28 534.972 295.656 535.18 293.4C534.684 293.272 533.916 292.984 533.516 292.696C533.436 294.312 533.324 294.616 532.78 294.616H530.956Z" fill="#363B3F"/>
<path d="M198.312 505.512C197.512 507.784 196.12 510.056 194.664 511.496C195 511.976 195.544 513.064 195.72 513.528C196.04 513.176 196.376 512.776 196.712 512.376V520.376H198.632V509.416C199.224 508.344 199.752 507.208 200.168 506.088L198.312 505.512ZM209.784 509.864V508.056H203.576C203.88 507.4 204.136 506.744 204.36 506.072L202.52 505.608C201.8 507.896 200.536 510.2 199.128 511.64C199.528 511.944 200.28 512.616 200.584 512.968C201.304 512.136 202.04 511.048 202.68 509.864H203.288V520.392H205.24V516.84H209.592V515.08H205.24V513.272H209.384V511.544H205.24V509.864H209.784ZM223.8 510.056H218.2V507.896H223.8V510.056ZM225.736 506.072H216.36V511.864H225.736V506.072ZM218.344 515.016V517.768H215.96V515.016H218.344ZM214.168 520.392H215.96V519.592H218.344V520.312H220.248V513.192H214.168V520.392ZM223.432 517.768V515.016H225.976V517.768H223.432ZM221.608 513.192V520.392H223.432V519.592H225.976V520.328H227.896V513.192H221.608ZM236.152 512.472H239.176V513.16H236.152V512.472ZM239.176 509.304H236.152V508.648H239.176V509.304ZM239.176 511.224H236.152V510.552H239.176V511.224ZM246.904 516.744V515.224H240.616V514.6H246.488V513.16H241V512.472H245.256V511.224H241V510.552H245.24V509.304H241V508.648H246.024V507.176H241.24C241.528 506.728 241.832 506.216 242.104 505.704L239.96 505.448C239.8 505.96 239.528 506.6 239.256 507.176H236.984C237.304 506.712 237.592 506.264 237.848 505.8L235.88 505.432C235.16 506.824 233.864 508.504 232.088 509.784C232.504 510.056 233.128 510.632 233.432 511.064C233.752 510.808 234.056 510.552 234.344 510.28V514.6H238.744V515.224H232.536V516.744H237.304C235.816 517.592 233.832 518.328 232.008 518.712C232.408 519.112 232.936 519.816 233.224 520.28C235.096 519.768 237.16 518.792 238.744 517.64V520.376H240.616V517.576C242.2 518.728 244.232 519.688 246.104 520.2C246.36 519.752 246.888 519.048 247.288 518.68C245.528 518.296 243.608 517.576 242.168 516.744H246.904Z" fill="#363B3F"/>
<path d="M273.086 283.914L277.087 287.914L268.399 296.602L264.833 296.995C264.355 297.048 263.952 296.644 264.005 296.167L264.402 292.597L273.086 283.914V283.914ZM279.561 283.318L277.683 281.439C277.097 280.854 276.146 280.854 275.561 281.439L273.793 283.207L277.794 287.207L279.561 285.44C280.147 284.854 280.147 283.904 279.561 283.318V283.318Z" fill="white"/>
<line x1="171" y1="309.5" x2="274" y2="309.5" stroke="white"/>
<line x1="170" y1="534.5" x2="272" y2="534.5" stroke="white"/>
<line x1="449" y1="309.5" x2="551" y2="309.5" stroke="white"/>
<line x1="727" y1="309.5" x2="829" y2="309.5" stroke="white"/>
<g filter="url(#filter7_dd_657:1969)">
<path d="M226.223 331.866V336.392C226.223 336.538 226.207 336.683 226.177 336.824L224.781 343.236C224.595 344.088 223.892 344.69 223.082 344.69H214.009C213.734 344.69 213.462 344.619 213.217 344.484C212.972 344.349 212.76 344.154 212.598 343.913L207.014 335.616C206.448 334.773 206.62 333.594 207.399 332.981C208.179 332.369 209.27 332.555 209.837 333.397L211.217 335.449V322.438C211.217 321.396 211.998 320.552 212.962 320.552C213.926 320.552 214.707 321.396 214.707 322.438V331.866H215.056V329.981C215.056 328.939 215.837 328.095 216.801 328.095C217.764 328.095 218.546 328.939 218.546 329.981V331.866H218.895V330.735C218.895 329.693 219.676 328.849 220.639 328.849C221.603 328.849 222.384 329.693 222.384 330.735V331.866H222.733C222.733 330.825 223.514 329.981 224.478 329.981C225.442 329.981 226.223 330.825 226.223 331.866ZM215.056 335.638H214.707V340.164H215.056V335.638ZM218.895 335.638H218.546V340.164H218.895V335.638ZM222.733 335.638H222.384V340.164H222.733V335.638Z" fill="white"/>
</g>
<path d="M961.807 370.333H953.48V361.333C953.48 360.229 952.651 359.333 951.629 359.333H949.778C948.757 359.333 947.928 360.229 947.928 361.333V370.333H939.601C938.579 370.333 937.75 371.229 937.75 372.333V374.333C937.75 375.437 938.579 376.333 939.601 376.333H947.928V385.333C947.928 386.437 948.757 387.333 949.778 387.333H951.629C952.651 387.333 953.48 386.437 953.48 385.333V376.333H961.807C962.829 376.333 963.657 375.437 963.657 374.333V372.333C963.657 371.229 962.829 370.333 961.807 370.333Z" fill="#616870"/>
<path d="M39.7107 371.846L50.718 359.95C51.4788 359.127 52.709 359.127 53.4617 359.95L55.2909 361.927C56.0517 362.749 56.0517 364.078 55.2909 364.892L47.4967 373.333L55.2989 381.765C56.0597 382.588 56.0597 383.917 55.2989 384.731L53.4698 386.716C52.709 387.539 51.4788 387.539 50.7261 386.716L39.7188 374.82C38.9499 373.998 38.9499 372.668 39.7107 371.846V371.846Z" fill="#616870"/>
</g>
<defs>
<filter id="filter0_d_657:1969" x="0" y="0" width="1004" height="708" filterUnits="userSpaceOnUse" color-interpolation-filters="sRGB">
<feFlood flood-opacity="0" result="BackgroundImageFix"/>
<feColorMatrix in="SourceAlpha" type="matrix" values="0 0 0 0 0 0 0 0 0 0 0 0 0 0 0 0 0 0 127 0" result="hardAlpha"/>
<feOffset dy="4"/>
<feGaussianBlur stdDeviation="2"/>
<feComposite in2="hardAlpha" operator="out"/>
<feColorMatrix type="matrix" values="0 0 0 0 0 0 0 0 0 0 0 0 0 0 0 0 0 0 0.25 0"/>
<feBlend mode="normal" in2="BackgroundImageFix" result="effect1_dropShadow_657:1969"/>
<feBlend mode="normal" in="SourceGraphic" in2="effect1_dropShadow_657:1969" result="shape"/>
</filter>
<filter id="filter1_d_657:1969" x="126" y="193" width="194" height="194" filterUnits="userSpaceOnUse" color-interpolation-filters="sRGB">
<feFlood flood-opacity="0" result="BackgroundImageFix"/>
<feColorMatrix in="SourceAlpha" type="matrix" values="0 0 0 0 0 0 0 0 0 0 0 0 0 0 0 0 0 0 127 0" result="hardAlpha"/>
<feOffset dy="2"/>
<feGaussianBlur stdDeviation="2"/>
<feComposite in2="hardAlpha" operator="out"/>
<feColorMatrix type="matrix" values="0 0 0 0 0 0 0 0 0 0 0 0 0 0 0 0 0 0 0.25 0"/>
<feBlend mode="normal" in2="BackgroundImageFix" result="effect1_dropShadow_657:1969"/>
<feBlend mode="normal" in="SourceGraphic" in2="effect1_dropShadow_657:1969" result="shape"/>
</filter>
<filter id="filter2_d_657:1969" x="124" y="418" width="194" height="194" filterUnits="userSpaceOnUse" color-interpolation-filters="sRGB">
<feFlood flood-opacity="0" result="BackgroundImageFix"/>
<feColorMatrix in="SourceAlpha" type="matrix" values="0 0 0 0 0 0 0 0 0 0 0 0 0 0 0 0 0 0 127 0" result="hardAlpha"/>
<feOffset dy="2"/>
<feGaussianBlur stdDeviation="2"/>
<feComposite in2="hardAlpha" operator="out"/>
<feColorMatrix type="matrix" values="0 0 0 0 0 0 0 0 0 0 0 0 0 0 0 0 0 0 0.25 0"/>
<feBlend mode="normal" in2="BackgroundImageFix" result="effect1_dropShadow_657:1969"/>
<feBlend mode="normal" in="SourceGraphic" in2="effect1_dropShadow_657:1969" result="shape"/>
</filter>
<filter id="filter3_d_657:1969" x="403" y="193" width="194" height="194" filterUnits="userSpaceOnUse" color-interpolation-filters="sRGB">
<feFlood flood-opacity="0" result="BackgroundImageFix"/>
<feColorMatrix in="SourceAlpha" type="matrix" values="0 0 0 0 0 0 0 0 0 0 0 0 0 0 0 0 0 0 127 0" result="hardAlpha"/>
<feOffset dy="2"/>
<feGaussianBlur stdDeviation="2"/>
<feComposite in2="hardAlpha" operator="out"/>
<feColorMatrix type="matrix" values="0 0 0 0 0 0 0 0 0 0 0 0 0 0 0 0 0 0 0.25 0"/>
<feBlend mode="normal" in2="BackgroundImageFix" result="effect1_dropShadow_657:1969"/>
<feBlend mode="normal" in="SourceGraphic" in2="effect1_dropShadow_657:1969" result="shape"/>
</filter>
<filter id="filter4_d_657:1969" x="681" y="193" width="194" height="194" filterUnits="userSpaceOnUse" color-interpolation-filters="sRGB">
<feFlood flood-opacity="0" result="BackgroundImageFix"/>
<feColorMatrix in="SourceAlpha" type="matrix" values="0 0 0 0 0 0 0 0 0 0 0 0 0 0 0 0 0 0 127 0" result="hardAlpha"/>
<feOffset dy="2"/>
<feGaussianBlur stdDeviation="2"/>
<feComposite in2="hardAlpha" operator="out"/>
<feColorMatrix type="matrix" values="0 0 0 0 0 0 0 0 0 0 0 0 0 0 0 0 0 0 0.25 0"/>
<feBlend mode="normal" in2="BackgroundImageFix" result="effect1_dropShadow_657:1969"/>
<feBlend mode="normal" in="SourceGraphic" in2="effect1_dropShadow_657:1969" result="shape"/>
</filter>
<filter id="filter5_d_657:1969" x="402" y="418" width="194" height="194" filterUnits="userSpaceOnUse" color-interpolation-filters="sRGB">
<feFlood flood-opacity="0" result="BackgroundImageFix"/>
<feColorMatrix in="SourceAlpha" type="matrix" values="0 0 0 0 0 0 0 0 0 0 0 0 0 0 0 0 0 0 127 0" result="hardAlpha"/>
<feOffset dy="2"/>
<feGaussianBlur stdDeviation="2"/>
<feComposite in2="hardAlpha" operator="out"/>
<feColorMatrix type="matrix" values="0 0 0 0 0 0 0 0 0 0 0 0 0 0 0 0 0 0 0.25 0"/>
<feBlend mode="normal" in2="BackgroundImageFix" result="effect1_dropShadow_657:1969"/>
<feBlend mode="normal" in="SourceGraphic" in2="effect1_dropShadow_657:1969" result="shape"/>
</filter>
<filter id="filter6_d_657:1969" x="679" y="418" width="194" height="194" filterUnits="userSpaceOnUse" color-interpolation-filters="sRGB">
<feFlood flood-opacity="0" result="BackgroundImageFix"/>
<feColorMatrix in="SourceAlpha" type="matrix" values="0 0 0 0 0 0 0 0 0 0 0 0 0 0 0 0 0 0 127 0" result="hardAlpha"/>
<feOffset dy="2"/>
<feGaussianBlur stdDeviation="2"/>
<feComposite in2="hardAlpha" operator="out"/>
<feColorMatrix type="matrix" values="0 0 0 0 0 0 0 0 0 0 0 0 0 0 0 0 0 0 0.25 0"/>
<feBlend mode="normal" in2="BackgroundImageFix" result="effect1_dropShadow_657:1969"/>
<feBlend mode="normal" in="SourceGraphic" in2="effect1_dropShadow_657:1969" result="shape"/>
</filter>
<filter id="filter7_dd_657:1969" x="202.681" y="320.552" width="27.542" height="32.1377" filterUnits="userSpaceOnUse" color-interpolation-filters="sRGB">
<feFlood flood-opacity="0" result="BackgroundImageFix"/>
<feColorMatrix in="SourceAlpha" type="matrix" values="0 0 0 0 0 0 0 0 0 0 0 0 0 0 0 0 0 0 127 0" result="hardAlpha"/>
<feOffset dy="4"/>
<feGaussianBlur stdDeviation="2"/>
<feComposite in2="hardAlpha" operator="out"/>
<feColorMatrix type="matrix" values="0 0 0 0 0 0 0 0 0 0 0 0 0 0 0 0 0 0 0.25 0"/>
<feBlend mode="lighten" in2="BackgroundImageFix" result="effect1_dropShadow_657:1969"/>
<feColorMatrix in="SourceAlpha" type="matrix" values="0 0 0 0 0 0 0 0 0 0 0 0 0 0 0 0 0 0 127 0" result="hardAlpha"/>
<feOffset dy="4"/>
<feGaussianBlur stdDeviation="2"/>
<feComposite in2="hardAlpha" operator="out"/>
<feColorMatrix type="matrix" values="0 0 0 0 0 0 0 0 0 0 0 0 0 0 0 0 0 0 0.25 0"/>
<feBlend mode="normal" in2="effect1_dropShadow_657:1969" result="effect2_dropShadow_657:1969"/>
<feBlend mode="normal" in="SourceGraphic" in2="effect2_dropShadow_657:1969" result="shape"/>
</filter>
<linearGradient id="paint0_linear_657:1969" x1="502" y1="0" x2="502" y2="700" gradientUnits="userSpaceOnUse">
<stop stop-color="#F7CCC5"/>
<stop offset="1" stop-color="#FEFEFE"/>
</linearGradient>
<linearGradient id="paint1_linear_657:1969" x1="223" y1="195" x2="223" y2="381" gradientUnits="userSpaceOnUse">
<stop stop-color="white"/>
<stop offset="1" stop-color="#2869D1" stop-opacity="0.5"/>
</linearGradient>
<linearGradient id="paint2_linear_657:1969" x1="221" y1="420" x2="221" y2="606" gradientUnits="userSpaceOnUse">
<stop stop-color="white"/>
<stop offset="1" stop-color="#F24D2E" stop-opacity="0.5"/>
</linearGradient>
<linearGradient id="paint3_linear_657:1969" x1="500" y1="195" x2="500" y2="381" gradientUnits="userSpaceOnUse">
<stop stop-color="white"/>
<stop offset="1" stop-color="#FF5130" stop-opacity="0.72"/>
</linearGradient>
<linearGradient id="paint4_linear_657:1969" x1="778" y1="195" x2="778" y2="381" gradientUnits="userSpaceOnUse">
<stop stop-color="white"/>
<stop offset="1" stop-color="#EEEEEE" stop-opacity="0.87"/>
</linearGradient>
<linearGradient id="paint5_linear_657:1969" x1="499" y1="420" x2="499" y2="606" gradientUnits="userSpaceOnUse">
<stop stop-color="white"/>
<stop offset="1" stop-color="#2869D1" stop-opacity="0.3"/>
</linearGradient>
<linearGradient id="paint6_linear_657:1969" x1="776" y1="420" x2="776" y2="606" gradientUnits="userSpaceOnUse">
<stop stop-color="white"/>
<stop offset="1" stop-color="#F24D2E" stop-opacity="0.5"/>
</linearGradient>
<clipPath id="clip0_657:1969">
<rect width="19.875" height="20.6316" fill="white" transform="translate(90.3638 47)"/>
</clipPath>
<clipPath id="clip1_657:1969">
<rect width="79.1319" height="28" fill="white" transform="translate(117.232 47)"/>
</clipPath>
</defs>
</svg>
