<svg width="801" height="569" viewBox="0 0 801 569" fill="none" xmlns="http://www.w3.org/2000/svg">
<g filter="url(#filter0_d_406:2074)">
<g clip-path="url(#clip0_406:2074)">
<rect x="4" width="793" height="561" rx="20" fill="url(#paint0_linear_406:2074)"/>
<rect x="4" y="35" width="799" height="37" fill="#A5B4D1" fill-opacity="0.5677"/>
<g clip-path="url(#clip1_406:2074)">
<path d="M79.2731 53.0544C79.2731 53.0544 75.6654 51.2801 73.9479 47.54C73.9479 47.54 71.7979 51.7329 73.9738 54.3611C75.7415 56.495 78.4415 55.1078 79.2731 53.0544Z" fill="white"/>
<path d="M81.1353 50.4407C81.1353 50.4407 82.8626 46.7366 86.5062 44.9733C86.5062 44.9733 82.4224 42.7658 79.8626 44.9999C77.7842 46.8148 79.1353 49.5868 81.1353 50.4407Z" fill="white"/>
<path d="M82.6641 51.8385C82.6641 51.8385 86.2749 53.612 87.9893 57.3529C87.9893 57.3529 90.1393 53.16 87.9634 50.5318C86.1964 48.3979 83.495 49.7859 82.6641 51.8385Z" fill="white"/>
<path d="M81.5071 54.5059C81.5071 54.5059 79.7783 58.2131 76.1362 59.9733C76.1362 59.9733 80.2208 62.1808 82.7805 59.9467C84.8582 58.1334 83.5102 55.359 81.5071 54.5059Z" fill="white"/>
</g>
<g clip-path="url(#clip2_406:2074)">
<path d="M94.5449 59.1827V56.3329C95.2402 56.8388 95.9869 57.2655 96.7718 57.6054C97.5311 57.9302 98.1699 58.0926 98.6884 58.0926C99.1802 58.1051 99.6638 57.9618 100.074 57.6822C100.46 57.4107 100.653 57.0859 100.654 56.7077C100.659 56.5286 100.628 56.3504 100.563 56.1839C100.499 56.0175 100.402 55.8664 100.278 55.74C100.029 55.4834 99.488 55.1126 98.6559 54.6277C96.9968 53.6799 95.9116 52.869 95.4004 52.1949C94.9047 51.5734 94.6324 50.7952 94.6293 49.9914C94.6189 49.5075 94.7191 49.0279 94.9218 48.5911C95.1245 48.1543 95.424 47.7725 95.7963 47.4764C96.5743 46.8268 97.5758 46.502 98.8008 46.502C100.073 46.502 101.379 46.8701 102.718 47.6065V50.2294C101.191 49.2765 99.9419 48.7997 98.9706 48.799C98.471 48.799 98.0679 48.9102 97.7615 49.1327C97.619 49.2244 97.5019 49.3523 97.4214 49.5041C97.3409 49.6558 97.2997 49.8263 97.3018 49.9992C97.3018 50.3095 97.4413 50.6054 97.7182 50.8891C97.9951 51.1727 98.4839 51.502 99.1816 51.8979L100.101 52.4363C102.27 53.697 103.354 55.0926 103.354 56.6232C103.364 57.1419 103.256 57.6558 103.039 58.1241C102.821 58.5923 102.501 59.002 102.103 59.3206C101.269 60.0229 100.197 60.374 98.8863 60.374C98.1901 60.384 97.4957 60.2983 96.8216 60.1193C96.0372 59.8773 95.2753 59.5638 94.5449 59.1827V59.1827Z" fill="white"/>
<path d="M116.977 53.7001H107.829C107.895 54.9801 108.312 55.9982 109.08 56.7546C109.848 57.511 110.84 57.8892 112.057 57.8892C113.753 57.8892 115.318 57.346 116.75 56.2596V58.8481C116.028 59.3575 115.234 59.75 114.396 60.0116C113.505 60.2599 112.584 60.3775 111.661 60.3609C110.228 60.3609 109.068 60.0553 108.181 59.4443C107.282 58.8191 106.551 57.9715 106.054 56.9793C105.52 55.9471 105.252 54.7524 105.252 53.3954C105.252 51.359 105.814 49.7035 106.938 48.4287C108.061 47.154 109.518 46.5166 111.309 46.5166C113.035 46.5166 114.411 47.1369 115.437 48.3776C116.464 49.6182 116.977 51.2812 116.977 53.3664V53.7001ZM107.885 52.1206H114.432C114.365 51.0639 114.059 50.2482 113.512 49.6734C112.966 49.0987 112.231 48.8121 111.309 48.8136C110.386 48.8136 109.628 49.0998 109.038 49.6723C108.447 50.2448 108.063 51.0609 107.885 52.1206Z" fill="white"/>
<path d="M117.806 48.8865L122.642 44V46.7631H126.757V49.1479H122.642V55.6963C122.642 57.2262 123.259 57.9907 124.494 57.99C125.418 57.99 126.394 57.6748 127.421 57.0445V59.5172C126.432 60.0892 125.314 60.3849 124.18 60.3749C123.002 60.3749 122.022 60.0211 121.239 59.3137C121.001 59.1083 120.796 58.8654 120.631 58.594C120.447 58.2673 120.311 57.9141 120.228 57.5462C120.122 57.1175 120.07 56.2959 120.07 55.0812V49.1479H117.806V48.8865Z" fill="white"/>
<path d="M140.933 60.1791V58.4605C140.406 59.0607 139.77 59.5486 139.06 59.8966C138.406 60.2265 137.688 60.4017 136.959 60.4094C136.16 60.4161 135.375 60.1972 134.688 59.7764C134.013 59.3746 133.468 58.7783 133.119 58.0612C132.765 57.3382 132.588 56.1383 132.589 54.4617V46.7998H135.162V54.4249C135.162 55.8287 135.358 56.8091 135.749 57.366C136.141 57.9229 136.826 58.2014 137.804 58.2014C139.03 58.2014 140.071 57.5855 140.929 56.3538V46.7998H143.503V60.1791H140.933Z" fill="white"/>
<path d="M146.178 67V46.7998H150.684C152.991 46.7998 154.787 47.3912 156.071 48.574C157.355 49.7568 157.998 51.4097 158 53.5328C158 55.5395 157.395 57.1876 156.185 58.4772C154.975 59.7668 153.434 60.4116 151.561 60.4116C150.733 60.4116 149.815 60.2225 148.809 59.8443V67H146.178ZM150.629 49.2714H148.809V57.5028C149.577 57.9146 150.43 58.1291 151.296 58.1279C152.5 58.1279 153.486 57.6967 154.252 56.8343C155.019 55.9718 155.402 54.8617 155.402 53.5039C155.418 52.698 155.232 51.9013 154.861 51.1914C154.531 50.5543 154.012 50.0422 153.379 49.7297C152.75 49.4249 151.833 49.2722 150.629 49.2714Z" fill="white"/>
</g>
<path d="M703.85 54.9034L704.182 54.1556L703.629 53.5522C702.885 52.7397 702.495 51.8147 702.495 50.8558C702.495 48.4292 705.194 45.9482 709.25 45.9482C713.306 45.9482 716.005 48.4292 716.005 50.8558C716.005 53.2824 713.306 55.7633 709.25 55.7633C707.86 55.7633 706.581 55.4478 705.514 54.9277L704.914 54.635L704.337 54.9711C704.128 55.0929 703.899 55.2114 703.651 55.3181C703.72 55.1837 703.787 55.0452 703.85 54.9034ZM720.807 59.828C720.87 59.9703 720.937 60.1092 721.006 60.2439C720.758 60.1373 720.529 60.0188 720.32 59.8972L719.741 59.5601L719.14 59.8551C718.077 60.3768 716.8 60.6894 715.407 60.6894C713.608 60.6894 712.03 60.1779 710.856 59.3916C715.28 58.8201 719.047 55.9281 719.652 51.9763C721.261 52.9277 722.162 54.3536 722.162 55.7818C722.162 56.742 721.771 57.6698 721.03 58.4765L720.476 59.0792L720.807 59.828Z" stroke="white" stroke-width="2.5"/>
<path d="M344.384 48.285H341.241V57H339.61V48.285H336.46V46.92H344.384V48.285ZM347.449 50.707C347.743 50.4177 348.065 50.1867 348.415 50.014C348.765 49.8367 349.173 49.748 349.64 49.748C350.032 49.748 350.375 49.8133 350.669 49.944C350.968 50.0747 351.217 50.259 351.418 50.497C351.623 50.735 351.777 51.022 351.88 51.358C351.983 51.6893 352.034 52.0557 352.034 52.457V57H350.536V52.457C350.536 51.9763 350.424 51.603 350.2 51.337C349.981 51.071 349.645 50.938 349.192 50.938C348.856 50.938 348.543 51.015 348.254 51.169C347.969 51.323 347.701 51.533 347.449 51.799V57H345.944V46.64H347.449V50.707ZM355.919 49.86V57H354.414V49.86H355.919ZM356.171 47.704C356.171 47.8393 356.143 47.9677 356.087 48.089C356.036 48.2103 355.964 48.3177 355.87 48.411C355.777 48.4997 355.667 48.572 355.541 48.628C355.42 48.6793 355.289 48.705 355.149 48.705C355.014 48.705 354.886 48.6793 354.764 48.628C354.648 48.572 354.545 48.4997 354.456 48.411C354.368 48.3177 354.295 48.2103 354.239 48.089C354.188 47.9677 354.162 47.8393 354.162 47.704C354.162 47.564 354.188 47.4333 354.239 47.312C354.295 47.1907 354.368 47.0857 354.456 46.997C354.545 46.9037 354.648 46.8313 354.764 46.78C354.886 46.724 355.014 46.696 355.149 46.696C355.289 46.696 355.42 46.724 355.541 46.78C355.667 46.8313 355.777 46.9037 355.87 46.997C355.964 47.0857 356.036 47.1907 356.087 47.312C356.143 47.4333 356.171 47.564 356.171 47.704ZM362.633 51.155C362.596 51.2203 362.554 51.267 362.507 51.295C362.461 51.323 362.402 51.337 362.332 51.337C362.253 51.337 362.167 51.3137 362.073 51.267C361.98 51.2157 361.87 51.1597 361.744 51.099C361.618 51.0383 361.469 50.9847 361.296 50.938C361.128 50.8867 360.93 50.861 360.701 50.861C360.515 50.861 360.344 50.8843 360.19 50.931C360.041 50.973 359.913 51.036 359.805 51.12C359.703 51.1993 359.623 51.295 359.567 51.407C359.511 51.5143 359.483 51.631 359.483 51.757C359.483 51.925 359.535 52.065 359.637 52.177C359.74 52.289 359.875 52.387 360.043 52.471C360.211 52.5503 360.403 52.6227 360.617 52.688C360.832 52.7533 361.051 52.8233 361.275 52.898C361.499 52.9727 361.719 53.059 361.933 53.157C362.148 53.255 362.339 53.3763 362.507 53.521C362.675 53.661 362.811 53.8337 362.913 54.039C363.016 54.2397 363.067 54.4847 363.067 54.774C363.067 55.11 363.007 55.4203 362.885 55.705C362.764 55.9897 362.587 56.237 362.353 56.447C362.12 56.657 361.828 56.8203 361.478 56.937C361.133 57.0537 360.736 57.112 360.288 57.112C360.041 57.112 359.801 57.0887 359.567 57.042C359.339 57 359.119 56.9417 358.909 56.867C358.704 56.7877 358.51 56.6943 358.328 56.587C358.151 56.4797 357.992 56.363 357.852 56.237L358.202 55.663C358.244 55.593 358.296 55.5393 358.356 55.502C358.422 55.46 358.501 55.439 358.594 55.439C358.692 55.439 358.788 55.4717 358.881 55.537C358.979 55.5977 359.091 55.6653 359.217 55.74C359.348 55.8147 359.504 55.8847 359.686 55.95C359.868 56.0107 360.095 56.041 360.365 56.041C360.589 56.041 360.783 56.0153 360.946 55.964C361.11 55.908 361.245 55.8333 361.352 55.74C361.46 55.6467 361.539 55.5417 361.59 55.425C361.642 55.3037 361.667 55.1753 361.667 55.04C361.667 54.858 361.616 54.7087 361.513 54.592C361.411 54.4753 361.273 54.375 361.1 54.291C360.932 54.207 360.739 54.1323 360.519 54.067C360.305 54.0017 360.085 53.9317 359.861 53.857C359.637 53.7823 359.416 53.696 359.196 53.598C358.982 53.5 358.788 53.3763 358.615 53.227C358.447 53.073 358.312 52.8887 358.209 52.674C358.107 52.4547 358.055 52.1887 358.055 51.876C358.055 51.5913 358.111 51.3207 358.223 51.064C358.34 50.8073 358.508 50.581 358.727 50.385C358.951 50.189 359.224 50.035 359.546 49.923C359.873 49.8063 360.249 49.748 360.673 49.748C361.154 49.748 361.59 49.825 361.982 49.979C362.374 50.133 362.703 50.343 362.969 50.609L362.633 51.155ZM370.656 49.86V57H369.151V49.86H370.656ZM370.908 47.704C370.908 47.8393 370.88 47.9677 370.824 48.089C370.773 48.2103 370.7 48.3177 370.607 48.411C370.514 48.4997 370.404 48.572 370.278 48.628C370.157 48.6793 370.026 48.705 369.886 48.705C369.751 48.705 369.622 48.6793 369.501 48.628C369.384 48.572 369.282 48.4997 369.193 48.411C369.104 48.3177 369.032 48.2103 368.976 48.089C368.925 47.9677 368.899 47.8393 368.899 47.704C368.899 47.564 368.925 47.4333 368.976 47.312C369.032 47.1907 369.104 47.0857 369.193 46.997C369.282 46.9037 369.384 46.8313 369.501 46.78C369.622 46.724 369.751 46.696 369.886 46.696C370.026 46.696 370.157 46.724 370.278 46.78C370.404 46.8313 370.514 46.9037 370.607 46.997C370.7 47.0857 370.773 47.1907 370.824 47.312C370.88 47.4333 370.908 47.564 370.908 47.704ZM377.37 51.155C377.333 51.2203 377.291 51.267 377.244 51.295C377.197 51.323 377.139 51.337 377.069 51.337C376.99 51.337 376.903 51.3137 376.81 51.267C376.717 51.2157 376.607 51.1597 376.481 51.099C376.355 51.0383 376.206 50.9847 376.033 50.938C375.865 50.8867 375.667 50.861 375.438 50.861C375.251 50.861 375.081 50.8843 374.927 50.931C374.778 50.973 374.649 51.036 374.542 51.12C374.439 51.1993 374.36 51.295 374.304 51.407C374.248 51.5143 374.22 51.631 374.22 51.757C374.22 51.925 374.271 52.065 374.374 52.177C374.477 52.289 374.612 52.387 374.78 52.471C374.948 52.5503 375.139 52.6227 375.354 52.688C375.569 52.7533 375.788 52.8233 376.012 52.898C376.236 52.9727 376.455 53.059 376.67 53.157C376.885 53.255 377.076 53.3763 377.244 53.521C377.412 53.661 377.547 53.8337 377.65 54.039C377.753 54.2397 377.804 54.4847 377.804 54.774C377.804 55.11 377.743 55.4203 377.622 55.705C377.501 55.9897 377.323 56.237 377.09 56.447C376.857 56.657 376.565 56.8203 376.215 56.937C375.87 57.0537 375.473 57.112 375.025 57.112C374.778 57.112 374.537 57.0887 374.304 57.042C374.075 57 373.856 56.9417 373.646 56.867C373.441 56.7877 373.247 56.6943 373.065 56.587C372.888 56.4797 372.729 56.363 372.589 56.237L372.939 55.663C372.981 55.593 373.032 55.5393 373.093 55.502C373.158 55.46 373.238 55.439 373.331 55.439C373.429 55.439 373.525 55.4717 373.618 55.537C373.716 55.5977 373.828 55.6653 373.954 55.74C374.085 55.8147 374.241 55.8847 374.423 55.95C374.605 56.0107 374.831 56.041 375.102 56.041C375.326 56.041 375.52 56.0153 375.683 55.964C375.846 55.908 375.982 55.8333 376.089 55.74C376.196 55.6467 376.276 55.5417 376.327 55.425C376.378 55.3037 376.404 55.1753 376.404 55.04C376.404 54.858 376.353 54.7087 376.25 54.592C376.147 54.4753 376.01 54.375 375.837 54.291C375.669 54.207 375.475 54.1323 375.256 54.067C375.041 54.0017 374.822 53.9317 374.598 53.857C374.374 53.7823 374.152 53.696 373.933 53.598C373.718 53.5 373.525 53.3763 373.352 53.227C373.184 53.073 373.049 52.8887 372.946 52.674C372.843 52.4547 372.792 52.1887 372.792 51.876C372.792 51.5913 372.848 51.3207 372.96 51.064C373.077 50.8073 373.245 50.581 373.464 50.385C373.688 50.189 373.961 50.035 374.283 49.923C374.61 49.8063 374.985 49.748 375.41 49.748C375.891 49.748 376.327 49.825 376.719 49.979C377.111 50.133 377.44 50.343 377.706 50.609L377.37 51.155ZM387.241 52.058C387.605 52.058 387.924 52.0113 388.2 51.918C388.48 51.8247 388.711 51.694 388.893 51.526C389.079 51.3533 389.219 51.1457 389.313 50.903C389.406 50.6603 389.453 50.3897 389.453 50.091C389.453 49.797 389.406 49.5333 389.313 49.3C389.224 49.0667 389.089 48.8683 388.907 48.705C388.725 48.5417 388.494 48.418 388.214 48.334C387.938 48.2453 387.614 48.201 387.241 48.201H385.743V52.058H387.241ZM387.241 46.92C387.899 46.92 388.468 46.997 388.949 47.151C389.434 47.305 389.833 47.522 390.146 47.802C390.463 48.0773 390.699 48.411 390.853 48.803C391.007 49.1903 391.084 49.6197 391.084 50.091C391.084 50.5717 391.002 51.0127 390.839 51.414C390.675 51.8107 390.433 52.1537 390.111 52.443C389.789 52.7277 389.387 52.9517 388.907 53.115C388.431 53.2737 387.875 53.353 387.241 53.353H385.743V57H384.105V46.92H387.241ZM400.21 54.753C400.298 54.753 400.375 54.788 400.441 54.858L401.092 55.565C400.681 56.0597 400.177 56.4423 399.58 56.713C398.982 56.979 398.268 57.112 397.438 57.112C396.7 57.112 396.033 56.986 395.436 56.734C394.843 56.4773 394.337 56.1227 393.917 55.67C393.497 55.2127 393.172 54.669 392.944 54.039C392.72 53.409 392.608 52.716 392.608 51.96C392.608 51.204 392.727 50.511 392.965 49.881C393.207 49.2463 393.546 48.7027 393.98 48.25C394.418 47.7927 394.941 47.438 395.548 47.186C396.159 46.934 396.831 46.808 397.564 46.808C398.292 46.808 398.933 46.927 399.489 47.165C400.049 47.3983 400.534 47.711 400.945 48.103L400.406 48.866C400.368 48.9173 400.324 48.9617 400.273 48.999C400.221 49.0363 400.151 49.055 400.063 49.055C399.969 49.055 399.862 49.013 399.741 48.929C399.624 48.8403 399.472 48.7447 399.286 48.642C399.104 48.5347 398.873 48.439 398.593 48.355C398.317 48.2663 397.972 48.222 397.557 48.222C397.076 48.222 396.635 48.306 396.234 48.474C395.832 48.642 395.487 48.887 395.198 49.209C394.908 49.531 394.682 49.923 394.519 50.385C394.36 50.847 394.281 51.372 394.281 51.96C394.281 52.5527 394.365 53.0823 394.533 53.549C394.701 54.011 394.932 54.403 395.226 54.725C395.52 55.0423 395.865 55.285 396.262 55.453C396.658 55.621 397.085 55.705 397.543 55.705C397.823 55.705 398.072 55.691 398.292 55.663C398.516 55.6303 398.721 55.5813 398.908 55.516C399.094 55.446 399.269 55.3597 399.433 55.257C399.601 55.1543 399.766 55.0283 399.93 54.879C400.023 54.795 400.116 54.753 400.21 54.753ZM403.816 46.248C404.026 46.6027 404.168 46.9737 404.243 47.361C404.317 47.7437 404.324 48.124 404.264 48.502C404.203 48.8753 404.075 49.2347 403.879 49.58C403.687 49.9253 403.431 50.2333 403.109 50.504L402.64 50.217C402.56 50.1657 402.523 50.1003 402.528 50.021C402.537 49.937 402.565 49.8717 402.612 49.825C402.719 49.6943 402.817 49.5287 402.906 49.328C402.994 49.1273 403.053 48.908 403.081 48.67C403.113 48.4273 403.106 48.173 403.06 47.907C403.018 47.641 402.917 47.3773 402.759 47.116C402.684 46.9947 402.663 46.8897 402.696 46.801C402.728 46.7123 402.796 46.6493 402.899 46.612L403.816 46.248ZM410.317 51.155C410.279 51.2203 410.237 51.267 410.191 51.295C410.144 51.323 410.086 51.337 410.016 51.337C409.936 51.337 409.85 51.3137 409.757 51.267C409.663 51.2157 409.554 51.1597 409.428 51.099C409.302 51.0383 409.152 50.9847 408.98 50.938C408.812 50.8867 408.613 50.861 408.385 50.861C408.198 50.861 408.028 50.8843 407.874 50.931C407.724 50.973 407.596 51.036 407.489 51.12C407.386 51.1993 407.307 51.295 407.251 51.407C407.195 51.5143 407.167 51.631 407.167 51.757C407.167 51.925 407.218 52.065 407.321 52.177C407.423 52.289 407.559 52.387 407.727 52.471C407.895 52.5503 408.086 52.6227 408.301 52.688C408.515 52.7533 408.735 52.8233 408.959 52.898C409.183 52.9727 409.402 53.059 409.617 53.157C409.831 53.255 410.023 53.3763 410.191 53.521C410.359 53.661 410.494 53.8337 410.597 54.039C410.699 54.2397 410.751 54.4847 410.751 54.774C410.751 55.11 410.69 55.4203 410.569 55.705C410.447 55.9897 410.27 56.237 410.037 56.447C409.803 56.657 409.512 56.8203 409.162 56.937C408.816 57.0537 408.42 57.112 407.972 57.112C407.724 57.112 407.484 57.0887 407.251 57.042C407.022 57 406.803 56.9417 406.593 56.867C406.387 56.7877 406.194 56.6943 406.012 56.587C405.834 56.4797 405.676 56.363 405.536 56.237L405.886 55.663C405.928 55.593 405.979 55.5393 406.04 55.502C406.105 55.46 406.184 55.439 406.278 55.439C406.376 55.439 406.471 55.4717 406.565 55.537C406.663 55.5977 406.775 55.6653 406.901 55.74C407.031 55.8147 407.188 55.8847 407.37 55.95C407.552 56.0107 407.778 56.041 408.049 56.041C408.273 56.041 408.466 56.0153 408.63 55.964C408.793 55.908 408.928 55.8333 409.036 55.74C409.143 55.6467 409.222 55.5417 409.274 55.425C409.325 55.3037 409.351 55.1753 409.351 55.04C409.351 54.858 409.299 54.7087 409.197 54.592C409.094 54.4753 408.956 54.375 408.784 54.291C408.616 54.207 408.422 54.1323 408.203 54.067C407.988 54.0017 407.769 53.9317 407.545 53.857C407.321 53.7823 407.099 53.696 406.88 53.598C406.665 53.5 406.471 53.3763 406.299 53.227C406.131 53.073 405.995 52.8887 405.893 52.674C405.79 52.4547 405.739 52.1887 405.739 51.876C405.739 51.5913 405.795 51.3207 405.907 51.064C406.023 50.8073 406.191 50.581 406.411 50.385C406.635 50.189 406.908 50.035 407.23 49.923C407.556 49.8063 407.932 49.748 408.357 49.748C408.837 49.748 409.274 49.825 409.666 49.979C410.058 50.133 410.387 50.343 410.653 50.609L410.317 51.155ZM421.034 51.155C420.997 51.2203 420.955 51.267 420.908 51.295C420.862 51.323 420.803 51.337 420.733 51.337C420.654 51.337 420.568 51.3137 420.474 51.267C420.381 51.2157 420.271 51.1597 420.145 51.099C420.019 51.0383 419.87 50.9847 419.697 50.938C419.529 50.8867 419.331 50.861 419.102 50.861C418.916 50.861 418.745 50.8843 418.591 50.931C418.442 50.973 418.314 51.036 418.206 51.12C418.104 51.1993 418.024 51.295 417.968 51.407C417.912 51.5143 417.884 51.631 417.884 51.757C417.884 51.925 417.936 52.065 418.038 52.177C418.141 52.289 418.276 52.387 418.444 52.471C418.612 52.5503 418.804 52.6227 419.018 52.688C419.233 52.7533 419.452 52.8233 419.676 52.898C419.9 52.9727 420.12 53.059 420.334 53.157C420.549 53.255 420.74 53.3763 420.908 53.521C421.076 53.661 421.212 53.8337 421.314 54.039C421.417 54.2397 421.468 54.4847 421.468 54.774C421.468 55.11 421.408 55.4203 421.286 55.705C421.165 55.9897 420.988 56.237 420.754 56.447C420.521 56.657 420.229 56.8203 419.879 56.937C419.534 57.0537 419.137 57.112 418.689 57.112C418.442 57.112 418.202 57.0887 417.968 57.042C417.74 57 417.52 56.9417 417.31 56.867C417.105 56.7877 416.911 56.6943 416.729 56.587C416.552 56.4797 416.393 56.363 416.253 56.237L416.603 55.663C416.645 55.593 416.697 55.5393 416.757 55.502C416.823 55.46 416.902 55.439 416.995 55.439C417.093 55.439 417.189 55.4717 417.282 55.537C417.38 55.5977 417.492 55.6653 417.618 55.74C417.749 55.8147 417.905 55.8847 418.087 55.95C418.269 56.0107 418.496 56.041 418.766 56.041C418.99 56.041 419.184 56.0153 419.347 55.964C419.511 55.908 419.646 55.8333 419.753 55.74C419.861 55.6467 419.94 55.5417 419.991 55.425C420.043 55.3037 420.068 55.1753 420.068 55.04C420.068 54.858 420.017 54.7087 419.914 54.592C419.812 54.4753 419.674 54.375 419.501 54.291C419.333 54.207 419.14 54.1323 418.92 54.067C418.706 54.0017 418.486 53.9317 418.262 53.857C418.038 53.7823 417.817 53.696 417.597 53.598C417.383 53.5 417.189 53.3763 417.016 53.227C416.848 53.073 416.713 52.8887 416.61 52.674C416.508 52.4547 416.456 52.1887 416.456 51.876C416.456 51.5913 416.512 51.3207 416.624 51.064C416.741 50.8073 416.909 50.581 417.128 50.385C417.352 50.189 417.625 50.035 417.947 49.923C418.274 49.8063 418.65 49.748 419.074 49.748C419.555 49.748 419.991 49.825 420.383 49.979C420.775 50.133 421.104 50.343 421.37 50.609L421.034 51.155ZM424.948 55.208C425.158 55.4787 425.386 55.67 425.634 55.782C425.886 55.8893 426.163 55.943 426.467 55.943C427.055 55.943 427.512 55.7283 427.839 55.299C428.17 54.8697 428.336 54.2303 428.336 53.381C428.336 52.9423 428.298 52.569 428.224 52.261C428.149 51.9483 428.042 51.694 427.902 51.498C427.762 51.302 427.591 51.1597 427.391 51.071C427.19 50.9823 426.964 50.938 426.712 50.938C426.329 50.938 425.998 51.022 425.718 51.19C425.442 51.3533 425.186 51.589 424.948 51.897V55.208ZM424.871 50.896C425.169 50.546 425.508 50.2637 425.886 50.049C426.268 49.8343 426.712 49.727 427.216 49.727C427.617 49.727 427.981 49.8087 428.308 49.972C428.634 50.1307 428.914 50.364 429.148 50.672C429.381 50.98 429.561 51.3627 429.687 51.82C429.817 52.2727 429.883 52.793 429.883 53.381C429.883 53.9083 429.81 54.4007 429.666 54.858C429.526 55.3107 429.323 55.705 429.057 56.041C428.791 56.3723 428.469 56.6337 428.091 56.825C427.713 57.0117 427.286 57.105 426.81 57.105C426.39 57.105 426.033 57.0373 425.739 56.902C425.449 56.7667 425.186 56.58 424.948 56.342V59.373H423.443V49.86H424.353C424.558 49.86 424.689 49.9557 424.745 50.147L424.871 50.896ZM435.72 53.878C435.183 53.8967 434.731 53.941 434.362 54.011C433.993 54.0763 433.695 54.1627 433.466 54.27C433.237 54.3727 433.072 54.4963 432.969 54.641C432.871 54.7857 432.822 54.9443 432.822 55.117C432.822 55.285 432.848 55.4297 432.899 55.551C432.955 55.6677 433.03 55.7657 433.123 55.845C433.221 55.9197 433.333 55.9757 433.459 56.013C433.59 56.0457 433.732 56.062 433.886 56.062C434.278 56.062 434.614 55.9897 434.894 55.845C435.179 55.6957 435.454 55.481 435.72 55.201V53.878ZM431.73 50.854C432.537 50.1027 433.499 49.727 434.614 49.727C435.025 49.727 435.389 49.7947 435.706 49.93C436.028 50.0607 436.296 50.2473 436.511 50.49C436.73 50.7327 436.896 51.022 437.008 51.358C437.125 51.6893 437.183 52.058 437.183 52.464V57H436.511C436.366 57 436.257 56.979 436.182 56.937C436.107 56.8903 436.044 56.7993 435.993 56.664L435.846 56.083C435.664 56.2463 435.484 56.3933 435.307 56.524C435.13 56.65 434.945 56.7573 434.754 56.846C434.567 56.9347 434.364 57 434.145 57.042C433.93 57.0887 433.692 57.112 433.431 57.112C433.142 57.112 432.871 57.0723 432.619 56.993C432.372 56.9137 432.157 56.7947 431.975 56.636C431.793 56.4727 431.648 56.272 431.541 56.034C431.438 55.796 431.387 55.516 431.387 55.194C431.387 54.9187 431.459 54.6503 431.604 54.389C431.753 54.1277 431.996 53.8943 432.332 53.689C432.673 53.479 433.118 53.3063 433.669 53.171C434.224 53.0357 434.908 52.9587 435.72 52.94V52.464C435.72 51.9507 435.61 51.568 435.391 51.316C435.172 51.064 434.85 50.938 434.425 50.938C434.136 50.938 433.893 50.9753 433.697 51.05C433.501 51.12 433.331 51.197 433.186 51.281C433.041 51.365 432.913 51.4443 432.801 51.519C432.689 51.589 432.57 51.624 432.444 51.624C432.341 51.624 432.253 51.5983 432.178 51.547C432.108 51.491 432.05 51.4233 432.003 51.344L431.73 50.854ZM444.553 51.26C444.506 51.3207 444.462 51.3673 444.42 51.4C444.378 51.4327 444.317 51.449 444.238 51.449C444.159 51.449 444.075 51.421 443.986 51.365C443.902 51.309 443.799 51.2483 443.678 51.183C443.561 51.113 443.419 51.05 443.251 50.994C443.083 50.938 442.873 50.91 442.621 50.91C442.294 50.91 442.007 50.9683 441.76 51.085C441.517 51.2017 441.312 51.3697 441.144 51.589C440.981 51.8037 440.857 52.0673 440.773 52.38C440.694 52.688 440.654 53.0357 440.654 53.423C440.654 53.8243 440.698 54.1813 440.787 54.494C440.876 54.8067 441.002 55.0703 441.165 55.285C441.333 55.4997 441.534 55.663 441.767 55.775C442.005 55.887 442.271 55.943 442.565 55.943C442.854 55.943 443.09 55.908 443.272 55.838C443.454 55.768 443.606 55.691 443.727 55.607C443.848 55.523 443.951 55.446 444.035 55.376C444.124 55.306 444.217 55.271 444.315 55.271C444.436 55.271 444.53 55.3177 444.595 55.411L445.022 55.964C444.849 56.174 444.658 56.3513 444.448 56.496C444.238 56.6407 444.016 56.7597 443.783 56.853C443.55 56.9417 443.307 57.0047 443.055 57.042C442.803 57.084 442.549 57.105 442.292 57.105C441.849 57.105 441.433 57.0233 441.046 56.86C440.663 56.692 440.327 56.4517 440.038 56.139C439.753 55.8217 439.527 55.4367 439.359 54.984C439.196 54.5267 439.114 54.0063 439.114 53.423C439.114 52.8957 439.189 52.408 439.338 51.96C439.487 51.5073 439.704 51.1177 439.989 50.791C440.278 50.4643 440.635 50.21 441.06 50.028C441.485 49.8413 441.975 49.748 442.53 49.748C443.048 49.748 443.503 49.832 443.895 50C444.292 50.168 444.644 50.406 444.952 50.714L444.553 51.26ZM451.352 52.625C451.352 52.373 451.315 52.1397 451.24 51.925C451.17 51.7057 451.065 51.5167 450.925 51.358C450.785 51.1947 450.61 51.0687 450.4 50.98C450.195 50.8867 449.957 50.84 449.686 50.84C449.14 50.84 448.711 50.9963 448.398 51.309C448.086 51.6217 447.887 52.0603 447.803 52.625H451.352ZM447.761 53.549C447.78 53.955 447.843 54.3073 447.95 54.606C448.058 54.9 448.2 55.145 448.377 55.341C448.559 55.537 448.774 55.684 449.021 55.782C449.273 55.8753 449.553 55.922 449.861 55.922C450.155 55.922 450.41 55.8893 450.624 55.824C450.839 55.754 451.026 55.6793 451.184 55.6C451.343 55.516 451.478 55.4413 451.59 55.376C451.702 55.306 451.805 55.271 451.898 55.271C452.02 55.271 452.113 55.3177 452.178 55.411L452.605 55.964C452.428 56.174 452.227 56.3513 452.003 56.496C451.779 56.6407 451.541 56.7597 451.289 56.853C451.037 56.9417 450.778 57.0047 450.512 57.042C450.246 57.084 449.987 57.105 449.735 57.105C449.241 57.105 448.781 57.0233 448.356 56.86C447.936 56.692 447.57 56.447 447.257 56.125C446.949 55.803 446.707 55.404 446.529 54.928C446.357 54.452 446.27 53.9037 446.27 53.283C446.27 52.7883 446.347 52.3263 446.501 51.897C446.66 51.4677 446.884 51.0943 447.173 50.777C447.467 50.4597 447.822 50.21 448.237 50.028C448.657 49.8413 449.131 49.748 449.658 49.748C450.097 49.748 450.503 49.8203 450.876 49.965C451.25 50.105 451.572 50.3127 451.842 50.588C452.113 50.8633 452.323 51.2017 452.472 51.603C452.626 51.9997 452.703 52.4523 452.703 52.961C452.703 53.1943 452.678 53.3507 452.626 53.43C452.575 53.5093 452.482 53.549 452.346 53.549H447.761Z" fill="#363B3F"/>
<path d="M382.908 60.57H453.746V61.242H382.908V60.57Z" fill="#363B3F"/>
<path d="M764.721 47.7716C764.721 50.3081 762.663 52.3665 760.126 52.3665C757.59 52.3665 755.531 50.3081 755.531 47.7716C755.531 45.2351 757.59 43.1768 760.126 43.1768C762.663 43.1768 764.721 45.2351 764.721 47.7716ZM760.126 56.8148C761.268 56.8148 762.357 56.5804 763.347 56.1653H765.322C767.501 56.1653 769.267 57.9315 769.267 60.1108V60.7602C769.267 61.1455 768.954 61.4585 768.569 61.4585H751.684C751.298 61.4585 750.985 61.1455 750.985 60.7602V60.1108C750.985 57.9315 752.751 56.1653 754.931 56.1653H756.906C757.897 56.5798 758.983 56.8148 760.126 56.8148Z" stroke="white" stroke-width="2.5"/>
<path d="M673.831 57.4839L673.83 57.4834C673.789 57.4387 673.742 57.3899 673.691 57.3369C673.312 56.9397 672.701 56.3005 672.205 55.2952C671.638 54.1482 671.244 52.596 671.244 50.3693C671.244 47.8403 669.481 45.801 667.046 45.2954L666.051 45.0885V44.0715V43.2256C666.051 43.198 666.028 43.1768 666.003 43.1768C665.977 43.1768 665.955 43.198 665.955 43.2256V44.0715V45.0885L664.959 45.2954C662.525 45.801 660.762 47.8403 660.762 50.3693C660.762 52.596 660.367 54.1482 659.801 55.2952C659.304 56.3005 658.694 56.9397 658.314 57.3369C658.263 57.3899 658.217 57.4386 658.175 57.4832L673.831 57.4839ZM673.831 57.4839C673.834 57.487 673.836 57.4897 673.838 57.492C673.84 57.4954 673.842 57.4979 673.843 57.4993C673.844 57.5018 673.845 57.5028 673.845 57.5026C673.844 57.5016 673.845 57.5017 673.845 57.5048L673.845 57.5054M673.831 57.4839L673.845 57.5054M673.845 57.5054C673.845 57.5098 673.844 57.5184 673.839 57.5292C673.835 57.5401 673.829 57.5484 673.824 57.5536C673.822 57.5559 673.82 57.5573 673.819 57.5579L673.818 57.5588C673.818 57.5589 673.816 57.5595 673.813 57.5601C673.81 57.5608 673.803 57.5619 673.792 57.5619H658.214C658.202 57.5619 658.195 57.5608 658.192 57.5601C658.189 57.5595 658.188 57.5589 658.188 57.5589L658.186 57.558C658.185 57.5574 658.184 57.5561 658.181 57.5537C658.177 57.5485 658.171 57.5401 658.166 57.5291C658.162 57.5182 658.161 57.5094 658.161 57.5048M673.845 57.5054L658.161 57.5048M658.161 57.5048C658.161 57.5047 658.161 57.5047 658.161 57.5047C658.161 57.5017 658.161 57.5018 658.161 57.5029C658.161 57.5031 658.161 57.502 658.163 57.4994C658.164 57.4968 658.168 57.4914 658.175 57.4834L658.161 57.5048ZM666.507 61.3608C666.351 61.4238 666.181 61.4585 666.003 61.4585C665.824 61.4585 665.654 61.4238 665.499 61.3608H666.507Z" stroke="white" stroke-width="2.5"/>
<path d="M487.702 47.7256L491.858 51.8824L482.832 60.9089L479.126 61.3181C478.63 61.3729 478.21 60.9534 478.266 60.4573L478.678 56.7485L487.702 47.7256ZM494.43 47.1067L492.478 45.1549C491.869 44.546 490.881 44.546 490.273 45.1549L488.436 46.9911L492.593 51.148L494.43 49.3117C495.038 48.7026 495.038 47.7155 494.43 47.1067Z" fill="white"/>
<path d="M32.8159 48.0382H52.1132C52.5232 48.0382 52.8555 47.7059 52.8555 47.296V45.4404C52.8555 45.0305 52.5232 44.6982 52.1132 44.6982H32.8159C32.406 44.6982 32.0737 45.0305 32.0737 45.4404V47.296C32.0737 47.7059 32.406 48.0382 32.8159 48.0382ZM32.8159 55.4602H52.1132C52.5232 55.4602 52.8555 55.1279 52.8555 54.718V52.8625C52.8555 52.4526 52.5232 52.1203 52.1132 52.1203H32.8159C32.406 52.1203 32.0737 52.4526 32.0737 52.8625V54.718C32.0737 55.1279 32.406 55.4602 32.8159 55.4602ZM32.8159 62.8822H52.1132C52.5232 62.8822 52.8555 62.55 52.8555 62.14V60.2845C52.8555 59.8746 52.5232 59.5423 52.1132 59.5423H32.8159C32.406 59.5423 32.0737 59.8746 32.0737 60.2845V62.14C32.0737 62.55 32.406 62.8822 32.8159 62.8822Z" fill="white"/>
<path d="M80.716 105H79.636V101.004H75.244V105H74.164V96.432H75.244V100.056H79.636V96.432H80.716V105ZM90.5465 101.772C90.5465 102.836 90.2745 103.66 89.7305 104.244C89.1945 104.828 88.4665 105.12 87.5465 105.12C86.9785 105.12 86.4705 104.992 86.0225 104.736C85.5825 104.472 85.2345 104.092 84.9785 103.596C84.7225 103.092 84.5945 102.484 84.5945 101.772C84.5945 100.708 84.8625 99.888 85.3985 99.312C85.9345 98.736 86.6625 98.448 87.5825 98.448C88.1665 98.448 88.6785 98.58 89.1185 98.844C89.5665 99.1 89.9145 99.476 90.1625 99.972C90.4185 100.46 90.5465 101.06 90.5465 101.772ZM85.6865 101.772C85.6865 102.532 85.8345 103.136 86.1305 103.584C86.4345 104.024 86.9145 104.244 87.5705 104.244C88.2185 104.244 88.6945 104.024 88.9985 103.584C89.3025 103.136 89.4545 102.532 89.4545 101.772C89.4545 101.012 89.3025 100.416 88.9985 99.984C88.6945 99.552 88.2145 99.336 87.5585 99.336C86.9025 99.336 86.4265 99.552 86.1305 99.984C85.8345 100.416 85.6865 101.012 85.6865 101.772ZM101.316 98.448C102.044 98.448 102.588 98.636 102.948 99.012C103.308 99.38 103.488 99.98 103.488 100.812V105H102.444V100.86C102.444 99.844 102.008 99.336 101.136 99.336C100.512 99.336 100.064 99.516 99.7922 99.876C99.5282 100.236 99.3962 100.76 99.3962 101.448V105H98.3522V100.86C98.3522 99.844 97.9122 99.336 97.0322 99.336C96.3842 99.336 95.9362 99.536 95.6882 99.936C95.4402 100.336 95.3162 100.912 95.3162 101.664V105H94.2602V98.568H95.1122L95.2682 99.444H95.3282C95.5282 99.108 95.7962 98.86 96.1322 98.7C96.4762 98.532 96.8402 98.448 97.2242 98.448C98.2322 98.448 98.8882 98.808 99.1922 99.528H99.2522C99.4682 99.16 99.7602 98.888 100.128 98.712C100.504 98.536 100.9 98.448 101.316 98.448ZM109.999 98.448C110.551 98.448 111.023 98.568 111.415 98.808C111.815 99.048 112.119 99.388 112.327 99.828C112.543 100.26 112.651 100.768 112.651 101.352V101.988H108.247C108.263 102.716 108.447 103.272 108.799 103.656C109.159 104.032 109.659 104.22 110.299 104.22C110.707 104.22 111.067 104.184 111.379 104.112C111.699 104.032 112.027 103.92 112.363 103.776V104.7C112.035 104.844 111.711 104.948 111.391 105.012C111.071 105.084 110.691 105.12 110.251 105.12C109.643 105.12 109.103 104.996 108.631 104.748C108.167 104.5 107.803 104.132 107.539 103.644C107.283 103.148 107.155 102.544 107.155 101.832C107.155 101.128 107.271 100.524 107.503 100.02C107.743 99.516 108.075 99.128 108.499 98.856C108.931 98.584 109.431 98.448 109.999 98.448ZM109.987 99.312C109.483 99.312 109.083 99.476 108.787 99.804C108.499 100.124 108.327 100.572 108.271 101.148H111.547C111.539 100.604 111.411 100.164 111.163 99.828C110.915 99.484 110.523 99.312 109.987 99.312ZM121.066 102.672L125.59 100.788L121.066 98.64V97.704L126.718 100.524V101.124L121.066 103.608V102.672ZM137.962 96.432C139.082 96.432 139.898 96.652 140.41 97.092C140.922 97.532 141.178 98.152 141.178 98.952C141.178 99.424 141.07 99.868 140.854 100.284C140.646 100.692 140.29 101.024 139.786 101.28C139.29 101.536 138.614 101.664 137.758 101.664H136.774V105H135.694V96.432H137.962ZM137.866 97.356H136.774V100.74H137.638C138.454 100.74 139.062 100.608 139.462 100.344C139.862 100.08 140.062 99.632 140.062 99C140.062 98.448 139.886 98.036 139.534 97.764C139.182 97.492 138.626 97.356 137.866 97.356ZM147.34 98.448C147.892 98.448 148.364 98.568 148.756 98.808C149.156 99.048 149.46 99.388 149.668 99.828C149.884 100.26 149.992 100.768 149.992 101.352V101.988H145.588C145.604 102.716 145.788 103.272 146.14 103.656C146.5 104.032 147 104.22 147.64 104.22C148.048 104.22 148.408 104.184 148.72 104.112C149.04 104.032 149.368 103.92 149.704 103.776V104.7C149.376 104.844 149.052 104.948 148.732 105.012C148.412 105.084 148.032 105.12 147.592 105.12C146.984 105.12 146.444 104.996 145.972 104.748C145.508 104.5 145.144 104.132 144.88 103.644C144.624 103.148 144.496 102.544 144.496 101.832C144.496 101.128 144.612 100.524 144.844 100.02C145.084 99.516 145.416 99.128 145.84 98.856C146.272 98.584 146.772 98.448 147.34 98.448ZM147.328 99.312C146.824 99.312 146.424 99.476 146.128 99.804C145.84 100.124 145.668 100.572 145.612 101.148H148.888C148.88 100.604 148.752 100.164 148.504 99.828C148.256 99.484 147.864 99.312 147.328 99.312ZM156.669 98.448C156.789 98.448 156.917 98.456 157.053 98.472C157.197 98.48 157.321 98.496 157.425 98.52L157.293 99.492C157.189 99.468 157.073 99.448 156.945 99.432C156.825 99.416 156.709 99.408 156.597 99.408C156.269 99.408 155.961 99.5 155.673 99.684C155.385 99.86 155.153 100.112 154.977 100.44C154.809 100.76 154.725 101.136 154.725 101.568V105H153.669V98.568H154.533L154.653 99.744H154.701C154.909 99.392 155.177 99.088 155.505 98.832C155.833 98.576 156.221 98.448 156.669 98.448ZM164.854 103.224C164.854 103.848 164.622 104.32 164.158 104.64C163.694 104.96 163.07 105.12 162.286 105.12C161.838 105.12 161.45 105.084 161.122 105.012C160.802 104.94 160.518 104.84 160.27 104.712V103.752C160.526 103.88 160.834 104 161.194 104.112C161.562 104.216 161.934 104.268 162.31 104.268C162.846 104.268 163.234 104.184 163.474 104.016C163.714 103.84 163.834 103.608 163.834 103.32C163.834 103.16 163.79 103.016 163.702 102.888C163.614 102.76 163.454 102.632 163.222 102.504C162.998 102.376 162.674 102.232 162.25 102.072C161.834 101.912 161.478 101.752 161.182 101.592C160.886 101.432 160.658 101.24 160.498 101.016C160.338 100.792 160.258 100.504 160.258 100.152C160.258 99.608 160.478 99.188 160.918 98.892C161.366 98.596 161.95 98.448 162.67 98.448C163.062 98.448 163.426 98.488 163.762 98.568C164.106 98.64 164.426 98.744 164.722 98.88L164.362 99.72C164.09 99.608 163.806 99.512 163.51 99.432C163.214 99.352 162.91 99.312 162.598 99.312C162.166 99.312 161.834 99.384 161.602 99.528C161.378 99.664 161.266 99.852 161.266 100.092C161.266 100.268 161.318 100.42 161.422 100.548C161.526 100.668 161.698 100.788 161.938 100.908C162.186 101.02 162.514 101.156 162.922 101.316C163.33 101.468 163.678 101.624 163.966 101.784C164.254 101.944 164.474 102.14 164.626 102.372C164.778 102.596 164.854 102.88 164.854 103.224ZM174.04 101.772C174.04 102.836 173.768 103.66 173.224 104.244C172.688 104.828 171.96 105.12 171.04 105.12C170.472 105.12 169.964 104.992 169.516 104.736C169.076 104.472 168.728 104.092 168.472 103.596C168.216 103.092 168.088 102.484 168.088 101.772C168.088 100.708 168.356 99.888 168.892 99.312C169.428 98.736 170.156 98.448 171.076 98.448C171.66 98.448 172.172 98.58 172.612 98.844C173.06 99.1 173.408 99.476 173.656 99.972C173.912 100.46 174.04 101.06 174.04 101.772ZM169.18 101.772C169.18 102.532 169.328 103.136 169.624 103.584C169.928 104.024 170.408 104.244 171.064 104.244C171.712 104.244 172.188 104.024 172.492 103.584C172.796 103.136 172.948 102.532 172.948 101.772C172.948 101.012 172.796 100.416 172.492 99.984C172.188 99.552 171.708 99.336 171.052 99.336C170.396 99.336 169.92 99.552 169.624 99.984C169.328 100.416 169.18 101.012 169.18 101.772ZM180.85 98.448C181.618 98.448 182.198 98.636 182.59 99.012C182.982 99.38 183.178 99.98 183.178 100.812V105H182.134V100.884C182.134 99.852 181.654 99.336 180.694 99.336C179.982 99.336 179.49 99.536 179.218 99.936C178.946 100.336 178.81 100.912 178.81 101.664V105H177.754V98.568H178.606L178.762 99.444H178.822C179.03 99.108 179.318 98.86 179.686 98.7C180.054 98.532 180.442 98.448 180.85 98.448ZM189.648 98.46C190.432 98.46 191.012 98.632 191.388 98.976C191.764 99.32 191.952 99.868 191.952 100.62V105H191.184L190.98 104.088H190.932C190.652 104.44 190.356 104.7 190.044 104.868C189.74 105.036 189.316 105.12 188.772 105.12C188.188 105.12 187.704 104.968 187.32 104.664C186.936 104.352 186.744 103.868 186.744 103.212C186.744 102.572 186.996 102.08 187.5 101.736C188.004 101.384 188.78 101.192 189.828 101.16L190.92 101.124V100.74C190.92 100.204 190.804 99.832 190.572 99.624C190.34 99.416 190.012 99.312 189.588 99.312C189.252 99.312 188.932 99.364 188.628 99.468C188.324 99.564 188.04 99.676 187.776 99.804L187.452 99.012C187.732 98.86 188.064 98.732 188.448 98.628C188.832 98.516 189.232 98.46 189.648 98.46ZM189.96 101.892C189.16 101.924 188.604 102.052 188.292 102.276C187.988 102.5 187.836 102.816 187.836 103.224C187.836 103.584 187.944 103.848 188.16 104.016C188.384 104.184 188.668 104.268 189.012 104.268C189.556 104.268 190.008 104.12 190.368 103.824C190.728 103.52 190.908 103.056 190.908 102.432V101.856L189.96 101.892ZM197.034 105H195.978V95.88H197.034V105ZM205.849 102.672L210.373 100.788L205.849 98.64V97.704L211.501 100.524V101.124L205.849 103.608V102.672ZM222.746 96.432C223.866 96.432 224.682 96.652 225.194 97.092C225.706 97.532 225.962 98.152 225.962 98.952C225.962 99.424 225.854 99.868 225.638 100.284C225.43 100.692 225.074 101.024 224.57 101.28C224.074 101.536 223.398 101.664 222.542 101.664H221.558V105H220.478V96.432H222.746ZM222.65 97.356H221.558V100.74H222.422C223.238 100.74 223.846 100.608 224.246 100.344C224.646 100.08 224.846 99.632 224.846 99C224.846 98.448 224.67 98.036 224.318 97.764C223.966 97.492 223.41 97.356 222.65 97.356ZM233.455 97.26C232.535 97.26 231.811 97.568 231.283 98.184C230.755 98.8 230.491 99.644 230.491 100.716C230.491 101.78 230.735 102.624 231.223 103.248C231.719 103.864 232.459 104.172 233.443 104.172C233.819 104.172 234.175 104.14 234.511 104.076C234.847 104.012 235.175 103.932 235.495 103.836V104.772C235.175 104.892 234.843 104.98 234.499 105.036C234.163 105.092 233.759 105.12 233.287 105.12C232.415 105.12 231.687 104.94 231.103 104.58C230.519 104.22 230.079 103.708 229.783 103.044C229.495 102.38 229.351 101.6 229.351 100.704C229.351 99.84 229.507 99.08 229.819 98.424C230.139 97.76 230.607 97.244 231.223 96.876C231.839 96.5 232.587 96.312 233.467 96.312C234.371 96.312 235.159 96.48 235.831 96.816L235.399 97.728C235.135 97.608 234.839 97.5 234.511 97.404C234.191 97.308 233.839 97.26 233.455 97.26ZM240.197 96.564C240.093 96.98 239.941 97.448 239.741 97.968C239.549 98.48 239.357 98.948 239.165 99.372H238.385C238.465 99.068 238.541 98.744 238.613 98.4C238.693 98.048 238.765 97.704 238.829 97.368C238.893 97.024 238.945 96.712 238.985 96.432H240.113L240.197 96.564ZM247.224 103.224C247.224 103.848 246.992 104.32 246.528 104.64C246.064 104.96 245.44 105.12 244.656 105.12C244.208 105.12 243.82 105.084 243.492 105.012C243.172 104.94 242.888 104.84 242.64 104.712V103.752C242.896 103.88 243.204 104 243.564 104.112C243.932 104.216 244.304 104.268 244.68 104.268C245.216 104.268 245.604 104.184 245.844 104.016C246.084 103.84 246.204 103.608 246.204 103.32C246.204 103.16 246.16 103.016 246.072 102.888C245.984 102.76 245.824 102.632 245.592 102.504C245.368 102.376 245.044 102.232 244.62 102.072C244.204 101.912 243.848 101.752 243.552 101.592C243.256 101.432 243.028 101.24 242.868 101.016C242.708 100.792 242.628 100.504 242.628 100.152C242.628 99.608 242.848 99.188 243.288 98.892C243.736 98.596 244.32 98.448 245.04 98.448C245.432 98.448 245.796 98.488 246.132 98.568C246.476 98.64 246.796 98.744 247.092 98.88L246.732 99.72C246.46 99.608 246.176 99.512 245.88 99.432C245.584 99.352 245.28 99.312 244.968 99.312C244.536 99.312 244.204 99.384 243.972 99.528C243.748 99.664 243.636 99.852 243.636 100.092C243.636 100.268 243.688 100.42 243.792 100.548C243.896 100.668 244.068 100.788 244.308 100.908C244.556 101.02 244.884 101.156 245.292 101.316C245.7 101.468 246.048 101.624 246.336 101.784C246.624 101.944 246.844 102.14 246.996 102.372C247.148 102.596 247.224 102.88 247.224 103.224ZM260.163 103.224C260.163 103.848 259.931 104.32 259.467 104.64C259.003 104.96 258.379 105.12 257.595 105.12C257.147 105.12 256.759 105.084 256.431 105.012C256.111 104.94 255.827 104.84 255.579 104.712V103.752C255.835 103.88 256.143 104 256.503 104.112C256.871 104.216 257.243 104.268 257.619 104.268C258.155 104.268 258.543 104.184 258.783 104.016C259.023 103.84 259.143 103.608 259.143 103.32C259.143 103.16 259.099 103.016 259.011 102.888C258.923 102.76 258.763 102.632 258.531 102.504C258.307 102.376 257.983 102.232 257.559 102.072C257.143 101.912 256.787 101.752 256.491 101.592C256.195 101.432 255.967 101.24 255.807 101.016C255.647 100.792 255.567 100.504 255.567 100.152C255.567 99.608 255.787 99.188 256.227 98.892C256.675 98.596 257.259 98.448 257.979 98.448C258.371 98.448 258.735 98.488 259.071 98.568C259.415 98.64 259.735 98.744 260.031 98.88L259.671 99.72C259.399 99.608 259.115 99.512 258.819 99.432C258.523 99.352 258.219 99.312 257.907 99.312C257.475 99.312 257.143 99.384 256.911 99.528C256.687 99.664 256.575 99.852 256.575 100.092C256.575 100.268 256.627 100.42 256.731 100.548C256.835 100.668 257.007 100.788 257.247 100.908C257.495 101.02 257.823 101.156 258.231 101.316C258.639 101.468 258.987 101.624 259.275 101.784C259.563 101.944 259.783 102.14 259.935 102.372C260.087 102.596 260.163 102.88 260.163 103.224ZM266.817 98.448C267.609 98.448 268.245 98.724 268.725 99.276C269.213 99.828 269.457 100.66 269.457 101.772C269.457 102.868 269.213 103.7 268.725 104.268C268.245 104.836 267.605 105.12 266.805 105.12C266.309 105.12 265.897 105.028 265.569 104.844C265.249 104.652 264.997 104.432 264.813 104.184H264.741C264.757 104.32 264.773 104.492 264.789 104.7C264.805 104.908 264.813 105.088 264.813 105.24V107.88H263.757V98.568H264.621L264.765 99.444H264.813C265.005 99.164 265.257 98.928 265.569 98.736C265.881 98.544 266.297 98.448 266.817 98.448ZM266.625 99.336C265.969 99.336 265.505 99.52 265.233 99.888C264.969 100.256 264.829 100.816 264.813 101.568V101.772C264.813 102.564 264.941 103.176 265.197 103.608C265.461 104.032 265.945 104.244 266.649 104.244C267.041 104.244 267.361 104.136 267.609 103.92C267.865 103.704 268.053 103.412 268.173 103.044C268.301 102.668 268.365 102.24 268.365 101.76C268.365 101.024 268.221 100.436 267.933 99.996C267.653 99.556 267.217 99.336 266.625 99.336ZM275.616 98.46C276.4 98.46 276.98 98.632 277.356 98.976C277.732 99.32 277.92 99.868 277.92 100.62V105H277.152L276.948 104.088H276.9C276.62 104.44 276.324 104.7 276.012 104.868C275.708 105.036 275.284 105.12 274.74 105.12C274.156 105.12 273.672 104.968 273.288 104.664C272.904 104.352 272.712 103.868 272.712 103.212C272.712 102.572 272.964 102.08 273.468 101.736C273.972 101.384 274.748 101.192 275.796 101.16L276.888 101.124V100.74C276.888 100.204 276.772 99.832 276.54 99.624C276.308 99.416 275.98 99.312 275.556 99.312C275.22 99.312 274.9 99.364 274.596 99.468C274.292 99.564 274.008 99.676 273.744 99.804L273.42 99.012C273.7 98.86 274.032 98.732 274.416 98.628C274.8 98.516 275.2 98.46 275.616 98.46ZM275.928 101.892C275.128 101.924 274.572 102.052 274.26 102.276C273.956 102.5 273.804 102.816 273.804 103.224C273.804 103.584 273.912 103.848 274.128 104.016C274.352 104.184 274.636 104.268 274.98 104.268C275.524 104.268 275.976 104.12 276.336 103.824C276.696 103.52 276.876 103.056 276.876 102.432V101.856L275.928 101.892ZM284.527 105.12C283.959 105.12 283.451 105.004 283.003 104.772C282.563 104.54 282.215 104.18 281.959 103.692C281.711 103.204 281.587 102.58 281.587 101.82C281.587 101.028 281.719 100.384 281.983 99.888C282.247 99.392 282.603 99.028 283.051 98.796C283.507 98.564 284.023 98.448 284.599 98.448C284.927 98.448 285.243 98.484 285.547 98.556C285.851 98.62 286.099 98.7 286.291 98.796L285.967 99.672C285.775 99.6 285.551 99.532 285.295 99.468C285.039 99.404 284.799 99.372 284.575 99.372C283.311 99.372 282.679 100.184 282.679 101.808C282.679 102.584 282.831 103.18 283.135 103.596C283.447 104.004 283.907 104.208 284.515 104.208C284.867 104.208 285.175 104.172 285.439 104.1C285.711 104.028 285.959 103.94 286.183 103.836V104.772C285.967 104.884 285.727 104.968 285.463 105.024C285.207 105.088 284.895 105.12 284.527 105.12ZM292.236 98.448C292.788 98.448 293.26 98.568 293.652 98.808C294.052 99.048 294.356 99.388 294.564 99.828C294.78 100.26 294.888 100.768 294.888 101.352V101.988H290.484C290.5 102.716 290.684 103.272 291.036 103.656C291.396 104.032 291.896 104.22 292.536 104.22C292.944 104.22 293.304 104.184 293.616 104.112C293.936 104.032 294.264 103.92 294.6 103.776V104.7C294.272 104.844 293.948 104.948 293.628 105.012C293.308 105.084 292.928 105.12 292.488 105.12C291.88 105.12 291.34 104.996 290.868 104.748C290.404 104.5 290.04 104.132 289.776 103.644C289.52 103.148 289.392 102.544 289.392 101.832C289.392 101.128 289.508 100.524 289.74 100.02C289.98 99.516 290.312 99.128 290.736 98.856C291.168 98.584 291.668 98.448 292.236 98.448ZM292.224 99.312C291.72 99.312 291.32 99.476 291.024 99.804C290.736 100.124 290.564 100.572 290.508 101.148H293.784C293.776 100.604 293.648 100.164 293.4 99.828C293.152 99.484 292.76 99.312 292.224 99.312ZM303.303 102.672L307.827 100.788L303.303 98.64V97.704L308.955 100.524V101.124L303.303 103.608V102.672ZM324.723 102.564C324.279 103.092 323.679 103.536 322.971 103.908C322.431 103.524 321.579 103.056 320.799 102.732C320.883 102.684 320.967 102.624 321.051 102.564H324.723ZM317.619 102.468H318.447V101.196H321.483C320.823 101.928 319.683 102.648 318.123 103.152C318.303 103.296 318.543 103.572 318.663 103.764C319.179 103.584 319.647 103.368 320.079 103.152C320.787 103.452 321.591 103.884 322.155 104.28C321.027 104.736 319.743 105.024 318.495 105.18C318.639 105.36 318.819 105.72 318.903 105.936C321.759 105.504 324.747 104.436 325.995 102.192L325.431 101.868L325.275 101.904H321.879C322.119 101.676 322.335 101.436 322.527 101.196H327.075V102.468H327.939V100.488H317.619V102.468ZM326.211 99.216H324.387V97.98H326.211V99.216ZM323.631 99.216H321.843V97.98H323.631V99.216ZM321.075 99.216H319.359V97.98H321.075V99.216ZM318.543 97.356V99.852H327.051V97.356H318.543ZM325.179 95.76V94.968H324.291V95.76H321.183V94.968H320.307V95.76H317.571V96.528H320.307V97.14H321.183V96.528H324.291V97.14H325.179V96.528H327.975V95.76H325.179ZM340.755 97.44H337.779V96.324H340.755V97.44ZM340.755 99.252H337.779V98.136H340.755V99.252ZM340.755 101.088H337.779V99.948H340.755V101.088ZM341.607 95.592H336.951V101.82H341.607V95.592ZM335.787 102.18C336.339 102.72 337.071 103.488 337.419 103.944L338.067 103.416C337.707 102.972 336.963 102.228 336.411 101.724L335.787 102.18ZM332.187 105.288C332.667 104.628 333.051 103.56 333.315 102.756L332.535 102.456C332.295 103.236 331.887 104.256 331.407 104.892L332.187 105.288ZM334.539 101.94V99.024C335.067 99.468 335.739 100.056 336.051 100.356L336.531 99.636C336.219 99.396 334.995 98.484 334.539 98.196V97.524H336.435V96.744H334.539V94.992H333.687V96.744H331.503V97.524H333.531C333.003 98.748 332.115 99.984 331.239 100.608C331.419 100.752 331.671 101.028 331.815 101.232C332.487 100.68 333.159 99.768 333.687 98.784V101.94H334.539ZM335.919 104.856C335.223 104.856 335.103 104.796 335.103 104.484V102.588H334.227V104.496C334.227 105.42 334.563 105.66 335.859 105.66H338.343C339.423 105.66 339.699 105.3 339.819 103.8C339.567 103.752 339.207 103.62 339.003 103.464C338.955 104.688 338.859 104.856 338.283 104.856H335.919ZM339.987 102.564C340.467 103.356 341.091 104.4 341.367 105.024L342.195 104.616C341.895 104.004 341.247 102.972 340.755 102.216L339.987 102.564ZM353.511 99.384V100.104H348.159V99.384H353.511ZM348.123 101.448C348.135 101.184 348.147 100.932 348.159 100.692H353.511V101.448H348.123ZM354.387 102.096V98.736H347.259V100.464C347.259 101.904 347.043 103.86 345.459 105.252C345.663 105.372 346.011 105.696 346.143 105.864C347.319 104.82 347.835 103.404 348.039 102.096H354.387ZM353.943 103.44V104.844H349.047V103.44H353.943ZM348.195 105.912H349.047V105.54H353.943V105.9H354.831V102.744H348.195V105.912ZM348.963 97.404C349.707 96.84 350.343 96.264 350.787 95.724C351.291 96.276 351.987 96.852 352.755 97.404H348.963ZM350.319 94.932C349.347 96.216 347.343 97.704 345.303 98.58C345.483 98.76 345.711 99.084 345.819 99.288C346.815 98.832 347.799 98.244 348.663 97.62V98.076H353.007V97.584C353.931 98.22 354.939 98.796 355.863 99.204C356.007 98.964 356.223 98.652 356.415 98.436C354.567 97.728 352.479 96.384 351.171 94.932H350.319ZM370.227 96.804V96.012H365.691V94.968H364.779V96.012H360.339V99.744C360.339 101.448 360.255 103.788 359.307 105.432C359.499 105.516 359.871 105.78 360.015 105.936C361.035 104.196 361.179 101.58 361.179 99.744V96.804H370.227ZM363.087 102.288V101.376H365.307V102.288H363.087ZM363.087 99.888H365.307V100.788H363.087V99.888ZM368.487 99.888V100.788H366.159V99.888H368.487ZM368.487 102.288H366.159V101.376H368.487V102.288ZM370.311 103.74H366.159V102.888H369.303V99.288H366.159V98.484H369.927V97.776H366.159V96.912H365.307V97.776H361.851V98.484H365.307V99.288H362.295V102.888H365.307V103.74H361.335V104.496H365.307V105.924H366.159V104.496H370.311V103.74ZM378.685 102.672L383.209 100.788L378.685 98.64V97.704L384.337 100.524V101.124L378.685 103.608V102.672ZM396.181 103.332C395.449 103.992 393.985 104.808 392.821 105.288C393.037 105.456 393.337 105.756 393.505 105.924C394.645 105.432 396.085 104.616 397.033 103.872L396.181 103.332ZM399.241 103.944C400.537 104.568 401.893 105.36 402.697 105.936L403.525 105.312C402.637 104.736 401.197 103.956 399.877 103.344L399.241 103.944ZM397.717 99.036H398.581V100.632H397.717V99.036ZM397.261 101.208H399.061V98.46H397.261V101.208ZM399.181 97.056H397.141V97.668H399.181V97.056ZM394.537 100.8H395.737V100.056H394.513L394.477 98.58H395.749V97.836H394.453L394.405 96.492C394.969 96.288 395.569 96.036 396.109 95.784V102.312H394.585L394.537 100.8ZM399.553 96.276V102.312H396.781V96.276H399.553ZM402.529 102.312C402.637 100.512 402.721 97.68 402.745 95.568H400.501V96.312H401.965C401.953 96.804 401.953 97.308 401.941 97.836H400.585V98.58H401.917C401.905 99.072 401.893 99.576 401.869 100.056H400.561V100.8H401.845C401.821 101.352 401.785 101.856 401.761 102.312H400.225V95.568H396.145L395.641 95.028C395.317 95.244 394.813 95.52 394.321 95.76L393.613 95.592L393.817 102.312H392.737V103.14H403.573V102.312H402.529ZM413.665 97.632H412.285V96.216H413.665V97.632ZM412.285 102.432V100.524H413.665V102.12L412.285 102.432ZM413.665 99.828H412.285V98.34H413.665V99.828ZM411.565 102.588C411.229 102.66 410.917 102.72 410.641 102.78L410.809 103.512C411.625 103.332 412.645 103.08 413.665 102.828V104.508H414.397V98.076H416.749C416.617 99.3 416.389 100.356 416.065 101.244C415.729 100.392 415.477 99.432 415.309 98.424L414.685 98.556C414.901 99.864 415.237 101.1 415.693 102.132C415.381 102.744 415.021 103.248 414.601 103.632C414.769 103.764 415.021 104.076 415.129 104.256C415.501 103.92 415.825 103.488 416.125 102.96C416.461 103.524 416.845 104.004 417.289 104.364C417.409 104.16 417.649 103.896 417.817 103.764C417.301 103.392 416.869 102.852 416.509 102.18C417.025 100.968 417.373 99.396 417.553 97.464L417.097 97.32L416.953 97.344H414.397V96.216H416.569V95.436H410.893V96.216H411.565V102.588ZM409.813 101.676H411.193V100.884H409.813V99.36H411.289V98.568H409.645V97.164H411.061V96.384H409.645V94.956H408.853V96.384H407.137V97.164H408.853V98.568H406.837V99.36H409.021V103.668C408.625 103.248 408.325 102.672 408.085 101.892C408.121 101.364 408.121 100.836 408.109 100.332L407.365 100.296C407.401 101.892 407.329 103.92 406.525 105.372C406.693 105.456 406.981 105.708 407.113 105.888C407.533 105.156 407.785 104.304 407.929 103.428C408.829 105.192 410.293 105.6 412.909 105.6H417.349C417.409 105.336 417.577 104.94 417.721 104.724C417.001 104.748 413.461 104.748 412.909 104.748C411.589 104.748 410.581 104.64 409.813 104.244V101.676ZM431.509 96.384H428.497V94.98H427.621V96.384H424.633V97.188H431.509V96.384ZM427.105 99.18C427.045 98.652 426.793 97.848 426.505 97.26L425.701 97.452C425.977 98.064 426.217 98.856 426.265 99.384L427.105 99.18ZM423.181 98.688H424.513V97.836H423.181V95.052H422.341V97.836H420.901V98.688H422.341V102.528C421.717 102.768 421.141 102.972 420.673 103.128L420.973 104.028C422.065 103.584 423.505 103.008 424.837 102.444L424.669 101.628C424.177 101.82 423.673 102.024 423.181 102.204V98.688ZM430.057 102.156V104.484H426.145V102.156H430.057ZM425.317 105.9H426.145V105.288H430.057V105.864H430.933V101.34H425.317V105.9ZM429.697 97.212C429.541 97.8 429.253 98.652 429.013 99.18L429.769 99.396C430.033 98.892 430.321 98.136 430.609 97.464L429.697 97.212ZM431.725 99.396H424.213V100.212H431.725V99.396ZM438.097 103.62H439.837C440.149 104.004 440.533 104.328 440.989 104.616C440.005 104.7 439.009 104.784 438.097 104.856V103.62ZM441.781 99.612C442.021 99.948 442.309 100.272 442.633 100.572H440.665V99.912H439.825V100.572H437.953C438.289 100.272 438.577 99.948 438.841 99.612H441.781ZM438.097 101.172H442.441V101.82H438.097V101.172ZM438.097 103.02V102.348H442.441V103.02H438.097ZM443.329 103.62V101.136C443.917 101.568 444.577 101.916 445.237 102.144C445.357 101.916 445.609 101.616 445.801 101.448C444.637 101.112 443.461 100.416 442.717 99.612H445.537V98.916H440.701V98.232H444.205V97.56H440.701V96.888H444.853V96.18H442.573C442.813 95.892 443.065 95.532 443.317 95.184L442.369 94.944C442.201 95.292 441.889 95.82 441.649 96.18H438.841L438.901 96.156C438.757 95.796 438.397 95.292 438.049 94.932L437.281 95.208C437.533 95.496 437.773 95.856 437.953 96.18H435.661V96.888H439.801V97.56H436.321V98.232H439.801V98.916H434.989V99.612H437.797C437.017 100.464 435.865 101.184 434.689 101.652C434.893 101.796 435.205 102.132 435.313 102.288C435.949 102 436.609 101.628 437.209 101.184V104.916L435.841 105.024L435.937 105.804C437.329 105.684 439.297 105.504 441.169 105.312V104.724C442.225 105.348 443.593 105.744 445.105 105.924C445.213 105.696 445.417 105.348 445.597 105.18C444.649 105.096 443.737 104.94 442.945 104.712C443.545 104.46 444.217 104.136 444.745 103.8L444.085 103.404C443.605 103.704 442.825 104.136 442.165 104.436C441.613 104.208 441.145 103.944 440.761 103.62H443.329ZM454.066 102.672L458.59 100.788L454.066 98.64V97.704L459.718 100.524V101.124L454.066 103.608V102.672ZM471.586 100.008C471.19 100.14 470.794 100.272 470.398 100.392V98.184H471.682V97.368H470.398V94.968H469.57V97.368H468.07V98.184H469.57V100.644C468.946 100.836 468.37 101.016 467.914 101.136L468.142 102L469.57 101.532V104.88C469.57 105.06 469.51 105.096 469.366 105.096C469.222 105.108 468.754 105.108 468.238 105.096C468.358 105.336 468.466 105.708 468.502 105.912C469.246 105.924 469.702 105.888 469.99 105.756C470.29 105.612 470.398 105.36 470.398 104.88V101.268L471.706 100.836L471.586 100.008ZM475.726 104.472V98.448H478.906V97.644H475.726V96.36C476.758 96.24 477.73 96.084 478.51 95.892L477.934 95.208C476.554 95.556 474.058 95.796 471.994 95.928C472.078 96.12 472.186 96.42 472.21 96.636C473.062 96.6 473.986 96.54 474.898 96.444V97.644H471.802V98.448H474.898V104.472H472.87V102.696H474.406V101.916H472.87V100.572C473.518 100.392 474.25 100.14 474.826 99.864L474.106 99.24C473.77 99.456 473.23 99.696 472.69 99.888L472.054 99.684V105.888H472.87V105.252H477.79V105.84H478.594V99.684H476.206V100.452H477.79V101.916H476.254V102.696H477.79V104.472H475.726ZM482.23 105.576H492.934V104.94H482.23V105.576ZM490.726 102.72H487.942V102.108H490.726V102.72ZM490.726 103.86H487.942V103.224H490.726V103.86ZM484.45 103.224H487.114V103.86H484.45V103.224ZM484.45 102.108H487.114V102.72H484.45V102.108ZM483.598 101.592V104.376H491.626V101.592H483.598ZM487.966 97.428H490.714V98.088H487.966V97.428ZM487.966 96.252H490.714V96.864H487.966V96.252ZM487.966 100.44V99.816H492.07V99.252H487.966V98.64H491.602V97.428H492.898V96.864H491.602V95.7H487.966V94.956H487.078V95.7H483.514V96.252H487.078V96.864H482.254V97.428H487.078V98.088H483.442V98.64H487.078V99.252H483.154V99.816H487.078V100.44H482.23V101.064H492.934V100.44H487.966ZM501.368 102.672L505.892 100.788L501.368 98.64V97.704L507.02 100.524V101.124L501.368 103.608V102.672ZM518.768 102.204L517.604 102.636V98.7H518.744V97.872H517.604V95.1H516.776V97.872H515.528V98.7H516.776V102.936C516.248 103.128 515.768 103.296 515.372 103.428L515.66 104.304C516.596 103.932 517.796 103.476 518.936 102.996L518.768 102.204ZM525.188 98.952C524.924 100.056 524.576 101.052 524.096 101.94C523.916 100.764 523.772 99.276 523.712 97.62H526.22V96.792H525.344L525.944 96.384C525.656 95.976 525.044 95.424 524.516 95.04L523.916 95.424C524.42 95.82 525.008 96.408 525.296 96.792H523.688C523.676 96.204 523.676 95.58 523.676 94.956H522.824C522.824 95.58 522.836 96.192 522.86 96.792H519.248V100.5C519.248 102.048 519.128 104.016 517.928 105.396C518.12 105.504 518.456 105.792 518.588 105.96C519.872 104.472 520.076 102.192 520.076 100.512V99.984H521.588C521.552 102.132 521.504 102.9 521.372 103.08C521.324 103.188 521.228 103.2 521.084 103.2C520.928 103.2 520.556 103.2 520.148 103.164C520.268 103.368 520.328 103.68 520.352 103.92C520.784 103.944 521.204 103.944 521.432 103.92C521.72 103.884 521.9 103.8 522.044 103.584C522.272 103.284 522.32 102.324 522.356 99.588C522.368 99.48 522.368 99.228 522.368 99.228H520.076V97.62H522.884C522.968 99.696 523.148 101.568 523.46 102.996C522.812 103.92 522.032 104.688 521.096 105.264C521.276 105.384 521.6 105.708 521.72 105.876C522.488 105.36 523.148 104.724 523.724 103.992C524.096 105.12 524.6 105.792 525.272 105.792C526.052 105.792 526.304 105.24 526.436 103.44C526.22 103.356 525.944 103.176 525.776 102.984C525.728 104.364 525.608 104.952 525.38 104.952C524.972 104.952 524.624 104.28 524.336 103.128C525.068 101.988 525.62 100.644 526.016 99.084L525.188 98.952ZM540.248 97.488V96.612H535.304V94.908H534.368V96.612H529.52V97.488H534.38V99.108H530.744V104.436H531.632V99.96H534.38V105.948H535.292V99.96H538.22V103.308C538.22 103.464 538.16 103.512 537.956 103.536C537.74 103.536 537.02 103.536 536.216 103.512C536.336 103.764 536.48 104.124 536.528 104.388C537.536 104.388 538.208 104.388 538.628 104.232C539.024 104.088 539.144 103.824 539.144 103.308V99.108H535.292V97.488H540.248ZM548.06 98.676H549.944V100.2H548.06V98.676ZM552.8 98.676V100.2H550.82V98.676H552.8ZM549.944 104.388H550.82V101.532C551.6 102.516 552.692 103.476 553.664 104.004C553.808 103.776 554.072 103.464 554.276 103.308C553.208 102.84 551.972 101.868 551.216 100.92H553.664V97.968H550.82V96.972H554.204V96.204H550.82V94.98H549.944V96.204H546.752V96.972H549.944V97.968H547.244V100.92H549.476C548.78 101.928 547.604 102.888 546.524 103.356C546.716 103.512 546.968 103.824 547.1 104.028C548.12 103.5 549.2 102.528 549.944 101.484V104.388ZM546.416 97.104C545.996 96.528 545.096 95.76 544.328 95.256L543.668 95.796C544.448 96.324 545.336 97.116 545.708 97.692L546.416 97.104ZM546.08 99.66H543.536V100.5H545.204V103.536C544.604 104.04 543.932 104.544 543.38 104.904L543.86 105.804C544.496 105.288 545.096 104.772 545.672 104.268C546.44 105.192 547.508 105.624 549.068 105.684C550.388 105.732 552.848 105.708 554.156 105.66C554.192 105.384 554.348 104.964 554.444 104.748C553.04 104.844 550.376 104.88 549.068 104.832C547.688 104.772 546.644 104.364 546.08 103.488V99.66ZM560.924 103.44C561.164 104.112 561.344 105 561.332 105.54L562.064 105.432C562.064 104.892 561.884 104.028 561.62 103.368L560.924 103.44ZM562.616 103.392C562.964 103.968 563.276 104.724 563.372 105.228L564.056 105.024C563.96 104.52 563.624 103.764 563.24 103.2L562.616 103.392ZM565.904 104.34C565.712 103.968 565.268 103.416 564.86 103.032L564.26 103.32C564.668 103.716 565.1 104.28 565.28 104.664L565.904 104.34ZM561.092 102.036C561.32 101.784 561.536 101.532 561.716 101.256H566.612V97.692H563.3V98.352H565.796V99.156H563.48V99.792H565.796V100.608H560.156V99.792H562.448V99.156H560.156V98.388C560.996 98.208 561.944 97.968 562.652 97.668L562.088 97.092C561.56 97.344 560.684 97.608 559.892 97.812L559.352 97.692V101.256H560.732C559.988 102.204 558.752 102.96 557.516 103.44C557.684 103.608 557.948 103.98 558.044 104.148C558.524 103.932 559.016 103.668 559.472 103.368C559.292 104.124 558.944 104.904 558.392 105.36L559.064 105.768C559.712 105.228 560.024 104.316 560.228 103.452L559.616 103.272C559.856 103.116 560.084 102.948 560.3 102.768H566.756C566.66 104.244 566.54 104.856 566.36 105.048C566.264 105.144 566.168 105.156 565.964 105.144C565.748 105.156 565.208 105.144 564.632 105.096C564.776 105.3 564.86 105.636 564.884 105.864C565.472 105.9 566.048 105.912 566.336 105.876C566.672 105.864 566.888 105.792 567.092 105.576C567.38 105.264 567.524 104.448 567.656 102.396C567.668 102.276 567.68 102.036 567.68 102.036H561.092ZM563.372 95.928V94.968H562.496V95.928H557.9V98.04H558.716V96.708H567.176V98.04H568.016V95.928H563.372Z" fill="#363B3F"/>
<path d="M514.832 106.8H568.952V107.4H514.832V106.8Z" fill="#363B3F"/>
<path d="M749.591 297.112L741.691 305.648C741.145 306.237 740.262 306.237 739.722 305.648L738.41 304.229C737.863 303.639 737.863 302.685 738.41 302.101L744.009 296.051L738.41 290.001C737.863 289.411 737.863 288.457 738.41 287.873L739.716 286.442C740.262 285.853 741.145 285.853 741.686 286.442L749.585 294.978C750.137 295.568 750.137 296.522 749.591 297.112Z" fill="#616870"/>
<g filter="url(#filter1_d_406:2074)">
<rect x="100" y="166" width="180" height="120" rx="15" fill="white"/>
</g>
<g filter="url(#filter2_d_406:2074)">
<rect x="100" y="306" width="180" height="120" rx="15" fill="white"/>
</g>
<g filter="url(#filter3_d_406:2074)">
<rect x="311" y="306" width="180" height="120" rx="15" fill="white"/>
</g>
<g filter="url(#filter4_d_406:2074)">
<rect x="521" y="306" width="180" height="120" rx="15" fill="white"/>
</g>
<g filter="url(#filter5_d_406:2074)">
<rect x="311" y="166" width="180" height="120" rx="15" fill="white"/>
</g>
<g filter="url(#filter6_d_406:2074)">
<rect x="521" y="166" width="180" height="120" rx="15" fill="white"/>
</g>
<path d="M47.4086 294.978L55.3046 286.442C55.8503 285.853 56.7328 285.853 57.2728 286.442L58.5849 287.861C59.1306 288.451 59.1306 289.405 58.5849 289.989L52.9938 296.045L58.5907 302.095C59.1364 302.685 59.1364 303.639 58.5907 304.223L57.2786 305.648C56.7328 306.237 55.8503 306.237 55.3104 305.648L47.4144 297.112C46.8628 296.522 46.8628 295.568 47.4086 294.978Z" fill="#616870"/>
<path d="M160.842 203H159.402V192.84H155.834V191.576H164.394V192.84H160.842V203ZM167.285 191.208C167.498 191.208 167.685 191.283 167.845 191.432C168.015 191.571 168.101 191.795 168.101 192.104C168.101 192.403 168.015 192.627 167.845 192.776C167.685 192.925 167.498 193 167.285 193C167.05 193 166.853 192.925 166.693 192.776C166.533 192.627 166.453 192.403 166.453 192.104C166.453 191.795 166.533 191.571 166.693 191.432C166.853 191.283 167.05 191.208 167.285 191.208ZM167.973 194.424V203H166.565V194.424H167.973ZM180.738 194.264C181.708 194.264 182.434 194.515 182.914 195.016C183.394 195.507 183.634 196.307 183.634 197.416V203H182.242V197.48C182.242 196.125 181.66 195.448 180.498 195.448C179.666 195.448 179.068 195.688 178.706 196.168C178.354 196.648 178.178 197.347 178.178 198.264V203H176.786V197.48C176.786 196.125 176.199 195.448 175.026 195.448C174.162 195.448 173.564 195.715 173.234 196.248C172.903 196.781 172.738 197.549 172.738 198.552V203H171.33V194.424H172.466L172.674 195.592H172.754C173.02 195.144 173.378 194.813 173.826 194.6C174.284 194.376 174.77 194.264 175.282 194.264C176.626 194.264 177.5 194.744 177.906 195.704H177.986C178.274 195.213 178.663 194.851 179.154 194.616C179.655 194.381 180.183 194.264 180.738 194.264ZM190.235 194.264C190.971 194.264 191.6 194.424 192.123 194.744C192.656 195.064 193.061 195.517 193.339 196.104C193.627 196.68 193.771 197.357 193.771 198.136V198.984H187.899C187.92 199.955 188.165 200.696 188.635 201.208C189.115 201.709 189.781 201.96 190.635 201.96C191.179 201.96 191.659 201.912 192.075 201.816C192.501 201.709 192.939 201.56 193.387 201.368V202.6C192.949 202.792 192.517 202.931 192.091 203.016C191.664 203.112 191.157 203.16 190.571 203.16C189.76 203.16 189.04 202.995 188.411 202.664C187.792 202.333 187.307 201.843 186.955 201.192C186.613 200.531 186.443 199.725 186.443 198.776C186.443 197.837 186.597 197.032 186.907 196.36C187.227 195.688 187.669 195.171 188.235 194.808C188.811 194.445 189.477 194.264 190.235 194.264ZM190.219 195.416C189.547 195.416 189.013 195.635 188.619 196.072C188.235 196.499 188.005 197.096 187.931 197.864H192.299C192.288 197.139 192.117 196.552 191.787 196.104C191.456 195.645 190.933 195.416 190.219 195.416ZM198.002 203H196.594V190.84H198.002V203ZM202.079 191.208C202.292 191.208 202.479 191.283 202.639 191.432C202.81 191.571 202.895 191.795 202.895 192.104C202.895 192.403 202.81 192.627 202.639 192.776C202.479 192.925 202.292 193 202.079 193C201.844 193 201.647 192.925 201.487 192.776C201.327 192.627 201.247 192.403 201.247 192.104C201.247 191.795 201.327 191.571 201.487 191.432C201.647 191.283 201.844 191.208 202.079 191.208ZM202.767 194.424V203H201.359V194.424H202.767ZM210.252 194.264C211.276 194.264 212.049 194.515 212.572 195.016C213.095 195.507 213.356 196.307 213.356 197.416V203H211.964V197.512C211.964 196.136 211.324 195.448 210.044 195.448C209.095 195.448 208.439 195.715 208.076 196.248C207.713 196.781 207.532 197.549 207.532 198.552V203H206.124V194.424H207.26L207.468 195.592H207.548C207.825 195.144 208.209 194.813 208.7 194.6C209.191 194.376 209.708 194.264 210.252 194.264ZM219.967 194.264C220.703 194.264 221.332 194.424 221.855 194.744C222.388 195.064 222.793 195.517 223.071 196.104C223.359 196.68 223.503 197.357 223.503 198.136V198.984H217.631C217.652 199.955 217.897 200.696 218.367 201.208C218.847 201.709 219.513 201.96 220.367 201.96C220.911 201.96 221.391 201.912 221.807 201.816C222.233 201.709 222.671 201.56 223.119 201.368V202.6C222.681 202.792 222.249 202.931 221.823 203.016C221.396 203.112 220.889 203.16 220.303 203.16C219.492 203.16 218.772 202.995 218.143 202.664C217.524 202.333 217.039 201.843 216.687 201.192C216.345 200.531 216.175 199.725 216.175 198.776C216.175 197.837 216.329 197.032 216.639 196.36C216.959 195.688 217.401 195.171 217.967 194.808C218.543 194.445 219.209 194.264 219.967 194.264ZM219.951 195.416C219.279 195.416 218.745 195.635 218.351 196.072C217.967 196.499 217.737 197.096 217.663 197.864H222.031C222.02 197.139 221.849 196.552 221.519 196.104C221.188 195.645 220.665 195.416 219.951 195.416ZM170.048 249.736V253.288H167.728V249.736H170.048ZM167.728 258.024V254.328H170.048V258.024H167.728ZM171.168 248.664H166.64V260.392H167.728V259.096H171.168V248.664ZM172.48 257.624C173.296 258.472 174.144 259.656 174.512 260.44L175.52 259.8C175.152 259.016 174.256 257.88 173.44 257.08L172.48 257.624ZM180.736 253.656V252.6H176.608V250.568H180.048V249.512H176.608V247.608H175.44V249.512H172.112V250.568H175.44V252.6H171.424V253.656H177.552V255.464H171.504V256.52H177.552V260.792C177.552 261.032 177.472 261.096 177.2 261.112C176.944 261.128 176.064 261.128 175.072 261.096C175.248 261.4 175.408 261.88 175.456 262.2C176.752 262.2 177.552 262.184 178.048 262.008C178.528 261.832 178.704 261.48 178.704 260.808V256.52H180.56V255.464H178.704V253.656H180.736ZM188.128 249.224V250.552H184.672V249.224H188.128ZM184.672 252.84V251.432H188.128V252.84H184.672ZM189.264 253.752V248.296H183.488V262.232H184.672V253.752H189.264ZM191.84 255.88V257.352H188.08V255.88H191.84ZM188.08 259.8V258.248H191.84V259.8H188.08ZM192.944 260.744V254.952H187.008V261.544H188.08V260.744H192.944ZM191.824 252.856V251.432H195.408V252.856H191.824ZM195.408 249.224V250.552H191.824V249.224H195.408ZM196.608 248.296H190.688V253.768H195.408V260.632C195.408 260.92 195.312 261.016 195.04 261.016C194.752 261.032 193.776 261.048 192.8 261C192.976 261.32 193.168 261.88 193.216 262.216C194.544 262.216 195.392 262.2 195.904 262.008C196.432 261.8 196.608 261.4 196.608 260.648V248.296ZM200.832 254.744H202.352V256.2H200.832V254.744ZM200.832 252.472H202.352V253.896H200.832V252.472ZM204.832 253.896H203.232V252.472H204.832V253.896ZM204.832 256.2H203.232V254.744H204.832V256.2ZM203.344 257.096H205.776V251.576H203.344V250.392H206.064V249.352H203.344V247.624H202.272V249.352H199.488V250.392H202.272V251.576H199.936V257.096H202.272V258.392H199.328V259.448H202.272V262.232H203.344V259.448H206.256V258.392H203.344V257.096ZM210.48 260.264V256.568H212.416V260.264H210.48ZM207.616 256.568H209.424V260.264H207.616V256.568ZM209.424 252.072V255.48H207.616V252.072H209.424ZM212.416 255.48H210.48V252.072H212.416V255.48ZM210.512 251V247.624H209.392V251H206.576V262.216H207.616V261.336H212.416V262.104H213.488V251H210.512Z" fill="black"/>
<path d="M577.602 203L573.842 192.984H573.778C573.81 193.315 573.836 193.763 573.858 194.328C573.879 194.883 573.89 195.464 573.89 196.072V203H572.562V191.576H574.69L578.21 200.936H578.274L581.858 191.576H583.97V203H582.546V195.976C582.546 195.421 582.556 194.872 582.578 194.328C582.61 193.784 582.636 193.341 582.658 193H582.594L578.786 203H577.602ZM588.245 191.208C588.459 191.208 588.645 191.283 588.805 191.432C588.976 191.571 589.061 191.795 589.061 192.104C589.061 192.403 588.976 192.627 588.805 192.776C588.645 192.925 588.459 193 588.245 193C588.011 193 587.813 192.925 587.653 192.776C587.493 192.627 587.413 192.403 587.413 192.104C587.413 191.795 587.493 191.571 587.653 191.432C587.813 191.283 588.011 191.208 588.245 191.208ZM588.933 194.424V203H587.525V194.424H588.933ZM596.418 194.264C597.442 194.264 598.216 194.515 598.738 195.016C599.261 195.507 599.522 196.307 599.522 197.416V203H598.13V197.512C598.13 196.136 597.49 195.448 596.21 195.448C595.261 195.448 594.605 195.715 594.242 196.248C593.88 196.781 593.698 197.549 593.698 198.552V203H592.29V194.424H593.426L593.634 195.592H593.714C593.992 195.144 594.376 194.813 594.866 194.6C595.357 194.376 595.874 194.264 596.418 194.264ZM605.861 203.16C604.794 203.16 603.941 202.792 603.301 202.056C602.661 201.309 602.341 200.2 602.341 198.728C602.341 197.256 602.661 196.147 603.301 195.4C603.952 194.643 604.81 194.264 605.877 194.264C606.538 194.264 607.077 194.387 607.493 194.632C607.92 194.877 608.266 195.176 608.533 195.528H608.629C608.618 195.389 608.597 195.187 608.565 194.92C608.544 194.643 608.533 194.424 608.533 194.264V190.84H609.941V203H608.805L608.597 201.848H608.533C608.277 202.211 607.936 202.52 607.509 202.776C607.082 203.032 606.533 203.16 605.861 203.16ZM606.085 201.992C606.992 201.992 607.626 201.747 607.989 201.256C608.362 200.755 608.549 200.003 608.549 199V198.744C608.549 197.677 608.373 196.861 608.021 196.296C607.669 195.72 607.018 195.432 606.069 195.432C605.312 195.432 604.741 195.736 604.357 196.344C603.984 196.941 603.797 197.747 603.797 198.76C603.797 199.784 603.984 200.579 604.357 201.144C604.741 201.709 605.317 201.992 606.085 201.992ZM622.713 194.264C623.683 194.264 624.409 194.515 624.889 195.016C625.369 195.507 625.609 196.307 625.609 197.416V203H624.217V197.48C624.217 196.125 623.635 195.448 622.473 195.448C621.641 195.448 621.043 195.688 620.681 196.168C620.329 196.648 620.153 197.347 620.153 198.264V203H618.761V197.48C618.761 196.125 618.174 195.448 617.001 195.448C616.137 195.448 615.539 195.715 615.209 196.248C614.878 196.781 614.713 197.549 614.713 198.552V203H613.305V194.424H614.441L614.649 195.592H614.729C614.995 195.144 615.353 194.813 615.801 194.6C616.259 194.376 616.745 194.264 617.257 194.264C618.601 194.264 619.475 194.744 619.881 195.704H619.961C620.249 195.213 620.638 194.851 621.129 194.616C621.63 194.381 622.158 194.264 622.713 194.264ZM632.146 194.28C633.191 194.28 633.964 194.509 634.466 194.968C634.967 195.427 635.218 196.157 635.218 197.16V203H634.194L633.922 201.784H633.858C633.484 202.253 633.09 202.6 632.674 202.824C632.268 203.048 631.703 203.16 630.978 203.16C630.199 203.16 629.554 202.957 629.042 202.552C628.53 202.136 628.274 201.491 628.274 200.616C628.274 199.763 628.61 199.107 629.282 198.648C629.954 198.179 630.988 197.923 632.386 197.88L633.842 197.832V197.32C633.842 196.605 633.687 196.109 633.378 195.832C633.068 195.555 632.631 195.416 632.066 195.416C631.618 195.416 631.191 195.485 630.786 195.624C630.38 195.752 630.002 195.901 629.65 196.072L629.218 195.016C629.591 194.813 630.034 194.643 630.546 194.504C631.058 194.355 631.591 194.28 632.146 194.28ZM632.562 198.856C631.495 198.899 630.754 199.069 630.338 199.368C629.932 199.667 629.73 200.088 629.73 200.632C629.73 201.112 629.874 201.464 630.162 201.688C630.46 201.912 630.839 202.024 631.298 202.024C632.023 202.024 632.626 201.827 633.106 201.432C633.586 201.027 633.826 200.408 633.826 199.576V198.808L632.562 198.856ZM642.587 194.264C643.643 194.264 644.491 194.632 645.131 195.368C645.781 196.104 646.107 197.213 646.107 198.696C646.107 200.157 645.781 201.267 645.131 202.024C644.491 202.781 643.637 203.16 642.571 203.16C641.909 203.16 641.36 203.037 640.923 202.792C640.496 202.536 640.16 202.243 639.915 201.912H639.819C639.84 202.093 639.861 202.323 639.883 202.6C639.904 202.877 639.915 203.117 639.915 203.32V206.84H638.507V194.424H639.659L639.851 195.592H639.915C640.171 195.219 640.507 194.904 640.923 194.648C641.339 194.392 641.893 194.264 642.587 194.264ZM642.331 195.448C641.456 195.448 640.837 195.693 640.475 196.184C640.123 196.675 639.936 197.421 639.915 198.424V198.696C639.915 199.752 640.085 200.568 640.427 201.144C640.779 201.709 641.424 201.992 642.363 201.992C642.885 201.992 643.312 201.848 643.643 201.56C643.984 201.272 644.235 200.883 644.395 200.392C644.565 199.891 644.651 199.32 644.651 198.68C644.651 197.699 644.459 196.915 644.075 196.328C643.701 195.741 643.12 195.448 642.331 195.448ZM595.88 253.336C597.224 255.128 598.392 257.608 598.76 259.272L599.928 258.712C599.544 257.032 598.344 254.616 596.92 252.808L595.88 253.336ZM586.6 253.336C586.392 255.384 585.864 257.704 584.792 259.096L585.864 259.752C587 258.216 587.496 255.704 587.752 253.56L586.6 253.336ZM589.384 248.6C591.304 249.272 593.608 250.456 594.856 251.368L595.608 250.328C594.344 249.496 592.04 248.328 590.136 247.688L589.384 248.6ZM589.272 252.04V260.024C589.272 261.576 589.736 262.008 591.432 262.008H594.536C596.264 262.008 596.648 261.128 596.808 258.12C596.472 258.04 595.976 257.816 595.704 257.576C595.576 260.344 595.432 260.92 594.472 260.92H591.528C590.648 260.92 590.472 260.776 590.472 260.04V252.04H589.272ZM608.92 254.44C608.472 254.12 606.632 253 606.008 252.664C606.04 252.568 606.072 252.488 606.088 252.392H609.048V251.416H606.264C606.296 251.208 606.296 251.032 606.296 250.84V249.912H608.648V248.952H604.296C604.456 248.568 604.616 248.184 604.728 247.784L603.656 247.576C603.288 248.776 602.664 249.976 601.848 250.76C602.12 250.888 602.584 251.176 602.808 251.336C603.16 250.952 603.512 250.456 603.816 249.912H605.16V250.84C605.16 251.032 605.16 251.208 605.128 251.416H601.848V252.392H604.92C604.584 253.368 603.736 254.424 601.704 255.224C601.976 255.4 602.312 255.784 602.456 256.04C604.136 255.272 605.096 254.376 605.64 253.464C606.44 254.008 607.624 254.856 608.088 255.256L608.92 254.44ZM612.728 256.648V258.152H605.336V256.648H612.728ZM605.336 260.664V259.08H612.728V260.664H605.336ZM604.168 262.232H605.336V261.64H612.728V262.2H613.928V255.672H604.168V262.232ZM614.12 253.368H610.824V249.976H614.12V253.368ZM609.704 248.904V254.456H615.288V248.904H609.704ZM624.648 256.712H626.536V257.64H624.648V256.712ZM623.912 258.264H627.304V256.088H623.912V258.264ZM622.888 255.4H628.328V258.952H622.888V255.4ZM621.96 259.704H629.304V254.664H621.96V259.704ZM623.464 250.728H627.768V251.784H623.464V250.728ZM626.088 253.224V252.504H628.792V250.024H622.472V252.504H625.08V253.224H620.872V253.976H630.44V253.224H626.088ZM620.12 260.552V249.272H631.16V260.552H620.12ZM619.016 248.264V262.2H620.12V261.576H631.16V262.2H632.296V248.264H619.016Z" fill="black"/>
<path d="M372.651 199.944C372.651 200.957 372.283 201.747 371.547 202.312C370.811 202.877 369.819 203.16 368.571 203.16C367.931 203.16 367.339 203.112 366.795 203.016C366.251 202.92 365.798 202.787 365.435 202.616V201.24C365.819 201.411 366.294 201.565 366.859 201.704C367.435 201.843 368.027 201.912 368.635 201.912C369.489 201.912 370.129 201.747 370.555 201.416C370.993 201.085 371.211 200.637 371.211 200.072C371.211 199.699 371.131 199.384 370.971 199.128C370.811 198.872 370.534 198.637 370.139 198.424C369.755 198.2 369.217 197.965 368.523 197.72C367.553 197.368 366.817 196.936 366.315 196.424C365.825 195.912 365.579 195.213 365.579 194.328C365.579 193.72 365.734 193.203 366.043 192.776C366.353 192.339 366.779 192.003 367.323 191.768C367.878 191.533 368.513 191.416 369.227 191.416C369.857 191.416 370.433 191.475 370.955 191.592C371.478 191.709 371.953 191.864 372.379 192.056L371.931 193.288C371.537 193.117 371.105 192.973 370.635 192.856C370.177 192.739 369.697 192.68 369.195 192.68C368.481 192.68 367.942 192.835 367.579 193.144C367.217 193.443 367.035 193.843 367.035 194.344C367.035 194.728 367.115 195.048 367.275 195.304C367.435 195.56 367.697 195.789 368.059 195.992C368.422 196.195 368.913 196.413 369.531 196.648C370.203 196.893 370.769 197.16 371.227 197.448C371.697 197.725 372.049 198.061 372.283 198.456C372.529 198.851 372.651 199.347 372.651 199.944ZM378.841 203.16C378.083 203.16 377.406 203.005 376.809 202.696C376.222 202.387 375.758 201.907 375.417 201.256C375.086 200.605 374.921 199.773 374.921 198.76C374.921 197.704 375.097 196.845 375.449 196.184C375.801 195.523 376.275 195.037 376.873 194.728C377.481 194.419 378.169 194.264 378.937 194.264C379.374 194.264 379.795 194.312 380.201 194.408C380.606 194.493 380.937 194.6 381.193 194.728L380.761 195.896C380.505 195.8 380.206 195.709 379.865 195.624C379.523 195.539 379.203 195.496 378.905 195.496C377.219 195.496 376.377 196.579 376.377 198.744C376.377 199.779 376.579 200.573 376.985 201.128C377.401 201.672 378.014 201.944 378.825 201.944C379.294 201.944 379.705 201.896 380.057 201.8C380.419 201.704 380.75 201.587 381.049 201.448V202.696C380.761 202.845 380.441 202.957 380.089 203.032C379.747 203.117 379.331 203.16 378.841 203.16ZM385.136 194.408C385.136 194.835 385.109 195.235 385.056 195.608H385.152C385.429 195.171 385.803 194.84 386.272 194.616C386.752 194.392 387.269 194.28 387.824 194.28C388.869 194.28 389.653 194.531 390.176 195.032C390.699 195.523 390.96 196.317 390.96 197.416V203H389.568V197.512C389.568 196.136 388.928 195.448 387.648 195.448C386.688 195.448 386.027 195.72 385.664 196.264C385.312 196.797 385.136 197.565 385.136 198.568V203H383.728V190.84H385.136V194.408ZM397.571 194.264C398.307 194.264 398.936 194.424 399.459 194.744C399.992 195.064 400.397 195.517 400.675 196.104C400.963 196.68 401.107 197.357 401.107 198.136V198.984H395.235C395.256 199.955 395.501 200.696 395.971 201.208C396.451 201.709 397.117 201.96 397.971 201.96C398.515 201.96 398.995 201.912 399.411 201.816C399.837 201.709 400.275 201.56 400.723 201.368V202.6C400.285 202.792 399.853 202.931 399.427 203.016C399 203.112 398.493 203.16 397.907 203.16C397.096 203.16 396.376 202.995 395.747 202.664C395.128 202.333 394.643 201.843 394.291 201.192C393.949 200.531 393.779 199.725 393.779 198.776C393.779 197.837 393.933 197.032 394.243 196.36C394.563 195.688 395.005 195.171 395.571 194.808C396.147 194.445 396.813 194.264 397.571 194.264ZM397.555 195.416C396.883 195.416 396.349 195.635 395.955 196.072C395.571 196.499 395.341 197.096 395.267 197.864H399.635C399.624 197.139 399.453 196.552 399.123 196.104C398.792 195.645 398.269 195.416 397.555 195.416ZM406.97 203.16C405.903 203.16 405.05 202.792 404.41 202.056C403.77 201.309 403.45 200.2 403.45 198.728C403.45 197.256 403.77 196.147 404.41 195.4C405.061 194.643 405.919 194.264 406.986 194.264C407.647 194.264 408.186 194.387 408.602 194.632C409.029 194.877 409.375 195.176 409.642 195.528H409.738C409.727 195.389 409.706 195.187 409.674 194.92C409.653 194.643 409.642 194.424 409.642 194.264V190.84H411.05V203H409.914L409.706 201.848H409.642C409.386 202.211 409.045 202.52 408.618 202.776C408.191 203.032 407.642 203.16 406.97 203.16ZM407.194 201.992C408.101 201.992 408.735 201.747 409.098 201.256C409.471 200.755 409.658 200.003 409.658 199V198.744C409.658 197.677 409.482 196.861 409.13 196.296C408.778 195.72 408.127 195.432 407.178 195.432C406.421 195.432 405.85 195.736 405.466 196.344C405.093 196.941 404.906 197.747 404.906 198.76C404.906 199.784 405.093 200.579 405.466 201.144C405.85 201.709 406.426 201.992 407.194 201.992ZM421.582 194.424V203H420.43L420.222 201.864H420.158C419.88 202.312 419.496 202.643 419.006 202.856C418.515 203.059 417.992 203.16 417.438 203.16C416.403 203.16 415.624 202.915 415.102 202.424C414.579 201.923 414.318 201.128 414.318 200.04V194.424H415.742V199.944C415.742 201.309 416.376 201.992 417.646 201.992C418.595 201.992 419.251 201.725 419.614 201.192C419.987 200.659 420.174 199.891 420.174 198.888V194.424H421.582ZM426.352 203H424.944V190.84H426.352V203ZM433.021 194.264C433.757 194.264 434.387 194.424 434.909 194.744C435.443 195.064 435.848 195.517 436.125 196.104C436.413 196.68 436.557 197.357 436.557 198.136V198.984H430.685C430.707 199.955 430.952 200.696 431.421 201.208C431.901 201.709 432.568 201.96 433.421 201.96C433.965 201.96 434.445 201.912 434.861 201.816C435.288 201.709 435.725 201.56 436.173 201.368V202.6C435.736 202.792 435.304 202.931 434.877 203.016C434.451 203.112 433.944 203.16 433.357 203.16C432.547 203.16 431.827 202.995 431.197 202.664C430.579 202.333 430.093 201.843 429.741 201.192C429.4 200.531 429.229 199.725 429.229 198.776C429.229 197.837 429.384 197.032 429.693 196.36C430.013 195.688 430.456 195.171 431.021 194.808C431.597 194.445 432.264 194.264 433.021 194.264ZM433.005 195.416C432.333 195.416 431.8 195.635 431.405 196.072C431.021 196.499 430.792 197.096 430.717 197.864H435.085C435.075 197.139 434.904 196.552 434.573 196.104C434.243 195.645 433.72 195.416 433.005 195.416ZM391.128 248.584H383.32V249.704H391.128V248.584ZM380.648 247.608C379.848 248.744 378.312 250.184 376.984 251.08C377.192 251.304 377.512 251.768 377.688 252.024C379.112 251.016 380.744 249.464 381.784 248.056L380.648 247.608ZM381.304 251.016C380.2 252.824 378.472 254.664 376.824 255.832C377.064 256.072 377.48 256.584 377.656 256.824C378.248 256.36 378.856 255.784 379.464 255.16V262.264H380.648V253.848C381.304 253.064 381.912 252.248 382.408 251.432L381.304 251.016ZM391.592 252.952H382.632V254.088H387.976V260.68C387.976 260.952 387.88 261.016 387.576 261.032C387.272 261.048 386.216 261.048 385.08 261.016C385.256 261.352 385.416 261.848 385.464 262.168C387.032 262.168 387.928 262.168 388.472 261.992C389 261.8 389.176 261.432 389.176 260.696V254.088H391.592V252.952ZM406.296 252.248H401.496V249.32H406.296V252.248ZM407.464 248.28H400.408V253.272H407.464V248.28ZM399.768 256.376C399.448 256.008 398.088 254.6 397.592 254.184V253.208H399.592V252.088H397.592V249.384C398.344 249.208 399.048 248.984 399.624 248.744L398.792 247.848C397.624 248.376 395.528 248.84 393.736 249.128C393.88 249.4 394.04 249.784 394.104 250.056C394.84 249.944 395.656 249.816 396.44 249.656V252.088H393.832V253.208H396.28C395.64 255.032 394.536 257.096 393.528 258.216C393.72 258.504 394.008 258.968 394.12 259.304C394.936 258.328 395.784 256.728 396.44 255.112V262.184H397.592V255.336C398.136 255.992 398.792 256.872 399.048 257.32L399.768 256.376ZM404.472 260.728V258.664H407.656V257.624H404.472V255.72H408.008V254.664H399.816V255.72H403.288V257.624H400.184V258.664H403.288V260.728H399.096V261.8H408.36V260.728H404.472ZM423.208 255.272C422.44 255.992 421.208 256.888 420.184 257.544C419.608 256.712 419.176 255.768 418.84 254.744H424.568V253.704H418.2V252.264H423.416V251.288H418.2V249.976H424.024V248.936H418.2V247.608H417.016V248.936H411.288V249.976H417.016V251.288H412.008V252.264H417.016V253.704H410.696V254.744H416.232C414.664 256.072 412.248 257.256 410.168 257.848C410.408 258.104 410.744 258.52 410.936 258.824C411.96 258.488 413.08 257.992 414.152 257.416V260.6C413.32 260.808 412.552 260.984 411.912 261.128L412.296 262.216C414.2 261.736 416.92 261.064 419.432 260.392L419.304 259.336C417.976 259.672 416.616 260.008 415.352 260.312V256.696C416.248 256.12 417.064 255.48 417.72 254.824C418.84 258.44 420.888 261.016 424.296 262.168C424.456 261.848 424.792 261.352 425.064 261.128C423.272 260.584 421.832 259.624 420.76 258.312C421.832 257.688 423.144 256.824 424.152 256.008L423.208 255.272Z" fill="black"/>
<path d="M175.201 336.968H179.153V342.568C178.534 342.771 177.91 342.92 177.281 343.016C176.651 343.112 175.937 343.16 175.137 343.16C173.953 343.16 172.955 342.925 172.145 342.456C171.334 341.976 170.715 341.299 170.289 340.424C169.873 339.539 169.665 338.493 169.665 337.288C169.665 336.093 169.899 335.059 170.369 334.184C170.838 333.309 171.51 332.632 172.385 332.152C173.27 331.661 174.337 331.416 175.585 331.416C176.225 331.416 176.827 331.475 177.393 331.592C177.969 331.709 178.502 331.875 178.993 332.088L178.449 333.336C178.043 333.155 177.585 333 177.073 332.872C176.571 332.744 176.049 332.68 175.505 332.68C174.139 332.68 173.073 333.091 172.305 333.912C171.547 334.733 171.169 335.859 171.169 337.288C171.169 338.195 171.313 339 171.601 339.704C171.899 340.397 172.363 340.941 172.993 341.336C173.622 341.72 174.449 341.912 175.473 341.912C175.974 341.912 176.401 341.885 176.753 341.832C177.105 341.779 177.425 341.715 177.713 341.64V338.248H175.201V336.968ZM185.577 334.28C186.623 334.28 187.396 334.509 187.897 334.968C188.399 335.427 188.649 336.157 188.649 337.16V343H187.625L187.353 341.784H187.289C186.916 342.253 186.521 342.6 186.105 342.824C185.7 343.048 185.135 343.16 184.409 343.16C183.631 343.16 182.985 342.957 182.473 342.552C181.961 342.136 181.705 341.491 181.705 340.616C181.705 339.763 182.041 339.107 182.713 338.648C183.385 338.179 184.42 337.923 185.817 337.88L187.273 337.832V337.32C187.273 336.605 187.119 336.109 186.809 335.832C186.5 335.555 186.063 335.416 185.497 335.416C185.049 335.416 184.623 335.485 184.217 335.624C183.812 335.752 183.433 335.901 183.081 336.072L182.649 335.016C183.023 334.813 183.465 334.643 183.977 334.504C184.489 334.355 185.023 334.28 185.577 334.28ZM185.993 338.856C184.927 338.899 184.185 339.069 183.769 339.368C183.364 339.667 183.161 340.088 183.161 340.632C183.161 341.112 183.305 341.464 183.593 341.688C183.892 341.912 184.271 342.024 184.729 342.024C185.455 342.024 186.057 341.827 186.537 341.432C187.017 341.027 187.257 340.408 187.257 339.576V338.808L185.993 338.856ZM196.066 334.264C197.09 334.264 197.863 334.515 198.386 335.016C198.909 335.507 199.17 336.307 199.17 337.416V343H197.778V337.512C197.778 336.136 197.138 335.448 195.858 335.448C194.909 335.448 194.253 335.715 193.89 336.248C193.527 336.781 193.346 337.549 193.346 338.552V343H191.938V334.424H193.074L193.282 335.592H193.362C193.639 335.144 194.023 334.813 194.514 334.6C195.005 334.376 195.522 334.264 196.066 334.264ZM205.333 342.008C205.546 342.008 205.765 341.992 205.989 341.96C206.213 341.917 206.394 341.875 206.533 341.832V342.904C206.383 342.979 206.17 343.037 205.893 343.08C205.615 343.133 205.349 343.16 205.093 343.16C204.645 343.16 204.229 343.085 203.845 342.936C203.471 342.776 203.167 342.504 202.933 342.12C202.698 341.736 202.581 341.197 202.581 340.504V335.512H201.365V334.84L202.597 334.28L203.157 332.456H203.989V334.424H206.469V335.512H203.989V340.472C203.989 340.995 204.111 341.384 204.357 341.64C204.613 341.885 204.938 342.008 205.333 342.008ZM211.754 342.008C211.967 342.008 212.186 341.992 212.41 341.96C212.634 341.917 212.815 341.875 212.954 341.832V342.904C212.805 342.979 212.591 343.037 212.314 343.08C212.037 343.133 211.77 343.16 211.514 343.16C211.066 343.16 210.65 343.085 210.266 342.936C209.893 342.776 209.589 342.504 209.354 342.12C209.119 341.736 209.002 341.197 209.002 340.504V335.512H207.786V334.84L209.018 334.28L209.578 332.456H210.41V334.424H212.89V335.512H210.41V340.472C210.41 340.995 210.533 341.384 210.778 341.64C211.034 341.885 211.359 342.008 211.754 342.008ZM177.352 395.288H171.384V391.832H177.352V395.288ZM171.384 399.96V396.456H177.352V399.96H171.384ZM181.528 390.664H178.616V387.704H177.352V390.664H171.384V387.704H170.152V390.664H167.208V391.832H170.152V402.232H171.384V401.128H177.352V402.136H178.616V391.832H181.528V390.664ZM190.2 397.576C190.968 398.36 191.832 399.448 192.168 400.184L193.128 399.576C192.76 398.84 191.88 397.784 191.096 397.032L190.2 397.576ZM198.28 393.56V392.456H194.344V390.424H197.544V389.336H194.344V387.608H193.16V389.336H190.04V390.424H193.16V392.456H189.096V393.56H195.144V395.48H189.688L189.544 394.536L187.688 395.096V391.96H189.336V390.84H187.688V387.624H186.6V390.84H185.352C185.464 390.12 185.576 389.384 185.656 388.648L184.616 388.472C184.424 390.408 184.12 392.44 183.528 393.784C183.768 393.896 184.232 394.168 184.408 394.312C184.696 393.656 184.936 392.84 185.128 391.96H186.6V395.416C185.48 395.752 184.44 396.04 183.624 396.264L183.944 397.384L186.6 396.568V402.216H187.688V396.232L189.368 395.704V396.568H195.144V400.744C195.144 400.984 195.08 401.032 194.808 401.048C194.536 401.064 193.672 401.064 192.696 401.032C192.888 401.368 193.032 401.88 193.08 402.216C194.312 402.216 195.16 402.2 195.656 402.024C196.152 401.816 196.312 401.464 196.312 400.76V396.568H198.184V395.48H196.312V393.56H198.28ZM206.648 396.712H208.536V397.64H206.648V396.712ZM205.912 398.264H209.304V396.088H205.912V398.264ZM204.888 395.4H210.328V398.952H204.888V395.4ZM203.96 399.704H211.304V394.664H203.96V399.704ZM205.464 390.728H209.768V391.784H205.464V390.728ZM208.088 393.224V392.504H210.792V390.024H204.472V392.504H207.08V393.224H202.872V393.976H212.44V393.224H208.088ZM202.12 400.552V389.272H213.16V400.552H202.12ZM201.016 388.264V402.2H202.12V401.576H213.16V402.2H214.296V388.264H201.016Z" fill="black"/>
<path d="M247.354 226.354C247.549 226.158 247.549 225.842 247.354 225.646L244.172 222.464C243.976 222.269 243.66 222.269 243.464 222.464C243.269 222.66 243.269 222.976 243.464 223.172L246.293 226L243.464 228.828C243.269 229.024 243.269 229.34 243.464 229.536C243.66 229.731 243.976 229.731 244.172 229.536L247.354 226.354ZM135 226.5L247 226.5L247 225.5L135 225.5L135 226.5Z" fill="#2869D1" fill-opacity="0.5"/>
<circle cx="126.5" cy="225.5" r="8.5" fill="#2869D1" fill-opacity="0.6"/>
<circle cx="573.5" cy="220.5" r="7.5" fill="#2869D1" fill-opacity="0.6"/>
<circle cx="191.5" cy="225.5" r="8.5" fill="#2869D1" fill-opacity="0.6"/>
<circle cx="606.5" cy="234.5" r="8.5" fill="#2869D1" fill-opacity="0.6"/>
<circle cx="256.5" cy="225.5" r="8.5" fill="#2869D1" fill-opacity="0.6"/>
<circle cx="646.5" cy="220.5" r="7.5" fill="#2869D1" fill-opacity="0.6"/>
<rect x="365" y="213" width="72" height="6" rx="3" fill="#2869D1"/>
<rect x="155" y="353" width="72" height="6" rx="3" fill="#2869D1"/>
<rect x="365" y="224" width="12" height="6" rx="2" fill="#2869D1" fill-opacity="0.6"/>
<rect x="380" y="224" width="12" height="6" rx="2" fill="#2869D1" fill-opacity="0.6"/>
<rect x="159" y="363" width="23" height="4" rx="2" fill="#2869D1" fill-opacity="0.8"/>
<rect x="395" y="224" width="12" height="6" rx="2" fill="#2869D1" fill-opacity="0.6"/>
<rect x="185" y="363" width="18" height="4" rx="2" fill="#2869D1" fill-opacity="0.8"/>
<rect x="410" y="224" width="12" height="6" rx="2" fill="#2869D1" fill-opacity="0.6"/>
<rect x="425" y="224" width="12" height="6" rx="2" fill="#2869D1" fill-opacity="0.6"/>
<rect x="425" y="232" width="12" height="6" rx="2" fill="#2869D1" fill-opacity="0.6"/>
<rect x="200" y="370" width="18" height="4" rx="2" fill="#2869D1" fill-opacity="0.6"/>
<rect x="410" y="232" width="12" height="6" rx="2" fill="#2869D1" fill-opacity="0.6"/>
<rect x="395" y="232" width="12" height="6" rx="2" fill="#2869D1" fill-opacity="0.6"/>
<rect x="380" y="232" width="12" height="6" rx="2" fill="#2869D1" fill-opacity="0.6"/>
<rect x="169" y="370" width="25" height="4" rx="2" fill="#2869D1" fill-opacity="0.6"/>
<rect x="178" y="377" width="22" height="4" rx="2" fill="#2869D1" fill-opacity="0.4"/>
<rect x="203" y="377" width="23" height="4" rx="2" fill="#2869D1" fill-opacity="0.4"/>
<rect x="365" y="232" width="12" height="6" rx="2" fill="#2869D1" fill-opacity="0.6"/>
<line x1="578.224" y1="222.553" x2="598.224" y2="232.553" stroke="black"/>
<line x1="643.158" y1="223.474" x2="613.158" y2="233.474" stroke="black"/>
</g>
</g>
<defs>
<filter id="filter0_d_406:2074" x="0" y="0" width="801" height="569" filterUnits="userSpaceOnUse" color-interpolation-filters="sRGB">
<feFlood flood-opacity="0" result="BackgroundImageFix"/>
<feColorMatrix in="SourceAlpha" type="matrix" values="0 0 0 0 0 0 0 0 0 0 0 0 0 0 0 0 0 0 127 0" result="hardAlpha"/>
<feOffset dy="4"/>
<feGaussianBlur stdDeviation="2"/>
<feComposite in2="hardAlpha" operator="out"/>
<feColorMatrix type="matrix" values="0 0 0 0 0 0 0 0 0 0 0 0 0 0 0 0 0 0 0.25 0"/>
<feBlend mode="normal" in2="BackgroundImageFix" result="effect1_dropShadow_406:2074"/>
<feBlend mode="normal" in="SourceGraphic" in2="effect1_dropShadow_406:2074" result="shape"/>
</filter>
<filter id="filter1_d_406:2074" x="96" y="166" width="188" height="128" filterUnits="userSpaceOnUse" color-interpolation-filters="sRGB">
<feFlood flood-opacity="0" result="BackgroundImageFix"/>
<feColorMatrix in="SourceAlpha" type="matrix" values="0 0 0 0 0 0 0 0 0 0 0 0 0 0 0 0 0 0 127 0" result="hardAlpha"/>
<feOffset dy="4"/>
<feGaussianBlur stdDeviation="2"/>
<feComposite in2="hardAlpha" operator="out"/>
<feColorMatrix type="matrix" values="0 0 0 0 0 0 0 0 0 0 0 0 0 0 0 0 0 0 0.25 0"/>
<feBlend mode="normal" in2="BackgroundImageFix" result="effect1_dropShadow_406:2074"/>
<feBlend mode="normal" in="SourceGraphic" in2="effect1_dropShadow_406:2074" result="shape"/>
</filter>
<filter id="filter2_d_406:2074" x="96" y="306" width="188" height="128" filterUnits="userSpaceOnUse" color-interpolation-filters="sRGB">
<feFlood flood-opacity="0" result="BackgroundImageFix"/>
<feColorMatrix in="SourceAlpha" type="matrix" values="0 0 0 0 0 0 0 0 0 0 0 0 0 0 0 0 0 0 127 0" result="hardAlpha"/>
<feOffset dy="4"/>
<feGaussianBlur stdDeviation="2"/>
<feComposite in2="hardAlpha" operator="out"/>
<feColorMatrix type="matrix" values="0 0 0 0 0 0 0 0 0 0 0 0 0 0 0 0 0 0 0.25 0"/>
<feBlend mode="normal" in2="BackgroundImageFix" result="effect1_dropShadow_406:2074"/>
<feBlend mode="normal" in="SourceGraphic" in2="effect1_dropShadow_406:2074" result="shape"/>
</filter>
<filter id="filter3_d_406:2074" x="307" y="306" width="188" height="128" filterUnits="userSpaceOnUse" color-interpolation-filters="sRGB">
<feFlood flood-opacity="0" result="BackgroundImageFix"/>
<feColorMatrix in="SourceAlpha" type="matrix" values="0 0 0 0 0 0 0 0 0 0 0 0 0 0 0 0 0 0 127 0" result="hardAlpha"/>
<feOffset dy="4"/>
<feGaussianBlur stdDeviation="2"/>
<feComposite in2="hardAlpha" operator="out"/>
<feColorMatrix type="matrix" values="0 0 0 0 0 0 0 0 0 0 0 0 0 0 0 0 0 0 0.25 0"/>
<feBlend mode="normal" in2="BackgroundImageFix" result="effect1_dropShadow_406:2074"/>
<feBlend mode="normal" in="SourceGraphic" in2="effect1_dropShadow_406:2074" result="shape"/>
</filter>
<filter id="filter4_d_406:2074" x="517" y="306" width="188" height="128" filterUnits="userSpaceOnUse" color-interpolation-filters="sRGB">
<feFlood flood-opacity="0" result="BackgroundImageFix"/>
<feColorMatrix in="SourceAlpha" type="matrix" values="0 0 0 0 0 0 0 0 0 0 0 0 0 0 0 0 0 0 127 0" result="hardAlpha"/>
<feOffset dy="4"/>
<feGaussianBlur stdDeviation="2"/>
<feComposite in2="hardAlpha" operator="out"/>
<feColorMatrix type="matrix" values="0 0 0 0 0 0 0 0 0 0 0 0 0 0 0 0 0 0 0.25 0"/>
<feBlend mode="normal" in2="BackgroundImageFix" result="effect1_dropShadow_406:2074"/>
<feBlend mode="normal" in="SourceGraphic" in2="effect1_dropShadow_406:2074" result="shape"/>
</filter>
<filter id="filter5_d_406:2074" x="307" y="166" width="188" height="128" filterUnits="userSpaceOnUse" color-interpolation-filters="sRGB">
<feFlood flood-opacity="0" result="BackgroundImageFix"/>
<feColorMatrix in="SourceAlpha" type="matrix" values="0 0 0 0 0 0 0 0 0 0 0 0 0 0 0 0 0 0 127 0" result="hardAlpha"/>
<feOffset dy="4"/>
<feGaussianBlur stdDeviation="2"/>
<feComposite in2="hardAlpha" operator="out"/>
<feColorMatrix type="matrix" values="0 0 0 0 0 0 0 0 0 0 0 0 0 0 0 0 0 0 0.25 0"/>
<feBlend mode="normal" in2="BackgroundImageFix" result="effect1_dropShadow_406:2074"/>
<feBlend mode="normal" in="SourceGraphic" in2="effect1_dropShadow_406:2074" result="shape"/>
</filter>
<filter id="filter6_d_406:2074" x="517" y="166" width="188" height="128" filterUnits="userSpaceOnUse" color-interpolation-filters="sRGB">
<feFlood flood-opacity="0" result="BackgroundImageFix"/>
<feColorMatrix in="SourceAlpha" type="matrix" values="0 0 0 0 0 0 0 0 0 0 0 0 0 0 0 0 0 0 127 0" result="hardAlpha"/>
<feOffset dy="4"/>
<feGaussianBlur stdDeviation="2"/>
<feComposite in2="hardAlpha" operator="out"/>
<feColorMatrix type="matrix" values="0 0 0 0 0 0 0 0 0 0 0 0 0 0 0 0 0 0 0.25 0"/>
<feBlend mode="normal" in2="BackgroundImageFix" result="effect1_dropShadow_406:2074"/>
<feBlend mode="normal" in="SourceGraphic" in2="effect1_dropShadow_406:2074" result="shape"/>
</filter>
<linearGradient id="paint0_linear_406:2074" x1="400.5" y1="0" x2="400.5" y2="561" gradientUnits="userSpaceOnUse">
<stop stop-color="#72C6FF"/>
<stop offset="1" stop-color="#FEFEFE"/>
</linearGradient>
<clipPath id="clip0_406:2074">
<rect x="4" width="793" height="561" rx="20" fill="white"/>
</clipPath>
<clipPath id="clip1_406:2074">
<rect width="15.9375" height="16.9474" fill="white" transform="translate(73 44)"/>
</clipPath>
<clipPath id="clip2_406:2074">
<rect width="63.4549" height="23" fill="white" transform="translate(94.5449 44)"/>
</clipPath>
</defs>
</svg>
