<svg width="20" height="17" viewBox="0 0 20 17" fill="none" xmlns="http://www.w3.org/2000/svg">
<path d="M17.3908 0.222656H2.53362C1.58719 0.222656 0.819336 0.990513 0.819336 1.93694V14.5084C0.819336 15.4548 1.58719 16.2227 2.53362 16.2227H17.3908C18.3372 16.2227 19.1051 15.4548 19.1051 14.5084V1.93694C19.1051 0.990513 18.3372 0.222656 17.3908 0.222656ZM14.4051 10.5977C14.5765 10.7691 14.5765 11.0477 14.4051 11.2191L12.9586 12.6655C12.7872 12.8369 12.5086 12.8369 12.3372 12.6655L9.96219 10.2691L7.58719 12.6655C7.41576 12.8369 7.13719 12.8369 6.96577 12.6655L5.51934 11.2191C5.34791 11.0477 5.34791 10.7691 5.51934 10.5977L7.91576 8.22266L5.51934 5.84766C5.34791 5.67623 5.34791 5.39766 5.51934 5.22623L6.96577 3.7798C7.13719 3.60837 7.41576 3.60837 7.58719 3.7798L9.96219 6.17623L12.3372 3.7798C12.5086 3.60837 12.7872 3.60837 12.9586 3.7798L14.4051 5.22623C14.5765 5.39766 14.5765 5.67623 14.4051 5.84766L12.0086 8.22266L14.4051 10.5977Z" fill="#363B3F"/>
</svg>
