<svg width="692" height="432" viewBox="0 0 692 432" fill="none" xmlns="http://www.w3.org/2000/svg">
<rect width="692" height="432" fill="#EEEEEE"/>
<circle cx="345.5" cy="215.5" r="52.5" fill="#363B3F"/>
<circle cx="599.5" cy="130.5" r="52.5" fill="white"/>
<circle cx="86.5" cy="130.5" r="52.5" fill="white"/>
<circle cx="240.5" cy="78.5" r="52.5" fill="white"/>
<circle cx="599.5" cy="275.5" r="52.5" fill="white"/>
<circle cx="448.5" cy="78.5" r="52.5" fill="white"/>
<circle cx="448.5" cy="356.5" r="52.5" fill="white"/>
<circle cx="240.5" cy="356.5" r="52.5" fill="white"/>
<circle cx="86.5" cy="275.5" r="52.5" fill="white"/>
<path d="M326.887 207.632C326.972 207.632 327.047 207.667 327.111 207.736L327.727 208.4C327.258 208.944 326.687 209.368 326.015 209.672C325.348 209.976 324.54 210.128 323.591 210.128C322.77 210.128 322.023 209.987 321.351 209.704C320.679 209.416 320.106 209.016 319.631 208.504C319.156 207.987 318.788 207.368 318.527 206.648C318.266 205.928 318.135 205.136 318.135 204.272C318.135 203.408 318.271 202.616 318.543 201.896C318.815 201.176 319.196 200.557 319.687 200.04C320.183 199.523 320.775 199.123 321.463 198.84C322.151 198.552 322.911 198.408 323.743 198.408C324.559 198.408 325.279 198.539 325.903 198.8C326.527 199.061 327.076 199.416 327.551 199.864L327.039 200.576C327.007 200.629 326.964 200.675 326.911 200.712C326.863 200.744 326.796 200.76 326.711 200.76C326.615 200.76 326.498 200.709 326.359 200.608C326.22 200.501 326.039 200.384 325.815 200.256C325.591 200.128 325.311 200.013 324.975 199.912C324.639 199.805 324.226 199.752 323.735 199.752C323.143 199.752 322.602 199.856 322.111 200.064C321.62 200.267 321.196 200.563 320.839 200.952C320.487 201.341 320.212 201.816 320.015 202.376C319.818 202.936 319.719 203.568 319.719 204.272C319.719 204.987 319.82 205.624 320.023 206.184C320.231 206.744 320.511 207.219 320.863 207.608C321.22 207.992 321.639 208.285 322.119 208.488C322.604 208.691 323.127 208.792 323.687 208.792C324.028 208.792 324.335 208.773 324.607 208.736C324.884 208.693 325.138 208.629 325.367 208.544C325.602 208.459 325.818 208.352 326.015 208.224C326.218 208.091 326.418 207.933 326.615 207.752C326.706 207.672 326.796 207.632 326.887 207.632ZM335.182 206.352C334.526 206.373 333.966 206.427 333.502 206.512C333.044 206.592 332.668 206.699 332.374 206.832C332.086 206.965 331.876 207.123 331.742 207.304C331.614 207.485 331.55 207.688 331.55 207.912C331.55 208.125 331.585 208.309 331.654 208.464C331.724 208.619 331.817 208.747 331.934 208.848C332.057 208.944 332.198 209.016 332.358 209.064C332.524 209.107 332.7 209.128 332.886 209.128C333.137 209.128 333.366 209.104 333.574 209.056C333.782 209.003 333.977 208.928 334.158 208.832C334.345 208.736 334.521 208.621 334.686 208.488C334.857 208.355 335.022 208.203 335.182 208.032V206.352ZM330.582 203.04C331.03 202.608 331.513 202.285 332.03 202.072C332.548 201.859 333.121 201.752 333.75 201.752C334.204 201.752 334.606 201.827 334.958 201.976C335.31 202.125 335.606 202.333 335.846 202.6C336.086 202.867 336.268 203.189 336.39 203.568C336.513 203.947 336.574 204.363 336.574 204.816V210H335.942C335.804 210 335.697 209.979 335.622 209.936C335.548 209.888 335.489 209.797 335.446 209.664L335.286 208.896C335.073 209.093 334.865 209.269 334.662 209.424C334.46 209.573 334.246 209.701 334.022 209.808C333.798 209.909 333.558 209.987 333.302 210.04C333.052 210.099 332.772 210.128 332.462 210.128C332.148 210.128 331.852 210.085 331.574 210C331.297 209.909 331.054 209.776 330.846 209.6C330.644 209.424 330.481 209.203 330.358 208.936C330.241 208.664 330.182 208.344 330.182 207.976C330.182 207.656 330.27 207.349 330.446 207.056C330.622 206.757 330.908 206.493 331.302 206.264C331.697 206.035 332.212 205.848 332.846 205.704C333.481 205.555 334.26 205.469 335.182 205.448V204.816C335.182 204.187 335.046 203.712 334.774 203.392C334.502 203.067 334.105 202.904 333.582 202.904C333.23 202.904 332.934 202.949 332.694 203.04C332.46 203.125 332.254 203.224 332.078 203.336C331.908 203.443 331.758 203.541 331.63 203.632C331.508 203.717 331.385 203.76 331.262 203.76C331.166 203.76 331.084 203.736 331.014 203.688C330.945 203.635 330.886 203.571 330.838 203.496L330.582 203.04ZM341.688 203.072C341.864 202.875 342.05 202.696 342.248 202.536C342.445 202.376 342.653 202.24 342.872 202.128C343.096 202.011 343.33 201.923 343.576 201.864C343.826 201.8 344.096 201.768 344.384 201.768C344.826 201.768 345.216 201.843 345.552 201.992C345.893 202.136 346.176 202.344 346.4 202.616C346.629 202.883 346.802 203.205 346.92 203.584C347.037 203.963 347.096 204.381 347.096 204.84V210H345.664V204.84C345.664 204.227 345.522 203.752 345.24 203.416C344.962 203.075 344.538 202.904 343.968 202.904C343.546 202.904 343.152 203.005 342.784 203.208C342.421 203.411 342.085 203.685 341.776 204.032V210H340.344V201.896H341.2C341.402 201.896 341.528 201.995 341.576 202.192L341.688 203.072ZM356.289 205.064C356.289 204.733 356.241 204.432 356.145 204.16C356.055 203.883 355.919 203.645 355.737 203.448C355.561 203.245 355.345 203.091 355.089 202.984C354.833 202.872 354.543 202.816 354.217 202.816C353.535 202.816 352.993 203.016 352.593 203.416C352.199 203.811 351.953 204.36 351.857 205.064H356.289ZM357.441 208.864C357.265 209.077 357.055 209.264 356.809 209.424C356.564 209.579 356.3 209.707 356.017 209.808C355.74 209.909 355.452 209.984 355.153 210.032C354.855 210.085 354.559 210.112 354.265 210.112C353.705 210.112 353.188 210.019 352.713 209.832C352.244 209.64 351.836 209.363 351.489 209C351.148 208.632 350.881 208.179 350.689 207.64C350.497 207.101 350.401 206.483 350.401 205.784C350.401 205.219 350.487 204.691 350.657 204.2C350.833 203.709 351.084 203.285 351.409 202.928C351.735 202.565 352.132 202.283 352.601 202.08C353.071 201.872 353.599 201.768 354.185 201.768C354.671 201.768 355.119 201.851 355.529 202.016C355.945 202.176 356.303 202.411 356.601 202.72C356.905 203.024 357.143 203.403 357.313 203.856C357.484 204.304 357.569 204.816 357.569 205.392C357.569 205.616 357.545 205.765 357.497 205.84C357.449 205.915 357.359 205.952 357.225 205.952H351.809C351.825 206.464 351.895 206.909 352.017 207.288C352.145 207.667 352.321 207.984 352.545 208.24C352.769 208.491 353.036 208.68 353.345 208.808C353.655 208.931 354.001 208.992 354.385 208.992C354.743 208.992 355.049 208.952 355.305 208.872C355.567 208.787 355.791 208.696 355.977 208.6C356.164 208.504 356.319 208.416 356.441 208.336C356.569 208.251 356.679 208.208 356.769 208.208C356.887 208.208 356.977 208.253 357.041 208.344L357.441 208.864ZM362.391 198.216V210H360.967V198.216H362.391ZM371.724 205.064C371.724 204.733 371.676 204.432 371.58 204.16C371.489 203.883 371.353 203.645 371.172 203.448C370.996 203.245 370.78 203.091 370.524 202.984C370.268 202.872 369.977 202.816 369.652 202.816C368.969 202.816 368.428 203.016 368.028 203.416C367.633 203.811 367.388 204.36 367.292 205.064H371.724ZM372.876 208.864C372.7 209.077 372.489 209.264 372.244 209.424C371.999 209.579 371.735 209.707 371.452 209.808C371.175 209.909 370.887 209.984 370.588 210.032C370.289 210.085 369.993 210.112 369.7 210.112C369.14 210.112 368.623 210.019 368.148 209.832C367.679 209.64 367.271 209.363 366.924 209C366.583 208.632 366.316 208.179 366.124 207.64C365.932 207.101 365.836 206.483 365.836 205.784C365.836 205.219 365.921 204.691 366.092 204.2C366.268 203.709 366.519 203.285 366.844 202.928C367.169 202.565 367.567 202.283 368.036 202.08C368.505 201.872 369.033 201.768 369.62 201.768C370.105 201.768 370.553 201.851 370.964 202.016C371.38 202.176 371.737 202.411 372.036 202.72C372.34 203.024 372.577 203.403 372.748 203.856C372.919 204.304 373.004 204.816 373.004 205.392C373.004 205.616 372.98 205.765 372.932 205.84C372.884 205.915 372.793 205.952 372.66 205.952H367.244C367.26 206.464 367.329 206.909 367.452 207.288C367.58 207.667 367.756 207.984 367.98 208.24C368.204 208.491 368.471 208.68 368.78 208.808C369.089 208.931 369.436 208.992 369.82 208.992C370.177 208.992 370.484 208.952 370.74 208.872C371.001 208.787 371.225 208.696 371.412 208.6C371.599 208.504 371.753 208.416 371.876 208.336C372.004 208.251 372.113 208.208 372.204 208.208C372.321 208.208 372.412 208.253 372.476 208.344L372.876 208.864ZM371.98 198.408L370.116 200.472C370.041 200.552 369.967 200.611 369.892 200.648C369.823 200.68 369.732 200.696 369.62 200.696H368.772L369.956 198.76C370.031 198.637 370.111 198.549 370.196 198.496C370.287 198.437 370.417 198.408 370.588 198.408H371.98ZM326.398 224.328C326.35 224.408 326.297 224.469 326.238 224.512C326.185 224.549 326.118 224.568 326.038 224.568C325.948 224.568 325.841 224.523 325.718 224.432C325.596 224.341 325.441 224.243 325.254 224.136C325.073 224.024 324.852 223.923 324.59 223.832C324.334 223.741 324.022 223.696 323.654 223.696C323.308 223.696 323.001 223.744 322.734 223.84C322.473 223.931 322.252 224.056 322.07 224.216C321.894 224.376 321.761 224.565 321.67 224.784C321.58 224.997 321.534 225.229 321.534 225.48C321.534 225.8 321.612 226.067 321.766 226.28C321.926 226.488 322.134 226.667 322.39 226.816C322.652 226.965 322.945 227.096 323.27 227.208C323.601 227.315 323.937 227.427 324.278 227.544C324.625 227.661 324.961 227.795 325.286 227.944C325.617 228.088 325.91 228.272 326.166 228.496C326.428 228.72 326.636 228.995 326.79 229.32C326.95 229.645 327.03 230.045 327.03 230.52C327.03 231.021 326.945 231.493 326.774 231.936C326.604 232.373 326.353 232.755 326.022 233.08C325.697 233.405 325.294 233.661 324.814 233.848C324.34 234.035 323.798 234.128 323.19 234.128C322.444 234.128 321.766 233.995 321.158 233.728C320.55 233.456 320.03 233.091 319.598 232.632L320.046 231.896C320.089 231.837 320.14 231.789 320.198 231.752C320.262 231.709 320.332 231.688 320.406 231.688C320.476 231.688 320.553 231.717 320.638 231.776C320.729 231.829 320.83 231.899 320.942 231.984C321.054 232.069 321.182 232.163 321.326 232.264C321.47 232.365 321.633 232.459 321.814 232.544C322.001 232.629 322.212 232.701 322.446 232.76C322.681 232.813 322.945 232.84 323.238 232.84C323.606 232.84 323.934 232.789 324.222 232.688C324.51 232.587 324.753 232.445 324.95 232.264C325.153 232.077 325.308 231.856 325.414 231.6C325.521 231.344 325.574 231.059 325.574 230.744C325.574 230.397 325.494 230.115 325.334 229.896C325.18 229.672 324.974 229.485 324.718 229.336C324.462 229.187 324.169 229.061 323.838 228.96C323.508 228.853 323.172 228.747 322.83 228.64C322.489 228.528 322.153 228.4 321.822 228.256C321.492 228.112 321.198 227.925 320.942 227.696C320.686 227.467 320.478 227.181 320.318 226.84C320.164 226.493 320.086 226.067 320.086 225.56C320.086 225.155 320.164 224.763 320.318 224.384C320.478 224.005 320.708 223.669 321.006 223.376C321.31 223.083 321.681 222.848 322.118 222.672C322.561 222.496 323.068 222.408 323.638 222.408C324.278 222.408 324.86 222.509 325.382 222.712C325.91 222.915 326.374 223.208 326.774 223.592L326.398 224.328ZM332.614 234.128C331.974 234.128 331.481 233.949 331.134 233.592C330.793 233.235 330.622 232.72 330.622 232.048V227.088H329.646C329.561 227.088 329.489 227.064 329.43 227.016C329.372 226.963 329.342 226.883 329.342 226.776V226.208L330.67 226.04L330.998 223.536C331.014 223.456 331.049 223.392 331.102 223.344C331.161 223.291 331.236 223.264 331.326 223.264H332.046V226.056H334.39V227.088H332.046V231.952C332.046 232.293 332.129 232.547 332.294 232.712C332.46 232.877 332.673 232.96 332.934 232.96C333.084 232.96 333.212 232.941 333.318 232.904C333.43 232.861 333.526 232.816 333.606 232.768C333.686 232.72 333.753 232.677 333.806 232.64C333.865 232.597 333.916 232.576 333.958 232.576C334.033 232.576 334.1 232.621 334.158 232.712L334.574 233.392C334.329 233.621 334.033 233.803 333.686 233.936C333.34 234.064 332.982 234.128 332.614 234.128ZM344.125 225.896V234H343.277C343.074 234 342.946 233.901 342.893 233.704L342.781 232.832C342.429 233.221 342.034 233.536 341.597 233.776C341.159 234.011 340.658 234.128 340.093 234.128C339.65 234.128 339.258 234.056 338.917 233.912C338.581 233.763 338.298 233.555 338.069 233.288C337.839 233.021 337.666 232.699 337.549 232.32C337.437 231.941 337.381 231.523 337.381 231.064V225.896H338.805V231.064C338.805 231.677 338.943 232.152 339.221 232.488C339.503 232.824 339.933 232.992 340.509 232.992C340.93 232.992 341.322 232.893 341.685 232.696C342.053 232.493 342.391 232.216 342.701 231.864V225.896H344.125ZM353.263 227.824C352.996 227.467 352.708 227.219 352.399 227.08C352.089 226.936 351.743 226.864 351.359 226.864C350.607 226.864 350.028 227.133 349.623 227.672C349.217 228.211 349.015 228.979 349.015 229.976C349.015 230.504 349.06 230.957 349.151 231.336C349.241 231.709 349.375 232.019 349.551 232.264C349.727 232.504 349.943 232.68 350.199 232.792C350.455 232.904 350.745 232.96 351.071 232.96C351.54 232.96 351.948 232.853 352.295 232.64C352.647 232.427 352.969 232.125 353.263 231.736V227.824ZM354.687 222.216V234H353.839C353.636 234 353.508 233.901 353.455 233.704L353.327 232.72C352.98 233.136 352.585 233.472 352.143 233.728C351.7 233.984 351.188 234.112 350.607 234.112C350.143 234.112 349.721 234.024 349.343 233.848C348.964 233.667 348.641 233.403 348.375 233.056C348.108 232.709 347.903 232.277 347.759 231.76C347.615 231.243 347.543 230.648 347.543 229.976C347.543 229.379 347.623 228.824 347.783 228.312C347.943 227.795 348.172 227.347 348.471 226.968C348.769 226.589 349.135 226.293 349.567 226.08C350.004 225.861 350.495 225.752 351.039 225.752C351.535 225.752 351.959 225.837 352.311 226.008C352.668 226.173 352.985 226.405 353.263 226.704V222.216H354.687ZM360.04 225.896V234H358.616V225.896H360.04ZM360.344 223.352C360.344 223.491 360.314 223.621 360.256 223.744C360.202 223.861 360.128 223.968 360.032 224.064C359.941 224.155 359.832 224.227 359.704 224.28C359.581 224.333 359.45 224.36 359.312 224.36C359.173 224.36 359.042 224.333 358.92 224.28C358.802 224.227 358.698 224.155 358.608 224.064C358.517 223.968 358.445 223.861 358.392 223.744C358.338 223.621 358.312 223.491 358.312 223.352C358.312 223.213 358.338 223.083 358.392 222.96C358.445 222.832 358.517 222.723 358.608 222.632C358.698 222.536 358.802 222.461 358.92 222.408C359.042 222.355 359.173 222.328 359.312 222.328C359.45 222.328 359.581 222.355 359.704 222.408C359.832 222.461 359.941 222.536 360.032 222.632C360.128 222.723 360.202 222.832 360.256 222.96C360.314 223.083 360.344 223.213 360.344 223.352ZM367.396 225.768C367.988 225.768 368.521 225.867 368.996 226.064C369.47 226.261 369.876 226.541 370.212 226.904C370.548 227.267 370.804 227.707 370.98 228.224C371.161 228.736 371.252 229.309 371.252 229.944C371.252 230.584 371.161 231.16 370.98 231.672C370.804 232.184 370.548 232.621 370.212 232.984C369.876 233.347 369.47 233.627 368.996 233.824C368.521 234.016 367.988 234.112 367.396 234.112C366.798 234.112 366.26 234.016 365.78 233.824C365.305 233.627 364.9 233.347 364.564 232.984C364.228 232.621 363.969 232.184 363.788 231.672C363.612 231.16 363.524 230.584 363.524 229.944C363.524 229.309 363.612 228.736 363.788 228.224C363.969 227.707 364.228 227.267 364.564 226.904C364.9 226.541 365.305 226.261 365.78 226.064C366.26 225.867 366.798 225.768 367.396 225.768ZM367.396 233C368.196 233 368.793 232.733 369.188 232.2C369.582 231.661 369.78 230.912 369.78 229.952C369.78 228.987 369.582 228.235 369.188 227.696C368.793 227.157 368.196 226.888 367.396 226.888C366.99 226.888 366.636 226.957 366.332 227.096C366.033 227.235 365.782 227.435 365.58 227.696C365.382 227.957 365.233 228.28 365.132 228.664C365.036 229.043 364.988 229.472 364.988 229.952C364.988 230.912 365.185 231.661 365.58 232.2C365.98 232.733 366.585 233 367.396 233Z" fill="white"/>
<path d="M77.194 110.785H74.314V112.345C74.314 113.245 74.629 113.47 75.739 113.47H77.749C78.544 113.47 78.829 113.2 78.934 112.195C78.664 112.135 78.304 112.015 78.109 111.88C78.064 112.585 77.989 112.675 77.629 112.675H75.844C75.349 112.675 75.259 112.615 75.259 112.33V111.565H78.184V109.03H74.029V109.81H77.194V110.785ZM72.364 110.785H69.424V112.345C69.424 113.245 69.709 113.47 70.819 113.47H72.679C73.444 113.47 73.729 113.215 73.834 112.24C73.564 112.195 73.204 112.075 73.009 111.925C72.964 112.585 72.889 112.675 72.529 112.675H70.909C70.429 112.675 70.354 112.615 70.354 112.345V111.565H73.309V109.03H69.154V109.81H72.364V110.785ZM72.604 115.6H75.064V117.025H72.604V115.6ZM78.844 117.025H76.129V115.6H78.379V114.745H76.129V113.665H75.064V114.745H72.604V113.665H71.569V114.745H69.349V115.6H71.569V117.025H68.869V117.895H78.844V117.025ZM78.619 119.89C77.914 119.335 76.684 118.615 75.589 118.09L74.794 118.585C75.829 119.11 76.909 119.815 77.539 120.37L78.619 119.89ZM72.064 118.06C71.404 118.66 70.294 119.23 69.274 119.635C69.514 119.785 69.919 120.145 70.099 120.34C71.089 119.86 72.289 119.125 73.054 118.405L72.064 118.06ZM68.584 111.295C68.164 110.545 67.174 109.51 66.289 108.805L65.434 109.375C66.304 110.11 67.264 111.175 67.654 111.925L68.584 111.295ZM68.239 114.325H65.359V115.375H67.204V119.245C66.544 119.875 65.809 120.505 65.179 120.97L65.764 122.005C66.484 121.345 67.159 120.715 67.789 120.055C68.719 121.24 70.084 121.78 72.064 121.855C73.759 121.915 76.999 121.885 78.694 121.81C78.739 121.495 78.919 121 79.054 120.76C77.224 120.88 73.729 120.925 72.034 120.85C70.279 120.775 68.944 120.265 68.239 119.14V114.325ZM86.824 116.575L84.934 117.325V113.095H86.884V112.03H84.934V108.64H83.884V112.03H81.844V113.095H83.884V117.73C83.059 118.045 82.294 118.33 81.694 118.555L82.099 119.635C83.494 119.065 85.324 118.285 87.034 117.55L86.824 116.575ZM92.059 120.55V114.685H95.284V113.62H92.059V108.55H90.949V120.55H88.744V111.715H87.649V120.55H85.819V121.615H95.494V120.55H92.059ZM102.184 110.125C102.924 110.125 103.519 110.325 103.969 110.725C104.429 111.115 104.659 111.66 104.659 112.36C104.659 113.02 104.439 113.57 103.999 114.01C103.559 114.44 102.994 114.84 102.304 115.21L105.574 118.45C105.854 118.12 106.094 117.735 106.294 117.295C106.494 116.855 106.654 116.375 106.774 115.855H107.644C107.334 117.125 106.829 118.18 106.129 119.02L108.109 121H106.954L105.559 119.575C105.089 120.045 104.564 120.425 103.984 120.715C103.404 121.005 102.684 121.15 101.824 121.15C100.824 121.15 100.019 120.9 99.409 120.4C98.799 119.9 98.494 119.185 98.494 118.255C98.494 117.725 98.594 117.275 98.794 116.905C98.994 116.525 99.284 116.195 99.664 115.915C100.044 115.625 100.499 115.34 101.029 115.06C100.599 114.62 100.249 114.205 99.979 113.815C99.709 113.415 99.574 112.945 99.574 112.405C99.574 111.705 99.809 111.15 100.279 110.74C100.759 110.33 101.394 110.125 102.184 110.125ZM102.169 110.845C101.629 110.845 101.199 110.985 100.879 111.265C100.569 111.545 100.414 111.925 100.414 112.405C100.414 112.815 100.529 113.19 100.759 113.53C100.989 113.87 101.319 114.255 101.749 114.685C102.419 114.355 102.929 114.015 103.279 113.665C103.629 113.305 103.804 112.87 103.804 112.36C103.804 111.9 103.654 111.535 103.354 111.265C103.054 110.985 102.659 110.845 102.169 110.845ZM101.554 115.615C101.094 115.855 100.699 116.095 100.369 116.335C100.049 116.565 99.804 116.83 99.634 117.13C99.474 117.43 99.394 117.8 99.394 118.24C99.394 118.91 99.614 119.435 100.054 119.815C100.504 120.185 101.099 120.37 101.839 120.37C102.569 120.37 103.179 120.25 103.669 120.01C104.169 119.76 104.614 119.435 105.004 119.035L101.554 115.615ZM62.815 141.01V143.98C62.815 145.09 63.13 145.375 64.435 145.375H66.58C67.585 145.375 67.9 145.015 68.005 143.605C67.72 143.53 67.255 143.365 67.045 143.2C67 144.25 66.91 144.415 66.475 144.415H64.555C64 144.415 63.91 144.355 63.91 143.98V141.01H66.94V142.675H68.065V140.005H62.275V138.445H61.15V140.005H55.48V143.005H56.575V141.01H59.47C59.215 143.2 58.51 144.445 55.3 145.075C55.525 145.3 55.81 145.735 55.915 146.005C59.44 145.21 60.325 143.665 60.625 141.01H62.815ZM62.275 150.67V147.655H67.015V146.65H56.755V147.655H61.15V150.67H55.195V151.69H68.305V150.67H62.275ZM76.495 139.96V141.205H73.255V139.96H76.495ZM73.255 143.35V142.03H76.495V143.35H73.255ZM77.56 144.205V139.09H72.145V152.155H73.255V144.205H77.56ZM79.975 146.2V147.58H76.45V146.2H79.975ZM76.45 149.875V148.42H79.975V149.875H76.45ZM81.01 150.76V145.33H75.445V151.51H76.45V150.76H81.01ZM79.96 143.365V142.03H83.32V143.365H79.96ZM83.32 139.96V141.205H79.96V139.96H83.32ZM84.445 139.09H78.895V144.22H83.32V150.655C83.32 150.925 83.23 151.015 82.975 151.015C82.705 151.03 81.79 151.045 80.875 151C81.04 151.3 81.22 151.825 81.265 152.14C82.51 152.14 83.305 152.125 83.785 151.945C84.28 151.75 84.445 151.375 84.445 150.67V139.09ZM93.91 149.08C93.535 148.645 91.975 146.89 91.345 146.26C91.375 145.975 91.405 145.675 91.42 145.39H93.85V144.385H91.465C91.465 144.175 91.465 143.965 91.465 143.755V141.925H93.58V140.935H91.465V138.61H90.43V140.935H88.27V141.925H90.43V143.755C90.43 143.965 90.43 144.175 90.43 144.385H87.955V145.39H90.385C90.265 147.43 89.77 149.74 87.865 151.165C88.12 151.345 88.48 151.735 88.615 151.975C90.115 150.745 90.835 149.095 91.18 147.4C91.87 148.21 92.77 149.335 93.145 149.905L93.91 149.08ZM95.44 144.82H99.715V146.32H95.44V144.82ZM95.44 142.435H99.715V143.905H95.44V142.435ZM95.44 140.05H99.715V141.505H95.44V140.05ZM99.385 150.895C99.07 150.895 99.01 150.85 99.01 150.505V147.325H100.795V139.03H94.405V147.325H95.605C95.365 149.17 94.72 150.55 92.44 151.285C92.665 151.48 92.965 151.885 93.07 152.125C95.62 151.225 96.385 149.59 96.655 147.325H97.99V150.505C97.99 151.555 98.2 151.885 99.235 151.885H100.45C101.335 151.885 101.605 151.375 101.695 149.335C101.41 149.26 100.975 149.095 100.765 148.915C100.72 150.67 100.66 150.895 100.33 150.895H99.385ZM104.5 151.78C106.615 151.69 109.885 151.51 112.975 151.345L113.005 150.49C109.825 150.64 106.495 150.79 104.41 150.88L104.5 151.78ZM111.145 147.97H109.225V147.25H111.145V147.97ZM111.145 149.305H109.225V148.585H111.145V149.305ZM106.33 148.585H108.265V149.305H106.33V148.585ZM106.33 147.25H108.265V147.97H106.33V147.25ZM105.415 146.635V149.935H112.09V146.635H105.415ZM111.13 142.435H109.165V141.625H111.13V142.435ZM109.165 140.125H111.13V140.86H109.165V140.125ZM112.105 139.42H109.165V138.46H108.145V139.42H105.385V140.125H108.145V140.86H104.425V141.625H108.145V142.435H105.325V143.14H108.145V143.815H105.22V144.52H108.145V145.21H104.515V145.99H112.945V145.21H109.165V144.52H112.315V143.815H109.165V143.14H112.105V141.625H113.035V140.86H112.105V139.42ZM114.61 140.245H113.59V148.495H114.61V140.245ZM116.425 138.745V150.745C116.425 150.985 116.32 151.06 116.065 151.075C115.855 151.09 115.075 151.09 114.205 151.06C114.355 151.36 114.52 151.855 114.55 152.14C115.75 152.14 116.455 152.11 116.875 151.945C117.31 151.75 117.475 151.435 117.475 150.745V138.745H116.425Z" fill="#363B3F"/>
<path d="M586.03 110.83H596.41V112.6H597.52V109.795H591.775V108.46H590.65V109.795H584.965V112.6H586.03V110.83ZM588.13 117.565C589.225 117.175 590.29 116.71 591.28 116.155C592.345 116.74 593.53 117.205 594.805 117.565H588.13ZM588.235 120.67V118.495H594.295V120.67H588.235ZM589.06 113.08H593.575C592.975 113.77 592.195 114.4 591.295 114.955C590.38 114.43 589.6 113.83 589.015 113.14L589.06 113.08ZM594.535 112.15L594.34 112.195H589.915C590.17 111.91 590.395 111.61 590.605 111.31L589.405 111.085C588.655 112.24 587.2 113.545 585.145 114.46C585.4 114.64 585.73 115 585.895 115.255C586.78 114.82 587.56 114.325 588.235 113.785C588.805 114.445 589.495 115.03 590.26 115.54C588.46 116.47 586.345 117.145 584.335 117.505C584.545 117.745 584.785 118.195 584.89 118.48C585.64 118.315 586.405 118.12 587.17 117.88V122.125H588.235V121.63H594.295V122.11H595.42V117.73C596.08 117.895 596.755 118.03 597.445 118.135C597.595 117.805 597.895 117.34 598.15 117.07C596.035 116.8 594.01 116.275 592.33 115.495C593.53 114.685 594.565 113.725 595.285 112.615L594.535 112.15ZM612.97 108.43C612.73 109.21 612.265 110.335 611.875 111.025L612.79 111.28C613.195 110.605 613.645 109.585 614.035 108.7L612.97 108.43ZM610.36 110.98C610.225 110.305 609.775 109.315 609.28 108.565L608.395 108.865C608.845 109.63 609.28 110.65 609.415 111.34L610.36 110.98ZM606.28 117.58V120.355H603.535V117.58H606.28ZM606.115 112.615V114.1H604.06C604.165 113.62 604.255 113.125 604.33 112.615H606.115ZM606.115 110.17V111.67H604.45C604.51 111.19 604.555 110.68 604.6 110.17H606.115ZM603.31 116.605C603.505 116.125 603.685 115.615 603.82 115.075H607.165V112.615H608.05V111.67H607.165V109.195H601.72V110.17H603.535C603.505 110.68 603.445 111.19 603.4 111.67H600.955V112.615H603.265C603.19 113.125 603.1 113.62 602.995 114.1H601.645V115.075H602.74C602.305 116.515 601.675 117.715 600.73 118.615C600.955 118.825 601.345 119.26 601.48 119.485C601.87 119.08 602.215 118.645 602.515 118.18V122.14H603.535V121.33H607.375V116.605H603.31ZM614.665 117.595H611.74V115.42H614.05V114.4H611.74V112.375H614.32V111.355H608.2V112.375H610.66V114.4H608.41V115.42H610.66V117.595H607.855V118.645H610.66V122.155H611.74V118.645H614.665V117.595ZM588.64 138.76C587.71 141.055 586.045 143.125 584.155 144.4C584.425 144.595 584.905 145.015 585.1 145.255C586.99 143.845 588.73 141.61 589.81 139.09L588.64 138.76ZM586.585 144.085V145.165H589.645C589.3 147.7 588.475 150.07 584.95 151.24C585.205 151.48 585.52 151.93 585.67 152.215C589.48 150.835 590.44 148.12 590.83 145.165H594.7C594.52 148.945 594.31 150.445 593.92 150.82C593.785 150.985 593.605 151.015 593.29 151.015C592.945 151.015 592.015 151 591.04 150.91C591.25 151.24 591.385 151.69 591.415 152.02C592.345 152.065 593.275 152.095 593.77 152.05C594.295 151.99 594.61 151.9 594.925 151.525C595.435 150.955 595.66 149.23 595.87 144.625C595.885 144.475 595.9 144.085 595.9 144.085H586.585ZM592.765 139.15C593.875 141.37 595.765 143.785 597.415 145.12C597.625 144.805 598.045 144.37 598.33 144.13C596.71 142.99 594.79 140.74 593.815 138.73L592.765 139.15ZM606.55 146.59C606.235 146.185 604.915 144.55 604.45 144.025V142.705H606.505V141.655H604.45V138.445H603.4V141.655H601.075V142.705H603.25C602.755 144.76 601.735 147.1 600.73 148.345C600.91 148.615 601.195 149.05 601.315 149.35C602.08 148.345 602.83 146.68 603.4 144.97V152.125H604.45V145.345C604.975 146.08 605.59 146.995 605.86 147.49L606.55 146.59ZM614.635 143.545H608.605V140.89C610.48 140.56 612.52 140.08 613.96 139.48L613.015 138.625C611.935 139.105 610.165 139.6 608.47 139.945L607.525 139.66V143.875C607.525 146.11 607.36 149.125 605.68 151.345C605.935 151.495 606.37 151.855 606.52 152.08C608.17 149.89 608.545 146.905 608.59 144.61H611.305V152.14H612.415V144.61H614.635V143.545Z" fill="#363B3F"/>
<path d="M229.19 59.685H230.3V58.5H234.185V59.52H235.31V58.5H238.835V57.51H235.31V56.46H234.185V57.51H230.3V56.46H229.19V57.51H225.71V58.5H229.19V59.685ZM236.87 59.37C234.47 59.94 229.895 60.255 226.16 60.36C226.265 60.6 226.385 61.035 226.415 61.305C230.21 61.23 234.875 60.9 237.77 60.24L236.87 59.37ZM232.865 63.435C232.745 62.85 232.34 61.995 231.905 61.365L230.93 61.68C231.35 62.34 231.725 63.21 231.815 63.795L232.865 63.435ZM229.145 63.885C228.92 63.24 228.35 62.34 227.765 61.68L226.835 62.055C227.39 62.73 227.945 63.675 228.155 64.305L229.145 63.885ZM236.825 61.11C236.42 61.995 235.7 63.255 235.13 64.02L236 64.41C236.585 63.675 237.335 62.52 237.935 61.53L236.825 61.11ZM238.88 66.03V65.025H232.79V63.885H231.65V65.025H225.665V66.03H230.645C229.31 67.26 227.21 68.37 225.32 68.895C225.575 69.135 225.92 69.57 226.085 69.87C228.05 69.195 230.225 67.89 231.65 66.405V70.14H232.79V66.375C234.155 67.875 236.33 69.135 238.37 69.765C238.535 69.465 238.88 69.03 239.12 68.79C237.155 68.31 235.055 67.275 233.75 66.03H238.88ZM253.295 59.19H250.4V57.78H253.295V59.19ZM254.33 57.03H249.38V59.94H254.33V57.03ZM247.13 59.19H244.265V57.78H247.13V59.19ZM248.18 57.03H243.26V59.94H248.18V57.03ZM244.745 65.01V63.72H248.135V65.01H244.745ZM244.745 61.59H248.135V62.865H244.745V61.59ZM252.845 62.865H249.275V61.59H252.845V62.865ZM252.845 65.01H249.275V63.72H252.845V65.01ZM255.365 67.05H249.275V65.91H253.985V60.69H243.665V65.91H248.135V67.05H242.165V68.025H248.135V70.14H249.275V68.025H255.365V67.05ZM230.48 86.97H226.16V87.87H230.48V86.97ZM231.035 88.935H225.38V89.85H231.035V88.935ZM229.535 95.865V98.385H227.03V95.865H229.535ZM230.51 94.95H226.055V99.975H227.03V99.285H230.51V94.95ZM226.085 93.84H230.525V92.94H226.085V93.84ZM226.085 91.845H230.525V90.96H226.085V91.845ZM233.27 87.915H235.835V90.585C235.835 91.65 236.105 91.935 237.02 91.935H238.055C238.85 91.935 239.12 91.5 239.21 89.745C238.925 89.685 238.49 89.52 238.28 89.34C238.25 90.78 238.19 90.975 237.92 90.975H237.17C236.93 90.975 236.885 90.915 236.885 90.585V86.925H232.205V88.725C232.205 89.76 231.98 91.005 230.54 91.92C230.765 92.07 231.185 92.46 231.35 92.655C232.94 91.605 233.27 90.03 233.27 88.74V87.915ZM237.59 92.85L237.395 92.895H231.23V93.915H236.9C236.45 95.07 235.775 96.045 234.935 96.84C234.095 96.015 233.435 95.04 233 93.945L232.01 94.245C232.52 95.505 233.225 96.6 234.11 97.515C233.06 98.295 231.845 98.835 230.57 99.165C230.78 99.39 231.065 99.87 231.17 100.14C232.535 99.735 233.825 99.135 234.935 98.28C235.955 99.105 237.14 99.72 238.505 100.125C238.655 99.855 238.985 99.405 239.225 99.18C237.905 98.85 236.75 98.295 235.775 97.56C236.915 96.435 237.8 94.98 238.31 93.135L237.59 92.85ZM247.235 86.97H242.66V87.87H247.235V86.97ZM247.79 88.935H241.88V89.85H247.79V88.935ZM246.185 95.865V98.385H243.56V95.865H246.185ZM247.19 94.95H242.57V99.975H243.56V99.285H247.19V94.95ZM242.585 93.84H247.235V92.94H242.585V93.84ZM242.585 91.845H247.235V90.96H242.585V91.845ZM255.755 91.545H252.395V86.49H251.285V91.545H247.775V92.64H251.285V100.14H252.395V92.64H255.755V91.545Z" fill="#363B3F"/>
<path d="M590.665 261.935C590.29 261.605 588.97 260.45 588.265 259.895C589.06 258.89 589.75 257.78 590.215 256.625L589.585 256.205L589.39 256.25H588.085V253.46H586.99V256.25H584.635V257.27H588.805C587.77 259.265 585.895 261.155 584.11 262.19C584.29 262.4 584.575 262.91 584.695 263.195C585.46 262.7 586.24 262.07 586.99 261.32V267.14H588.085V260.93C588.76 261.56 589.585 262.4 589.975 262.835L590.665 261.935ZM594.745 265.625V259.4H597.94V258.32H594.745V253.565H593.635V258.32H590.425V259.4H593.635V265.625H589.84V266.72H598.24V265.625H594.745ZM612.97 253.43C612.73 254.21 612.265 255.335 611.875 256.025L612.79 256.28C613.195 255.605 613.645 254.585 614.035 253.7L612.97 253.43ZM610.36 255.98C610.225 255.305 609.775 254.315 609.28 253.565L608.395 253.865C608.845 254.63 609.28 255.65 609.415 256.34L610.36 255.98ZM606.28 262.58V265.355H603.535V262.58H606.28ZM606.115 257.615V259.1H604.06C604.165 258.62 604.255 258.125 604.33 257.615H606.115ZM606.115 255.17V256.67H604.45C604.51 256.19 604.555 255.68 604.6 255.17H606.115ZM603.31 261.605C603.505 261.125 603.685 260.615 603.82 260.075H607.165V257.615H608.05V256.67H607.165V254.195H601.72V255.17H603.535C603.505 255.68 603.445 256.19 603.4 256.67H600.955V257.615H603.265C603.19 258.125 603.1 258.62 602.995 259.1H601.645V260.075H602.74C602.305 261.515 601.675 262.715 600.73 263.615C600.955 263.825 601.345 264.26 601.48 264.485C601.87 264.08 602.215 263.645 602.515 263.18V267.14H603.535V266.33H607.375V261.605H603.31ZM614.665 262.595H611.74V260.42H614.05V259.4H611.74V257.375H614.32V256.355H608.2V257.375H610.66V259.4H608.41V260.42H610.66V262.595H607.855V263.645H610.66V267.155H611.74V263.645H614.665V262.595ZM597.925 284.3H589.9V285.275H597.925V284.3ZM597.715 291.035C597.34 290.375 596.605 289.31 595.9 288.47C596.41 287.705 597.01 286.76 597.46 285.995L596.485 285.755C596.11 286.46 595.435 287.585 594.79 288.485C595.645 289.505 596.44 290.675 596.815 291.455L597.715 291.035ZM593.905 285.755C593.575 286.46 592.9 287.585 592.27 288.485C593.08 289.52 593.815 290.675 594.175 291.455L595.075 291.05C594.73 290.375 594.025 289.34 593.35 288.47C593.845 287.705 594.475 286.76 594.88 285.995L593.905 285.755ZM592.435 291.08C592.135 290.39 591.475 289.34 590.845 288.47C591.325 287.705 591.895 286.745 592.3 285.995L591.325 285.755C590.995 286.46 590.35 287.585 589.765 288.485C590.53 289.52 591.205 290.675 591.535 291.455L592.435 291.08ZM585.13 291.95C584.965 293.255 584.68 294.605 584.215 295.52C584.425 295.595 584.875 295.79 585.04 295.925C585.52 294.965 585.865 293.525 586.075 292.115L585.13 291.95ZM588.88 290.75C589.03 291.095 589.135 291.425 589.195 291.71L590.08 291.305C589.855 290.48 589.255 289.19 588.625 288.23L587.815 288.56C588.055 288.95 588.28 289.385 588.49 289.82L586.33 289.925C587.35 288.65 588.475 286.955 589.33 285.59L588.4 285.155C587.98 285.965 587.41 286.94 586.795 287.87C586.57 287.57 586.3 287.24 585.985 286.91C586.555 286.07 587.2 284.855 587.71 283.82L586.735 283.46C586.42 284.285 585.895 285.425 585.4 286.28C585.25 286.13 585.1 285.995 584.95 285.86L584.35 286.565C585.025 287.21 585.775 288.065 586.21 288.74C585.895 289.19 585.58 289.61 585.28 289.985L584.245 290.03L584.35 291.035L586.705 290.885V297.14H587.695V290.825L588.88 290.75ZM588.205 292.16C588.58 293.015 588.88 294.155 588.955 294.875L589.825 294.62C589.735 293.885 589.405 292.775 589.03 291.92L588.205 292.16ZM594.445 295.73V292.925H597.55V291.92H590.305V292.925H593.32V295.73H589.36V296.72H598.12V295.73H594.445ZM613.21 284.135C612.925 284.585 612.4 285.29 611.98 285.74L612.685 286.055C613.12 285.665 613.675 285.08 614.155 284.495L613.21 284.135ZM608.245 286.25C608.86 285.8 609.265 285.095 609.535 284.42L608.785 284.135C608.545 284.75 608.11 285.41 607.525 285.8L608.245 286.25ZM606.64 284.165C606.4 284.615 605.92 285.275 605.56 285.71L606.22 286.01C606.625 285.635 607.12 285.08 607.555 284.525L606.64 284.165ZM602.53 284.12C602.32 284.765 601.885 285.44 601.315 285.815L602.02 286.25C602.665 285.815 603.025 285.095 603.28 284.39L602.53 284.12ZM607.09 287.36C606.55 286.955 605.575 286.34 604.78 285.875C605.035 285.215 605.14 284.42 605.2 283.445H604.225C604.09 285.785 603.595 286.85 600.97 287.45C601.18 287.63 601.45 288.02 601.525 288.245C602.935 287.885 603.805 287.39 604.345 286.655C605.095 287.12 605.95 287.69 606.415 288.065L607.09 287.36ZM611.95 295.895H603.82V294.53H611.95V295.895ZM604.795 290.855H610.72V292.025H604.795V290.855ZM611.815 292.79V290.09H603.745V292.79H607.12C607.045 293.09 606.955 293.42 606.865 293.705H602.77V297.14H603.82V296.735H611.95V297.125H613.06V293.705H607.945C608.065 293.42 608.185 293.105 608.32 292.79H611.815ZM614.17 287.585C613.48 287.09 612.145 286.34 611.095 285.815C611.35 285.17 611.47 284.39 611.53 283.445H610.51C610.375 285.665 609.865 286.73 607.345 287.33C607.54 287.525 607.81 287.93 607.9 288.17C609.265 287.825 610.105 287.315 610.645 286.61C611.605 287.135 612.7 287.78 613.36 288.26H601.54V290.975H602.62V289.16H612.895V290.975H613.99V288.26H613.6L614.17 287.585Z" fill="#363B3F"/>
<path d="M443.055 60.855V61.5H440.67V60.855H443.055ZM443.055 62.715H440.67V62.055H443.055V62.715ZM440.67 64.02V63.285H442.755L442.17 63.69C442.29 63.78 442.41 63.87 442.515 63.975L440.67 64.02ZM437.43 62.715V62.055H439.725V62.715H437.43ZM437.43 60.855H439.725V61.5H437.43V60.855ZM439.725 60.27H436.545V63.285H439.725V64.035C438.3 64.05 436.995 64.065 435.99 64.065L436.035 64.755C437.895 64.725 440.58 64.65 443.175 64.56C443.415 64.8 443.625 65.025 443.775 65.22L444.405 64.755C444.075 64.32 443.385 63.705 442.785 63.285H443.985V60.27H440.67V59.67H444.51V58.965H440.67V58.26H439.725V58.965H435.96V59.67H439.725V60.27ZM437.37 66.465C437.865 66.885 438.42 67.47 438.66 67.89L439.425 67.44C439.17 67.05 438.6 66.465 438.09 66.09L437.37 66.465ZM444.72 65.325H442.575V64.77H441.63V65.325H435.78V66.015H441.63V67.38C441.63 67.53 441.585 67.575 441.405 67.575C441.255 67.59 440.7 67.59 440.1 67.575C440.19 67.755 440.31 67.995 440.355 68.205C441.255 68.205 441.81 68.205 442.14 68.1C442.485 67.995 442.575 67.845 442.575 67.41V66.015H444.72V65.325ZM435.27 68.475V58.02H445.215V68.475H435.27ZM434.235 57.135V70.155H435.27V69.375H445.215V70.08H446.28V57.135H434.235ZM462.78 61.05C462.27 61.65 461.46 62.43 460.755 63.03C460.44 62.07 460.185 61.02 459.99 59.94H463.455V58.965H460.98C461.37 58.38 461.82 57.555 462.225 56.79L461.16 56.46C460.89 57.15 460.395 58.14 460.02 58.77L460.59 58.965H457.215L457.785 58.755C457.605 58.14 457.17 57.21 456.705 56.52L455.805 56.835C456.21 57.48 456.6 58.35 456.765 58.965H454.665V59.94H458.01C456.99 60.93 455.565 61.815 454.245 62.4C454.455 62.595 454.8 63 454.92 63.195C455.595 62.85 456.3 62.43 456.975 61.95C457.26 62.22 457.515 62.505 457.725 62.805C456.93 63.57 455.61 64.455 454.605 64.935C454.62 64.83 454.62 64.74 454.62 64.635C454.62 63.72 454.365 62.64 453.285 61.425C453.78 60.24 454.32 58.71 454.77 57.48L454.05 57.045L453.87 57.09H450.51V70.14H451.5V58.11H453.465C453.15 59.13 452.715 60.465 452.28 61.56C453.36 62.715 453.615 63.72 453.615 64.53C453.615 64.965 453.54 65.385 453.315 65.55C453.195 65.625 453.03 65.67 452.835 65.67C452.61 65.7 452.31 65.685 451.965 65.655C452.145 65.94 452.235 66.36 452.25 66.645C452.595 66.66 452.955 66.645 453.255 66.615C453.555 66.585 453.825 66.495 454.035 66.345C454.365 66.105 454.56 65.625 454.605 65.025C454.815 65.22 455.04 65.535 455.175 65.76C456.135 65.22 457.32 64.35 458.175 63.54C458.385 63.915 458.55 64.32 458.685 64.71C457.545 66.09 455.445 67.545 453.675 68.22C453.93 68.43 454.2 68.775 454.35 69.03C455.895 68.325 457.71 67.035 458.94 65.745C459.195 67.125 459 68.355 458.58 68.79C458.355 69.09 458.085 69.135 457.755 69.135C457.47 69.135 457.08 69.105 456.63 69.06C456.825 69.345 456.9 69.81 456.915 70.08C457.305 70.11 457.68 70.125 457.965 70.125C458.58 70.11 458.985 69.975 459.39 69.555C460.605 68.43 460.515 63.885 457.74 61.38C458.235 60.99 458.7 60.57 459.105 60.135C459.735 63.765 460.905 66.84 462.99 68.475C463.155 68.19 463.515 67.8 463.74 67.62C462.6 66.825 461.715 65.505 461.07 63.885C461.85 63.285 462.795 62.49 463.53 61.755L462.78 61.05ZM437.64 86.76C436.71 89.055 435.045 91.125 433.155 92.4C433.425 92.595 433.905 93.015 434.1 93.255C435.99 91.845 437.73 89.61 438.81 87.09L437.64 86.76ZM435.585 92.085V93.165H438.645C438.3 95.7 437.475 98.07 433.95 99.24C434.205 99.48 434.52 99.93 434.67 100.215C438.48 98.835 439.44 96.12 439.83 93.165H443.7C443.52 96.945 443.31 98.445 442.92 98.82C442.785 98.985 442.605 99.015 442.29 99.015C441.945 99.015 441.015 99 440.04 98.91C440.25 99.24 440.385 99.69 440.415 100.02C441.345 100.065 442.275 100.095 442.77 100.05C443.295 99.99 443.61 99.9 443.925 99.525C444.435 98.955 444.66 97.23 444.87 92.625C444.885 92.475 444.9 92.085 444.9 92.085H435.585ZM441.765 87.15C442.875 89.37 444.765 91.785 446.415 93.12C446.625 92.805 447.045 92.37 447.33 92.13C445.71 90.99 443.79 88.74 442.815 86.73L441.765 87.15ZM457.32 97.89V89.28H462.705V88.14H450.855V89.28H456.105V97.89H450.075V99H463.455V97.89H457.32Z" fill="#363B3F"/>
<path d="M444.39 343.805C443.625 344.33 442.71 344.87 441.93 345.26C441.375 344.84 440.925 344.36 440.565 343.805H444.39ZM437.1 341.57H443.415V342.89H437.1V341.57ZM437.1 339.455H443.415V340.715H437.1V339.455ZM440.775 338.54V337.055H439.65V338.54H436.56C438.045 337.565 439.365 336.44 440.19 335.435C441.105 336.5 442.53 337.61 444.015 338.54H440.775ZM445.335 343.13C445.095 343.31 444.81 343.52 444.51 343.73V338.84C445.185 339.23 445.86 339.59 446.505 339.875C446.7 339.575 446.97 339.17 447.225 338.9C444.9 338.03 442.305 336.305 440.67 334.43H439.575C438.375 336.095 435.87 337.97 433.335 339.065C433.575 339.305 433.86 339.71 433.995 339.965C434.67 339.65 435.36 339.29 436.005 338.885V346.82C435.375 346.88 434.805 346.925 434.31 346.97L434.475 348.005C436.185 347.855 438.63 347.615 440.97 347.36L440.955 346.37L437.1 346.73V343.805H439.44C440.715 346.19 443.1 347.585 446.325 348.14C446.475 347.855 446.76 347.405 447 347.18C445.35 346.94 443.91 346.49 442.755 345.815C443.88 345.245 445.17 344.495 446.175 343.775L445.335 343.13ZM456.24 341.9C455.865 341.465 454.365 339.71 453.81 339.11V338.72H455.85V337.655H453.81V334.445H452.7V337.655H450.21V338.72H452.535C451.98 340.79 450.84 343.115 449.7 344.36C449.91 344.63 450.195 345.095 450.315 345.41C451.2 344.39 452.055 342.68 452.7 340.925V348.125H453.81V340.46C454.425 341.27 455.205 342.32 455.535 342.86L456.24 341.9ZM463.575 337.67H462.03V334.475H460.89V337.67H456.42V338.735H460.5C459.39 341.09 457.425 343.595 455.55 344.87C455.82 345.095 456.15 345.485 456.345 345.77C457.995 344.525 459.705 342.41 460.89 340.25V346.64C460.89 346.91 460.785 346.985 460.515 347C460.23 347 459.27 347.015 458.295 346.985C458.46 347.3 458.64 347.81 458.7 348.125C459.96 348.125 460.845 348.095 461.34 347.9C461.835 347.735 462.03 347.39 462.03 346.625V338.735H463.575V337.67ZM441.78 369.05V370.37H439.26V369.05H441.78ZM445.395 370.37H442.785V369.05H445.395V370.37ZM442.785 372.56V371.195H445.395V372.56H442.785ZM439.26 372.56V371.195H441.78V372.56H439.26ZM439.26 373.415H441.78V375.845H442.785V373.415H445.395V374.78C445.395 374.975 445.335 375.035 445.14 375.035C444.96 375.035 444.315 375.05 443.61 375.02C443.745 375.275 443.88 375.665 443.925 375.935C444.93 375.935 445.56 375.92 445.95 375.77C446.34 375.605 446.46 375.335 446.46 374.795V368.195H444.57C444.24 368.015 443.85 367.805 443.415 367.595C444.525 367.04 445.65 366.29 446.445 365.54L445.755 365.015L445.545 365.075H438.225V365.96H444.48C443.88 366.395 443.145 366.83 442.425 367.145C441.72 366.845 440.985 366.545 440.34 366.32L439.635 366.95C440.535 367.28 441.6 367.76 442.485 368.195H438.21V375.905H439.26V373.415ZM436.995 367.205C436.515 366.47 435.405 365.465 434.46 364.79L433.68 365.48C434.625 366.185 435.705 367.235 436.17 367.97L436.995 367.205ZM436.665 370.325H433.425V371.375H435.585V375.23C434.82 375.845 433.965 376.475 433.245 376.925L433.785 378.005C434.64 377.375 435.435 376.73 436.2 376.07C437.115 377.255 438.465 377.78 440.43 377.855C442.08 377.93 445.26 377.9 446.925 377.825C446.985 377.495 447.15 376.985 447.27 376.73C445.485 376.85 442.065 376.895 440.43 376.82C438.675 376.76 437.385 376.265 436.665 375.14V370.325ZM457.44 372.74C458.235 372.26 459 371.66 459.69 370.97C460.335 371.615 461.07 372.245 461.91 372.74H457.44ZM457.8 376.595V373.715H461.55V376.595H457.8ZM455.595 371.81H453.75V369.65H455.475V369.2C455.745 369.38 456.09 369.695 456.255 369.86C456.735 369.365 457.2 368.795 457.62 368.135C457.995 368.81 458.445 369.515 459 370.19C457.98 371.225 456.795 372.02 455.595 372.53V371.81ZM451.62 366.05H454.44V368.675H451.62V366.05ZM461.19 366.95C460.815 367.88 460.275 368.72 459.645 369.485C459.03 368.75 458.535 367.97 458.16 367.235L458.31 366.95H461.19ZM461.865 365.93L461.67 365.975H458.775C458.94 365.57 459.105 365.135 459.255 364.7L458.19 364.445C457.635 366.245 456.66 367.925 455.475 369.05V365.075H450.63V369.65H452.73V375.71L451.575 375.98V371.06H450.63V376.175L449.865 376.34L450.075 377.42C451.65 377.03 453.78 376.52 455.82 376.025L455.715 375.02C455.055 375.185 454.395 375.335 453.75 375.485V372.8H455.325C455.535 373.01 455.76 373.325 455.865 373.55C456.165 373.415 456.465 373.28 456.765 373.115V378.125H457.8V377.585H461.55V378.08H462.615V373.13C462.78 373.205 462.945 373.28 463.095 373.355C463.245 373.07 463.56 372.65 463.785 372.44C462.435 371.93 461.295 371.135 460.365 370.235C461.295 369.125 462.075 367.805 462.555 366.245L461.865 365.93Z" fill="#363B3F"/>
<path d="M230.255 337.85H227.15V335.96H230.255V337.85ZM230.255 340.64H227.15V338.735H230.255V340.64ZM230.255 343.475H227.15V341.525H230.255V343.475ZM231.335 335.03H226.1V344.375H231.335V335.03ZM227.135 344.705C226.745 345.77 226.07 346.805 225.305 347.495C225.56 347.645 226.01 347.975 226.205 348.155C226.97 347.39 227.735 346.175 228.2 344.975L227.135 344.705ZM229.25 345.125C229.85 345.875 230.51 346.91 230.825 347.585L231.77 347.09C231.455 346.43 230.78 345.44 230.135 344.705L229.25 345.125ZM239.12 338H237.2V334.505H236.105V338H231.8V339.035H235.7C234.755 341.405 233.15 343.775 231.47 344.96C231.71 345.14 232.04 345.515 232.235 345.785C233.69 344.615 235.1 342.65 236.105 340.475V346.745C236.105 347 236.015 347.075 235.775 347.075C235.55 347.09 234.815 347.09 233.975 347.075C234.14 347.36 234.32 347.855 234.365 348.155C235.505 348.155 236.195 348.11 236.615 347.93C237.035 347.735 237.2 347.405 237.2 346.745V339.035H239.12V338ZM253.07 336.965C252.725 337.73 252.23 338.36 251.615 338.9C250.91 338.345 250.325 337.685 249.92 336.965H253.07ZM247.07 343.475C247.4 342.86 247.7 342.005 247.955 341.135C248.12 341.345 248.285 341.57 248.36 341.72C249.575 341.345 250.685 340.85 251.63 340.19C252.62 340.895 253.775 341.435 255.035 341.78C255.185 341.48 255.515 341.06 255.74 340.82C254.54 340.565 253.43 340.115 252.485 339.515C253.25 338.825 253.865 337.985 254.285 336.965H255.44V336.02H250.46C250.715 335.6 250.955 335.165 251.15 334.73L250.085 334.445C249.485 335.87 248.405 337.235 247.235 338.105C247.505 338.255 247.94 338.57 248.15 338.75C248.51 338.45 248.87 338.075 249.23 337.685C249.65 338.36 250.175 338.975 250.775 339.515C250.01 340.01 249.095 340.385 248.09 340.67C248.165 340.4 248.24 340.13 248.315 339.875L247.64 339.635L247.475 339.695H246.365L246.935 339.05C246.62 338.765 246.17 338.45 245.675 338.15C246.575 337.46 247.535 336.5 248.12 335.6L247.4 335.15L247.205 335.195H242.165V336.17H246.41C245.96 336.695 245.39 337.235 244.835 337.655C244.355 337.4 243.845 337.16 243.38 336.965L242.69 337.685C243.86 338.195 245.24 339.035 246.02 339.695H242V340.67H244.265C243.71 342.2 242.78 343.805 241.85 344.69C242.045 344.975 242.315 345.41 242.435 345.725C243.26 344.885 244.04 343.475 244.625 342.035V346.85C244.625 347.015 244.565 347.06 244.385 347.075C244.19 347.075 243.605 347.075 242.96 347.06C243.11 347.345 243.26 347.81 243.305 348.08C244.205 348.08 244.79 348.065 245.18 347.915C245.555 347.72 245.675 347.42 245.675 346.85V340.67H247.115C246.89 341.54 246.59 342.47 246.305 343.085L247.07 343.475ZM251.6 342.815C251.69 342.335 251.765 341.84 251.81 341.33H250.685C250.64 341.84 250.58 342.335 250.49 342.815H247.91V343.745H250.25C249.785 345.275 248.84 346.535 246.77 347.285C246.995 347.48 247.295 347.885 247.43 348.14C249.83 347.21 250.88 345.65 251.405 343.745H253.925C253.7 345.8 253.475 346.64 253.19 346.925C253.04 347.06 252.92 347.075 252.68 347.075C252.44 347.075 251.84 347.06 251.195 347C251.36 347.285 251.465 347.735 251.495 348.035C252.17 348.08 252.8 348.065 253.16 348.05C253.55 348.005 253.835 347.93 254.09 347.66C254.525 347.225 254.81 346.085 255.08 343.295C255.095 343.115 255.11 342.815 255.11 342.815H251.6ZM236.27 375.32V376.775H229.235V375.32H236.27ZM235.31 371.3V372.575H229.235V371.3H235.31ZM229.235 373.43H236.405V370.445H228.185V378.155H229.235V377.645H236.27V378.125H237.365V374.45H229.235V373.43ZM239.06 365.585H233.975C234.155 365.285 234.305 364.955 234.44 364.64L233.375 364.385C233.075 365.135 232.61 365.84 232.055 366.455V365.585H228.125C228.29 365.285 228.44 364.97 228.56 364.655L227.525 364.385C227.075 365.555 226.265 366.725 225.365 367.505C225.635 367.64 226.07 367.94 226.28 368.105C226.715 367.67 227.165 367.13 227.57 366.515H228.215C228.5 367.04 228.8 367.64 228.92 368.045L229.91 367.745C229.805 367.415 229.58 366.95 229.325 366.515H231.995C231.71 366.83 231.395 367.1 231.065 367.34C231.23 367.415 231.47 367.55 231.68 367.685V368.63H226.025V371.435H227.075V369.515H237.5V371.435H238.58V368.63H232.745V367.46H232.52C232.805 367.175 233.09 366.86 233.36 366.515H234.56C234.98 367.04 235.4 367.655 235.565 368.09L236.585 367.745C236.42 367.4 236.105 366.935 235.775 366.515H239.06V365.585ZM246.545 373.985L244.91 374.525V370.805H246.41V369.77H244.91V366.515H246.635V365.465H241.985V366.515H243.845V369.77H242.15V370.805H243.845V374.855C243.08 375.11 242.39 375.32 241.835 375.485L242.09 376.61C243.425 376.175 245.135 375.59 246.74 375.05L246.545 373.985ZM248.39 368.93H250.67V370.835H248.39V368.93ZM248.39 366.11H250.67V368H248.39V366.11ZM253.925 368H251.63V366.11H253.925V368ZM253.925 370.835H251.63V368.93H253.925V370.835ZM251.72 376.64V374.585H255.215V373.565H251.72V371.81H254.99V365.135H247.37V371.81H250.595V373.565H247.19V374.585H250.595V376.64H246.035V377.66H255.695V376.64H251.72Z" fill="#363B3F"/>
<path d="M81.25 257.99H75.295V255.155H81.25V257.99ZM82.375 254.09H74.215V259.055H82.375V254.09ZM76.24 261.71V265.265H73.105V261.71H76.24ZM72.04 267.155H73.105V266.345H76.24V267.02H77.335V260.63H72.04V267.155ZM80.05 265.265V261.71H83.455V265.265H80.05ZM78.97 260.63V267.155H80.05V266.345H83.455V267.05H84.55V260.63H78.97ZM94.81 259.745V258.17H96.985C96.955 258.68 96.865 259.22 96.64 259.745H94.81ZM94.81 255.77H96.985V257.33H94.81V255.77ZM100.12 257.33H97.945V255.77H100.12V257.33ZM100.12 259.745H97.69C97.855 259.22 97.915 258.695 97.945 258.17H100.12V259.745ZM101.14 260.63V254.885H97.285C97.51 254.495 97.765 254.06 97.99 253.655L96.73 253.4C96.61 253.82 96.385 254.39 96.16 254.885H93.805V260.63H96.115C95.635 261.245 94.87 261.83 93.715 262.325C93.94 262.475 94.3 262.76 94.45 262.955C95.935 262.325 96.805 261.5 97.3 260.63H101.14ZM89.8 258.515H93.46V257.54H92.215V253.46H91.24V257.54H89.8V253.76H88.81V259.475C88.81 261.65 88.69 264.65 87.82 266.795C88.12 266.885 88.555 267.035 88.78 267.17C89.395 265.565 89.65 263.555 89.755 261.665H91.69V267.125H92.695V260.705H89.785C89.8 260.285 89.8 259.865 89.8 259.475V258.515ZM101.56 263.075H99.235V260.975H98.17V263.075H93.16V264.035H98.17V267.125H99.235V264.035H101.56V263.075ZM73.12 286.22H83.335V288.41H84.475V285.17H78.805V283.46H77.65V285.17H72.025V288.41H73.12V286.22ZM78.805 292.595H83.245V291.56H78.805V289.07H82.63V288.02H73.945V289.07H77.665V295.355C76.435 294.89 75.475 294.035 74.905 292.46C75.055 291.83 75.175 291.17 75.265 290.465L74.125 290.36C73.795 293.045 72.985 295.175 71.32 296.465C71.59 296.63 72.055 297.02 72.235 297.215C73.21 296.36 73.945 295.25 74.47 293.87C75.835 296.405 78.07 296.945 81.175 296.945H84.655C84.7 296.615 84.895 296.09 85.075 295.82C84.355 295.835 81.775 295.835 81.235 295.835C80.365 295.835 79.54 295.79 78.805 295.655V292.595ZM92.185 286.385V287.435H101.29V286.385H97.195V283.625H96.07V286.385H92.185ZM95.635 294.455C95.5 292.97 94.99 290.42 94.42 288.44L93.43 288.62C93.97 290.6 94.435 293.195 94.54 294.695L95.635 294.455ZM91.435 283.49C90.565 285.755 89.11 287.96 87.595 289.37C87.79 289.64 88.12 290.21 88.24 290.465C88.81 289.91 89.365 289.235 89.89 288.515V297.095H90.94V286.91C91.525 285.92 92.05 284.87 92.47 283.82L91.435 283.49ZM98.08 295.4C98.77 293.54 99.55 290.735 100.06 288.515L98.86 288.305C98.47 290.48 97.69 293.51 97 295.4H91.825V296.45H101.665V295.4H98.08Z" fill="#363B3F"/>
<line x1="270.386" y1="122.682" x2="312.386" y2="173.682" stroke="#363B3F"/>
<line x1="126.143" y1="159.521" x2="293.143" y2="209.521" stroke="#363B3F"/>
<line x1="137.926" y1="264.506" x2="304.926" y2="239.506" stroke="#363B3F"/>
<line x1="276.591" y1="319.713" x2="323.591" y2="252.713" stroke="#363B3F"/>
<line x1="377.428" y1="239.741" x2="420.428" y2="310.741" stroke="#363B3F"/>
<line x1="369.636" y1="175.657" x2="419.636" y2="122.657" stroke="#363B3F"/>
<line x1="551.143" y1="153.479" x2="387.143" y2="202.479" stroke="#363B3F"/>
<line x1="545.875" y1="264.484" x2="386.875" y2="223.484" stroke="#363B3F"/>
</svg>
