<svg width="222" height="236" viewBox="0 0 222 236" fill="none" xmlns="http://www.w3.org/2000/svg">
<path d="M218.926 204.037L175.704 158.086C173.753 156.012 171.109 154.86 168.335 154.86H161.268C173.233 138.59 180.343 118.127 180.343 95.8656C180.343 42.9091 139.983 0 90.1715 0C40.3604 0 0 42.9091 0 95.8656C0 148.822 40.3604 191.731 90.1715 191.731C111.11 191.731 130.358 184.173 145.662 171.452V178.965C145.662 181.914 146.745 184.726 148.696 186.8L191.918 232.751C195.993 237.083 202.582 237.083 206.614 232.751L218.883 219.707C222.958 215.375 222.958 208.37 218.926 204.037ZM90.1715 154.86C59.5218 154.86 34.6813 128.497 34.6813 95.8656C34.6813 63.2805 59.4785 36.8714 90.1715 36.8714C120.821 36.8714 145.662 63.2344 145.662 95.8656C145.662 128.451 120.864 154.86 90.1715 154.86Z" fill="#363B3F"/>
</svg>
