<svg width="700" height="458" viewBox="0 0 700 458" fill="none" xmlns="http://www.w3.org/2000/svg">
<g filter="url(#filter0_d_410_2590)">
<g clip-path="url(#clip0_410_2590)">
<rect x="4" width="692" height="450" rx="20" fill="url(#paint0_linear_410_2590)"/>
<rect x="4" y="35" width="692" height="26" fill="#A5B4D1" fill-opacity="0.567711"/>
<g clip-path="url(#clip1_410_2590)">
<path d="M54.4962 48.299C54.4962 48.299 51.9104 47.0647 50.6794 44.4629C50.6794 44.4629 49.1384 47.3797 50.698 49.2079C51.965 50.6924 53.9001 49.7274 54.4962 48.299Z" fill="#ECEDEF"/>
<path d="M55.8309 46.4805C55.8309 46.4805 57.0689 43.9037 59.6804 42.6771C59.6804 42.6771 56.7534 41.1414 54.9187 42.6955C53.429 43.9581 54.3974 45.8865 55.8309 46.4805Z" fill="#ECEDEF"/>
<path d="M56.9263 47.4529C56.9263 47.4529 59.5143 48.6866 60.7431 51.289C60.7431 51.289 62.2841 48.3722 60.7245 46.5439C59.4581 45.0594 57.5218 46.025 56.9263 47.4529Z" fill="#ECEDEF"/>
<path d="M56.0971 49.3086C56.0971 49.3086 54.858 51.8876 52.2476 53.112C52.2476 53.112 55.1751 54.6477 57.0098 53.0935C58.499 51.8321 57.5328 49.9021 56.0971 49.3086Z" fill="#ECEDEF"/>
</g>
<g clip-path="url(#clip2_410_2590)">
<path d="M65.4424 52.5616V50.5791C65.9407 50.9311 66.4759 51.2279 67.0385 51.4644C67.5827 51.6903 68.0406 51.8033 68.4122 51.8033C68.7647 51.812 69.1113 51.7123 69.4052 51.5178C69.6817 51.329 69.8202 51.103 69.8207 50.8399C69.8243 50.7153 69.8022 50.5913 69.756 50.4755C69.7097 50.3597 69.6402 50.2546 69.5517 50.1667C69.3729 49.9882 68.9853 49.7303 68.3889 49.3929C67.1998 48.7336 66.422 48.1695 66.0556 47.7006C65.7003 47.2682 65.5051 46.7269 65.5028 46.1677C65.4954 45.8311 65.5673 45.4974 65.7125 45.1935C65.8578 44.8897 66.0725 44.6241 66.3393 44.4181C66.8969 43.9662 67.6147 43.7402 68.4928 43.7402C69.4049 43.7402 70.3408 43.9964 71.3005 44.5086V46.3333C70.206 45.6704 69.3106 45.3387 68.6145 45.3381C68.2563 45.3381 67.9675 45.4155 67.7478 45.5703C67.6457 45.6341 67.5618 45.7231 67.5041 45.8287C67.4464 45.9342 67.4169 46.0528 67.4184 46.1731C67.4184 46.389 67.5184 46.5948 67.7168 46.7921C67.9153 46.9894 68.2656 47.2185 68.7656 47.494L69.4246 47.8685C70.9791 48.7455 71.7564 49.7163 71.7564 50.7811C71.7633 51.142 71.6858 51.4994 71.5301 51.8252C71.3744 52.1509 71.1448 52.4359 70.8595 52.6576C70.262 53.1461 69.4936 53.3904 68.554 53.3904C68.055 53.3973 67.5574 53.3377 67.0742 53.2132C66.5119 53.0448 65.9658 52.8268 65.4424 52.5616V52.5616Z" fill="#ECEDEF"/>
<path d="M81.5198 48.7477H74.9632C75.0108 49.6381 75.3097 50.3464 75.8601 50.8726C76.4105 51.3988 77.1216 51.6619 77.9935 51.6619C79.2095 51.6619 80.3309 51.284 81.3578 50.5283V52.3289C80.8401 52.6833 80.2709 52.9563 79.6702 53.1383C79.0314 53.311 78.3714 53.3928 77.7097 53.3813C76.6829 53.3813 75.8516 53.1687 75.2159 52.7437C74.5716 52.3088 74.0473 51.7191 73.6911 51.0289C73.3082 50.3108 73.1167 49.4798 73.1167 48.5357C73.1167 47.1191 73.5193 45.9674 74.3245 45.0807C75.1296 44.1939 76.1741 43.7505 77.4578 43.7505C78.6945 43.7505 79.6808 44.182 80.4167 45.0451C81.1526 45.9081 81.5203 47.065 81.5198 48.5156V48.7477ZM75.0035 47.6489H79.6958C79.6482 46.9138 79.4286 46.3464 79.0369 45.9466C78.6451 45.5468 78.1188 45.3474 77.4578 45.3484C76.7958 45.3484 76.2531 45.5475 75.8299 45.9458C75.4066 46.344 75.1312 46.9117 75.0035 47.6489Z" fill="#ECEDEF"/>
<path d="M82.1147 45.3993L85.5806 42V43.9221H88.5303V45.5812H85.5806V50.1366C85.5806 51.2008 86.0233 51.7327 86.9086 51.7322C87.5706 51.7322 88.2698 51.5129 89.0062 51.0744V52.7946C88.2973 53.1925 87.4963 53.3982 86.683 53.3912C85.839 53.3912 85.1365 53.1451 84.5752 52.653C84.4044 52.5101 84.2574 52.3411 84.1396 52.1523C84.0074 51.9251 83.9099 51.6794 83.8504 51.4234C83.775 51.1252 83.7372 50.5537 83.7372 49.7087V45.5812H82.1147V45.3993Z" fill="#ECEDEF"/>
<path d="M98.6906 53.2551V52.0596C98.3129 52.4771 97.8567 52.8165 97.348 53.0586C96.8791 53.2881 96.3647 53.41 95.8425 53.4153C95.2698 53.42 94.7067 53.2677 94.2146 52.975C93.731 52.6955 93.3399 52.2807 93.0898 51.7818C92.8361 51.2788 92.7094 50.4441 92.71 49.2777V43.9478H94.5542V49.2522C94.5542 50.2287 94.6945 50.9107 94.9751 51.2981C95.2557 51.6856 95.7467 51.8793 96.448 51.8793C97.3265 51.8793 98.073 51.4508 98.6875 50.594V43.9478H100.532V53.2551H98.6906Z" fill="#ECEDEF"/>
<path d="M102.45 58.0001V43.9478H105.68C107.333 43.9478 108.621 44.3592 109.541 45.182C110.461 46.0048 110.922 47.1547 110.923 48.6316C110.923 50.0276 110.49 51.1741 109.622 52.0712C108.755 52.9683 107.65 53.4168 106.308 53.4168C105.715 53.4168 105.057 53.2853 104.335 53.0222V58.0001H102.45ZM105.64 45.6672H104.335V51.3933C104.886 51.6798 105.498 51.829 106.118 51.8282C106.981 51.8282 107.688 51.5282 108.237 50.9283C108.786 50.3283 109.061 49.556 109.061 48.6115C109.073 48.0508 108.94 47.4966 108.673 47.0027C108.437 46.5596 108.065 46.2034 107.611 45.986C107.16 45.7739 106.503 45.6677 105.64 45.6672Z" fill="#ECEDEF"/>
</g>
<path d="M615.741 49.3042L615.94 48.8555L615.609 48.4935C615.05 47.8837 614.75 47.1806 614.75 46.4444C614.75 44.5742 616.805 42.75 619.778 42.75C622.75 42.75 624.806 44.5742 624.806 46.4444C624.806 48.3147 622.75 50.1389 619.778 50.1389C618.752 50.1389 617.806 49.906 617.015 49.5203L616.655 49.3447L616.309 49.5464C616.048 49.6981 615.744 49.844 615.401 49.953C615.521 49.7537 615.639 49.5352 615.741 49.3042ZM628.259 52.8589C628.361 53.0903 628.478 53.309 628.598 53.5083C628.256 53.3993 627.952 53.2535 627.691 53.1019L627.344 52.8997L626.984 53.0767C626.195 53.4638 625.25 53.6944 624.222 53.6944C622.728 53.6944 621.43 53.2154 620.53 52.4961C623.927 52.2093 626.835 50.0034 627.164 47.0105C628.483 47.7143 629.25 48.8414 629.25 50C629.25 50.7368 628.949 51.4421 628.392 52.048L628.06 52.4096L628.259 52.8589Z" stroke="#ECEDEF" stroke-width="1.5"/>
<g filter="url(#filter1_d_410_2590)">
<rect x="108" y="118" width="120" height="120" rx="5" fill="url(#paint1_linear_410_2590)" shape-rendering="crispEdges"/>
</g>
<g filter="url(#filter2_d_410_2590)">
<rect x="107" y="263" width="120" height="120" rx="5" fill="url(#paint2_linear_410_2590)"/>
</g>
<g filter="url(#filter3_d_410_2590)">
<rect x="287" y="118" width="120" height="120" rx="5" fill="url(#paint3_linear_410_2590)" shape-rendering="crispEdges"/>
</g>
<g filter="url(#filter4_d_410_2590)">
<rect x="466" y="118" width="120" height="120" rx="5" fill="url(#paint4_linear_410_2590)" shape-rendering="crispEdges"/>
</g>
<g filter="url(#filter5_d_410_2590)">
<rect x="286" y="263" width="120" height="120" rx="5" fill="url(#paint5_linear_410_2590)" shape-rendering="crispEdges"/>
</g>
<g filter="url(#filter6_d_410_2590)">
<rect x="465" y="263" width="120" height="120" rx="5" fill="url(#paint6_linear_410_2590)" shape-rendering="crispEdges"/>
</g>
<path d="M294.518 44.04H290.926V54H289.062V44.04H285.462V42.48H294.518V44.04ZM299.856 49C299.856 48.712 299.813 48.4453 299.728 48.2C299.648 47.9493 299.528 47.7333 299.368 47.552C299.208 47.3653 299.008 47.2213 298.768 47.12C298.533 47.0133 298.261 46.96 297.952 46.96C297.328 46.96 296.837 47.1387 296.48 47.496C296.122 47.8533 295.896 48.3547 295.8 49H299.856ZM295.752 50.056C295.773 50.52 295.845 50.9227 295.968 51.264C296.09 51.6 296.253 51.88 296.456 52.104C296.664 52.328 296.909 52.496 297.192 52.608C297.48 52.7147 297.8 52.768 298.152 52.768C298.488 52.768 298.778 52.7307 299.024 52.656C299.269 52.576 299.482 52.4907 299.664 52.4C299.845 52.304 300 52.2187 300.128 52.144C300.256 52.064 300.373 52.024 300.48 52.024C300.618 52.024 300.725 52.0773 300.8 52.184L301.288 52.816C301.085 53.056 300.856 53.2587 300.6 53.424C300.344 53.5893 300.072 53.7253 299.784 53.832C299.496 53.9333 299.2 54.0053 298.896 54.048C298.592 54.096 298.296 54.12 298.008 54.12C297.442 54.12 296.917 54.0267 296.432 53.84C295.952 53.648 295.533 53.368 295.176 53C294.824 52.632 294.546 52.176 294.344 51.632C294.146 51.088 294.048 50.4613 294.048 49.752C294.048 49.1867 294.136 48.6587 294.312 48.168C294.493 47.6773 294.749 47.2507 295.08 46.888C295.416 46.5253 295.821 46.24 296.296 46.032C296.776 45.8187 297.317 45.712 297.92 45.712C298.421 45.712 298.885 45.7947 299.312 45.96C299.738 46.12 300.106 46.3573 300.416 46.672C300.725 46.9867 300.965 47.3733 301.136 47.832C301.312 48.2853 301.4 48.8027 301.4 49.384C301.4 49.6507 301.37 49.8293 301.312 49.92C301.253 50.0107 301.146 50.056 300.992 50.056H295.752ZM308.004 50.432C307.39 50.4533 306.873 50.504 306.452 50.584C306.03 50.6587 305.689 50.7573 305.428 50.88C305.166 50.9973 304.977 51.1387 304.86 51.304C304.748 51.4693 304.692 51.6507 304.692 51.848C304.692 52.04 304.721 52.2053 304.78 52.344C304.844 52.4773 304.929 52.5893 305.036 52.68C305.148 52.7653 305.276 52.8293 305.42 52.872C305.569 52.9093 305.732 52.928 305.908 52.928C306.356 52.928 306.74 52.8453 307.06 52.68C307.385 52.5093 307.7 52.264 308.004 51.944V50.432ZM303.444 46.976C304.366 46.1173 305.465 45.688 306.74 45.688C307.209 45.688 307.625 45.7653 307.988 45.92C308.356 46.0693 308.662 46.2827 308.908 46.56C309.158 46.8373 309.348 47.168 309.476 47.552C309.609 47.9307 309.676 48.352 309.676 48.816V54H308.908C308.742 54 308.617 53.976 308.532 53.928C308.446 53.8747 308.374 53.7707 308.316 53.616L308.148 52.952C307.94 53.1387 307.734 53.3067 307.532 53.456C307.329 53.6 307.118 53.7227 306.9 53.824C306.686 53.9253 306.454 54 306.204 54.048C305.958 54.1013 305.686 54.128 305.388 54.128C305.057 54.128 304.748 54.0827 304.46 53.992C304.177 53.9013 303.932 53.7653 303.724 53.584C303.516 53.3973 303.35 53.168 303.228 52.896C303.11 52.624 303.052 52.304 303.052 51.936C303.052 51.6213 303.134 51.3147 303.3 51.016C303.47 50.7173 303.748 50.4507 304.132 50.216C304.521 49.976 305.03 49.7787 305.66 49.624C306.294 49.4693 307.076 49.3813 308.004 49.36V48.816C308.004 48.2293 307.878 47.792 307.628 47.504C307.377 47.216 307.009 47.072 306.524 47.072C306.193 47.072 305.916 47.1147 305.692 47.2C305.468 47.28 305.273 47.368 305.108 47.464C304.942 47.56 304.796 47.6507 304.668 47.736C304.54 47.816 304.404 47.856 304.26 47.856C304.142 47.856 304.041 47.8267 303.956 47.768C303.876 47.704 303.809 47.6267 303.756 47.536L303.444 46.976ZM312.33 54V45.84H313.37C313.605 45.84 313.754 45.9493 313.818 46.168L313.93 46.88C314.08 46.7093 314.234 46.5547 314.394 46.416C314.554 46.272 314.725 46.1493 314.906 46.048C315.093 45.9413 315.29 45.8587 315.498 45.8C315.712 45.7413 315.941 45.712 316.186 45.712C316.448 45.712 316.688 45.7493 316.906 45.824C317.125 45.8987 317.317 46.0053 317.482 46.144C317.653 46.2827 317.8 46.4507 317.922 46.648C318.045 46.8453 318.146 47.0667 318.226 47.312C318.349 47.0293 318.504 46.7867 318.69 46.584C318.877 46.3813 319.085 46.216 319.314 46.088C319.544 45.96 319.786 45.8667 320.042 45.808C320.304 45.744 320.568 45.712 320.834 45.712C321.272 45.712 321.661 45.7813 322.002 45.92C322.349 46.0587 322.64 46.2613 322.875 46.528C323.115 46.7893 323.296 47.112 323.418 47.496C323.541 47.88 323.602 48.3173 323.602 48.808V54H321.882V48.808C321.882 48.232 321.757 47.8 321.507 47.512C321.261 47.2187 320.896 47.072 320.41 47.072C320.192 47.072 319.986 47.1093 319.794 47.184C319.602 47.2587 319.434 47.368 319.29 47.512C319.146 47.656 319.032 47.8373 318.946 48.056C318.866 48.2693 318.826 48.52 318.826 48.808V54H317.106V48.808C317.106 48.2107 316.986 47.7733 316.746 47.496C316.506 47.2133 316.154 47.072 315.69 47.072C315.37 47.072 315.074 47.1547 314.802 47.32C314.53 47.48 314.28 47.7013 314.05 47.984V54H312.33ZM334.54 48C334.967 48 335.34 47.9493 335.66 47.848C335.98 47.7413 336.247 47.5947 336.46 47.408C336.673 47.2213 336.833 47 336.94 46.744C337.047 46.4827 337.1 46.1947 337.1 45.88C337.1 45.2507 336.892 44.7707 336.476 44.44C336.06 44.1093 335.431 43.944 334.588 43.944H333.068V48H334.54ZM339.964 54H338.292C337.961 54 337.721 53.872 337.572 53.616L334.884 49.736C334.793 49.6027 334.695 49.5067 334.588 49.448C334.481 49.3893 334.321 49.36 334.108 49.36H333.068V54H331.196V42.48H334.588C335.345 42.48 335.996 42.5573 336.54 42.712C337.089 42.8667 337.54 43.088 337.892 43.376C338.244 43.6587 338.503 44 338.668 44.4C338.839 44.8 338.924 45.2453 338.924 45.736C338.924 46.136 338.863 46.5093 338.74 46.856C338.623 47.2027 338.449 47.5173 338.22 47.8C337.996 48.0827 337.719 48.328 337.388 48.536C337.057 48.744 336.681 48.9067 336.26 49.024C336.489 49.1627 336.687 49.3573 336.852 49.608L339.964 54ZM344.669 45.712C345.272 45.712 345.816 45.8107 346.301 46.008C346.792 46.2053 347.208 46.4853 347.549 46.848C347.896 47.2107 348.162 47.6507 348.349 48.168C348.536 48.6853 348.629 49.2667 348.629 49.912C348.629 50.5573 348.536 51.1387 348.349 51.656C348.162 52.1733 347.896 52.616 347.549 52.984C347.208 53.3467 346.792 53.6267 346.301 53.824C345.816 54.0213 345.272 54.12 344.669 54.12C344.061 54.12 343.512 54.0213 343.021 53.824C342.536 53.6267 342.12 53.3467 341.773 52.984C341.426 52.616 341.16 52.1733 340.973 51.656C340.786 51.1387 340.693 50.5573 340.693 49.912C340.693 49.2667 340.786 48.6853 340.973 48.168C341.16 47.6507 341.426 47.2107 341.773 46.848C342.12 46.4853 342.536 46.2053 343.021 46.008C343.512 45.8107 344.061 45.712 344.669 45.712ZM344.669 52.776C345.405 52.776 345.952 52.5307 346.309 52.04C346.672 51.544 346.853 50.8373 346.853 49.92C346.853 49.0027 346.672 48.296 346.309 47.8C345.952 47.2987 345.405 47.048 344.669 47.048C343.922 47.048 343.368 47.2987 343.005 47.8C342.642 48.296 342.461 49.0027 342.461 49.92C342.461 50.8373 342.642 51.544 343.005 52.04C343.368 52.5307 343.922 52.776 344.669 52.776ZM354.45 45.712C355.052 45.712 355.596 45.8107 356.082 46.008C356.572 46.2053 356.988 46.4853 357.33 46.848C357.676 47.2107 357.943 47.6507 358.13 48.168C358.316 48.6853 358.41 49.2667 358.41 49.912C358.41 50.5573 358.316 51.1387 358.13 51.656C357.943 52.1733 357.676 52.616 357.33 52.984C356.988 53.3467 356.572 53.6267 356.082 53.824C355.596 54.0213 355.052 54.12 354.45 54.12C353.842 54.12 353.292 54.0213 352.802 53.824C352.316 53.6267 351.9 53.3467 351.554 52.984C351.207 52.616 350.94 52.1733 350.754 51.656C350.567 51.1387 350.474 50.5573 350.474 49.912C350.474 49.2667 350.567 48.6853 350.754 48.168C350.94 47.6507 351.207 47.2107 351.554 46.848C351.9 46.4853 352.316 46.2053 352.802 46.008C353.292 45.8107 353.842 45.712 354.45 45.712ZM354.45 52.776C355.186 52.776 355.732 52.5307 356.09 52.04C356.452 51.544 356.634 50.8373 356.634 49.92C356.634 49.0027 356.452 48.296 356.09 47.8C355.732 47.2987 355.186 47.048 354.45 47.048C353.703 47.048 353.148 47.2987 352.786 47.8C352.423 48.296 352.242 49.0027 352.242 49.92C352.242 50.8373 352.423 51.544 352.786 52.04C353.148 52.5307 353.703 52.776 354.45 52.776ZM360.702 54V45.84H361.742C361.977 45.84 362.126 45.9493 362.19 46.168L362.302 46.88C362.452 46.7093 362.606 46.5547 362.766 46.416C362.926 46.272 363.097 46.1493 363.278 46.048C363.465 45.9413 363.662 45.8587 363.87 45.8C364.084 45.7413 364.313 45.712 364.558 45.712C364.82 45.712 365.06 45.7493 365.278 45.824C365.497 45.8987 365.689 46.0053 365.854 46.144C366.025 46.2827 366.172 46.4507 366.294 46.648C366.417 46.8453 366.518 47.0667 366.598 47.312C366.721 47.0293 366.876 46.7867 367.062 46.584C367.249 46.3813 367.457 46.216 367.686 46.088C367.916 45.96 368.158 45.8667 368.414 45.808C368.676 45.744 368.94 45.712 369.206 45.712C369.644 45.712 370.033 45.7813 370.374 45.92C370.721 46.0587 371.012 46.2613 371.246 46.528C371.486 46.7893 371.668 47.112 371.79 47.496C371.913 47.88 371.974 48.3173 371.974 48.808V54H370.254V48.808C370.254 48.232 370.129 47.8 369.878 47.512C369.633 47.2187 369.268 47.072 368.782 47.072C368.564 47.072 368.358 47.1093 368.166 47.184C367.974 47.2587 367.806 47.368 367.662 47.512C367.518 47.656 367.404 47.8373 367.318 48.056C367.238 48.2693 367.198 48.52 367.198 48.808V54H365.478V48.808C365.478 48.2107 365.358 47.7733 365.118 47.496C364.878 47.2133 364.526 47.072 364.062 47.072C363.742 47.072 363.446 47.1547 363.174 47.32C362.902 47.48 362.652 47.7013 362.422 47.984V54H360.702ZM382.416 48.24C382.416 49.248 382.306 50.12 382.088 50.856C381.874 51.592 381.578 52.2027 381.2 52.688C380.821 53.1733 380.376 53.5333 379.864 53.768C379.352 54.0027 378.8 54.12 378.208 54.12C377.616 54.12 377.064 54.0027 376.552 53.768C376.04 53.5333 375.594 53.1733 375.216 52.688C374.842 52.2027 374.549 51.592 374.336 50.856C374.122 50.12 374.016 49.248 374.016 48.24C374.016 47.232 374.122 46.36 374.336 45.624C374.549 44.8827 374.842 44.272 375.216 43.792C375.594 43.3067 376.04 42.9467 376.552 42.712C377.064 42.472 377.616 42.352 378.208 42.352C378.8 42.352 379.352 42.472 379.864 42.712C380.376 42.9467 380.821 43.3067 381.2 43.792C381.578 44.272 381.874 44.8827 382.088 45.624C382.306 46.36 382.416 47.232 382.416 48.24ZM380.64 48.24C380.64 47.3867 380.57 46.6773 380.432 46.112C380.298 45.5413 380.12 45.0853 379.896 44.744C379.672 44.4027 379.413 44.16 379.12 44.016C378.826 43.872 378.522 43.8 378.208 43.8C377.888 43.8 377.581 43.872 377.288 44.016C377 44.16 376.744 44.4027 376.52 44.744C376.296 45.0853 376.117 45.5413 375.984 46.112C375.85 46.6773 375.784 47.3867 375.784 48.24C375.784 49.0933 375.85 49.8053 375.984 50.376C376.117 50.9413 376.296 51.3947 376.52 51.736C376.744 52.0773 377 52.32 377.288 52.464C377.581 52.608 377.888 52.68 378.208 52.68C378.522 52.68 378.826 52.608 379.12 52.464C379.413 52.32 379.672 52.0773 379.896 51.736C380.12 51.3947 380.298 50.9413 380.432 50.376C380.57 49.8053 380.64 49.0933 380.64 48.24ZM384.441 45.648C384.521 45.104 384.67 44.6267 384.889 44.216C385.113 43.8053 385.393 43.464 385.729 43.192C386.065 42.9147 386.449 42.7067 386.881 42.568C387.318 42.424 387.79 42.352 388.297 42.352C388.809 42.352 389.273 42.4267 389.689 42.576C390.11 42.72 390.47 42.9227 390.769 43.184C391.073 43.4453 391.305 43.7573 391.465 44.12C391.63 44.4827 391.713 44.88 391.713 45.312C391.713 45.68 391.668 46.0053 391.577 46.288C391.492 46.5653 391.366 46.8107 391.201 47.024C391.041 47.2373 390.844 47.416 390.609 47.56C390.374 47.704 390.11 47.824 389.817 47.92C390.532 48.128 391.068 48.4613 391.425 48.92C391.782 49.3733 391.961 49.944 391.961 50.632C391.961 51.1867 391.857 51.68 391.649 52.112C391.441 52.544 391.158 52.9093 390.801 53.208C390.449 53.5067 390.036 53.736 389.561 53.896C389.092 54.0507 388.593 54.128 388.065 54.128C387.473 54.128 386.961 54.0587 386.529 53.92C386.097 53.776 385.724 53.5733 385.409 53.312C385.1 53.0453 384.841 52.7253 384.633 52.352C384.425 51.9787 384.249 51.56 384.105 51.096L384.849 50.784C385.046 50.6987 385.233 50.6747 385.409 50.712C385.59 50.7493 385.721 50.848 385.801 51.008C385.886 51.1787 385.982 51.3627 386.089 51.56C386.196 51.752 386.332 51.9307 386.497 52.096C386.668 52.256 386.876 52.392 387.121 52.504C387.372 52.6107 387.678 52.664 388.041 52.664C388.409 52.664 388.729 52.6053 389.001 52.488C389.278 52.3653 389.508 52.2107 389.689 52.024C389.876 51.832 390.014 51.6187 390.105 51.384C390.196 51.1493 390.241 50.9173 390.241 50.688C390.241 50.4 390.206 50.136 390.137 49.896C390.068 49.6507 389.932 49.4427 389.729 49.272C389.532 49.1013 389.249 48.968 388.881 48.872C388.518 48.7707 388.041 48.72 387.449 48.72V47.48C387.934 47.4747 388.342 47.4267 388.673 47.336C389.009 47.24 389.276 47.112 389.473 46.952C389.676 46.7867 389.82 46.5893 389.905 46.36C389.996 46.1307 390.041 45.88 390.041 45.608C390.041 45.3147 389.996 45.056 389.905 44.832C389.814 44.608 389.686 44.4213 389.521 44.272C389.361 44.1173 389.169 44.0027 388.945 43.928C388.721 43.8533 388.473 43.816 388.201 43.816C387.94 43.816 387.697 43.8533 387.473 43.928C387.254 44.0027 387.057 44.1067 386.881 44.24C386.71 44.3733 386.566 44.5333 386.449 44.72C386.332 44.9013 386.246 45.1013 386.193 45.32C386.118 45.5387 386.017 45.6853 385.889 45.76C385.766 45.8347 385.585 45.8507 385.345 45.808L384.441 45.648Z" fill="#363B3F"/>
<path d="M329.828 58.08H392.777V58.848H329.828V58.08Z" fill="#363B3F"/>
<path d="M144.456 172.85C144.288 172.696 144.05 172.514 143.784 172.318C144.05 172.08 144.288 171.814 144.484 171.548L143.406 171.226C143.266 171.408 143.098 171.59 142.916 171.758C142.636 171.59 142.356 171.436 142.104 171.31L141.334 171.954C141.572 172.08 141.824 172.22 142.076 172.374C141.726 172.598 141.362 172.78 140.984 172.934C141.25 173.116 141.684 173.494 141.866 173.69C142.23 173.494 142.608 173.256 142.986 172.99C143.252 173.2 143.476 173.396 143.644 173.564L144.456 172.85ZM145.618 177.876L145.268 177.96H139.318V179.122H143.826C143.546 179.332 143.238 179.528 142.944 179.696H142.118V180.34H136.84V181.642H142.118V182.608C142.118 182.79 142.048 182.832 141.824 182.846C141.6 182.846 140.774 182.846 140.088 182.818C140.298 183.21 140.536 183.784 140.62 184.218C141.67 184.218 142.44 184.218 143 183.994C143.588 183.784 143.742 183.434 143.742 182.664V181.642H149.034V180.34H144.12C144.974 179.85 145.842 179.276 146.542 178.716L145.618 177.876ZM147.998 176.154C148.138 174.852 148.25 173.074 148.32 171.59H144.792V172.64H146.696L146.668 173.116H144.848V174.152H146.598L146.57 174.628H144.806V175.664H146.472L146.43 176.154H139.444L139.416 175.664H141.166V175.538C141.418 175.72 141.712 175.986 141.866 176.14C142.244 175.93 142.65 175.678 143.042 175.384C143.336 175.608 143.588 175.818 143.756 176L144.596 175.3C144.4 175.118 144.134 174.908 143.84 174.698C144.12 174.446 144.358 174.166 144.554 173.886L143.476 173.564C143.336 173.76 143.154 173.956 142.958 174.138C142.678 173.97 142.398 173.816 142.146 173.69L141.376 174.32C141.614 174.46 141.88 174.614 142.132 174.768C141.824 174.964 141.502 175.146 141.166 175.314V174.628H139.36L139.332 174.152H141.124V173.116H139.276L139.262 172.794C139.906 172.626 140.648 172.388 141.236 172.108L140.466 171.212C139.976 171.422 139.22 171.73 138.562 171.94L137.652 171.758L137.918 176.154H136.84V179.024H138.422V177.358H147.41V179.024H149.062V176.154H147.998ZM156.468 174.894C155.124 175.356 153.752 175.832 152.842 176.112L153.416 177.47C154.41 177.064 155.6 176.574 156.72 176.084L156.468 174.894ZM162.362 180.424H156.37V179.612H162.362V180.424ZM156.37 182.482V181.67H162.362V182.482H156.37ZM158.708 177.12C158.792 176.938 158.82 176.7 158.82 176.392V171.758H153.206V173.046H154.27L153.57 173.886C154.2 174.222 154.984 174.768 155.334 175.16L156.174 174.096C155.838 173.774 155.18 173.354 154.62 173.046H157.322V176.378C157.322 176.518 157.266 176.574 157.112 176.574C156.958 176.574 156.412 176.574 155.936 176.56C156.104 176.882 156.3 177.372 156.356 177.736C157.21 177.736 157.826 177.736 158.26 177.554L158.302 177.54C158.218 177.792 158.12 178.086 158.008 178.352H154.718V184.246H156.37V183.742H162.362V184.246H164.098V178.352H159.66C159.842 178.044 160.038 177.694 160.206 177.33L158.708 177.12ZM165.148 171.758H159.576V173.046H160.486L159.814 173.872C160.416 174.194 161.186 174.698 161.578 175.09C160.668 175.398 159.814 175.664 159.17 175.86L159.73 177.106C160.766 176.728 162.054 176.252 163.258 175.79L163.006 174.6C162.572 174.754 162.138 174.894 161.718 175.048L162.474 174.04C162.138 173.746 161.494 173.34 160.92 173.046H163.594V176.336C163.594 176.49 163.538 176.532 163.356 176.546C163.188 176.546 162.572 176.546 162.04 176.518C162.222 176.868 162.418 177.386 162.488 177.778C163.398 177.792 164.07 177.778 164.532 177.568C165.008 177.358 165.148 177.022 165.148 176.35V171.758ZM174.346 171.576H169.908V172.836H174.346V171.576ZM174.878 173.452H169.152V174.768H174.878V173.452ZM172.82 180.564V182.174H171.224V180.564H172.82ZM174.276 179.248H169.782V184.022H171.224V183.476H174.276V179.248ZM169.824 178.562H174.318V177.316H169.824V178.562ZM169.824 176.672H174.318V175.398H169.824V176.672ZM182.354 175.818H179.428V171.198H177.748V175.818H174.822V177.47H177.748V184.218H179.428V177.47H182.354V175.818ZM185.728 183.84H198.44V182.748H185.728V183.84ZM195.276 180.214H192.784V179.724H195.276V180.214ZM195.276 181.502H192.784V180.984H195.276V181.502ZM188.948 180.984H191.258V181.502H188.948V180.984ZM188.948 179.724H191.258V180.214H188.948V179.724ZM187.31 178.926V182.3H196.97V178.926H187.31ZM192.826 174.208H195.29V174.712H192.826V174.208ZM192.826 172.85H195.29V173.312H192.826V172.85ZM192.826 177.442V176.952H197.502V176.07H192.826V175.58H196.956V174.208H198.356V173.312H196.956V171.968H192.826V171.142H191.146V171.968H187.24V172.85H191.146V173.312H185.784V174.208H191.146V174.712H187.17V175.58H191.146V176.07H186.736V176.952H191.146V177.442H185.742V178.464H198.454V177.442H192.826Z" fill="#363B3F"/>
<path d="M337.162 172.752H342.958V173.494H344.498V171.576H335.706V173.494H337.162V172.752ZM337.778 178.464V177.918H339.206V178.464H337.778ZM337.778 176.406H339.206V176.952H337.778V176.406ZM342.314 176.406V176.952H340.83V176.406H342.314ZM342.314 178.464H340.83V177.918H342.314V178.464ZM339.206 182.118H340.83V181.194H344.638V179.99H340.83V179.472H343.798V175.37H340.83V174.88H344.036V173.732H340.83V173.004H339.206V173.732H336.098V174.88H339.206V175.37H336.364V179.472H339.206V179.99H335.58V181.194H339.206V182.118ZM335.412 173.718C334.964 173.046 333.998 172.122 333.214 171.492L331.94 172.444C332.724 173.116 333.648 174.082 334.04 174.768L335.412 173.718ZM335.034 176.574H331.884V178.1H333.452V181.152C332.892 181.628 332.262 182.09 331.716 182.44L332.5 184.092C333.214 183.49 333.788 182.958 334.348 182.412C335.188 183.49 336.308 183.896 337.974 183.966C339.682 184.036 342.65 184.008 344.386 183.924C344.47 183.462 344.708 182.692 344.904 182.3C342.972 182.454 339.668 182.496 337.988 182.426C336.56 182.37 335.58 181.978 335.034 181.04V176.574ZM352.506 181.32H355.04V180.144H352.506V179.598H354.984V175.272H352.506V174.726H355.194V175.818H356.468C356.37 178.324 356.034 180.326 354.942 181.838C354.13 181.908 353.304 181.978 352.506 182.034V181.32ZM349.902 178.562V177.932H350.994V178.562H349.902ZM353.598 177.932V178.562H352.506V177.932H353.598ZM352.506 176.938V176.322H353.598V176.938H352.506ZM349.902 176.322H350.994V176.938H349.902V176.322ZM358.092 174.292C358.12 173.368 358.12 172.388 358.12 171.366H356.524C356.524 172.402 356.524 173.368 356.51 174.292H355.194V173.522H352.506V172.836C353.416 172.738 354.284 172.612 355.026 172.458L354.298 171.212C352.758 171.548 350.336 171.786 348.264 171.898C348.418 172.22 348.572 172.738 348.628 173.074C349.384 173.06 350.182 173.018 350.994 172.962V173.522H348.236V174.726H350.994V175.272H348.586V179.598H350.994V180.144H348.53V181.32H350.994V182.16C349.916 182.23 348.936 182.3 348.152 182.356L348.348 183.756C349.86 183.63 351.876 183.42 353.892 183.21C354.256 183.518 354.662 183.98 354.872 184.316C357.224 182.454 357.868 179.57 358.05 175.818H359.31C359.226 180.34 359.086 182.048 358.792 182.426C358.666 182.608 358.526 182.664 358.316 182.664C358.05 182.664 357.518 182.65 356.902 182.594C357.182 183.056 357.364 183.728 357.392 184.19C358.064 184.204 358.708 184.218 359.128 184.134C359.59 184.036 359.912 183.896 360.234 183.434C360.682 182.79 360.794 180.76 360.92 175.034C360.92 174.838 360.934 174.292 360.934 174.292H358.092Z" fill="#363B3F"/>
<path d="M515.816 176.182H513.31V174.81H515.83C515.676 175.02 515.494 175.202 515.312 175.37C515.704 175.608 516.376 176.14 516.67 176.434C517.202 175.874 517.692 175.16 518.098 174.334H523.096V172.822H518.742C518.896 172.374 519.036 171.912 519.148 171.45L517.51 171.142C517.244 172.304 516.796 173.424 516.194 174.32V173.27H514.122V171.142H512.526V173.27H510.426V174.81H511.854V176.966C511.854 178.828 511.658 181.208 510.118 183.238C510.524 183.504 511.056 183.924 511.35 184.26C512.904 182.23 513.254 179.822 513.296 177.68H514.304C514.248 181.054 514.178 182.244 513.982 182.538C513.884 182.706 513.758 182.748 513.59 182.748C513.366 182.748 513.002 182.734 512.568 182.692C512.792 183.098 512.946 183.728 512.974 184.176C513.534 184.19 514.08 184.176 514.416 184.12C514.794 184.05 515.06 183.91 515.326 183.532C515.676 183.014 515.746 181.348 515.816 176.826V176.182ZM522.312 176.924C521.948 177.372 521.416 177.904 520.884 178.366C520.758 177.848 520.646 177.302 520.562 176.756C521.416 176.308 522.2 175.832 522.774 175.356L521.584 174.488C520.338 175.454 517.832 176.476 515.858 176.868C516.208 177.232 516.614 177.848 516.838 178.254L517.132 178.17V184.204H518.714V177.596C518.882 177.526 519.036 177.456 519.204 177.386C519.708 180.396 520.562 182.832 522.41 184.176C522.662 183.728 523.166 183.084 523.544 182.776C522.536 182.132 521.822 181.068 521.332 179.766C522.018 179.262 522.83 178.604 523.488 177.988L522.312 176.924ZM539.252 171.94H532.448V173.522H539.252V171.94ZM529.76 171.142C529.088 172.122 527.758 173.382 526.596 174.124C526.89 174.446 527.31 175.118 527.52 175.482C528.85 174.558 530.362 173.116 531.37 171.8L529.76 171.142ZM530.292 174.166C529.396 175.748 527.87 177.372 526.442 178.352C526.778 178.702 527.338 179.458 527.576 179.794C527.954 179.486 528.332 179.136 528.724 178.758V184.232H530.39V176.924C530.95 176.224 531.468 175.496 531.888 174.782L530.292 174.166ZM539.602 175.79H531.86V177.372H535.99V182.244C535.99 182.454 535.892 182.51 535.64 182.51C535.388 182.524 534.464 182.524 533.666 182.482C533.89 182.972 534.1 183.686 534.17 184.176C535.416 184.176 536.312 184.148 536.9 183.896C537.516 183.644 537.684 183.182 537.684 182.286V177.372H539.602V175.79Z" fill="#363B3F"/>
<path d="M138.5 324.094H137.394V318.956H138.5V324.094ZM143.19 327.37C142.616 327.37 142.266 327.23 142.266 326.88C142.266 326.432 142.63 325.746 147.544 321.952C147.642 321.854 147.726 321.756 147.782 321.672L146.662 321.042L146.284 321.084H141.524C141.86 320.65 142.196 320.188 142.49 319.656H148.202V318.102H143.274C143.498 317.584 143.708 317.066 143.876 316.534L142.224 316.128C141.762 317.682 140.978 319.208 139.998 320.258V317.36H135.868V326.838H137.394V325.718H139.998V320.72C140.376 321 140.824 321.406 141.062 321.63C141.202 321.476 141.342 321.308 141.482 321.14V322.624H144.142C140.726 325.536 140.544 326.348 140.544 327.118C140.544 328.252 141.384 328.994 143.246 328.994H146.214C147.768 328.994 148.412 328.49 148.594 325.956C148.09 325.858 147.558 325.662 147.11 325.41C147.054 327.146 146.844 327.37 146.312 327.37H143.19ZM162.594 320.762C163.938 320.762 164.414 320.384 164.568 318.942C164.162 318.886 163.49 318.662 163.168 318.438C163.112 319.264 163 319.418 162.44 319.418H160.186C159.43 319.418 159.304 319.348 159.304 318.928V318.634C160.858 318.424 162.566 318.074 163.868 317.612L162.664 316.52C161.838 316.856 160.578 317.164 159.304 317.402V316.24H157.694V318.928C157.694 320.342 158.156 320.762 160.018 320.762H162.594ZM154.306 320.832H155.902V317.864C156.35 317.458 156.756 317.038 157.092 316.604L155.58 316.03C154.684 317.164 153.13 318.2 151.618 318.858C151.968 319.11 152.528 319.726 152.794 320.048C153.284 319.782 153.802 319.474 154.306 319.124V320.832ZM155.342 325.256H161.404V325.872H155.342V325.256ZM155.342 323.716H161.404V324.318H155.342V323.716ZM155.342 322.176H161.404V322.778H155.342V322.176ZM163.098 326.866V321.182H153.732V326.866H155.79C154.824 327.342 153.298 327.79 151.94 328.042C152.29 328.336 152.878 328.938 153.172 329.26C154.586 328.868 156.378 328.182 157.54 327.426L156.266 326.866H160.354L159.094 327.594C160.508 328.126 161.936 328.784 162.734 329.246L164.666 328.504C163.714 328.042 162.104 327.37 160.676 326.866H163.098ZM171.386 320.944H172.8V319.362H171.386V316.324H169.832V319.362H168.194V320.944H169.832V324.892C169.132 325.158 168.516 325.396 168.012 325.578L168.684 327.258C169.972 326.67 171.568 325.914 173.052 325.172L172.674 323.702C172.254 323.884 171.82 324.066 171.386 324.248V320.944ZM176.16 327.468C175.306 327.468 175.18 327.342 175.18 326.53V322.204L176.342 321.7V325.97H177.896V321.028L179.1 320.496C179.1 322.484 179.086 323.506 179.058 323.73C179.002 323.982 178.918 324.038 178.75 324.038C178.624 324.038 178.316 324.038 178.078 324.01C178.26 324.36 178.386 324.976 178.428 325.41C178.876 325.41 179.478 325.396 179.884 325.214C180.304 325.032 180.556 324.696 180.598 324.052C180.668 323.478 180.696 321.798 180.696 319.138L180.752 318.858L179.59 318.452L179.296 318.648L179.002 318.844L177.896 319.32V316.128H176.342V319.992L175.18 320.482V317.486H173.584V321.168L172.212 321.742L172.828 323.226L173.584 322.904V326.502C173.584 328.434 174.13 328.952 176.02 328.952H179.002C180.64 328.952 181.13 328.28 181.354 326.32C180.892 326.236 180.248 325.97 179.898 325.718C179.772 327.146 179.632 327.468 178.862 327.468H176.16ZM190.496 324.416H191.504V324.864H190.496V324.416ZM189.614 325.564H192.456V323.702H189.614V325.564ZM189.04 323.296H192.988V325.97H189.04V323.296ZM187.766 326.894H194.332V322.386H187.766V326.894ZM189.572 319.264H192.442V319.824H189.572V319.264ZM191.714 321.07V320.65H193.842V318.424H188.256V320.65H190.314V321.07H187.122V321.98H195.046V321.07H191.714ZM186.646 327.356V317.976H195.466V327.356H186.646ZM185.106 316.604V329.204H186.646V328.714H195.466V329.204H197.09V316.604H185.106Z" fill="#363B3F"/>
<path d="M331.576 318.27H329.042V319.236H336.028V318.284H333.2V317.794H336.392V316.772H333.2V316.156H331.576V316.772H328.566V317.794H331.576V318.27ZM331.114 320.454C331.002 320.762 330.708 320.902 329.924 320.958V320.454H331.114ZM334.964 320.79C334.936 320.818 334.866 320.832 334.726 320.832H333.998C333.774 320.832 333.746 320.804 333.746 320.552V320.454H334.964V320.79ZM329.924 321.77V321.028C330.064 321.196 330.218 321.448 330.26 321.63C331.548 321.504 331.968 321.126 332.08 320.454H332.724V320.538C332.724 321.252 332.934 321.434 333.844 321.434H334.88H334.964V321.77H329.924ZM328.622 322.596H336.336V319.642H328.622V322.596ZM327.824 316.576H324.24V317.836H327.824V316.576ZM328.202 318.452H323.582V319.768H328.202V318.452ZM327.866 320.398H324.156V321.672H327.866V320.398ZM324.156 323.562H327.866V322.316H324.156V323.562ZM326.508 325.55V327.16H325.402V325.55H326.508ZM327.838 324.248H324.114V329.022H325.402V328.462H327.838V324.248ZM330.554 325.858H334.418V326.292H330.554V325.858ZM330.554 324.822H334.418V325.256H330.554V324.822ZM330.554 323.8H334.418V324.22H330.554V323.8ZM335.958 327.146V322.946H329.084V327.146H330.428C329.77 327.566 328.762 328.014 327.866 328.238C328.188 328.504 328.65 328.924 328.902 329.204C329.938 328.924 331.212 328.322 331.982 327.734L331.03 327.146H333.592L332.836 327.762C333.76 328.21 334.838 328.812 335.426 329.19L336.812 328.336C336.224 328 335.272 327.552 334.376 327.146H335.958ZM349.566 325.774V326.278H343.574V325.774H349.566ZM343.574 327.79V327.244H349.566V327.79H343.574ZM341.964 329.26H343.574V328.84H349.566V329.246H351.246V324.71H341.964V329.26ZM347.27 319.614H349.524V320.146H347.27V319.614ZM347.27 317.948H349.524V318.466H347.27V317.948ZM351.176 321.112V319.614H352.772V318.466H351.176V316.982H347.27V316.1H345.604V316.982H341.656V317.948H345.604V318.466H340.228V319.614H345.604V320.146H341.502V321.112H345.604V321.602H341.194V322.61H345.604V323.114H340.214V324.276H352.772V323.114H347.27V322.61H351.75V321.602H347.27V321.112H351.176ZM365.33 325.536V326.082H360.444V325.536H365.33ZM360.444 327.748V327.188H365.33V327.748H360.444ZM358.806 329.218H360.444V328.84H365.33V329.176H367.038V324.444H358.806V329.218ZM358.372 320.188C359.086 319.88 359.786 319.53 360.43 319.152V319.684H365.344V319.208C366.002 319.572 366.702 319.908 367.374 320.188H358.372ZM366.31 322.974H365.12C365.344 322.582 365.61 322.036 365.89 321.476L364.798 321.21H366.31V322.974ZM359.422 322.974V321.21H360.99L359.912 321.518C360.136 321.966 360.318 322.54 360.388 322.974H359.422ZM362.138 322.974H360.724L361.62 322.708C361.536 322.288 361.312 321.686 361.06 321.21H362.138V322.974ZM364.504 321.21C364.378 321.672 364.14 322.316 363.944 322.75L364.77 322.974H363.482V321.21H364.504ZM361.312 318.606C361.9 318.214 362.404 317.822 362.796 317.43C363.216 317.822 363.748 318.228 364.35 318.606H361.312ZM361.956 316.142C360.808 317.388 358.512 318.704 356.23 319.376C356.538 319.712 356.902 320.314 357.098 320.678C357.406 320.566 357.728 320.454 358.036 320.328V323.996H367.766V320.342C368.032 320.454 368.312 320.552 368.564 320.636C368.816 320.216 369.166 319.628 369.516 319.25C367.36 318.718 365.106 317.612 363.524 316.142H361.956Z" fill="#363B3F"/>
<g filter="url(#filter7_dd_410_2590)">
<path d="M571.75 205.438V208.812C571.75 208.921 571.737 209.029 571.713 209.135L570.588 213.916C570.438 214.551 569.871 215 569.219 215H561.906C561.684 215 561.466 214.948 561.268 214.847C561.07 214.746 560.899 214.6 560.769 214.421L556.269 208.233C555.812 207.605 555.951 206.726 556.579 206.269C557.207 205.812 558.087 205.951 558.544 206.579L559.656 208.109V198.406C559.656 197.63 560.286 197 561.063 197C561.839 197 562.469 197.63 562.469 198.406V205.438H562.75V204.031C562.75 203.255 563.38 202.625 564.156 202.625C564.933 202.625 565.563 203.255 565.563 204.031V205.438H565.844V204.594C565.844 203.817 566.473 203.188 567.25 203.188C568.027 203.188 568.656 203.817 568.656 204.594V205.438H568.938C568.938 204.661 569.567 204.031 570.344 204.031C571.12 204.031 571.75 204.661 571.75 205.438ZM562.75 208.25H562.469V211.625H562.75V208.25ZM565.844 208.25H565.563V211.625H565.844V208.25ZM568.938 208.25H568.656V211.625H568.938V208.25Z" fill="white"/>
</g>
<path d="M58.43 85H57.53V81.67H53.87V85H52.97V77.86H53.87V80.88H57.53V77.86H58.43V85ZM66.6221 82.31C66.6221 83.1967 66.3954 83.8833 65.9421 84.37C65.4954 84.8567 64.8888 85.1 64.1221 85.1C63.6488 85.1 63.2254 84.9933 62.8521 84.78C62.4854 84.56 62.1954 84.2433 61.9821 83.83C61.7688 83.41 61.6621 82.9033 61.6621 82.31C61.6621 81.4233 61.8854 80.74 62.3321 80.26C62.7788 79.78 63.3854 79.54 64.1521 79.54C64.6388 79.54 65.0654 79.65 65.4321 79.87C65.8054 80.0833 66.0954 80.3967 66.3021 80.81C66.5154 81.2167 66.6221 81.7167 66.6221 82.31ZM62.5721 82.31C62.5721 82.9433 62.6954 83.4467 62.9421 83.82C63.1954 84.1867 63.5954 84.37 64.1421 84.37C64.6821 84.37 65.0788 84.1867 65.3321 83.82C65.5854 83.4467 65.7121 82.9433 65.7121 82.31C65.7121 81.6767 65.5854 81.18 65.3321 80.82C65.0788 80.46 64.6788 80.28 64.1321 80.28C63.5854 80.28 63.1888 80.46 62.9421 80.82C62.6954 81.18 62.5721 81.6767 62.5721 82.31ZM75.5968 79.54C76.2035 79.54 76.6568 79.6967 76.9568 80.01C77.2568 80.3167 77.4068 80.8167 77.4068 81.51V85H76.5368V81.55C76.5368 80.7033 76.1735 80.28 75.4468 80.28C74.9268 80.28 74.5535 80.43 74.3268 80.73C74.1068 81.03 73.9968 81.4667 73.9968 82.04V85H73.1268V81.55C73.1268 80.7033 72.7601 80.28 72.0268 80.28C71.4868 80.28 71.1135 80.4467 70.9068 80.78C70.7001 81.1133 70.5968 81.5933 70.5968 82.22V85H69.7168V79.64H70.4268L70.5568 80.37H70.6068C70.7735 80.09 70.9968 79.8833 71.2768 79.75C71.5635 79.61 71.8668 79.54 72.1868 79.54C73.0268 79.54 73.5735 79.84 73.8268 80.44H73.8768C74.0568 80.1333 74.3001 79.9067 74.6068 79.76C74.9201 79.6133 75.2501 79.54 75.5968 79.54ZM82.8325 79.54C83.2925 79.54 83.6858 79.64 84.0125 79.84C84.3458 80.04 84.5992 80.3233 84.7725 80.69C84.9525 81.05 85.0425 81.4733 85.0425 81.96V82.49H81.3725C81.3858 83.0967 81.5392 83.56 81.8325 83.88C82.1325 84.1933 82.5492 84.35 83.0825 84.35C83.4225 84.35 83.7225 84.32 83.9825 84.26C84.2492 84.1933 84.5225 84.1 84.8025 83.98V84.75C84.5292 84.87 84.2592 84.9567 83.9925 85.01C83.7258 85.07 83.4092 85.1 83.0425 85.1C82.5358 85.1 82.0858 84.9967 81.6925 84.79C81.3058 84.5833 81.0025 84.2767 80.7825 83.87C80.5692 83.4567 80.4625 82.9533 80.4625 82.36C80.4625 81.7733 80.5592 81.27 80.7525 80.85C80.9525 80.43 81.2292 80.1067 81.5825 79.88C81.9425 79.6533 82.3592 79.54 82.8325 79.54ZM82.8225 80.26C82.4025 80.26 82.0692 80.3967 81.8225 80.67C81.5825 80.9367 81.4392 81.31 81.3925 81.79H84.1225C84.1158 81.3367 84.0092 80.97 83.8025 80.69C83.5958 80.4033 83.2692 80.26 82.8225 80.26ZM92.0547 83.06L95.8247 81.49L92.0547 79.7V78.92L96.7647 81.27V81.77L92.0547 83.84V83.06ZM106.505 85H105.605V78.65H103.375V77.86H108.725V78.65H106.505V85ZM112.749 79.54C113.209 79.54 113.602 79.64 113.929 79.84C114.262 80.04 114.515 80.3233 114.689 80.69C114.869 81.05 114.959 81.4733 114.959 81.96V82.49H111.289C111.302 83.0967 111.455 83.56 111.749 83.88C112.049 84.1933 112.465 84.35 112.999 84.35C113.339 84.35 113.639 84.32 113.899 84.26C114.165 84.1933 114.439 84.1 114.719 83.98V84.75C114.445 84.87 114.175 84.9567 113.909 85.01C113.642 85.07 113.325 85.1 112.959 85.1C112.452 85.1 112.002 84.9967 111.609 84.79C111.222 84.5833 110.919 84.2767 110.699 83.87C110.485 83.4567 110.379 82.9533 110.379 82.36C110.379 81.7733 110.475 81.27 110.669 80.85C110.869 80.43 111.145 80.1067 111.499 79.88C111.859 79.6533 112.275 79.54 112.749 79.54ZM112.739 80.26C112.319 80.26 111.985 80.3967 111.739 80.67C111.499 80.9367 111.355 81.31 111.309 81.79H114.039C114.032 81.3367 113.925 80.97 113.719 80.69C113.512 80.4033 113.185 80.26 112.739 80.26ZM120.053 79.55C120.706 79.55 121.19 79.6933 121.503 79.98C121.816 80.2667 121.973 80.7233 121.973 81.35V85H121.333L121.163 84.24H121.123C120.89 84.5333 120.643 84.75 120.383 84.89C120.13 85.03 119.776 85.1 119.323 85.1C118.836 85.1 118.433 84.9733 118.113 84.72C117.793 84.46 117.633 84.0567 117.633 83.51C117.633 82.9767 117.843 82.5667 118.263 82.28C118.683 81.9867 119.33 81.8267 120.203 81.8L121.113 81.77V81.45C121.113 81.0033 121.016 80.6933 120.823 80.52C120.63 80.3467 120.356 80.26 120.003 80.26C119.723 80.26 119.456 80.3033 119.203 80.39C118.95 80.47 118.713 80.5633 118.493 80.67L118.223 80.01C118.456 79.8833 118.733 79.7767 119.053 79.69C119.373 79.5967 119.706 79.55 120.053 79.55ZM120.313 82.41C119.646 82.4367 119.183 82.5433 118.923 82.73C118.67 82.9167 118.543 83.18 118.543 83.52C118.543 83.82 118.633 84.04 118.813 84.18C119 84.32 119.236 84.39 119.523 84.39C119.976 84.39 120.353 84.2667 120.653 84.02C120.953 83.7667 121.103 83.38 121.103 82.86V82.38L120.313 82.41ZM131.209 79.54C131.815 79.54 132.269 79.6967 132.569 80.01C132.869 80.3167 133.019 80.8167 133.019 81.51V85H132.149V81.55C132.149 80.7033 131.785 80.28 131.059 80.28C130.539 80.28 130.165 80.43 129.939 80.73C129.719 81.03 129.609 81.4667 129.609 82.04V85H128.739V81.55C128.739 80.7033 128.372 80.28 127.639 80.28C127.099 80.28 126.725 80.4467 126.519 80.78C126.312 81.1133 126.209 81.5933 126.209 82.22V85H125.329V79.64H126.039L126.169 80.37H126.219C126.385 80.09 126.609 79.8833 126.889 79.75C127.175 79.61 127.479 79.54 127.799 79.54C128.639 79.54 129.185 79.84 129.439 80.44H129.489C129.669 80.1333 129.912 79.9067 130.219 79.76C130.532 79.6133 130.862 79.54 131.209 79.54ZM140.322 83.06L144.092 81.49L140.322 79.7V78.92L145.032 81.27V81.77L140.322 83.84V83.06ZM154.482 77.86C155.369 77.86 156.022 78.03 156.442 78.37C156.869 78.7033 157.082 79.21 157.082 79.89C157.082 80.27 157.012 80.5867 156.872 80.84C156.732 81.0933 156.552 81.2967 156.332 81.45C156.119 81.5967 155.892 81.7133 155.652 81.8L157.612 85H156.562L154.832 82.05H153.412V85H152.512V77.86H154.482ZM154.432 78.64H153.412V81.29H154.482C155.062 81.29 155.486 81.1767 155.752 80.95C156.019 80.7167 156.152 80.3767 156.152 79.93C156.152 79.4633 156.012 79.1333 155.732 78.94C155.452 78.74 155.019 78.64 154.432 78.64ZM164.973 82.31C164.973 83.1967 164.746 83.8833 164.293 84.37C163.846 84.8567 163.24 85.1 162.473 85.1C162 85.1 161.576 84.9933 161.203 84.78C160.836 84.56 160.546 84.2433 160.333 83.83C160.12 83.41 160.013 82.9033 160.013 82.31C160.013 81.4233 160.236 80.74 160.683 80.26C161.13 79.78 161.736 79.54 162.503 79.54C162.99 79.54 163.416 79.65 163.783 79.87C164.156 80.0833 164.446 80.3967 164.653 80.81C164.866 81.2167 164.973 81.7167 164.973 82.31ZM160.923 82.31C160.923 82.9433 161.046 83.4467 161.293 83.82C161.546 84.1867 161.946 84.37 162.493 84.37C163.033 84.37 163.43 84.1867 163.683 83.82C163.936 83.4467 164.063 82.9433 164.063 82.31C164.063 81.6767 163.936 81.18 163.683 80.82C163.43 80.46 163.03 80.28 162.483 80.28C161.936 80.28 161.54 80.46 161.293 80.82C161.046 81.18 160.923 81.6767 160.923 82.31ZM172.728 82.31C172.728 83.1967 172.501 83.8833 172.048 84.37C171.601 84.8567 170.994 85.1 170.228 85.1C169.754 85.1 169.331 84.9933 168.958 84.78C168.591 84.56 168.301 84.2433 168.088 83.83C167.874 83.41 167.768 82.9033 167.768 82.31C167.768 81.4233 167.991 80.74 168.438 80.26C168.884 79.78 169.491 79.54 170.258 79.54C170.744 79.54 171.171 79.65 171.538 79.87C171.911 80.0833 172.201 80.3967 172.408 80.81C172.621 81.2167 172.728 81.7167 172.728 82.31ZM168.678 82.31C168.678 82.9433 168.801 83.4467 169.048 83.82C169.301 84.1867 169.701 84.37 170.248 84.37C170.788 84.37 171.184 84.1867 171.438 83.82C171.691 83.4467 171.818 82.9433 171.818 82.31C171.818 81.6767 171.691 81.18 171.438 80.82C171.184 80.46 170.784 80.28 170.238 80.28C169.691 80.28 169.294 80.46 169.048 80.82C168.801 81.18 168.678 81.6767 168.678 82.31ZM181.702 79.54C182.309 79.54 182.762 79.6967 183.062 80.01C183.362 80.3167 183.512 80.8167 183.512 81.51V85H182.642V81.55C182.642 80.7033 182.279 80.28 181.552 80.28C181.032 80.28 180.659 80.43 180.432 80.73C180.212 81.03 180.102 81.4667 180.102 82.04V85H179.232V81.55C179.232 80.7033 178.866 80.28 178.132 80.28C177.592 80.28 177.219 80.4467 177.012 80.78C176.806 81.1133 176.702 81.5933 176.702 82.22V85H175.822V79.64H176.532L176.662 80.37H176.712C176.879 80.09 177.102 79.8833 177.382 79.75C177.669 79.61 177.972 79.54 178.292 79.54C179.132 79.54 179.679 79.84 179.932 80.44H179.982C180.162 80.1333 180.406 79.9067 180.712 79.76C181.026 79.6133 181.356 79.54 181.702 79.54ZM191.248 81.42C191.248 82.1867 191.168 82.8467 191.008 83.4C190.848 83.9467 190.595 84.3667 190.248 84.66C189.901 84.9533 189.441 85.1 188.868 85.1C188.061 85.1 187.465 84.7767 187.078 84.13C186.698 83.4767 186.508 82.5733 186.508 81.42C186.508 80.6467 186.585 79.9867 186.738 79.44C186.898 78.8933 187.151 78.4767 187.498 78.19C187.845 77.8967 188.301 77.75 188.868 77.75C189.668 77.75 190.265 78.0733 190.658 78.72C191.051 79.36 191.248 80.26 191.248 81.42ZM187.388 81.42C187.388 82.4 187.498 83.1333 187.718 83.62C187.945 84.1067 188.328 84.35 188.868 84.35C189.401 84.35 189.781 84.11 190.008 83.63C190.241 83.1433 190.358 82.4067 190.358 81.42C190.358 80.4467 190.241 79.7167 190.008 79.23C189.781 78.7433 189.401 78.5 188.868 78.5C188.328 78.5 187.945 78.7433 187.718 79.23C187.498 79.7167 187.388 80.4467 187.388 81.42ZM198.371 79.53C198.371 80.01 198.237 80.3933 197.971 80.68C197.704 80.96 197.344 81.1467 196.891 81.24V81.28C197.464 81.3467 197.891 81.5267 198.171 81.82C198.451 82.1133 198.591 82.4967 198.591 82.97C198.591 83.3833 198.494 83.7533 198.301 84.08C198.107 84.4 197.807 84.65 197.401 84.83C197.001 85.01 196.484 85.1 195.851 85.1C195.477 85.1 195.131 85.07 194.811 85.01C194.491 84.9567 194.184 84.8567 193.891 84.71V83.89C194.191 84.0367 194.514 84.1533 194.861 84.24C195.207 84.32 195.541 84.36 195.861 84.36C196.501 84.36 196.961 84.2367 197.241 83.99C197.527 83.7367 197.671 83.39 197.671 82.95C197.671 82.5033 197.494 82.1833 197.141 81.99C196.794 81.79 196.304 81.69 195.671 81.69H194.981V80.94H195.681C196.267 80.94 196.711 80.8167 197.011 80.57C197.317 80.3233 197.471 79.9967 197.471 79.59C197.471 79.2433 197.354 78.9767 197.121 78.79C196.887 78.5967 196.571 78.5 196.171 78.5C195.784 78.5 195.454 78.5567 195.181 78.67C194.907 78.7833 194.637 78.9267 194.371 79.1L193.931 78.5C194.184 78.3 194.497 78.1267 194.871 77.98C195.251 77.8333 195.681 77.76 196.161 77.76C196.907 77.76 197.461 77.9267 197.821 78.26C198.187 78.5933 198.371 79.0167 198.371 79.53ZM205.661 83.06L209.431 81.49L205.661 79.7V78.92L210.371 81.27V81.77L205.661 83.84V83.06ZM223.511 82.97C223.141 83.41 222.641 83.78 222.051 84.09C221.601 83.77 220.891 83.38 220.241 83.11C220.311 83.07 220.381 83.02 220.451 82.97H223.511ZM217.591 82.89H218.281V81.83H220.811C220.261 82.44 219.311 83.04 218.011 83.46C218.161 83.58 218.361 83.81 218.461 83.97C218.891 83.82 219.281 83.64 219.641 83.46C220.231 83.71 220.901 84.07 221.371 84.4C220.431 84.78 219.361 85.02 218.321 85.15C218.441 85.3 218.591 85.6 218.661 85.78C221.041 85.42 223.531 84.53 224.571 82.66L224.101 82.39L223.971 82.42H221.141C221.341 82.23 221.521 82.03 221.681 81.83H225.471V82.89H226.191V81.24H217.591V82.89ZM224.751 80.18H223.231V79.15H224.751V80.18ZM222.601 80.18H221.111V79.15H222.601V80.18ZM220.471 80.18H219.041V79.15H220.471V80.18ZM218.361 78.63V80.71H225.451V78.63H218.361ZM223.891 77.3V76.64H223.151V77.3H220.561V76.64H219.831V77.3H217.551V77.94H219.831V78.45H220.561V77.94H223.151V78.45H223.891V77.94H226.221V77.3H223.891ZM236.871 78.7H234.391V77.77H236.871V78.7ZM236.871 80.21H234.391V79.28H236.871V80.21ZM236.871 81.74H234.391V80.79H236.871V81.74ZM237.581 77.16H233.701V82.35H237.581V77.16ZM232.731 82.65C233.191 83.1 233.801 83.74 234.091 84.12L234.631 83.68C234.331 83.31 233.711 82.69 233.251 82.27L232.731 82.65ZM229.731 85.24C230.131 84.69 230.451 83.8 230.671 83.13L230.021 82.88C229.821 83.53 229.481 84.38 229.081 84.91L229.731 85.24ZM231.691 82.45V80.02C232.131 80.39 232.691 80.88 232.951 81.13L233.351 80.53C233.091 80.33 232.071 79.57 231.691 79.33V78.77H233.271V78.12H231.691V76.66H230.981V78.12H229.161V78.77H230.851C230.411 79.79 229.671 80.82 228.941 81.34C229.091 81.46 229.301 81.69 229.421 81.86C229.981 81.4 230.541 80.64 230.981 79.82V82.45H231.691ZM232.841 84.88C232.261 84.88 232.161 84.83 232.161 84.57V82.99H231.431V84.58C231.431 85.35 231.711 85.55 232.791 85.55H234.861C235.761 85.55 235.991 85.25 236.091 84C235.881 83.96 235.581 83.85 235.411 83.72C235.371 84.74 235.291 84.88 234.811 84.88H232.841ZM236.231 82.97C236.631 83.63 237.151 84.5 237.381 85.02L238.071 84.68C237.821 84.17 237.281 83.31 236.871 82.68L236.231 82.97ZM247.501 80.32V80.92H243.041V80.32H247.501ZM243.011 82.04C243.021 81.82 243.031 81.61 243.041 81.41H247.501V82.04H243.011ZM248.231 82.58V79.78H242.291V81.22C242.291 82.42 242.111 84.05 240.791 85.21C240.961 85.31 241.251 85.58 241.361 85.72C242.341 84.85 242.771 83.67 242.941 82.58H248.231ZM247.861 83.7V84.87H243.781V83.7H247.861ZM243.071 85.76H243.781V85.45H247.861V85.75H248.601V83.12H243.071V85.76ZM243.711 78.67C244.331 78.2 244.861 77.72 245.231 77.27C245.651 77.73 246.231 78.21 246.871 78.67H243.711ZM244.841 76.61C244.031 77.68 242.361 78.92 240.661 79.65C240.811 79.8 241.001 80.07 241.091 80.24C241.921 79.86 242.741 79.37 243.461 78.85V79.23H247.081V78.82C247.851 79.35 248.691 79.83 249.461 80.17C249.581 79.97 249.761 79.71 249.921 79.53C248.381 78.94 246.641 77.82 245.551 76.61H244.841ZM261.431 78.17V77.51H257.651V76.64H256.891V77.51H253.191V80.62C253.191 82.04 253.121 83.99 252.331 85.36C252.491 85.43 252.801 85.65 252.921 85.78C253.771 84.33 253.891 82.15 253.891 80.62V78.17H261.431ZM255.481 82.74V81.98H257.331V82.74H255.481ZM255.481 80.74H257.331V81.49H255.481V80.74ZM259.981 80.74V81.49H258.041V80.74H259.981ZM259.981 82.74H258.041V81.98H259.981V82.74ZM261.501 83.95H258.041V83.24H260.661V80.24H258.041V79.57H261.181V78.98H258.041V78.26H257.331V78.98H254.451V79.57H257.331V80.24H254.821V83.24H257.331V83.95H254.021V84.58H257.331V85.77H258.041V84.58H261.501V83.95Z" fill="#363B3F"/>
<path d="M216.881 86.5H261.981V87H216.881V86.5Z" fill="#363B3F"/>
<path d="M550.679 174.821L553.179 177.321L547.75 182.751L545.52 182.997C545.222 183.03 544.97 182.778 545.003 182.479L545.251 180.248L550.679 174.821ZM554.726 174.449L553.552 173.275C553.186 172.908 552.592 172.908 552.225 173.275L551.121 174.379L553.621 176.88L554.726 175.775C555.092 175.409 555.092 174.815 554.726 174.449Z" fill="#ECEDEF"/>
<path d="M659.969 44.2188C659.969 46.1336 658.415 47.6875 656.5 47.6875C654.585 47.6875 653.031 46.1336 653.031 44.2188C653.031 42.3039 654.585 40.75 656.5 40.75C658.415 40.75 659.969 42.3039 659.969 44.2188ZM656.5 50.5938C657.314 50.5938 658.09 50.4245 658.794 50.125H660.25C661.907 50.125 663.25 51.4679 663.25 53.125V53.5938C663.25 53.9559 662.956 54.25 662.594 54.25H650.406C650.044 54.25 649.75 53.9559 649.75 53.5938V53.125C649.75 51.4679 651.093 50.125 652.75 50.125H654.207C654.912 50.4241 655.685 50.5938 656.5 50.5938Z" stroke="#ECEDEF" stroke-width="1.5"/>
<path d="M594.324 51.1252L594.324 51.1249C594.293 51.0917 594.259 51.0559 594.222 51.0172C593.948 50.7304 593.523 50.2852 593.176 49.5818C592.779 48.7789 592.498 47.6826 592.498 46.0938C592.498 44.1923 591.17 42.6612 589.347 42.2824L588.749 42.1583V41.548V40.9375C588.749 40.8336 588.665 40.75 588.563 40.75C588.46 40.75 588.376 40.8336 588.376 40.9375V41.548V42.1583L587.778 42.2824C585.955 42.6612 584.627 44.1923 584.627 46.0938C584.627 47.6826 584.346 48.7789 583.95 49.5818C583.602 50.2852 583.177 50.7304 582.903 51.0172C582.866 51.0559 582.832 51.0916 582.801 51.1248C582.778 51.1496 582.767 51.1712 582.76 51.1882C582.753 51.2057 582.75 51.2245 582.75 51.245L594.324 51.1252ZM594.324 51.1252C594.347 51.1497 594.358 51.171 594.365 51.188C594.372 51.2056 594.375 51.2245 594.375 51.245L594.375 51.2454M594.324 51.1252L594.375 51.2454M594.375 51.2454C594.375 51.2937 594.354 51.3461 594.319 51.3838C594.289 51.415 594.249 51.4375 594.185 51.4375H582.94C582.876 51.4375 582.836 51.415 582.807 51.3839M594.375 51.2454L582.807 51.3839M582.807 51.3839C582.771 51.3462 582.75 51.2936 582.75 51.245L582.807 51.3839ZM589.4 53.875C589.194 54.1052 588.895 54.25 588.563 54.25C588.23 54.25 587.931 54.1052 587.725 53.875H589.4Z" stroke="#ECEDEF" stroke-width="1.5"/>
<path d="M405.814 44.1851L408.815 47.1855L402.299 53.7007L399.624 53.996C399.266 54.0356 398.964 53.7328 399.004 53.3747L399.301 50.6977L405.814 44.1851ZM410.67 43.7384L409.262 42.3296C408.822 41.8901 408.109 41.8901 407.67 42.3296L406.345 43.6549L409.345 46.6553L410.67 45.33C411.11 44.8903 411.11 44.1778 410.67 43.7384Z" fill="#ECEDEF"/>
<path d="M530.929 320.893H526.107V316.071C526.107 315.48 525.627 315 525.036 315H523.964C523.373 315 522.893 315.48 522.893 316.071V320.893H518.071C517.48 320.893 517 321.373 517 321.964V323.036C517 323.627 517.48 324.107 518.071 324.107H522.893V328.929C522.893 329.52 523.373 330 523.964 330H525.036C525.627 330 526.107 329.52 526.107 328.929V324.107H530.929C531.52 324.107 532 323.627 532 323.036V321.964C532 321.373 531.52 320.893 530.929 320.893Z" fill="#94999F"/>
<path d="M20.5357 44.4107H34.4643C34.7602 44.4107 35 44.1709 35 43.875V42.5357C35 42.2398 34.7602 42 34.4643 42H20.5357C20.2398 42 20 42.2398 20 42.5357V43.875C20 44.1709 20.2398 44.4107 20.5357 44.4107ZM20.5357 49.7679H34.4643C34.7602 49.7679 35 49.528 35 49.2321V47.8929C35 47.597 34.7602 47.3571 34.4643 47.3571H20.5357C20.2398 47.3571 20 47.597 20 47.8929V49.2321C20 49.528 20.2398 49.7679 20.5357 49.7679ZM20.5357 55.125H34.4643C34.7602 55.125 35 54.8852 35 54.5893V53.25C35 52.9541 34.7602 52.7143 34.4643 52.7143H20.5357C20.2398 52.7143 20 52.9541 20 53.25V54.5893C20 54.8852 20.2398 55.125 20.5357 55.125Z" fill="#ECEDEF"/>
<line x1="135" y1="191.75" x2="201" y2="191.75" stroke="white" stroke-width="0.5"/>
<line x1="134" y1="336.75" x2="200" y2="336.75" stroke="white" stroke-width="0.5"/>
<line x1="317" y1="336.75" x2="383" y2="336.75" stroke="white" stroke-width="0.5"/>
<line x1="314" y1="191.75" x2="380" y2="191.75" stroke="white" stroke-width="0.5"/>
<line x1="493" y1="191.75" x2="559" y2="191.75" stroke="white" stroke-width="0.5"/>
</g>
</g>
<defs>
<filter id="filter0_d_410_2590" x="0" y="0" width="700" height="458" filterUnits="userSpaceOnUse" color-interpolation-filters="sRGB">
<feFlood flood-opacity="0" result="BackgroundImageFix"/>
<feColorMatrix in="SourceAlpha" type="matrix" values="0 0 0 0 0 0 0 0 0 0 0 0 0 0 0 0 0 0 127 0" result="hardAlpha"/>
<feOffset dy="4"/>
<feGaussianBlur stdDeviation="2"/>
<feComposite in2="hardAlpha" operator="out"/>
<feColorMatrix type="matrix" values="0 0 0 0 0 0 0 0 0 0 0 0 0 0 0 0 0 0 0.25 0"/>
<feBlend mode="normal" in2="BackgroundImageFix" result="effect1_dropShadow_410_2590"/>
<feBlend mode="normal" in="SourceGraphic" in2="effect1_dropShadow_410_2590" result="shape"/>
</filter>
<filter id="filter1_d_410_2590" x="104" y="116" width="128" height="128" filterUnits="userSpaceOnUse" color-interpolation-filters="sRGB">
<feFlood flood-opacity="0" result="BackgroundImageFix"/>
<feColorMatrix in="SourceAlpha" type="matrix" values="0 0 0 0 0 0 0 0 0 0 0 0 0 0 0 0 0 0 127 0" result="hardAlpha"/>
<feOffset dy="2"/>
<feGaussianBlur stdDeviation="2"/>
<feComposite in2="hardAlpha" operator="out"/>
<feColorMatrix type="matrix" values="0 0 0 0 0 0 0 0 0 0 0 0 0 0 0 0 0 0 0.25 0"/>
<feBlend mode="normal" in2="BackgroundImageFix" result="effect1_dropShadow_410_2590"/>
<feBlend mode="normal" in="SourceGraphic" in2="effect1_dropShadow_410_2590" result="shape"/>
</filter>
<filter id="filter2_d_410_2590" x="103" y="261" width="128" height="128" filterUnits="userSpaceOnUse" color-interpolation-filters="sRGB">
<feFlood flood-opacity="0" result="BackgroundImageFix"/>
<feColorMatrix in="SourceAlpha" type="matrix" values="0 0 0 0 0 0 0 0 0 0 0 0 0 0 0 0 0 0 127 0" result="hardAlpha"/>
<feOffset dy="2"/>
<feGaussianBlur stdDeviation="2"/>
<feComposite in2="hardAlpha" operator="out"/>
<feColorMatrix type="matrix" values="0 0 0 0 0 0 0 0 0 0 0 0 0 0 0 0 0 0 0.25 0"/>
<feBlend mode="normal" in2="BackgroundImageFix" result="effect1_dropShadow_410_2590"/>
<feBlend mode="normal" in="SourceGraphic" in2="effect1_dropShadow_410_2590" result="shape"/>
</filter>
<filter id="filter3_d_410_2590" x="283" y="116" width="128" height="128" filterUnits="userSpaceOnUse" color-interpolation-filters="sRGB">
<feFlood flood-opacity="0" result="BackgroundImageFix"/>
<feColorMatrix in="SourceAlpha" type="matrix" values="0 0 0 0 0 0 0 0 0 0 0 0 0 0 0 0 0 0 127 0" result="hardAlpha"/>
<feOffset dy="2"/>
<feGaussianBlur stdDeviation="2"/>
<feComposite in2="hardAlpha" operator="out"/>
<feColorMatrix type="matrix" values="0 0 0 0 0 0 0 0 0 0 0 0 0 0 0 0 0 0 0.25 0"/>
<feBlend mode="normal" in2="BackgroundImageFix" result="effect1_dropShadow_410_2590"/>
<feBlend mode="normal" in="SourceGraphic" in2="effect1_dropShadow_410_2590" result="shape"/>
</filter>
<filter id="filter4_d_410_2590" x="458" y="110" width="140" height="140" filterUnits="userSpaceOnUse" color-interpolation-filters="sRGB">
<feFlood flood-opacity="0" result="BackgroundImageFix"/>
<feColorMatrix in="SourceAlpha" type="matrix" values="0 0 0 0 0 0 0 0 0 0 0 0 0 0 0 0 0 0 127 0" result="hardAlpha"/>
<feOffset dx="2" dy="2"/>
<feGaussianBlur stdDeviation="5"/>
<feComposite in2="hardAlpha" operator="out"/>
<feColorMatrix type="matrix" values="0 0 0 0 1 0 0 0 0 1 0 0 0 0 1 0 0 0 1 0"/>
<feBlend mode="soft-light" in2="BackgroundImageFix" result="effect1_dropShadow_410_2590"/>
<feBlend mode="normal" in="SourceGraphic" in2="effect1_dropShadow_410_2590" result="shape"/>
</filter>
<filter id="filter5_d_410_2590" x="282" y="261" width="128" height="128" filterUnits="userSpaceOnUse" color-interpolation-filters="sRGB">
<feFlood flood-opacity="0" result="BackgroundImageFix"/>
<feColorMatrix in="SourceAlpha" type="matrix" values="0 0 0 0 0 0 0 0 0 0 0 0 0 0 0 0 0 0 127 0" result="hardAlpha"/>
<feOffset dy="2"/>
<feGaussianBlur stdDeviation="2"/>
<feComposite in2="hardAlpha" operator="out"/>
<feColorMatrix type="matrix" values="0 0 0 0 0 0 0 0 0 0 0 0 0 0 0 0 0 0 0.25 0"/>
<feBlend mode="normal" in2="BackgroundImageFix" result="effect1_dropShadow_410_2590"/>
<feBlend mode="normal" in="SourceGraphic" in2="effect1_dropShadow_410_2590" result="shape"/>
</filter>
<filter id="filter6_d_410_2590" x="461" y="261" width="128" height="128" filterUnits="userSpaceOnUse" color-interpolation-filters="sRGB">
<feFlood flood-opacity="0" result="BackgroundImageFix"/>
<feColorMatrix in="SourceAlpha" type="matrix" values="0 0 0 0 0 0 0 0 0 0 0 0 0 0 0 0 0 0 127 0" result="hardAlpha"/>
<feOffset dy="2"/>
<feGaussianBlur stdDeviation="2"/>
<feComposite in2="hardAlpha" operator="out"/>
<feColorMatrix type="matrix" values="0 0 0 0 0 0 0 0 0 0 0 0 0 0 0 0 0 0 0.25 0"/>
<feBlend mode="normal" in2="BackgroundImageFix" result="effect1_dropShadow_410_2590"/>
<feBlend mode="normal" in="SourceGraphic" in2="effect1_dropShadow_410_2590" result="shape"/>
</filter>
<filter id="filter7_dd_410_2590" x="552" y="197" width="23.75" height="26" filterUnits="userSpaceOnUse" color-interpolation-filters="sRGB">
<feFlood flood-opacity="0" result="BackgroundImageFix"/>
<feColorMatrix in="SourceAlpha" type="matrix" values="0 0 0 0 0 0 0 0 0 0 0 0 0 0 0 0 0 0 127 0" result="hardAlpha"/>
<feOffset dy="4"/>
<feGaussianBlur stdDeviation="2"/>
<feComposite in2="hardAlpha" operator="out"/>
<feColorMatrix type="matrix" values="0 0 0 0 0 0 0 0 0 0 0 0 0 0 0 0 0 0 0.25 0"/>
<feBlend mode="lighten" in2="BackgroundImageFix" result="effect1_dropShadow_410_2590"/>
<feColorMatrix in="SourceAlpha" type="matrix" values="0 0 0 0 0 0 0 0 0 0 0 0 0 0 0 0 0 0 127 0" result="hardAlpha"/>
<feOffset dy="4"/>
<feGaussianBlur stdDeviation="2"/>
<feComposite in2="hardAlpha" operator="out"/>
<feColorMatrix type="matrix" values="0 0 0 0 0 0 0 0 0 0 0 0 0 0 0 0 0 0 0.25 0"/>
<feBlend mode="normal" in2="effect1_dropShadow_410_2590" result="effect2_dropShadow_410_2590"/>
<feBlend mode="normal" in="SourceGraphic" in2="effect2_dropShadow_410_2590" result="shape"/>
</filter>
<linearGradient id="paint0_linear_410_2590" x1="350" y1="0" x2="350" y2="450" gradientUnits="userSpaceOnUse">
<stop stop-color="#6D99D4"/>
<stop offset="1" stop-color="#FEFEFE"/>
</linearGradient>
<linearGradient id="paint1_linear_410_2590" x1="168" y1="118" x2="168" y2="238" gradientUnits="userSpaceOnUse">
<stop stop-color="white"/>
<stop offset="1" stop-color="#2869D1" stop-opacity="0.58"/>
</linearGradient>
<linearGradient id="paint2_linear_410_2590" x1="167" y1="263" x2="167" y2="383" gradientUnits="userSpaceOnUse">
<stop stop-color="white"/>
<stop offset="1" stop-color="#F24D64"/>
</linearGradient>
<linearGradient id="paint3_linear_410_2590" x1="347" y1="118" x2="347" y2="238" gradientUnits="userSpaceOnUse">
<stop stop-color="white"/>
<stop offset="1" stop-color="#FF3981" stop-opacity="0.72"/>
</linearGradient>
<linearGradient id="paint4_linear_410_2590" x1="526" y1="118" x2="526" y2="238" gradientUnits="userSpaceOnUse">
<stop stop-color="white"/>
<stop offset="1" stop-color="#50DECD" stop-opacity="0.82"/>
</linearGradient>
<linearGradient id="paint5_linear_410_2590" x1="346" y1="263" x2="346" y2="383" gradientUnits="userSpaceOnUse">
<stop stop-color="white"/>
<stop offset="1" stop-color="#029CDE" stop-opacity="0.78"/>
</linearGradient>
<linearGradient id="paint6_linear_410_2590" x1="525" y1="263" x2="525" y2="383" gradientUnits="userSpaceOnUse">
<stop stop-color="white" stop-opacity="0.5"/>
<stop offset="1" stop-color="white" stop-opacity="0.88"/>
</linearGradient>
<clipPath id="clip0_410_2590">
<rect x="4" width="692" height="450" rx="20" fill="white"/>
</clipPath>
<clipPath id="clip1_410_2590">
<rect width="11.4231" height="11.7895" fill="white" transform="translate(50 42)"/>
</clipPath>
<clipPath id="clip2_410_2590">
<rect width="45.4808" height="16" fill="white" transform="translate(65.4424 42)"/>
</clipPath>
</defs>
</svg>
