<svg width="700" height="458" viewBox="0 0 700 458" fill="none" xmlns="http://www.w3.org/2000/svg">
<g filter="url(#filter0_d_410:2631)">
<rect x="4" width="692" height="450" rx="20" fill="url(#paint0_linear_410:2631)"/>
<rect x="4" y="35" width="692" height="26" fill="#A5B4D1" fill-opacity="0.5677"/>
<g clip-path="url(#clip0_410:2631)">
<path d="M54.4965 48.299C54.4965 48.299 51.9106 47.0647 50.6797 44.4629C50.6797 44.4629 49.1387 47.3797 50.6982 49.2079C51.9652 50.6924 53.9004 49.7274 54.4965 48.299Z" fill="#ECEDEF"/>
<path d="M55.8311 46.4805C55.8311 46.4805 57.0692 43.9037 59.6807 42.6771C59.6807 42.6771 56.7537 41.1414 54.919 42.6955C53.4293 43.9581 54.3977 45.8865 55.8311 46.4805Z" fill="#ECEDEF"/>
<path d="M56.9268 47.4529C56.9268 47.4529 59.5148 48.6866 60.7435 51.289C60.7435 51.289 62.2846 48.3722 60.725 46.5439C59.4585 45.0594 57.5223 46.025 56.9268 47.4529Z" fill="#ECEDEF"/>
<path d="M56.0976 49.3086C56.0976 49.3086 54.8584 51.8876 52.248 53.112C52.248 53.112 55.1756 54.6477 57.0103 53.0935C58.4995 51.8321 57.5333 49.9021 56.0976 49.3086Z" fill="#ECEDEF"/>
</g>
<g clip-path="url(#clip1_410:2631)">
<path d="M65.4424 52.5616V50.5791C65.9407 50.9311 66.4759 51.2279 67.0385 51.4644C67.5827 51.6903 68.0406 51.8033 68.4122 51.8033C68.7647 51.812 69.1113 51.7123 69.4052 51.5178C69.6817 51.329 69.8202 51.103 69.8207 50.8399C69.8243 50.7153 69.8022 50.5913 69.756 50.4755C69.7097 50.3597 69.6402 50.2546 69.5517 50.1667C69.3729 49.9882 68.9853 49.7303 68.3889 49.3929C67.1998 48.7336 66.422 48.1695 66.0556 47.7006C65.7003 47.2682 65.5051 46.7269 65.5028 46.1677C65.4954 45.8311 65.5673 45.4974 65.7125 45.1935C65.8578 44.8897 66.0725 44.6241 66.3393 44.4181C66.8969 43.9662 67.6147 43.7402 68.4928 43.7402C69.4049 43.7402 70.3408 43.9964 71.3005 44.5086V46.3333C70.206 45.6704 69.3106 45.3387 68.6145 45.3381C68.2563 45.3381 67.9675 45.4155 67.7478 45.5703C67.6457 45.6341 67.5618 45.7231 67.5041 45.8287C67.4464 45.9342 67.4169 46.0528 67.4184 46.1731C67.4184 46.389 67.5184 46.5948 67.7168 46.7921C67.9153 46.9894 68.2656 47.2185 68.7656 47.494L69.4246 47.8685C70.9791 48.7455 71.7564 49.7163 71.7564 50.7811C71.7633 51.142 71.6858 51.4994 71.5301 51.8252C71.3744 52.1509 71.1448 52.4359 70.8595 52.6576C70.262 53.1461 69.4936 53.3904 68.554 53.3904C68.055 53.3973 67.5574 53.3377 67.0742 53.2132C66.5119 53.0448 65.9658 52.8268 65.4424 52.5616V52.5616Z" fill="#ECEDEF"/>
<path d="M81.5201 48.7477H74.9635C75.011 49.6381 75.31 50.3464 75.8604 50.8726C76.4108 51.3988 77.1219 51.6619 77.9937 51.6619C79.2097 51.6619 80.3312 51.284 81.3581 50.5283V52.3289C80.8403 52.6833 80.2712 52.9563 79.6705 53.1383C79.0317 53.311 78.3717 53.3928 77.71 53.3813C76.6831 53.3813 75.8518 53.1687 75.2162 52.7437C74.5719 52.3088 74.0475 51.7191 73.6914 51.0289C73.3084 50.3108 73.1169 49.4798 73.1169 48.5357C73.1169 47.1191 73.5195 45.9674 74.3247 45.0807C75.1299 44.1939 76.1743 43.7505 77.458 43.7505C78.6947 43.7505 79.681 44.182 80.417 45.0451C81.1529 45.9081 81.5206 47.065 81.5201 48.5156V48.7477ZM75.0038 47.6489H79.696C79.6485 46.9138 79.4289 46.3464 79.0371 45.9466C78.6454 45.5468 78.119 45.3474 77.458 45.3484C76.796 45.3484 76.2534 45.5475 75.8301 45.9458C75.4069 46.344 75.1314 46.9117 75.0038 47.6489Z" fill="#ECEDEF"/>
<path d="M82.1145 45.3993L85.5804 42V43.9221H88.53V45.5812H85.5804V50.1366C85.5804 51.2008 86.023 51.7327 86.9083 51.7322C87.5703 51.7322 88.2696 51.5129 89.006 51.0744V52.7946C88.297 53.1925 87.496 53.3982 86.6827 53.3912C85.8388 53.3912 85.1362 53.1451 84.575 52.653C84.4042 52.5101 84.2572 52.3411 84.1393 52.1523C84.0071 51.9251 83.9097 51.6794 83.8502 51.4234C83.7747 51.1252 83.737 50.5537 83.737 49.7087V45.5812H82.1145V45.3993Z" fill="#ECEDEF"/>
<path d="M98.6906 53.2551V52.0596C98.3129 52.4771 97.8567 52.8165 97.348 53.0586C96.8791 53.2881 96.3647 53.41 95.8425 53.4153C95.2698 53.42 94.7067 53.2677 94.2146 52.975C93.731 52.6955 93.3399 52.2807 93.0898 51.7818C92.8361 51.2788 92.7094 50.4441 92.71 49.2777V43.9478H94.5542V49.2522C94.5542 50.2287 94.6945 50.9107 94.9751 51.2981C95.2557 51.6856 95.7467 51.8793 96.448 51.8793C97.3265 51.8793 98.073 51.4508 98.6875 50.594V43.9478H100.532V53.2551H98.6906Z" fill="#ECEDEF"/>
<path d="M102.45 58.0001V43.9478H105.68C107.333 43.9478 108.621 44.3592 109.541 45.182C110.461 46.0048 110.922 47.1547 110.923 48.6316C110.923 50.0276 110.49 51.1741 109.622 52.0712C108.755 52.9683 107.65 53.4168 106.308 53.4168C105.715 53.4168 105.057 53.2853 104.335 53.0222V58.0001H102.45ZM105.64 45.6672H104.335V51.3933C104.886 51.6798 105.498 51.829 106.118 51.8282C106.981 51.8282 107.688 51.5282 108.237 50.9283C108.786 50.3283 109.061 49.556 109.061 48.6115C109.073 48.0508 108.94 47.4966 108.673 47.0027C108.437 46.5596 108.065 46.2034 107.611 45.986C107.16 45.7739 106.503 45.6677 105.64 45.6672Z" fill="#ECEDEF"/>
</g>
<path d="M615.741 49.3042L615.94 48.8555L615.609 48.4935C615.05 47.8837 614.75 47.1806 614.75 46.4444C614.75 44.5742 616.805 42.75 619.778 42.75C622.75 42.75 624.806 44.5742 624.806 46.4444C624.806 48.3147 622.75 50.1389 619.778 50.1389C618.752 50.1389 617.806 49.906 617.015 49.5203L616.655 49.3447L616.309 49.5464C616.048 49.6981 615.744 49.844 615.401 49.953C615.521 49.7537 615.639 49.5352 615.741 49.3042ZM628.259 52.8589C628.361 53.0903 628.478 53.309 628.598 53.5083C628.256 53.3993 627.952 53.2535 627.691 53.1019L627.344 52.8997L626.984 53.0767C626.195 53.4638 625.25 53.6944 624.222 53.6944C622.728 53.6944 621.43 53.2154 620.53 52.4961C623.927 52.2093 626.835 50.0034 627.164 47.0105C628.483 47.7143 629.25 48.8414 629.25 50C629.25 50.7368 628.949 51.4421 628.392 52.048L628.06 52.4096L628.259 52.8589Z" stroke="#ECEDEF" stroke-width="1.5"/>
<path d="M294.518 44.04H290.926V54H289.062V44.04H285.462V42.48H294.518V44.04ZM299.856 49C299.856 48.712 299.813 48.4453 299.728 48.2C299.648 47.9493 299.528 47.7333 299.368 47.552C299.208 47.3653 299.008 47.2213 298.768 47.12C298.533 47.0133 298.261 46.96 297.952 46.96C297.328 46.96 296.837 47.1387 296.48 47.496C296.122 47.8533 295.896 48.3547 295.8 49H299.856ZM295.752 50.056C295.773 50.52 295.845 50.9227 295.968 51.264C296.09 51.6 296.253 51.88 296.456 52.104C296.664 52.328 296.909 52.496 297.192 52.608C297.48 52.7147 297.8 52.768 298.152 52.768C298.488 52.768 298.778 52.7307 299.024 52.656C299.269 52.576 299.482 52.4907 299.664 52.4C299.845 52.304 300 52.2187 300.128 52.144C300.256 52.064 300.373 52.024 300.48 52.024C300.618 52.024 300.725 52.0773 300.8 52.184L301.288 52.816C301.085 53.056 300.856 53.2587 300.6 53.424C300.344 53.5893 300.072 53.7253 299.784 53.832C299.496 53.9333 299.2 54.0053 298.896 54.048C298.592 54.096 298.296 54.12 298.008 54.12C297.442 54.12 296.917 54.0267 296.432 53.84C295.952 53.648 295.533 53.368 295.176 53C294.824 52.632 294.546 52.176 294.344 51.632C294.146 51.088 294.048 50.4613 294.048 49.752C294.048 49.1867 294.136 48.6587 294.312 48.168C294.493 47.6773 294.749 47.2507 295.08 46.888C295.416 46.5253 295.821 46.24 296.296 46.032C296.776 45.8187 297.317 45.712 297.92 45.712C298.421 45.712 298.885 45.7947 299.312 45.96C299.738 46.12 300.106 46.3573 300.416 46.672C300.725 46.9867 300.965 47.3733 301.136 47.832C301.312 48.2853 301.4 48.8027 301.4 49.384C301.4 49.6507 301.37 49.8293 301.312 49.92C301.253 50.0107 301.146 50.056 300.992 50.056H295.752ZM308.004 50.432C307.39 50.4533 306.873 50.504 306.452 50.584C306.03 50.6587 305.689 50.7573 305.428 50.88C305.166 50.9973 304.977 51.1387 304.86 51.304C304.748 51.4693 304.692 51.6507 304.692 51.848C304.692 52.04 304.721 52.2053 304.78 52.344C304.844 52.4773 304.929 52.5893 305.036 52.68C305.148 52.7653 305.276 52.8293 305.42 52.872C305.569 52.9093 305.732 52.928 305.908 52.928C306.356 52.928 306.74 52.8453 307.06 52.68C307.385 52.5093 307.7 52.264 308.004 51.944V50.432ZM303.444 46.976C304.366 46.1173 305.465 45.688 306.74 45.688C307.209 45.688 307.625 45.7653 307.988 45.92C308.356 46.0693 308.662 46.2827 308.908 46.56C309.158 46.8373 309.348 47.168 309.476 47.552C309.609 47.9307 309.676 48.352 309.676 48.816V54H308.908C308.742 54 308.617 53.976 308.532 53.928C308.446 53.8747 308.374 53.7707 308.316 53.616L308.148 52.952C307.94 53.1387 307.734 53.3067 307.532 53.456C307.329 53.6 307.118 53.7227 306.9 53.824C306.686 53.9253 306.454 54 306.204 54.048C305.958 54.1013 305.686 54.128 305.388 54.128C305.057 54.128 304.748 54.0827 304.46 53.992C304.177 53.9013 303.932 53.7653 303.724 53.584C303.516 53.3973 303.35 53.168 303.228 52.896C303.11 52.624 303.052 52.304 303.052 51.936C303.052 51.6213 303.134 51.3147 303.3 51.016C303.47 50.7173 303.748 50.4507 304.132 50.216C304.521 49.976 305.03 49.7787 305.66 49.624C306.294 49.4693 307.076 49.3813 308.004 49.36V48.816C308.004 48.2293 307.878 47.792 307.628 47.504C307.377 47.216 307.009 47.072 306.524 47.072C306.193 47.072 305.916 47.1147 305.692 47.2C305.468 47.28 305.273 47.368 305.108 47.464C304.942 47.56 304.796 47.6507 304.668 47.736C304.54 47.816 304.404 47.856 304.26 47.856C304.142 47.856 304.041 47.8267 303.956 47.768C303.876 47.704 303.809 47.6267 303.756 47.536L303.444 46.976ZM312.33 54V45.84H313.37C313.605 45.84 313.754 45.9493 313.818 46.168L313.93 46.88C314.08 46.7093 314.234 46.5547 314.394 46.416C314.554 46.272 314.725 46.1493 314.906 46.048C315.093 45.9413 315.29 45.8587 315.498 45.8C315.712 45.7413 315.941 45.712 316.186 45.712C316.448 45.712 316.688 45.7493 316.906 45.824C317.125 45.8987 317.317 46.0053 317.482 46.144C317.653 46.2827 317.8 46.4507 317.922 46.648C318.045 46.8453 318.146 47.0667 318.226 47.312C318.349 47.0293 318.504 46.7867 318.69 46.584C318.877 46.3813 319.085 46.216 319.314 46.088C319.544 45.96 319.786 45.8667 320.042 45.808C320.304 45.744 320.568 45.712 320.834 45.712C321.272 45.712 321.661 45.7813 322.002 45.92C322.349 46.0587 322.64 46.2613 322.875 46.528C323.115 46.7893 323.296 47.112 323.418 47.496C323.541 47.88 323.602 48.3173 323.602 48.808V54H321.882V48.808C321.882 48.232 321.757 47.8 321.507 47.512C321.261 47.2187 320.896 47.072 320.41 47.072C320.192 47.072 319.986 47.1093 319.794 47.184C319.602 47.2587 319.434 47.368 319.29 47.512C319.146 47.656 319.032 47.8373 318.946 48.056C318.866 48.2693 318.826 48.52 318.826 48.808V54H317.106V48.808C317.106 48.2107 316.986 47.7733 316.746 47.496C316.506 47.2133 316.154 47.072 315.69 47.072C315.37 47.072 315.074 47.1547 314.802 47.32C314.53 47.48 314.28 47.7013 314.05 47.984V54H312.33ZM334.54 48C334.967 48 335.34 47.9493 335.66 47.848C335.98 47.7413 336.247 47.5947 336.46 47.408C336.673 47.2213 336.833 47 336.94 46.744C337.047 46.4827 337.1 46.1947 337.1 45.88C337.1 45.2507 336.892 44.7707 336.476 44.44C336.06 44.1093 335.431 43.944 334.588 43.944H333.068V48H334.54ZM339.964 54H338.292C337.961 54 337.721 53.872 337.572 53.616L334.884 49.736C334.793 49.6027 334.695 49.5067 334.588 49.448C334.481 49.3893 334.321 49.36 334.108 49.36H333.068V54H331.196V42.48H334.588C335.345 42.48 335.996 42.5573 336.54 42.712C337.089 42.8667 337.54 43.088 337.892 43.376C338.244 43.6587 338.503 44 338.668 44.4C338.839 44.8 338.924 45.2453 338.924 45.736C338.924 46.136 338.863 46.5093 338.74 46.856C338.623 47.2027 338.449 47.5173 338.22 47.8C337.996 48.0827 337.719 48.328 337.388 48.536C337.057 48.744 336.681 48.9067 336.26 49.024C336.489 49.1627 336.687 49.3573 336.852 49.608L339.964 54ZM344.669 45.712C345.272 45.712 345.816 45.8107 346.301 46.008C346.792 46.2053 347.208 46.4853 347.549 46.848C347.896 47.2107 348.162 47.6507 348.349 48.168C348.536 48.6853 348.629 49.2667 348.629 49.912C348.629 50.5573 348.536 51.1387 348.349 51.656C348.162 52.1733 347.896 52.616 347.549 52.984C347.208 53.3467 346.792 53.6267 346.301 53.824C345.816 54.0213 345.272 54.12 344.669 54.12C344.061 54.12 343.512 54.0213 343.021 53.824C342.536 53.6267 342.12 53.3467 341.773 52.984C341.426 52.616 341.16 52.1733 340.973 51.656C340.786 51.1387 340.693 50.5573 340.693 49.912C340.693 49.2667 340.786 48.6853 340.973 48.168C341.16 47.6507 341.426 47.2107 341.773 46.848C342.12 46.4853 342.536 46.2053 343.021 46.008C343.512 45.8107 344.061 45.712 344.669 45.712ZM344.669 52.776C345.405 52.776 345.952 52.5307 346.309 52.04C346.672 51.544 346.853 50.8373 346.853 49.92C346.853 49.0027 346.672 48.296 346.309 47.8C345.952 47.2987 345.405 47.048 344.669 47.048C343.922 47.048 343.368 47.2987 343.005 47.8C342.642 48.296 342.461 49.0027 342.461 49.92C342.461 50.8373 342.642 51.544 343.005 52.04C343.368 52.5307 343.922 52.776 344.669 52.776ZM354.45 45.712C355.052 45.712 355.596 45.8107 356.082 46.008C356.572 46.2053 356.988 46.4853 357.33 46.848C357.676 47.2107 357.943 47.6507 358.13 48.168C358.316 48.6853 358.41 49.2667 358.41 49.912C358.41 50.5573 358.316 51.1387 358.13 51.656C357.943 52.1733 357.676 52.616 357.33 52.984C356.988 53.3467 356.572 53.6267 356.082 53.824C355.596 54.0213 355.052 54.12 354.45 54.12C353.842 54.12 353.292 54.0213 352.802 53.824C352.316 53.6267 351.9 53.3467 351.554 52.984C351.207 52.616 350.94 52.1733 350.754 51.656C350.567 51.1387 350.474 50.5573 350.474 49.912C350.474 49.2667 350.567 48.6853 350.754 48.168C350.94 47.6507 351.207 47.2107 351.554 46.848C351.9 46.4853 352.316 46.2053 352.802 46.008C353.292 45.8107 353.842 45.712 354.45 45.712ZM354.45 52.776C355.186 52.776 355.732 52.5307 356.09 52.04C356.452 51.544 356.634 50.8373 356.634 49.92C356.634 49.0027 356.452 48.296 356.09 47.8C355.732 47.2987 355.186 47.048 354.45 47.048C353.703 47.048 353.148 47.2987 352.786 47.8C352.423 48.296 352.242 49.0027 352.242 49.92C352.242 50.8373 352.423 51.544 352.786 52.04C353.148 52.5307 353.703 52.776 354.45 52.776ZM360.702 54V45.84H361.742C361.977 45.84 362.126 45.9493 362.19 46.168L362.302 46.88C362.452 46.7093 362.606 46.5547 362.766 46.416C362.926 46.272 363.097 46.1493 363.278 46.048C363.465 45.9413 363.662 45.8587 363.87 45.8C364.084 45.7413 364.313 45.712 364.558 45.712C364.82 45.712 365.06 45.7493 365.278 45.824C365.497 45.8987 365.689 46.0053 365.854 46.144C366.025 46.2827 366.172 46.4507 366.294 46.648C366.417 46.8453 366.518 47.0667 366.598 47.312C366.721 47.0293 366.876 46.7867 367.062 46.584C367.249 46.3813 367.457 46.216 367.686 46.088C367.916 45.96 368.158 45.8667 368.414 45.808C368.676 45.744 368.94 45.712 369.206 45.712C369.644 45.712 370.033 45.7813 370.374 45.92C370.721 46.0587 371.012 46.2613 371.246 46.528C371.486 46.7893 371.668 47.112 371.79 47.496C371.913 47.88 371.974 48.3173 371.974 48.808V54H370.254V48.808C370.254 48.232 370.129 47.8 369.878 47.512C369.633 47.2187 369.268 47.072 368.782 47.072C368.564 47.072 368.358 47.1093 368.166 47.184C367.974 47.2587 367.806 47.368 367.662 47.512C367.518 47.656 367.404 47.8373 367.318 48.056C367.238 48.2693 367.198 48.52 367.198 48.808V54H365.478V48.808C365.478 48.2107 365.358 47.7733 365.118 47.496C364.878 47.2133 364.526 47.072 364.062 47.072C363.742 47.072 363.446 47.1547 363.174 47.32C362.902 47.48 362.652 47.7013 362.422 47.984V54H360.702ZM382.416 48.24C382.416 49.248 382.306 50.12 382.088 50.856C381.874 51.592 381.578 52.2027 381.2 52.688C380.821 53.1733 380.376 53.5333 379.864 53.768C379.352 54.0027 378.8 54.12 378.208 54.12C377.616 54.12 377.064 54.0027 376.552 53.768C376.04 53.5333 375.594 53.1733 375.216 52.688C374.842 52.2027 374.549 51.592 374.336 50.856C374.122 50.12 374.016 49.248 374.016 48.24C374.016 47.232 374.122 46.36 374.336 45.624C374.549 44.8827 374.842 44.272 375.216 43.792C375.594 43.3067 376.04 42.9467 376.552 42.712C377.064 42.472 377.616 42.352 378.208 42.352C378.8 42.352 379.352 42.472 379.864 42.712C380.376 42.9467 380.821 43.3067 381.2 43.792C381.578 44.272 381.874 44.8827 382.088 45.624C382.306 46.36 382.416 47.232 382.416 48.24ZM380.64 48.24C380.64 47.3867 380.57 46.6773 380.432 46.112C380.298 45.5413 380.12 45.0853 379.896 44.744C379.672 44.4027 379.413 44.16 379.12 44.016C378.826 43.872 378.522 43.8 378.208 43.8C377.888 43.8 377.581 43.872 377.288 44.016C377 44.16 376.744 44.4027 376.52 44.744C376.296 45.0853 376.117 45.5413 375.984 46.112C375.85 46.6773 375.784 47.3867 375.784 48.24C375.784 49.0933 375.85 49.8053 375.984 50.376C376.117 50.9413 376.296 51.3947 376.52 51.736C376.744 52.0773 377 52.32 377.288 52.464C377.581 52.608 377.888 52.68 378.208 52.68C378.522 52.68 378.826 52.608 379.12 52.464C379.413 52.32 379.672 52.0773 379.896 51.736C380.12 51.3947 380.298 50.9413 380.432 50.376C380.57 49.8053 380.64 49.0933 380.64 48.24ZM384.441 45.648C384.521 45.104 384.67 44.6267 384.889 44.216C385.113 43.8053 385.393 43.464 385.729 43.192C386.065 42.9147 386.449 42.7067 386.881 42.568C387.318 42.424 387.79 42.352 388.297 42.352C388.809 42.352 389.273 42.4267 389.689 42.576C390.11 42.72 390.47 42.9227 390.769 43.184C391.073 43.4453 391.305 43.7573 391.465 44.12C391.63 44.4827 391.713 44.88 391.713 45.312C391.713 45.68 391.668 46.0053 391.577 46.288C391.492 46.5653 391.366 46.8107 391.201 47.024C391.041 47.2373 390.844 47.416 390.609 47.56C390.374 47.704 390.11 47.824 389.817 47.92C390.532 48.128 391.068 48.4613 391.425 48.92C391.782 49.3733 391.961 49.944 391.961 50.632C391.961 51.1867 391.857 51.68 391.649 52.112C391.441 52.544 391.158 52.9093 390.801 53.208C390.449 53.5067 390.036 53.736 389.561 53.896C389.092 54.0507 388.593 54.128 388.065 54.128C387.473 54.128 386.961 54.0587 386.529 53.92C386.097 53.776 385.724 53.5733 385.409 53.312C385.1 53.0453 384.841 52.7253 384.633 52.352C384.425 51.9787 384.249 51.56 384.105 51.096L384.849 50.784C385.046 50.6987 385.233 50.6747 385.409 50.712C385.59 50.7493 385.721 50.848 385.801 51.008C385.886 51.1787 385.982 51.3627 386.089 51.56C386.196 51.752 386.332 51.9307 386.497 52.096C386.668 52.256 386.876 52.392 387.121 52.504C387.372 52.6107 387.678 52.664 388.041 52.664C388.409 52.664 388.729 52.6053 389.001 52.488C389.278 52.3653 389.508 52.2107 389.689 52.024C389.876 51.832 390.014 51.6187 390.105 51.384C390.196 51.1493 390.241 50.9173 390.241 50.688C390.241 50.4 390.206 50.136 390.137 49.896C390.068 49.6507 389.932 49.4427 389.729 49.272C389.532 49.1013 389.249 48.968 388.881 48.872C388.518 48.7707 388.041 48.72 387.449 48.72V47.48C387.934 47.4747 388.342 47.4267 388.673 47.336C389.009 47.24 389.276 47.112 389.473 46.952C389.676 46.7867 389.82 46.5893 389.905 46.36C389.996 46.1307 390.041 45.88 390.041 45.608C390.041 45.3147 389.996 45.056 389.905 44.832C389.814 44.608 389.686 44.4213 389.521 44.272C389.361 44.1173 389.169 44.0027 388.945 43.928C388.721 43.8533 388.473 43.816 388.201 43.816C387.94 43.816 387.697 43.8533 387.473 43.928C387.254 44.0027 387.057 44.1067 386.881 44.24C386.71 44.3733 386.566 44.5333 386.449 44.72C386.332 44.9013 386.246 45.1013 386.193 45.32C386.118 45.5387 386.017 45.6853 385.889 45.76C385.766 45.8347 385.585 45.8507 385.345 45.808L384.441 45.648Z" fill="#363B3F"/>
<path d="M329.828 58.08H392.777V58.848H329.828V58.08Z" fill="#363B3F"/>
<path d="M58.43 85H57.53V81.67H53.87V85H52.97V77.86H53.87V80.88H57.53V77.86H58.43V85ZM66.6221 82.31C66.6221 83.1967 66.3954 83.8833 65.9421 84.37C65.4954 84.8567 64.8888 85.1 64.1221 85.1C63.6488 85.1 63.2254 84.9933 62.8521 84.78C62.4854 84.56 62.1954 84.2433 61.9821 83.83C61.7688 83.41 61.6621 82.9033 61.6621 82.31C61.6621 81.4233 61.8854 80.74 62.3321 80.26C62.7788 79.78 63.3854 79.54 64.1521 79.54C64.6388 79.54 65.0654 79.65 65.4321 79.87C65.8054 80.0833 66.0954 80.3967 66.3021 80.81C66.5154 81.2167 66.6221 81.7167 66.6221 82.31ZM62.5721 82.31C62.5721 82.9433 62.6954 83.4467 62.9421 83.82C63.1954 84.1867 63.5954 84.37 64.1421 84.37C64.6821 84.37 65.0788 84.1867 65.3321 83.82C65.5854 83.4467 65.7121 82.9433 65.7121 82.31C65.7121 81.6767 65.5854 81.18 65.3321 80.82C65.0788 80.46 64.6788 80.28 64.1321 80.28C63.5854 80.28 63.1888 80.46 62.9421 80.82C62.6954 81.18 62.5721 81.6767 62.5721 82.31ZM75.5968 79.54C76.2035 79.54 76.6568 79.6967 76.9568 80.01C77.2568 80.3167 77.4068 80.8167 77.4068 81.51V85H76.5368V81.55C76.5368 80.7033 76.1735 80.28 75.4468 80.28C74.9268 80.28 74.5535 80.43 74.3268 80.73C74.1068 81.03 73.9968 81.4667 73.9968 82.04V85H73.1268V81.55C73.1268 80.7033 72.7601 80.28 72.0268 80.28C71.4868 80.28 71.1135 80.4467 70.9068 80.78C70.7001 81.1133 70.5968 81.5933 70.5968 82.22V85H69.7168V79.64H70.4268L70.5568 80.37H70.6068C70.7735 80.09 70.9968 79.8833 71.2768 79.75C71.5635 79.61 71.8668 79.54 72.1868 79.54C73.0268 79.54 73.5735 79.84 73.8268 80.44H73.8768C74.0568 80.1333 74.3001 79.9067 74.6068 79.76C74.9201 79.6133 75.2501 79.54 75.5968 79.54ZM82.8325 79.54C83.2925 79.54 83.6858 79.64 84.0125 79.84C84.3458 80.04 84.5992 80.3233 84.7725 80.69C84.9525 81.05 85.0425 81.4733 85.0425 81.96V82.49H81.3725C81.3858 83.0967 81.5392 83.56 81.8325 83.88C82.1325 84.1933 82.5492 84.35 83.0825 84.35C83.4225 84.35 83.7225 84.32 83.9825 84.26C84.2492 84.1933 84.5225 84.1 84.8025 83.98V84.75C84.5292 84.87 84.2592 84.9567 83.9925 85.01C83.7258 85.07 83.4092 85.1 83.0425 85.1C82.5358 85.1 82.0858 84.9967 81.6925 84.79C81.3058 84.5833 81.0025 84.2767 80.7825 83.87C80.5692 83.4567 80.4625 82.9533 80.4625 82.36C80.4625 81.7733 80.5592 81.27 80.7525 80.85C80.9525 80.43 81.2292 80.1067 81.5825 79.88C81.9425 79.6533 82.3592 79.54 82.8325 79.54ZM82.8225 80.26C82.4025 80.26 82.0692 80.3967 81.8225 80.67C81.5825 80.9367 81.4392 81.31 81.3925 81.79H84.1225C84.1158 81.3367 84.0092 80.97 83.8025 80.69C83.5958 80.4033 83.2692 80.26 82.8225 80.26ZM92.0547 83.06L95.8247 81.49L92.0547 79.7V78.92L96.7647 81.27V81.77L92.0547 83.84V83.06ZM106.505 85H105.605V78.65H103.375V77.86H108.725V78.65H106.505V85ZM112.749 79.54C113.209 79.54 113.602 79.64 113.929 79.84C114.262 80.04 114.515 80.3233 114.689 80.69C114.869 81.05 114.959 81.4733 114.959 81.96V82.49H111.289C111.302 83.0967 111.455 83.56 111.749 83.88C112.049 84.1933 112.465 84.35 112.999 84.35C113.339 84.35 113.639 84.32 113.899 84.26C114.165 84.1933 114.439 84.1 114.719 83.98V84.75C114.445 84.87 114.175 84.9567 113.909 85.01C113.642 85.07 113.325 85.1 112.959 85.1C112.452 85.1 112.002 84.9967 111.609 84.79C111.222 84.5833 110.919 84.2767 110.699 83.87C110.485 83.4567 110.379 82.9533 110.379 82.36C110.379 81.7733 110.475 81.27 110.669 80.85C110.869 80.43 111.145 80.1067 111.499 79.88C111.859 79.6533 112.275 79.54 112.749 79.54ZM112.739 80.26C112.319 80.26 111.985 80.3967 111.739 80.67C111.499 80.9367 111.355 81.31 111.309 81.79H114.039C114.032 81.3367 113.925 80.97 113.719 80.69C113.512 80.4033 113.185 80.26 112.739 80.26ZM120.053 79.55C120.706 79.55 121.19 79.6933 121.503 79.98C121.816 80.2667 121.973 80.7233 121.973 81.35V85H121.333L121.163 84.24H121.123C120.89 84.5333 120.643 84.75 120.383 84.89C120.13 85.03 119.776 85.1 119.323 85.1C118.836 85.1 118.433 84.9733 118.113 84.72C117.793 84.46 117.633 84.0567 117.633 83.51C117.633 82.9767 117.843 82.5667 118.263 82.28C118.683 81.9867 119.33 81.8267 120.203 81.8L121.113 81.77V81.45C121.113 81.0033 121.016 80.6933 120.823 80.52C120.63 80.3467 120.356 80.26 120.003 80.26C119.723 80.26 119.456 80.3033 119.203 80.39C118.95 80.47 118.713 80.5633 118.493 80.67L118.223 80.01C118.456 79.8833 118.733 79.7767 119.053 79.69C119.373 79.5967 119.706 79.55 120.053 79.55ZM120.313 82.41C119.646 82.4367 119.183 82.5433 118.923 82.73C118.67 82.9167 118.543 83.18 118.543 83.52C118.543 83.82 118.633 84.04 118.813 84.18C119 84.32 119.236 84.39 119.523 84.39C119.976 84.39 120.353 84.2667 120.653 84.02C120.953 83.7667 121.103 83.38 121.103 82.86V82.38L120.313 82.41ZM131.209 79.54C131.815 79.54 132.269 79.6967 132.569 80.01C132.869 80.3167 133.019 80.8167 133.019 81.51V85H132.149V81.55C132.149 80.7033 131.785 80.28 131.059 80.28C130.539 80.28 130.165 80.43 129.939 80.73C129.719 81.03 129.609 81.4667 129.609 82.04V85H128.739V81.55C128.739 80.7033 128.372 80.28 127.639 80.28C127.099 80.28 126.725 80.4467 126.519 80.78C126.312 81.1133 126.209 81.5933 126.209 82.22V85H125.329V79.64H126.039L126.169 80.37H126.219C126.385 80.09 126.609 79.8833 126.889 79.75C127.175 79.61 127.479 79.54 127.799 79.54C128.639 79.54 129.185 79.84 129.439 80.44H129.489C129.669 80.1333 129.912 79.9067 130.219 79.76C130.532 79.6133 130.862 79.54 131.209 79.54ZM140.322 83.06L144.092 81.49L140.322 79.7V78.92L145.032 81.27V81.77L140.322 83.84V83.06ZM154.482 77.86C155.369 77.86 156.022 78.03 156.442 78.37C156.869 78.7033 157.082 79.21 157.082 79.89C157.082 80.27 157.012 80.5867 156.872 80.84C156.732 81.0933 156.552 81.2967 156.332 81.45C156.119 81.5967 155.892 81.7133 155.652 81.8L157.612 85H156.562L154.832 82.05H153.412V85H152.512V77.86H154.482ZM154.432 78.64H153.412V81.29H154.482C155.062 81.29 155.486 81.1767 155.752 80.95C156.019 80.7167 156.152 80.3767 156.152 79.93C156.152 79.4633 156.012 79.1333 155.732 78.94C155.452 78.74 155.019 78.64 154.432 78.64ZM164.973 82.31C164.973 83.1967 164.746 83.8833 164.293 84.37C163.846 84.8567 163.24 85.1 162.473 85.1C162 85.1 161.576 84.9933 161.203 84.78C160.836 84.56 160.546 84.2433 160.333 83.83C160.12 83.41 160.013 82.9033 160.013 82.31C160.013 81.4233 160.236 80.74 160.683 80.26C161.13 79.78 161.736 79.54 162.503 79.54C162.99 79.54 163.416 79.65 163.783 79.87C164.156 80.0833 164.446 80.3967 164.653 80.81C164.866 81.2167 164.973 81.7167 164.973 82.31ZM160.923 82.31C160.923 82.9433 161.046 83.4467 161.293 83.82C161.546 84.1867 161.946 84.37 162.493 84.37C163.033 84.37 163.43 84.1867 163.683 83.82C163.936 83.4467 164.063 82.9433 164.063 82.31C164.063 81.6767 163.936 81.18 163.683 80.82C163.43 80.46 163.03 80.28 162.483 80.28C161.936 80.28 161.54 80.46 161.293 80.82C161.046 81.18 160.923 81.6767 160.923 82.31ZM172.728 82.31C172.728 83.1967 172.501 83.8833 172.048 84.37C171.601 84.8567 170.994 85.1 170.228 85.1C169.754 85.1 169.331 84.9933 168.958 84.78C168.591 84.56 168.301 84.2433 168.088 83.83C167.874 83.41 167.768 82.9033 167.768 82.31C167.768 81.4233 167.991 80.74 168.438 80.26C168.884 79.78 169.491 79.54 170.258 79.54C170.744 79.54 171.171 79.65 171.538 79.87C171.911 80.0833 172.201 80.3967 172.408 80.81C172.621 81.2167 172.728 81.7167 172.728 82.31ZM168.678 82.31C168.678 82.9433 168.801 83.4467 169.048 83.82C169.301 84.1867 169.701 84.37 170.248 84.37C170.788 84.37 171.184 84.1867 171.438 83.82C171.691 83.4467 171.818 82.9433 171.818 82.31C171.818 81.6767 171.691 81.18 171.438 80.82C171.184 80.46 170.784 80.28 170.238 80.28C169.691 80.28 169.294 80.46 169.048 80.82C168.801 81.18 168.678 81.6767 168.678 82.31ZM181.702 79.54C182.309 79.54 182.762 79.6967 183.062 80.01C183.362 80.3167 183.512 80.8167 183.512 81.51V85H182.642V81.55C182.642 80.7033 182.279 80.28 181.552 80.28C181.032 80.28 180.659 80.43 180.432 80.73C180.212 81.03 180.102 81.4667 180.102 82.04V85H179.232V81.55C179.232 80.7033 178.866 80.28 178.132 80.28C177.592 80.28 177.219 80.4467 177.012 80.78C176.806 81.1133 176.702 81.5933 176.702 82.22V85H175.822V79.64H176.532L176.662 80.37H176.712C176.879 80.09 177.102 79.8833 177.382 79.75C177.669 79.61 177.972 79.54 178.292 79.54C179.132 79.54 179.679 79.84 179.932 80.44H179.982C180.162 80.1333 180.406 79.9067 180.712 79.76C181.026 79.6133 181.356 79.54 181.702 79.54ZM191.248 81.42C191.248 82.1867 191.168 82.8467 191.008 83.4C190.848 83.9467 190.595 84.3667 190.248 84.66C189.901 84.9533 189.441 85.1 188.868 85.1C188.061 85.1 187.465 84.7767 187.078 84.13C186.698 83.4767 186.508 82.5733 186.508 81.42C186.508 80.6467 186.585 79.9867 186.738 79.44C186.898 78.8933 187.151 78.4767 187.498 78.19C187.845 77.8967 188.301 77.75 188.868 77.75C189.668 77.75 190.265 78.0733 190.658 78.72C191.051 79.36 191.248 80.26 191.248 81.42ZM187.388 81.42C187.388 82.4 187.498 83.1333 187.718 83.62C187.945 84.1067 188.328 84.35 188.868 84.35C189.401 84.35 189.781 84.11 190.008 83.63C190.241 83.1433 190.358 82.4067 190.358 81.42C190.358 80.4467 190.241 79.7167 190.008 79.23C189.781 78.7433 189.401 78.5 188.868 78.5C188.328 78.5 187.945 78.7433 187.718 79.23C187.498 79.7167 187.388 80.4467 187.388 81.42ZM198.371 79.53C198.371 80.01 198.237 80.3933 197.971 80.68C197.704 80.96 197.344 81.1467 196.891 81.24V81.28C197.464 81.3467 197.891 81.5267 198.171 81.82C198.451 82.1133 198.591 82.4967 198.591 82.97C198.591 83.3833 198.494 83.7533 198.301 84.08C198.107 84.4 197.807 84.65 197.401 84.83C197.001 85.01 196.484 85.1 195.851 85.1C195.477 85.1 195.131 85.07 194.811 85.01C194.491 84.9567 194.184 84.8567 193.891 84.71V83.89C194.191 84.0367 194.514 84.1533 194.861 84.24C195.207 84.32 195.541 84.36 195.861 84.36C196.501 84.36 196.961 84.2367 197.241 83.99C197.527 83.7367 197.671 83.39 197.671 82.95C197.671 82.5033 197.494 82.1833 197.141 81.99C196.794 81.79 196.304 81.69 195.671 81.69H194.981V80.94H195.681C196.267 80.94 196.711 80.8167 197.011 80.57C197.317 80.3233 197.471 79.9967 197.471 79.59C197.471 79.2433 197.354 78.9767 197.121 78.79C196.887 78.5967 196.571 78.5 196.171 78.5C195.784 78.5 195.454 78.5567 195.181 78.67C194.907 78.7833 194.637 78.9267 194.371 79.1L193.931 78.5C194.184 78.3 194.497 78.1267 194.871 77.98C195.251 77.8333 195.681 77.76 196.161 77.76C196.907 77.76 197.461 77.9267 197.821 78.26C198.187 78.5933 198.371 79.0167 198.371 79.53ZM205.661 83.06L209.431 81.49L205.661 79.7V78.92L210.371 81.27V81.77L205.661 83.84V83.06ZM223.511 82.97C223.141 83.41 222.641 83.78 222.051 84.09C221.601 83.77 220.891 83.38 220.241 83.11C220.311 83.07 220.381 83.02 220.451 82.97H223.511ZM217.591 82.89H218.281V81.83H220.811C220.261 82.44 219.311 83.04 218.011 83.46C218.161 83.58 218.361 83.81 218.461 83.97C218.891 83.82 219.281 83.64 219.641 83.46C220.231 83.71 220.901 84.07 221.371 84.4C220.431 84.78 219.361 85.02 218.321 85.15C218.441 85.3 218.591 85.6 218.661 85.78C221.041 85.42 223.531 84.53 224.571 82.66L224.101 82.39L223.971 82.42H221.141C221.341 82.23 221.521 82.03 221.681 81.83H225.471V82.89H226.191V81.24H217.591V82.89ZM224.751 80.18H223.231V79.15H224.751V80.18ZM222.601 80.18H221.111V79.15H222.601V80.18ZM220.471 80.18H219.041V79.15H220.471V80.18ZM218.361 78.63V80.71H225.451V78.63H218.361ZM223.891 77.3V76.64H223.151V77.3H220.561V76.64H219.831V77.3H217.551V77.94H219.831V78.45H220.561V77.94H223.151V78.45H223.891V77.94H226.221V77.3H223.891ZM236.871 78.7H234.391V77.77H236.871V78.7ZM236.871 80.21H234.391V79.28H236.871V80.21ZM236.871 81.74H234.391V80.79H236.871V81.74ZM237.581 77.16H233.701V82.35H237.581V77.16ZM232.731 82.65C233.191 83.1 233.801 83.74 234.091 84.12L234.631 83.68C234.331 83.31 233.711 82.69 233.251 82.27L232.731 82.65ZM229.731 85.24C230.131 84.69 230.451 83.8 230.671 83.13L230.021 82.88C229.821 83.53 229.481 84.38 229.081 84.91L229.731 85.24ZM231.691 82.45V80.02C232.131 80.39 232.691 80.88 232.951 81.13L233.351 80.53C233.091 80.33 232.071 79.57 231.691 79.33V78.77H233.271V78.12H231.691V76.66H230.981V78.12H229.161V78.77H230.851C230.411 79.79 229.671 80.82 228.941 81.34C229.091 81.46 229.301 81.69 229.421 81.86C229.981 81.4 230.541 80.64 230.981 79.82V82.45H231.691ZM232.841 84.88C232.261 84.88 232.161 84.83 232.161 84.57V82.99H231.431V84.58C231.431 85.35 231.711 85.55 232.791 85.55H234.861C235.761 85.55 235.991 85.25 236.091 84C235.881 83.96 235.581 83.85 235.411 83.72C235.371 84.74 235.291 84.88 234.811 84.88H232.841ZM236.231 82.97C236.631 83.63 237.151 84.5 237.381 85.02L238.071 84.68C237.821 84.17 237.281 83.31 236.871 82.68L236.231 82.97ZM247.501 80.32V80.92H243.041V80.32H247.501ZM243.011 82.04C243.021 81.82 243.031 81.61 243.041 81.41H247.501V82.04H243.011ZM248.231 82.58V79.78H242.291V81.22C242.291 82.42 242.111 84.05 240.791 85.21C240.961 85.31 241.251 85.58 241.361 85.72C242.341 84.85 242.771 83.67 242.941 82.58H248.231ZM247.861 83.7V84.87H243.781V83.7H247.861ZM243.071 85.76H243.781V85.45H247.861V85.75H248.601V83.12H243.071V85.76ZM243.711 78.67C244.331 78.2 244.861 77.72 245.231 77.27C245.651 77.73 246.231 78.21 246.871 78.67H243.711ZM244.841 76.61C244.031 77.68 242.361 78.92 240.661 79.65C240.811 79.8 241.001 80.07 241.091 80.24C241.921 79.86 242.741 79.37 243.461 78.85V79.23H247.081V78.82C247.851 79.35 248.691 79.83 249.461 80.17C249.581 79.97 249.761 79.71 249.921 79.53C248.381 78.94 246.641 77.82 245.551 76.61H244.841ZM261.431 78.17V77.51H257.651V76.64H256.891V77.51H253.191V80.62C253.191 82.04 253.121 83.99 252.331 85.36C252.491 85.43 252.801 85.65 252.921 85.78C253.771 84.33 253.891 82.15 253.891 80.62V78.17H261.431ZM255.481 82.74V81.98H257.331V82.74H255.481ZM255.481 80.74H257.331V81.49H255.481V80.74ZM259.981 80.74V81.49H258.041V80.74H259.981ZM259.981 82.74H258.041V81.98H259.981V82.74ZM261.501 83.95H258.041V83.24H260.661V80.24H258.041V79.57H261.181V78.98H258.041V78.26H257.331V78.98H254.451V79.57H257.331V80.24H254.821V83.24H257.331V83.95H254.021V84.58H257.331V85.77H258.041V84.58H261.501V83.95ZM268.479 83.06L272.249 81.49L268.479 79.7V78.92L273.189 81.27V81.77L268.479 83.84V83.06ZM289.119 78.64V77.96H285.679C285.829 77.58 285.969 77.18 286.079 76.78L285.359 76.63C285.039 77.82 284.469 78.94 283.739 79.67C283.919 79.78 284.219 80.01 284.349 80.14C284.719 79.73 285.069 79.22 285.359 78.64H289.119ZM283.899 80.24H281.999V78.93H284.239V78.25H282.639V76.65H281.929V78.25H280.189V78.93H281.339V80.3C281.339 81.77 281.209 83.72 280.019 85.34C280.199 85.46 280.449 85.65 280.569 85.79C281.689 84.25 281.949 82.47 281.989 80.91H283.209C283.139 83.73 283.069 84.71 282.909 84.95C282.829 85.06 282.749 85.09 282.599 85.09C282.449 85.09 282.079 85.08 281.669 85.04C281.779 85.22 281.849 85.51 281.859 85.71C282.279 85.73 282.689 85.73 282.929 85.7C283.179 85.68 283.349 85.61 283.499 85.39C283.759 85.05 283.819 83.92 283.899 80.57V80.24ZM288.799 80.65C288.439 81.04 287.879 81.52 287.379 81.91C287.239 81.41 287.119 80.88 287.029 80.33C287.709 80.01 288.329 79.66 288.769 79.32L288.239 78.93C287.349 79.62 285.459 80.36 284.059 80.67C284.229 80.82 284.419 81.1 284.509 81.28C284.679 81.23 284.859 81.18 285.049 81.12V85.76H285.759V80.87C285.979 80.79 286.209 80.7 286.429 80.6C286.799 82.88 287.509 84.76 288.869 85.73C288.979 85.54 289.209 85.25 289.379 85.13C288.559 84.6 287.979 83.67 287.569 82.53C288.129 82.13 288.819 81.6 289.329 81.11L288.799 80.65ZM300.629 77.24H295.749V77.94H300.629V77.24ZM294.079 76.63C293.579 77.34 292.619 78.24 291.789 78.8C291.919 78.94 292.119 79.23 292.229 79.39C293.119 78.76 294.139 77.79 294.789 76.91L294.079 76.63ZM294.489 78.76C293.799 79.89 292.719 81.04 291.689 81.77C291.839 81.92 292.099 82.24 292.209 82.39C292.579 82.1 292.959 81.74 293.339 81.35V85.79H294.079V80.53C294.489 80.04 294.869 79.53 295.179 79.02L294.489 78.76ZM300.919 79.97H295.319V80.68H298.659V84.8C298.659 84.97 298.599 85.01 298.409 85.02C298.219 85.03 297.559 85.03 296.849 85.01C296.959 85.22 297.059 85.53 297.089 85.73C298.069 85.73 298.629 85.73 298.969 85.62C299.299 85.5 299.409 85.27 299.409 84.81V80.68H300.919V79.97Z" fill="#363B3F"/>
<path d="M279.699 86.5H301.399V87H279.699V86.5Z" fill="#363B3F"/>
<path d="M659.969 44.2188C659.969 46.1336 658.415 47.6875 656.5 47.6875C654.585 47.6875 653.031 46.1336 653.031 44.2188C653.031 42.3039 654.585 40.75 656.5 40.75C658.415 40.75 659.969 42.3039 659.969 44.2188ZM656.5 50.5938C657.314 50.5938 658.09 50.4245 658.794 50.125H660.25C661.907 50.125 663.25 51.4679 663.25 53.125V53.5938C663.25 53.9559 662.956 54.25 662.594 54.25H650.406C650.044 54.25 649.75 53.9559 649.75 53.5938V53.125C649.75 51.4679 651.093 50.125 652.75 50.125H654.207C654.912 50.4241 655.685 50.5938 656.5 50.5938Z" stroke="#ECEDEF" stroke-width="1.5"/>
<path d="M594.324 51.1252L594.324 51.1249C594.293 51.0917 594.259 51.0559 594.222 51.0172C593.948 50.7304 593.523 50.2852 593.176 49.5818C592.779 48.7789 592.498 47.6826 592.498 46.0938C592.498 44.1923 591.17 42.6612 589.347 42.2824L588.749 42.1583V41.548V40.9375C588.749 40.8336 588.665 40.75 588.563 40.75C588.46 40.75 588.376 40.8336 588.376 40.9375V41.548V42.1583L587.778 42.2824C585.955 42.6612 584.627 44.1923 584.627 46.0938C584.627 47.6826 584.346 48.7789 583.95 49.5818C583.602 50.2852 583.177 50.7304 582.903 51.0172C582.866 51.0559 582.832 51.0916 582.801 51.1248C582.778 51.1496 582.767 51.1712 582.76 51.1882C582.753 51.2057 582.75 51.2245 582.75 51.245L594.324 51.1252ZM594.324 51.1252C594.347 51.1497 594.358 51.171 594.365 51.188C594.372 51.2056 594.375 51.2245 594.375 51.245L594.375 51.2454M594.324 51.1252L594.375 51.2454M594.375 51.2454C594.375 51.2937 594.354 51.3461 594.319 51.3838C594.289 51.415 594.249 51.4375 594.185 51.4375H582.94C582.876 51.4375 582.836 51.415 582.807 51.3839M594.375 51.2454L582.807 51.3839M582.807 51.3839C582.771 51.3462 582.75 51.2936 582.75 51.245L582.807 51.3839ZM589.4 53.875C589.194 54.1052 588.895 54.25 588.563 54.25C588.23 54.25 587.931 54.1052 587.725 53.875H589.4Z" stroke="#ECEDEF" stroke-width="1.5"/>
<path d="M405.814 44.1851L408.815 47.1855L402.299 53.7007L399.624 53.996C399.266 54.0356 398.964 53.7328 399.004 53.3747L399.301 50.6977L405.814 44.1851ZM410.67 43.7384L409.262 42.3296C408.822 41.8901 408.109 41.8901 407.67 42.3296L406.345 43.6549L409.345 46.6553L410.67 45.33C411.11 44.8903 411.11 44.1778 410.67 43.7384Z" fill="#ECEDEF"/>
<path d="M20.5357 44.4107H34.4643C34.7602 44.4107 35 44.1709 35 43.875V42.5357C35 42.2398 34.7602 42 34.4643 42H20.5357C20.2398 42 20 42.2398 20 42.5357V43.875C20 44.1709 20.2398 44.4107 20.5357 44.4107ZM20.5357 49.7679H34.4643C34.7602 49.7679 35 49.528 35 49.2321V47.8929C35 47.597 34.7602 47.3571 34.4643 47.3571H20.5357C20.2398 47.3571 20 47.597 20 47.8929V49.2321C20 49.528 20.2398 49.7679 20.5357 49.7679ZM20.5357 55.125H34.4643C34.7602 55.125 35 54.8852 35 54.5893V53.25C35 52.9541 34.7602 52.7143 34.4643 52.7143H20.5357C20.2398 52.7143 20 52.9541 20 53.25V54.5893C20 54.8852 20.2398 55.125 20.5357 55.125Z" fill="#ECEDEF"/>
<g filter="url(#filter1_d_410:2631)">
<circle cx="224" cy="240" r="30" fill="url(#paint1_linear_410:2631)"/>
</g>
<g filter="url(#filter2_d_410:2631)">
<circle cx="480" cy="239" r="30" fill="url(#paint2_linear_410:2631)"/>
</g>
<circle cx="224.5" cy="239.5" r="82" stroke="#616870"/>
<circle cx="480.5" cy="239.5" r="82" stroke="#616870"/>
<g filter="url(#filter3_d_410:2631)">
<circle cx="207.5" cy="160.5" r="24.5" fill="url(#paint3_linear_410:2631)"/>
</g>
<g filter="url(#filter4_d_410:2631)">
<circle cx="463.5" cy="160.5" r="24.5" fill="url(#paint4_linear_410:2631)"/>
</g>
<g filter="url(#filter5_d_410:2631)">
<ellipse cx="298.5" cy="264" rx="24.5" ry="25" fill="url(#paint5_linear_410:2631)"/>
</g>
<g filter="url(#filter6_d_410:2631)">
<ellipse cx="554.5" cy="264" rx="24.5" ry="25" fill="url(#paint6_linear_410:2631)"/>
</g>
<g filter="url(#filter7_d_410:2631)">
<circle cx="240.5" cy="313.5" r="24.5" fill="url(#paint7_linear_410:2631)"/>
</g>
<g filter="url(#filter8_d_410:2631)">
<circle cx="496.5" cy="313.5" r="24.5" fill="url(#paint8_linear_410:2631)"/>
</g>
<g filter="url(#filter9_d_410:2631)">
<ellipse cx="158" cy="288.5" rx="25" ry="24.5" fill="url(#paint9_linear_410:2631)"/>
</g>
<g filter="url(#filter10_d_410:2631)">
<ellipse cx="414" cy="288.5" rx="25" ry="24.5" fill="url(#paint10_linear_410:2631)"/>
</g>
<g filter="url(#filter11_d_410:2631)">
<circle cx="145.5" cy="214.5" r="24.5" fill="url(#paint11_linear_410:2631)"/>
</g>
<g filter="url(#filter12_d_410:2631)">
<circle cx="401.5" cy="214.5" r="24.5" fill="url(#paint12_linear_410:2631)"/>
</g>
<path d="M221.732 234.568H220.18V233.016H221.732V234.568ZM219.332 234.568H217.812V233.016H219.332V234.568ZM216.964 234.568H215.492V233.016H216.964V234.568ZM222.756 232.136H214.5V235.432H222.756V232.136ZM214.084 241.224L212.004 241.816V238.376H213.668V237.336H212.004V233.8H213.908V232.728H208.948V233.8H210.932V237.336H209.124V238.376H210.932V242.12C210.132 242.344 209.38 242.552 208.772 242.696L209.06 243.816C210.516 243.4 212.42 242.84 214.212 242.28L214.084 241.224ZM215.812 239.08H221.284V240.696H215.812V239.08ZM222.26 241.752C221.748 242.152 220.852 242.776 220.164 243.16C219.748 242.68 219.396 242.168 219.14 241.608H222.404V238.184H214.756V241.608H217.636C216.308 242.776 214.34 243.864 212.628 244.424C212.852 244.632 213.172 245.016 213.332 245.272C214.5 244.824 215.812 244.12 216.98 243.304V246.216H218.116V242.408C218.212 242.328 218.308 242.232 218.404 242.152C219.284 244.024 220.788 245.512 222.724 246.216C222.884 245.944 223.22 245.512 223.492 245.272C222.452 244.984 221.524 244.44 220.756 243.768C221.476 243.416 222.404 242.888 223.108 242.376L222.26 241.752ZM213.764 236.312V237.304H223.524V236.312H213.764ZM236.356 233.768V234.984H228.916V233.768H236.356ZM228.916 237.016V235.8H236.356V237.016H228.916ZM239.908 239.912V239H228.916V237.896H237.54V232.888H232.676C232.884 232.536 233.108 232.136 233.3 231.736L231.94 231.56C231.828 231.928 231.652 232.44 231.444 232.888H227.748V241.992H230.212V244.216H227.508V242.504H226.404V245.944H227.508V245.16H235.124V242.456H234.004V244.216H231.316V241.992H238.116C237.924 244.008 237.748 244.84 237.476 245.096C237.332 245.224 237.188 245.24 236.916 245.24C236.644 245.24 235.908 245.24 235.124 245.16C235.284 245.432 235.412 245.88 235.428 246.184C236.26 246.232 237.06 246.248 237.444 246.216C237.892 246.184 238.164 246.088 238.436 245.816C238.836 245.368 239.076 244.28 239.3 241.544C239.332 241.384 239.348 241.064 239.348 241.064H228.916V239.912H239.908Z" fill="black"/>
<path d="M470.164 235.048C471.252 235.896 472.612 237.128 473.252 237.912L474.148 237.16C473.476 236.376 472.116 235.176 470.996 234.376L470.164 235.048ZM468.548 238.568C468.564 238.312 468.564 238.072 468.564 237.832V233.544H475.94V238.568H468.548ZM479.3 238.568H477.14V232.456H467.38V237.816C467.38 238.056 467.38 238.312 467.364 238.568H465.092V239.704H467.316C467.14 241.704 466.564 243.816 464.788 245.416C465.06 245.592 465.508 246.04 465.668 246.264C467.636 244.504 468.292 241.976 468.484 239.704H475.94V244.648C475.94 244.984 475.812 245.08 475.492 245.096C475.14 245.112 473.94 245.128 472.692 245.08C472.884 245.384 473.076 245.912 473.14 246.232C474.772 246.232 475.78 246.216 476.356 246.04C476.916 245.848 477.14 245.464 477.14 244.648V239.704H479.3V238.568ZM484.868 234.36C484.324 235.864 483.188 237.064 481.828 237.848C482.068 238.008 482.468 238.36 482.644 238.552C483.412 238.056 484.148 237.4 484.756 236.616C485.284 237 485.828 237.432 486.132 237.736L486.804 236.984C486.452 236.68 485.828 236.216 485.284 235.864C485.524 235.464 485.732 235.032 485.892 234.584L484.868 234.36ZM491.86 240.152L491.652 240.2H488.02C488.34 239.912 488.628 239.608 488.884 239.304L487.652 239.032C486.708 240.184 484.948 241.48 482.612 242.408C482.884 242.568 483.22 242.936 483.396 243.192C484.772 242.6 485.956 241.896 486.932 241.128H491.012C490.548 241.816 489.94 242.424 489.204 242.936C488.324 242.568 487.46 242.248 486.692 241.96L485.732 242.664C486.468 242.936 487.284 243.272 488.1 243.608C486.404 244.488 484.324 245.016 482.244 245.256C482.436 245.512 482.66 245.992 482.772 246.28C485.108 245.928 487.428 245.272 489.284 244.12C491.012 244.872 492.644 245.656 493.668 246.248L494.692 245.416C493.604 244.824 491.988 244.088 490.324 243.384C491.268 242.616 492.052 241.688 492.58 240.552L491.86 240.152ZM495.78 237.816C495.156 237.256 493.972 236.424 492.948 235.784C493.156 235.4 493.332 235 493.476 234.6L492.452 234.344C492.1 235.464 491.396 236.456 490.516 237.128C490.068 236.712 489.668 236.264 489.348 235.816V234.184H495.7V233.128H489.348V231.608H488.212V233.128H481.972V234.184H488.212V235.816C486.788 237.848 484.1 239.64 481.396 240.424C481.636 240.632 481.956 241.048 482.116 241.336C484.388 240.568 486.628 239.112 488.212 237.304V238.968H489.348V237.288C490.98 239.112 493.284 240.632 495.54 241.416C495.716 241.16 496.052 240.728 496.292 240.52C494.532 239.992 492.74 239.016 491.3 237.832C491.716 237.48 492.116 237.048 492.452 236.552C493.428 237.224 494.532 238.056 495.108 238.584L495.78 237.816Z" fill="black"/>
<path d="M205.412 159.288H201.908V158.124H205.412V159.288ZM205.412 161.1H201.908V159.924H205.412V161.1ZM205.412 162.948H201.908V161.772H205.412V162.948ZM201.08 157.428V163.644H206.252V157.428H203.768C203.876 157.08 203.996 156.684 204.104 156.288H206.672V155.52H200.624V156.288H203.12C203.06 156.66 202.976 157.068 202.892 157.428H201.08ZM199.856 162.048C200.192 161.4 200.552 160.356 200.876 159.432L200.324 159.288L200.192 159.324H199.316L199.604 158.952C199.376 158.712 199.04 158.436 198.668 158.172C199.34 157.536 200.036 156.672 200.528 155.868L199.976 155.484L199.796 155.544H196.016V156.336H199.232C198.884 156.828 198.452 157.344 198.044 157.74C197.636 157.488 197.216 157.236 196.832 157.032L196.352 157.608C197.204 158.064 198.188 158.748 198.812 159.324H195.752V160.116H197.72V164.856C197.72 165 197.672 165.048 197.492 165.048C197.336 165.06 196.784 165.06 196.172 165.048C196.292 165.276 196.412 165.648 196.448 165.888C197.276 165.888 197.804 165.876 198.14 165.732C198.488 165.6 198.584 165.336 198.584 164.868V160.116H199.844C199.64 160.764 199.4 161.424 199.196 161.868L199.856 162.048ZM202.268 163.872C201.752 164.4 200.672 165.012 199.736 165.348C199.904 165.504 200.192 165.78 200.324 165.948C201.284 165.6 202.388 164.952 203.048 164.328L202.268 163.872ZM204.116 164.376C204.848 164.832 205.76 165.504 206.216 165.948L206.912 165.432C206.432 164.988 205.508 164.34 204.788 163.92L204.116 164.376ZM212.372 163.152C212.384 163.068 212.384 162.984 212.384 162.9V162.108H215.432V163.152H212.372ZM210.776 160.8H216.896V161.52H210.776V160.8ZM210.776 159.54H216.896V160.224H210.776V159.54ZM210.776 158.268H216.896V158.964H210.776V158.268ZM215.684 156.588C216.008 156.936 216.32 157.368 216.488 157.668H213.8C214.112 157.38 214.436 156.996 214.724 156.588H215.684ZM219.08 163.152H216.332V162.108H217.808V157.668H216.62L217.256 157.38C217.136 157.152 216.932 156.852 216.692 156.588H218.972V155.856H215.156C215.288 155.616 215.396 155.364 215.492 155.112L214.64 154.92C214.316 155.82 213.704 156.696 212.972 157.272C213.176 157.356 213.488 157.524 213.692 157.668H211.34L211.988 157.416C211.904 157.188 211.724 156.876 211.532 156.588H213.584V155.856H210.44C210.56 155.616 210.68 155.376 210.788 155.136L209.972 154.92C209.6 155.844 208.94 156.78 208.208 157.392C208.424 157.488 208.772 157.74 208.94 157.872C209.3 157.524 209.66 157.08 209.996 156.588H210.608C210.848 156.936 211.076 157.38 211.196 157.668H209.9V162.108H211.508V162.888C211.508 162.972 211.508 163.056 211.496 163.152H208.46V163.896H211.208C210.872 164.388 210.14 164.892 208.652 165.264C208.844 165.432 209.084 165.732 209.204 165.936C211.124 165.372 211.904 164.64 212.204 163.896H215.432V165.9H216.332V163.896H219.08V163.152Z" fill="black"/>
<path d="M462.492 156.516H457.68V154.944H456.792V156.516H452.04V157.38H462.492V156.516ZM458.676 158.244C459.816 159.036 461.184 160.188 461.82 160.968L462.6 160.356C461.916 159.564 460.512 158.46 459.384 157.704L458.676 158.244ZM455.1 157.752C454.368 158.76 453.12 159.756 451.944 160.38C452.172 160.536 452.508 160.896 452.676 161.088C453.828 160.368 455.172 159.24 456 158.1L455.1 157.752ZM458.988 159.804C458.592 160.884 458.016 161.772 457.284 162.504C456.552 161.76 455.976 160.884 455.58 159.864L454.728 160.128C455.196 161.292 455.82 162.276 456.6 163.104C455.352 164.076 453.72 164.712 451.776 165.12C451.968 165.324 452.256 165.744 452.34 165.96C454.284 165.468 455.94 164.772 457.26 163.728C458.532 164.796 460.176 165.528 462.204 165.912C462.324 165.672 462.588 165.264 462.792 165.072C460.812 164.748 459.192 164.088 457.956 163.104C458.784 162.288 459.444 161.292 459.912 160.068L458.988 159.804ZM470.964 158.64V159.696H468.948V158.64H470.964ZM473.856 159.696H471.768V158.64H473.856V159.696ZM471.768 161.448V160.356H473.856V161.448H471.768ZM468.948 161.448V160.356H470.964V161.448H468.948ZM468.948 162.132H470.964V164.076H471.768V162.132H473.856V163.224C473.856 163.38 473.808 163.428 473.652 163.428C473.508 163.428 472.992 163.44 472.428 163.416C472.536 163.62 472.644 163.932 472.68 164.148C473.484 164.148 473.988 164.136 474.3 164.016C474.612 163.884 474.708 163.668 474.708 163.236V157.956H473.196C472.932 157.812 472.62 157.644 472.272 157.476C473.16 157.032 474.06 156.432 474.696 155.832L474.144 155.412L473.976 155.46H468.12V156.168H473.124C472.644 156.516 472.056 156.864 471.48 157.116C470.916 156.876 470.328 156.636 469.812 156.456L469.248 156.96C469.968 157.224 470.82 157.608 471.528 157.956H468.108V164.124H468.948V162.132ZM467.136 157.164C466.752 156.576 465.864 155.772 465.108 155.232L464.484 155.784C465.24 156.348 466.104 157.188 466.476 157.776L467.136 157.164ZM466.872 159.66H464.28V160.5H466.008V163.584C465.396 164.076 464.712 164.58 464.136 164.94L464.568 165.804C465.252 165.3 465.888 164.784 466.5 164.256C467.232 165.204 468.312 165.624 469.884 165.684C471.204 165.744 473.748 165.72 475.08 165.66C475.128 165.396 475.26 164.988 475.356 164.784C473.928 164.88 471.192 164.916 469.884 164.856C468.48 164.808 467.448 164.412 466.872 163.512V159.66Z" fill="black"/>
<path d="M144.336 209.688H138.48V210.528H144.336V209.688ZM136.476 208.956C135.876 209.808 134.724 210.888 133.728 211.56C133.884 211.728 134.124 212.076 134.256 212.268C135.324 211.512 136.548 210.348 137.328 209.292L136.476 208.956ZM136.968 211.512C136.14 212.868 134.844 214.248 133.608 215.124C133.788 215.304 134.1 215.688 134.232 215.868C134.676 215.52 135.132 215.088 135.588 214.62V219.948H136.476V213.636C136.968 213.048 137.424 212.436 137.796 211.824L136.968 211.512ZM144.684 212.964H137.964V213.816H141.972V218.76C141.972 218.964 141.9 219.012 141.672 219.024C141.444 219.036 140.652 219.036 139.8 219.012C139.932 219.264 140.052 219.636 140.088 219.876C141.264 219.876 141.936 219.876 142.344 219.744C142.74 219.6 142.872 219.324 142.872 218.772V213.816H144.684V212.964ZM155.712 212.436H152.112V210.24H155.712V212.436ZM156.588 209.46H151.296V213.204H156.588V209.46ZM150.816 215.532C150.576 215.256 149.556 214.2 149.184 213.888V213.156H150.684V212.316H149.184V210.288C149.748 210.156 150.276 209.988 150.708 209.808L150.084 209.136C149.208 209.532 147.636 209.88 146.292 210.096C146.4 210.3 146.52 210.588 146.568 210.792C147.12 210.708 147.732 210.612 148.32 210.492V212.316H146.364V213.156H148.2C147.72 214.524 146.892 216.072 146.136 216.912C146.28 217.128 146.496 217.476 146.58 217.728C147.192 216.996 147.828 215.796 148.32 214.584V219.888H149.184V214.752C149.592 215.244 150.084 215.904 150.276 216.24L150.816 215.532ZM154.344 218.796V217.248H156.732V216.468H154.344V215.04H156.996V214.248H150.852V215.04H153.456V216.468H151.128V217.248H153.456V218.796H150.312V219.6H157.26V218.796H154.344Z" fill="black"/>
<path d="M392.224 211.344H398.272V212.112H392.224V211.344ZM392.224 210H398.272V210.756H392.224V210ZM400.504 213.468H395.68V212.724H399.148V209.388H391.372V212.724H394.792V213.468H389.98V214.2H400.504V213.468ZM392.764 217.596C392.056 218.16 390.868 218.712 389.836 219.072C390.028 219.216 390.328 219.54 390.484 219.72C391.504 219.288 392.764 218.604 393.58 217.92L392.764 217.596ZM392.5 215.484H398.032V216.672H392.5V215.484ZM398.92 217.332V214.824H391.648V217.332H394.816V219.036C394.816 219.168 394.78 219.204 394.612 219.216C394.432 219.216 393.856 219.216 393.244 219.192C393.352 219.408 393.472 219.696 393.508 219.912C394.36 219.912 394.912 219.912 395.248 219.792C395.596 219.696 395.704 219.492 395.704 219.06V217.332H398.92ZM396.784 218.076C397.876 218.508 399.22 219.192 399.904 219.684L400.516 219.132C399.796 218.628 398.428 217.98 397.36 217.572L396.784 218.076ZM405.892 212.544C406.096 212.064 406.324 211.296 406.54 210.672L406.012 210.48C405.904 211.032 405.676 211.872 405.496 212.388L405.892 212.544ZM403.576 210.636C403.78 211.212 403.924 211.968 403.948 212.46L404.428 212.328C404.392 211.848 404.236 211.092 404.02 210.516L403.576 210.636ZM403.408 210.048H404.704V212.928H403.408V210.048ZM406.696 212.928H405.316V210.048H406.696V212.928ZM402.412 216.924C403.792 216.852 405.748 216.732 407.656 216.588L407.68 215.868C406.912 215.916 406.144 215.964 405.412 216V215.112H407.488V214.404H405.412V213.576H407.416V209.4H402.712V213.576H404.608V214.404H402.628V215.112H404.608V216.048C403.756 216.084 402.988 216.132 402.364 216.156L402.412 216.924ZM402.772 219.912C403.3 219.384 403.48 218.46 403.6 217.572L402.964 217.404C402.868 218.232 402.64 219.096 402.172 219.588L402.772 219.912ZM403.984 217.44C404.152 218.112 404.272 218.964 404.272 219.528L404.884 219.444C404.884 218.892 404.752 218.028 404.56 217.38L403.984 217.44ZM405.124 217.38C405.388 217.992 405.64 218.784 405.7 219.312L406.312 219.18C406.228 218.652 405.964 217.86 405.688 217.26L405.124 217.38ZM406.264 217.224C406.66 217.776 407.08 218.544 407.248 219.048L407.848 218.784C407.668 218.292 407.236 217.548 406.816 216.996L406.264 217.224ZM411.916 218.532H408.892V215.448H411.916V218.532ZM413.236 212.4V211.56H410.68V208.98H409.804V214.62H408.076V219.9H408.892V219.336H411.916V219.852H412.756V214.62H410.68V212.4H413.236Z" fill="black"/>
<path d="M149.608 282.992C148.912 284.804 147.748 286.58 146.536 287.72C146.692 287.924 146.956 288.392 147.04 288.584C147.496 288.128 147.94 287.6 148.372 287V293.876H149.212V285.716C149.68 284.936 150.1 284.084 150.436 283.244L149.608 282.992ZM154.396 292.652V289.652H157.24V288.8H154.396V286.172H157.588V285.332H154.672L155.188 284.744C154.612 284.204 153.436 283.436 152.548 282.932L151.96 283.568C152.8 284.06 153.856 284.792 154.444 285.332H150.352V286.172H153.508V288.8H150.748V289.652H153.508V292.652H150.04V293.504H157.768V292.652H154.396ZM160.66 284.804H168.844V285.944H169.744V283.988H165.172V282.968H164.284V283.988H159.784V286.1H160.66V284.804ZM161.98 285.428C161.308 286.892 160.204 288.308 159.04 289.208C159.208 289.4 159.496 289.808 159.604 289.988C160.06 289.604 160.528 289.124 160.96 288.608V293.912H161.812V287.456C162.184 286.892 162.52 286.292 162.796 285.692L161.98 285.428ZM168.448 290.408H164.308V289.04H168.448V290.408ZM164.308 292.7V291.152H168.448V292.7H164.308ZM169.804 287V286.196H162.892V287H165.772C165.7 287.408 165.592 287.876 165.484 288.26H163.468V293.936H164.308V293.48H168.448V293.9H169.312V288.26H166.348C166.48 287.876 166.624 287.432 166.756 287H169.804Z" fill="black"/>
<path d="M405.608 282.992C404.912 284.804 403.748 286.58 402.536 287.72C402.692 287.924 402.956 288.392 403.04 288.584C403.496 288.128 403.94 287.6 404.372 287V293.876H405.212V285.716C405.68 284.936 406.1 284.084 406.436 283.244L405.608 282.992ZM410.396 292.652V289.652H413.24V288.8H410.396V286.172H413.588V285.332H410.672L411.188 284.744C410.612 284.204 409.436 283.436 408.548 282.932L407.96 283.568C408.8 284.06 409.856 284.792 410.444 285.332H406.352V286.172H409.508V288.8H406.748V289.652H409.508V292.652H406.04V293.504H413.768V292.652H410.396ZM416.66 284.804H424.844V285.944H425.744V283.988H421.172V282.968H420.284V283.988H415.784V286.1H416.66V284.804ZM417.98 285.428C417.308 286.892 416.204 288.308 415.04 289.208C415.208 289.4 415.496 289.808 415.604 289.988C416.06 289.604 416.528 289.124 416.96 288.608V293.912H417.812V287.456C418.184 286.892 418.52 286.292 418.796 285.692L417.98 285.428ZM424.448 290.408H420.308V289.04H424.448V290.408ZM420.308 292.7V291.152H424.448V292.7H420.308ZM425.804 287V286.196H418.892V287H421.772C421.7 287.408 421.592 287.876 421.484 288.26H419.468V293.936H420.308V293.48H424.448V293.9H425.312V288.26H422.348C422.48 287.876 422.624 287.432 422.756 287H425.804Z" fill="black"/>
<path d="M239.492 309.516H234.68V307.944H233.792V309.516H229.04V310.38H239.492V309.516ZM235.676 311.244C236.816 312.036 238.184 313.188 238.82 313.968L239.6 313.356C238.916 312.564 237.512 311.46 236.384 310.704L235.676 311.244ZM232.1 310.752C231.368 311.76 230.12 312.756 228.944 313.38C229.172 313.536 229.508 313.896 229.676 314.088C230.828 313.368 232.172 312.24 233 311.1L232.1 310.752ZM235.988 312.804C235.592 313.884 235.016 314.772 234.284 315.504C233.552 314.76 232.976 313.884 232.58 312.864L231.728 313.128C232.196 314.292 232.82 315.276 233.6 316.104C232.352 317.076 230.72 317.712 228.776 318.12C228.968 318.324 229.256 318.744 229.34 318.96C231.284 318.468 232.94 317.772 234.26 316.728C235.532 317.796 237.176 318.528 239.204 318.912C239.324 318.672 239.588 318.264 239.792 318.072C237.812 317.748 236.192 317.088 234.956 316.104C235.784 315.288 236.444 314.292 236.912 313.068L235.988 312.804ZM247.964 311.64V312.696H245.948V311.64H247.964ZM250.856 312.696H248.768V311.64H250.856V312.696ZM248.768 314.448V313.356H250.856V314.448H248.768ZM245.948 314.448V313.356H247.964V314.448H245.948ZM245.948 315.132H247.964V317.076H248.768V315.132H250.856V316.224C250.856 316.38 250.808 316.428 250.652 316.428C250.508 316.428 249.992 316.44 249.428 316.416C249.536 316.62 249.644 316.932 249.68 317.148C250.484 317.148 250.988 317.136 251.3 317.016C251.612 316.884 251.708 316.668 251.708 316.236V310.956H250.196C249.932 310.812 249.62 310.644 249.272 310.476C250.16 310.032 251.06 309.432 251.696 308.832L251.144 308.412L250.976 308.46H245.12V309.168H250.124C249.644 309.516 249.056 309.864 248.48 310.116C247.916 309.876 247.328 309.636 246.812 309.456L246.248 309.96C246.968 310.224 247.82 310.608 248.528 310.956H245.108V317.124H245.948V315.132ZM244.136 310.164C243.752 309.576 242.864 308.772 242.108 308.232L241.484 308.784C242.24 309.348 243.104 310.188 243.476 310.776L244.136 310.164ZM243.872 312.66H241.28V313.5H243.008V316.584C242.396 317.076 241.712 317.58 241.136 317.94L241.568 318.804C242.252 318.3 242.888 317.784 243.5 317.256C244.232 318.204 245.312 318.624 246.884 318.684C248.204 318.744 250.748 318.72 252.08 318.66C252.128 318.396 252.26 317.988 252.356 317.784C250.928 317.88 248.192 317.916 246.884 317.856C245.48 317.808 244.448 317.412 243.872 316.512V312.66Z" fill="black"/>
<path d="M494.412 312.288H490.908V311.124H494.412V312.288ZM494.412 314.1H490.908V312.924H494.412V314.1ZM494.412 315.948H490.908V314.772H494.412V315.948ZM490.08 310.428V316.644H495.252V310.428H492.768C492.876 310.08 492.996 309.684 493.104 309.288H495.672V308.52H489.624V309.288H492.12C492.06 309.66 491.976 310.068 491.892 310.428H490.08ZM488.856 315.048C489.192 314.4 489.552 313.356 489.876 312.432L489.324 312.288L489.192 312.324H488.316L488.604 311.952C488.376 311.712 488.04 311.436 487.668 311.172C488.34 310.536 489.036 309.672 489.528 308.868L488.976 308.484L488.796 308.544H485.016V309.336H488.232C487.884 309.828 487.452 310.344 487.044 310.74C486.636 310.488 486.216 310.236 485.832 310.032L485.352 310.608C486.204 311.064 487.188 311.748 487.812 312.324H484.752V313.116H486.72V317.856C486.72 318 486.672 318.048 486.492 318.048C486.336 318.06 485.784 318.06 485.172 318.048C485.292 318.276 485.412 318.648 485.448 318.888C486.276 318.888 486.804 318.876 487.14 318.732C487.488 318.6 487.584 318.336 487.584 317.868V313.116H488.844C488.64 313.764 488.4 314.424 488.196 314.868L488.856 315.048ZM491.268 316.872C490.752 317.4 489.672 318.012 488.736 318.348C488.904 318.504 489.192 318.78 489.324 318.948C490.284 318.6 491.388 317.952 492.048 317.328L491.268 316.872ZM493.116 317.376C493.848 317.832 494.76 318.504 495.216 318.948L495.912 318.432C495.432 317.988 494.508 317.34 493.788 316.92L493.116 317.376ZM501.372 316.152C501.384 316.068 501.384 315.984 501.384 315.9V315.108H504.432V316.152H501.372ZM499.776 313.8H505.896V314.52H499.776V313.8ZM499.776 312.54H505.896V313.224H499.776V312.54ZM499.776 311.268H505.896V311.964H499.776V311.268ZM504.684 309.588C505.008 309.936 505.32 310.368 505.488 310.668H502.8C503.112 310.38 503.436 309.996 503.724 309.588H504.684ZM508.08 316.152H505.332V315.108H506.808V310.668H505.62L506.256 310.38C506.136 310.152 505.932 309.852 505.692 309.588H507.972V308.856H504.156C504.288 308.616 504.396 308.364 504.492 308.112L503.64 307.92C503.316 308.82 502.704 309.696 501.972 310.272C502.176 310.356 502.488 310.524 502.692 310.668H500.34L500.988 310.416C500.904 310.188 500.724 309.876 500.532 309.588H502.584V308.856H499.44C499.56 308.616 499.68 308.376 499.788 308.136L498.972 307.92C498.6 308.844 497.94 309.78 497.208 310.392C497.424 310.488 497.772 310.74 497.94 310.872C498.3 310.524 498.66 310.08 498.996 309.588H499.608C499.848 309.936 500.076 310.38 500.196 310.668H498.9V315.108H500.508V315.888C500.508 315.972 500.508 316.056 500.496 316.152H497.46V316.896H500.208C499.872 317.388 499.14 317.892 497.652 318.264C497.844 318.432 498.084 318.732 498.204 318.936C500.124 318.372 500.904 317.64 501.204 316.896H504.432V318.9H505.332V316.896H508.08V316.152Z" fill="black"/>
<path d="M289.224 260.344H295.272V261.112H289.224V260.344ZM289.224 259H295.272V259.756H289.224V259ZM297.504 262.468H292.68V261.724H296.148V258.388H288.372V261.724H291.792V262.468H286.98V263.2H297.504V262.468ZM289.764 266.596C289.056 267.16 287.868 267.712 286.836 268.072C287.028 268.216 287.328 268.54 287.484 268.72C288.504 268.288 289.764 267.604 290.58 266.92L289.764 266.596ZM289.5 264.484H295.032V265.672H289.5V264.484ZM295.92 266.332V263.824H288.648V266.332H291.816V268.036C291.816 268.168 291.78 268.204 291.612 268.216C291.432 268.216 290.856 268.216 290.244 268.192C290.352 268.408 290.472 268.696 290.508 268.912C291.36 268.912 291.912 268.912 292.248 268.792C292.596 268.696 292.704 268.492 292.704 268.06V266.332H295.92ZM293.784 267.076C294.876 267.508 296.22 268.192 296.904 268.684L297.516 268.132C296.796 267.628 295.428 266.98 294.36 266.572L293.784 267.076ZM302.892 261.544C303.096 261.064 303.324 260.296 303.54 259.672L303.012 259.48C302.904 260.032 302.676 260.872 302.496 261.388L302.892 261.544ZM300.576 259.636C300.78 260.212 300.924 260.968 300.948 261.46L301.428 261.328C301.392 260.848 301.236 260.092 301.02 259.516L300.576 259.636ZM300.408 259.048H301.704V261.928H300.408V259.048ZM303.696 261.928H302.316V259.048H303.696V261.928ZM299.412 265.924C300.792 265.852 302.748 265.732 304.656 265.588L304.68 264.868C303.912 264.916 303.144 264.964 302.412 265V264.112H304.488V263.404H302.412V262.576H304.416V258.4H299.712V262.576H301.608V263.404H299.628V264.112H301.608V265.048C300.756 265.084 299.988 265.132 299.364 265.156L299.412 265.924ZM299.772 268.912C300.3 268.384 300.48 267.46 300.6 266.572L299.964 266.404C299.868 267.232 299.64 268.096 299.172 268.588L299.772 268.912ZM300.984 266.44C301.152 267.112 301.272 267.964 301.272 268.528L301.884 268.444C301.884 267.892 301.752 267.028 301.56 266.38L300.984 266.44ZM302.124 266.38C302.388 266.992 302.64 267.784 302.7 268.312L303.312 268.18C303.228 267.652 302.964 266.86 302.688 266.26L302.124 266.38ZM303.264 266.224C303.66 266.776 304.08 267.544 304.248 268.048L304.848 267.784C304.668 267.292 304.236 266.548 303.816 265.996L303.264 266.224ZM308.916 267.532H305.892V264.448H308.916V267.532ZM310.236 261.4V260.56H307.68V257.98H306.804V263.62H305.076V268.9H305.892V268.336H308.916V268.852H309.756V263.62H307.68V261.4H310.236Z" fill="black"/>
<path d="M553.336 258.688H547.48V259.528H553.336V258.688ZM545.476 257.956C544.876 258.808 543.724 259.888 542.728 260.56C542.884 260.728 543.124 261.076 543.256 261.268C544.324 260.512 545.548 259.348 546.328 258.292L545.476 257.956ZM545.968 260.512C545.14 261.868 543.844 263.248 542.608 264.124C542.788 264.304 543.1 264.688 543.232 264.868C543.676 264.52 544.132 264.088 544.588 263.62V268.948H545.476V262.636C545.968 262.048 546.424 261.436 546.796 260.824L545.968 260.512ZM553.684 261.964H546.964V262.816H550.972V267.76C550.972 267.964 550.9 268.012 550.672 268.024C550.444 268.036 549.652 268.036 548.8 268.012C548.932 268.264 549.052 268.636 549.088 268.876C550.264 268.876 550.936 268.876 551.344 268.744C551.74 268.6 551.872 268.324 551.872 267.772V262.816H553.684V261.964ZM564.712 261.436H561.112V259.24H564.712V261.436ZM565.588 258.46H560.296V262.204H565.588V258.46ZM559.816 264.532C559.576 264.256 558.556 263.2 558.184 262.888V262.156H559.684V261.316H558.184V259.288C558.748 259.156 559.276 258.988 559.708 258.808L559.084 258.136C558.208 258.532 556.636 258.88 555.292 259.096C555.4 259.3 555.52 259.588 555.568 259.792C556.12 259.708 556.732 259.612 557.32 259.492V261.316H555.364V262.156H557.2C556.72 263.524 555.892 265.072 555.136 265.912C555.28 266.128 555.496 266.476 555.58 266.728C556.192 265.996 556.828 264.796 557.32 263.584V268.888H558.184V263.752C558.592 264.244 559.084 264.904 559.276 265.24L559.816 264.532ZM563.344 267.796V266.248H565.732V265.468H563.344V264.04H565.996V263.248H559.852V264.04H562.456V265.468H560.128V266.248H562.456V267.796H559.312V268.6H566.26V267.796H563.344Z" fill="black"/>
<path d="M48.3957 239.044L56.0433 231.396C56.5719 230.868 57.4267 230.868 57.9496 231.396L59.2205 232.667C59.7491 233.196 59.7491 234.051 59.2205 234.574L53.8053 240L59.2261 245.421C59.7547 245.949 59.7547 246.804 59.2261 247.327L57.9553 248.604C57.4267 249.132 56.5719 249.132 56.049 248.604L48.4014 240.956C47.8672 240.427 47.8672 239.573 48.3957 239.044Z" fill="#616870"/>
<g filter="url(#filter13_dd_410:2631)">
<path d="M570.75 287.438V290.812C570.75 290.921 570.737 291.029 570.713 291.135L569.588 295.916C569.438 296.551 568.871 297 568.219 297H560.906C560.684 297 560.466 296.948 560.268 296.847C560.07 296.746 559.899 296.6 559.769 296.421L555.269 290.233C554.812 289.605 554.951 288.726 555.579 288.269C556.207 287.812 557.087 287.951 557.544 288.579L558.656 290.109V280.406C558.656 279.63 559.286 279 560.063 279C560.839 279 561.469 279.63 561.469 280.406V287.438H561.75V286.031C561.75 285.255 562.38 284.625 563.156 284.625C563.933 284.625 564.563 285.255 564.563 286.031V287.438H564.844V286.594C564.844 285.817 565.473 285.188 566.25 285.188C567.027 285.188 567.656 285.817 567.656 286.594V287.438H567.938C567.938 286.661 568.567 286.031 569.344 286.031C570.12 286.031 570.75 286.661 570.75 287.438ZM561.75 290.25H561.469V293.625H561.75V290.25ZM564.844 290.25H564.563V293.625H564.844V290.25ZM567.938 290.25H567.656V293.625H567.938V290.25Z" fill="white"/>
</g>
<path d="M189 368C189 365.239 191.239 363 194 363H256C258.761 363 261 365.239 261 368V382C261 384.761 258.761 387 256 387H194C191.239 387 189 384.761 189 382V368Z" fill="#2869D1" fill-opacity="0.8"/>
<path d="M445 368C445 365.239 447.239 363 450 363H512C514.761 363 517 365.239 517 368V382C517 384.761 514.761 387 512 387H450C447.239 387 445 384.761 445 382V368Z" fill="#2869D1" fill-opacity="0.8"/>
<path d="M205.724 373.844H203.636V372.596H205.724V373.844ZM205.724 375.86H203.636V374.6H205.724V375.86ZM205.724 377.9H203.636V376.604H205.724V377.9ZM202.772 378.68H209.444V377.9H206.576V376.604H208.916V375.86H206.576V374.6H208.94V373.844H206.576V372.596H209.24V371.828H206.696C206.948 371.348 207.2 370.784 207.428 370.28L206.48 370.076C206.324 370.592 206.072 371.276 205.808 371.828H203.9C204.212 371.324 204.476 370.784 204.704 370.232L203.828 369.992C203.228 371.504 202.196 372.932 201.032 373.832C201.236 374 201.572 374.336 201.716 374.516C202.076 374.204 202.436 373.832 202.772 373.436V378.68ZM201.524 372.212C201.152 371.624 200.324 370.808 199.592 370.256L198.908 370.76C199.64 371.336 200.444 372.164 200.804 372.764L201.524 372.212ZM201.164 374.66H198.8V375.5H200.324V378.572C199.784 379.076 199.172 379.58 198.668 379.952L199.136 380.804C199.724 380.288 200.276 379.784 200.804 379.268C201.548 380.204 202.628 380.624 204.2 380.684C205.544 380.744 208.076 380.72 209.42 380.66C209.456 380.396 209.6 379.988 209.708 379.784C208.268 379.88 205.508 379.916 204.188 379.856C202.784 379.808 201.728 379.4 201.164 378.512V374.66ZM214.16 370.688V371.576H217.112C217.136 372.032 217.184 372.56 217.268 373.112L216.74 373.028C216.008 376.388 214.532 378.8 211.88 380.18C212.12 380.336 212.516 380.708 212.684 380.888C215.072 379.484 216.584 377.3 217.472 374.192C218.012 376.46 219.284 379.088 222.236 380.876C222.392 380.66 222.752 380.276 222.956 380.132C218.252 377.336 217.976 372.812 217.976 370.688H214.16ZM233.684 372.932C233.552 373.232 233.372 373.52 233.156 373.772C232.88 373.604 232.58 373.424 232.28 373.256C232.364 373.148 232.436 373.04 232.508 372.932H233.684ZM230.432 371.78H234.86V375.644H231.632C232.208 375.392 232.76 375.032 233.24 374.564C233.54 374.78 233.804 374.984 234.02 375.176L234.452 374.72C234.248 374.528 233.972 374.324 233.648 374.108C234.008 373.664 234.284 373.148 234.476 372.56L234.08 372.392L233.96 372.428H232.784C232.868 372.272 232.94 372.116 233 371.96L232.388 371.876C232.256 372.224 232.04 372.608 231.764 372.98C231.56 372.872 231.356 372.776 231.164 372.692L230.72 373.112C230.936 373.208 231.152 373.316 231.368 373.424C231.164 373.652 230.924 373.856 230.648 374.048C230.804 374.12 230.996 374.3 231.116 374.432C231.416 374.204 231.68 373.964 231.908 373.712C232.196 373.88 232.472 374.048 232.736 374.228C232.256 374.672 231.692 375.008 231.116 375.224C231.236 375.32 231.38 375.5 231.452 375.644H230.432V371.78ZM231.296 376.748C232.004 377.144 232.82 377.744 233.216 378.176L233.792 377.672C233.396 377.252 232.616 376.7 231.932 376.34H235.604V371.084H232.808C232.964 370.784 233.132 370.448 233.288 370.112L232.316 369.932C232.232 370.268 232.076 370.7 231.932 371.084H229.712V376.34H231.776L231.296 376.748ZM225.704 376.76C225.572 377.804 225.344 378.884 224.972 379.616C225.14 379.676 225.488 379.832 225.62 379.928C226.004 379.16 226.268 378.02 226.436 376.892L225.704 376.76ZM228.56 375.8C228.656 376.088 228.728 376.352 228.764 376.568L229.448 376.28C229.304 375.608 228.884 374.564 228.428 373.772L227.804 374.012C227.972 374.336 228.14 374.696 228.284 375.056L226.676 375.14C227.444 374.132 228.332 372.764 228.98 371.648L228.248 371.324C227.936 371.96 227.504 372.74 227.036 373.484C226.868 373.256 226.652 372.992 226.412 372.728C226.832 372.068 227.348 371.084 227.756 370.256L226.988 369.968C226.748 370.628 226.316 371.552 225.932 372.236C225.812 372.116 225.68 371.984 225.56 371.876L225.08 372.428C225.632 372.944 226.232 373.64 226.58 374.18C226.34 374.552 226.1 374.888 225.872 375.188C225.56 375.2 225.26 375.212 224.996 375.224L225.08 376.028C225.62 375.992 226.232 375.956 226.892 375.908V380.912H227.672V375.86L228.56 375.8ZM228.02 376.916C228.296 377.6 228.536 378.5 228.572 379.088L229.244 378.896C229.172 378.308 228.944 377.408 228.644 376.724L228.02 376.916ZM229.58 380.576C230.228 379.964 230.492 378.932 230.66 377.936L229.952 377.768C229.808 378.68 229.508 379.628 228.92 380.192L229.58 380.576ZM232.28 380.144C231.944 380.144 231.884 380.108 231.884 379.844V377.588H231.104V379.844C231.104 380.66 231.32 380.876 232.184 380.876H233.54C234.212 380.876 234.428 380.6 234.524 379.436C234.296 379.376 233.972 379.256 233.816 379.124C233.792 380.036 233.732 380.144 233.432 380.144H232.28ZM234.188 377.852C234.788 378.668 235.328 379.748 235.52 380.492L236.216 380.156C236.024 379.412 235.472 378.344 234.848 377.54L234.188 377.852ZM249.104 371.276V370.664H245.468C245.564 370.472 245.648 370.28 245.72 370.088L244.916 369.968C244.676 370.628 244.22 371.396 243.488 371.984C243.668 372.068 243.944 372.308 244.088 372.488C244.52 372.116 244.856 371.708 245.132 371.276H249.104ZM244.952 373.268H245.684V374.144H244.952V373.268ZM246.2 373.268H246.968V374.144H246.2V373.268ZM247.484 373.268H248.252V374.144H247.484V373.268ZM244.304 374.648H248.912V372.776H244.304V374.648ZM244.952 371.744V372.308H248.504V371.744H244.952ZM239.684 373.292H240.932V373.988H239.684V373.292ZM240.932 370.94V371.528H239.684V370.94H240.932ZM242.552 372.752H239.684V372.08H242.552V372.752ZM243.764 373.988H241.664V373.292H243.332V371.528H241.664V370.94H243.668V370.364H238.904V374.564H243.764V373.988ZM241.004 377.792H246.56V378.38H241.004V377.792ZM241.004 376.688H246.56V377.264H241.004V376.688ZM241.004 375.596H246.56V376.16H241.004V375.596ZM246.032 380.06C245.48 380.06 245.384 380.024 245.384 379.748V378.908H247.448V375.056H240.152V378.908H241.868C241.508 379.712 240.632 380.048 238.34 380.216C238.484 380.384 238.688 380.72 238.748 380.912C241.34 380.648 242.36 380.12 242.768 378.908H244.52V379.76C244.52 380.564 244.808 380.768 245.948 380.768H248.012C248.888 380.768 249.152 380.468 249.248 379.244C249.008 379.184 248.672 379.076 248.492 378.956C248.444 379.928 248.372 380.06 247.928 380.06H246.032Z" fill="white"/>
<path d="M461.724 373.844H459.636V372.596H461.724V373.844ZM461.724 375.86H459.636V374.6H461.724V375.86ZM461.724 377.9H459.636V376.604H461.724V377.9ZM458.772 378.68H465.444V377.9H462.576V376.604H464.916V375.86H462.576V374.6H464.94V373.844H462.576V372.596H465.24V371.828H462.696C462.948 371.348 463.2 370.784 463.428 370.28L462.48 370.076C462.324 370.592 462.072 371.276 461.808 371.828H459.9C460.212 371.324 460.476 370.784 460.704 370.232L459.828 369.992C459.228 371.504 458.196 372.932 457.032 373.832C457.236 374 457.572 374.336 457.716 374.516C458.076 374.204 458.436 373.832 458.772 373.436V378.68ZM457.524 372.212C457.152 371.624 456.324 370.808 455.592 370.256L454.908 370.76C455.64 371.336 456.444 372.164 456.804 372.764L457.524 372.212ZM457.164 374.66H454.8V375.5H456.324V378.572C455.784 379.076 455.172 379.58 454.668 379.952L455.136 380.804C455.724 380.288 456.276 379.784 456.804 379.268C457.548 380.204 458.628 380.624 460.2 380.684C461.544 380.744 464.076 380.72 465.42 380.66C465.456 380.396 465.6 379.988 465.708 379.784C464.268 379.88 461.508 379.916 460.188 379.856C458.784 379.808 457.728 379.4 457.164 378.512V374.66ZM470.16 370.688V371.576H473.112C473.136 372.032 473.184 372.56 473.268 373.112L472.74 373.028C472.008 376.388 470.532 378.8 467.88 380.18C468.12 380.336 468.516 380.708 468.684 380.888C471.072 379.484 472.584 377.3 473.472 374.192C474.012 376.46 475.284 379.088 478.236 380.876C478.392 380.66 478.752 380.276 478.956 380.132C474.252 377.336 473.976 372.812 473.976 370.688H470.16ZM489.684 372.932C489.552 373.232 489.372 373.52 489.156 373.772C488.88 373.604 488.58 373.424 488.28 373.256C488.364 373.148 488.436 373.04 488.508 372.932H489.684ZM486.432 371.78H490.86V375.644H487.632C488.208 375.392 488.76 375.032 489.24 374.564C489.54 374.78 489.804 374.984 490.02 375.176L490.452 374.72C490.248 374.528 489.972 374.324 489.648 374.108C490.008 373.664 490.284 373.148 490.476 372.56L490.08 372.392L489.96 372.428H488.784C488.868 372.272 488.94 372.116 489 371.96L488.388 371.876C488.256 372.224 488.04 372.608 487.764 372.98C487.56 372.872 487.356 372.776 487.164 372.692L486.72 373.112C486.936 373.208 487.152 373.316 487.368 373.424C487.164 373.652 486.924 373.856 486.648 374.048C486.804 374.12 486.996 374.3 487.116 374.432C487.416 374.204 487.68 373.964 487.908 373.712C488.196 373.88 488.472 374.048 488.736 374.228C488.256 374.672 487.692 375.008 487.116 375.224C487.236 375.32 487.38 375.5 487.452 375.644H486.432V371.78ZM487.296 376.748C488.004 377.144 488.82 377.744 489.216 378.176L489.792 377.672C489.396 377.252 488.616 376.7 487.932 376.34H491.604V371.084H488.808C488.964 370.784 489.132 370.448 489.288 370.112L488.316 369.932C488.232 370.268 488.076 370.7 487.932 371.084H485.712V376.34H487.776L487.296 376.748ZM481.704 376.76C481.572 377.804 481.344 378.884 480.972 379.616C481.14 379.676 481.488 379.832 481.62 379.928C482.004 379.16 482.268 378.02 482.436 376.892L481.704 376.76ZM484.56 375.8C484.656 376.088 484.728 376.352 484.764 376.568L485.448 376.28C485.304 375.608 484.884 374.564 484.428 373.772L483.804 374.012C483.972 374.336 484.14 374.696 484.284 375.056L482.676 375.14C483.444 374.132 484.332 372.764 484.98 371.648L484.248 371.324C483.936 371.96 483.504 372.74 483.036 373.484C482.868 373.256 482.652 372.992 482.412 372.728C482.832 372.068 483.348 371.084 483.756 370.256L482.988 369.968C482.748 370.628 482.316 371.552 481.932 372.236C481.812 372.116 481.68 371.984 481.56 371.876L481.08 372.428C481.632 372.944 482.232 373.64 482.58 374.18C482.34 374.552 482.1 374.888 481.872 375.188C481.56 375.2 481.26 375.212 480.996 375.224L481.08 376.028C481.62 375.992 482.232 375.956 482.892 375.908V380.912H483.672V375.86L484.56 375.8ZM484.02 376.916C484.296 377.6 484.536 378.5 484.572 379.088L485.244 378.896C485.172 378.308 484.944 377.408 484.644 376.724L484.02 376.916ZM485.58 380.576C486.228 379.964 486.492 378.932 486.66 377.936L485.952 377.768C485.808 378.68 485.508 379.628 484.92 380.192L485.58 380.576ZM488.28 380.144C487.944 380.144 487.884 380.108 487.884 379.844V377.588H487.104V379.844C487.104 380.66 487.32 380.876 488.184 380.876H489.54C490.212 380.876 490.428 380.6 490.524 379.436C490.296 379.376 489.972 379.256 489.816 379.124C489.792 380.036 489.732 380.144 489.432 380.144H488.28ZM490.188 377.852C490.788 378.668 491.328 379.748 491.52 380.492L492.216 380.156C492.024 379.412 491.472 378.344 490.848 377.54L490.188 377.852ZM505.104 371.276V370.664H501.468C501.564 370.472 501.648 370.28 501.72 370.088L500.916 369.968C500.676 370.628 500.22 371.396 499.488 371.984C499.668 372.068 499.944 372.308 500.088 372.488C500.52 372.116 500.856 371.708 501.132 371.276H505.104ZM500.952 373.268H501.684V374.144H500.952V373.268ZM502.2 373.268H502.968V374.144H502.2V373.268ZM503.484 373.268H504.252V374.144H503.484V373.268ZM500.304 374.648H504.912V372.776H500.304V374.648ZM500.952 371.744V372.308H504.504V371.744H500.952ZM495.684 373.292H496.932V373.988H495.684V373.292ZM496.932 370.94V371.528H495.684V370.94H496.932ZM498.552 372.752H495.684V372.08H498.552V372.752ZM499.764 373.988H497.664V373.292H499.332V371.528H497.664V370.94H499.668V370.364H494.904V374.564H499.764V373.988ZM497.004 377.792H502.56V378.38H497.004V377.792ZM497.004 376.688H502.56V377.264H497.004V376.688ZM497.004 375.596H502.56V376.16H497.004V375.596ZM502.032 380.06C501.48 380.06 501.384 380.024 501.384 379.748V378.908H503.448V375.056H496.152V378.908H497.868C497.508 379.712 496.632 380.048 494.34 380.216C494.484 380.384 494.688 380.72 494.748 380.912C497.34 380.648 498.36 380.12 498.768 378.908H500.52V379.76C500.52 380.564 500.808 380.768 501.948 380.768H504.012C504.888 380.768 505.152 380.468 505.248 379.244C505.008 379.184 504.672 379.076 504.492 378.956C504.444 379.928 504.372 380.06 503.928 380.06H502.032Z" fill="white"/>
<path d="M655.714 238.071H649.929V232.286C649.929 231.576 649.353 231 648.643 231H647.357C646.647 231 646.071 231.576 646.071 232.286V238.071H640.286C639.576 238.071 639 238.647 639 239.357V240.643C639 241.353 639.576 241.929 640.286 241.929H646.071V247.714C646.071 248.424 646.647 249 647.357 249H648.643C649.353 249 649.929 248.424 649.929 247.714V241.929H655.714C656.424 241.929 657 241.353 657 240.643V239.357C657 238.647 656.424 238.071 655.714 238.071Z" fill="#616870"/>
<circle cx="631" cy="41" r="2" fill="#FF0000"/>
</g>
<defs>
<filter id="filter0_d_410:2631" x="0" y="0" width="700" height="458" filterUnits="userSpaceOnUse" color-interpolation-filters="sRGB">
<feFlood flood-opacity="0" result="BackgroundImageFix"/>
<feColorMatrix in="SourceAlpha" type="matrix" values="0 0 0 0 0 0 0 0 0 0 0 0 0 0 0 0 0 0 127 0" result="hardAlpha"/>
<feOffset dy="4"/>
<feGaussianBlur stdDeviation="2"/>
<feComposite in2="hardAlpha" operator="out"/>
<feColorMatrix type="matrix" values="0 0 0 0 0 0 0 0 0 0 0 0 0 0 0 0 0 0 0.25 0"/>
<feBlend mode="normal" in2="BackgroundImageFix" result="effect1_dropShadow_410:2631"/>
<feBlend mode="normal" in="SourceGraphic" in2="effect1_dropShadow_410:2631" result="shape"/>
</filter>
<filter id="filter1_d_410:2631" x="190" y="210" width="68" height="68" filterUnits="userSpaceOnUse" color-interpolation-filters="sRGB">
<feFlood flood-opacity="0" result="BackgroundImageFix"/>
<feColorMatrix in="SourceAlpha" type="matrix" values="0 0 0 0 0 0 0 0 0 0 0 0 0 0 0 0 0 0 127 0" result="hardAlpha"/>
<feOffset dy="4"/>
<feGaussianBlur stdDeviation="2"/>
<feComposite in2="hardAlpha" operator="out"/>
<feColorMatrix type="matrix" values="0 0 0 0 0 0 0 0 0 0 0 0 0 0 0 0 0 0 0.25 0"/>
<feBlend mode="normal" in2="BackgroundImageFix" result="effect1_dropShadow_410:2631"/>
<feBlend mode="normal" in="SourceGraphic" in2="effect1_dropShadow_410:2631" result="shape"/>
</filter>
<filter id="filter2_d_410:2631" x="446" y="209" width="68" height="68" filterUnits="userSpaceOnUse" color-interpolation-filters="sRGB">
<feFlood flood-opacity="0" result="BackgroundImageFix"/>
<feColorMatrix in="SourceAlpha" type="matrix" values="0 0 0 0 0 0 0 0 0 0 0 0 0 0 0 0 0 0 127 0" result="hardAlpha"/>
<feOffset dy="4"/>
<feGaussianBlur stdDeviation="2"/>
<feComposite in2="hardAlpha" operator="out"/>
<feColorMatrix type="matrix" values="0 0 0 0 0 0 0 0 0 0 0 0 0 0 0 0 0 0 0.25 0"/>
<feBlend mode="normal" in2="BackgroundImageFix" result="effect1_dropShadow_410:2631"/>
<feBlend mode="normal" in="SourceGraphic" in2="effect1_dropShadow_410:2631" result="shape"/>
</filter>
<filter id="filter3_d_410:2631" x="179" y="136" width="57" height="57" filterUnits="userSpaceOnUse" color-interpolation-filters="sRGB">
<feFlood flood-opacity="0" result="BackgroundImageFix"/>
<feColorMatrix in="SourceAlpha" type="matrix" values="0 0 0 0 0 0 0 0 0 0 0 0 0 0 0 0 0 0 127 0" result="hardAlpha"/>
<feOffset dy="4"/>
<feGaussianBlur stdDeviation="2"/>
<feComposite in2="hardAlpha" operator="out"/>
<feColorMatrix type="matrix" values="0 0 0 0 0 0 0 0 0 0 0 0 0 0 0 0 0 0 0.25 0"/>
<feBlend mode="normal" in2="BackgroundImageFix" result="effect1_dropShadow_410:2631"/>
<feBlend mode="normal" in="SourceGraphic" in2="effect1_dropShadow_410:2631" result="shape"/>
</filter>
<filter id="filter4_d_410:2631" x="435" y="136" width="57" height="57" filterUnits="userSpaceOnUse" color-interpolation-filters="sRGB">
<feFlood flood-opacity="0" result="BackgroundImageFix"/>
<feColorMatrix in="SourceAlpha" type="matrix" values="0 0 0 0 0 0 0 0 0 0 0 0 0 0 0 0 0 0 127 0" result="hardAlpha"/>
<feOffset dy="4"/>
<feGaussianBlur stdDeviation="2"/>
<feComposite in2="hardAlpha" operator="out"/>
<feColorMatrix type="matrix" values="0 0 0 0 0 0 0 0 0 0 0 0 0 0 0 0 0 0 0.25 0"/>
<feBlend mode="normal" in2="BackgroundImageFix" result="effect1_dropShadow_410:2631"/>
<feBlend mode="normal" in="SourceGraphic" in2="effect1_dropShadow_410:2631" result="shape"/>
</filter>
<filter id="filter5_d_410:2631" x="270" y="239" width="57" height="58" filterUnits="userSpaceOnUse" color-interpolation-filters="sRGB">
<feFlood flood-opacity="0" result="BackgroundImageFix"/>
<feColorMatrix in="SourceAlpha" type="matrix" values="0 0 0 0 0 0 0 0 0 0 0 0 0 0 0 0 0 0 127 0" result="hardAlpha"/>
<feOffset dy="4"/>
<feGaussianBlur stdDeviation="2"/>
<feComposite in2="hardAlpha" operator="out"/>
<feColorMatrix type="matrix" values="0 0 0 0 0 0 0 0 0 0 0 0 0 0 0 0 0 0 0.25 0"/>
<feBlend mode="normal" in2="BackgroundImageFix" result="effect1_dropShadow_410:2631"/>
<feBlend mode="normal" in="SourceGraphic" in2="effect1_dropShadow_410:2631" result="shape"/>
</filter>
<filter id="filter6_d_410:2631" x="526" y="239" width="57" height="58" filterUnits="userSpaceOnUse" color-interpolation-filters="sRGB">
<feFlood flood-opacity="0" result="BackgroundImageFix"/>
<feColorMatrix in="SourceAlpha" type="matrix" values="0 0 0 0 0 0 0 0 0 0 0 0 0 0 0 0 0 0 127 0" result="hardAlpha"/>
<feOffset dy="4"/>
<feGaussianBlur stdDeviation="2"/>
<feComposite in2="hardAlpha" operator="out"/>
<feColorMatrix type="matrix" values="0 0 0 0 0 0 0 0 0 0 0 0 0 0 0 0 0 0 0.25 0"/>
<feBlend mode="normal" in2="BackgroundImageFix" result="effect1_dropShadow_410:2631"/>
<feBlend mode="normal" in="SourceGraphic" in2="effect1_dropShadow_410:2631" result="shape"/>
</filter>
<filter id="filter7_d_410:2631" x="212" y="289" width="57" height="57" filterUnits="userSpaceOnUse" color-interpolation-filters="sRGB">
<feFlood flood-opacity="0" result="BackgroundImageFix"/>
<feColorMatrix in="SourceAlpha" type="matrix" values="0 0 0 0 0 0 0 0 0 0 0 0 0 0 0 0 0 0 127 0" result="hardAlpha"/>
<feOffset dy="4"/>
<feGaussianBlur stdDeviation="2"/>
<feComposite in2="hardAlpha" operator="out"/>
<feColorMatrix type="matrix" values="0 0 0 0 0 0 0 0 0 0 0 0 0 0 0 0 0 0 0.25 0"/>
<feBlend mode="normal" in2="BackgroundImageFix" result="effect1_dropShadow_410:2631"/>
<feBlend mode="normal" in="SourceGraphic" in2="effect1_dropShadow_410:2631" result="shape"/>
</filter>
<filter id="filter8_d_410:2631" x="468" y="289" width="57" height="57" filterUnits="userSpaceOnUse" color-interpolation-filters="sRGB">
<feFlood flood-opacity="0" result="BackgroundImageFix"/>
<feColorMatrix in="SourceAlpha" type="matrix" values="0 0 0 0 0 0 0 0 0 0 0 0 0 0 0 0 0 0 127 0" result="hardAlpha"/>
<feOffset dy="4"/>
<feGaussianBlur stdDeviation="2"/>
<feComposite in2="hardAlpha" operator="out"/>
<feColorMatrix type="matrix" values="0 0 0 0 0 0 0 0 0 0 0 0 0 0 0 0 0 0 0.25 0"/>
<feBlend mode="normal" in2="BackgroundImageFix" result="effect1_dropShadow_410:2631"/>
<feBlend mode="normal" in="SourceGraphic" in2="effect1_dropShadow_410:2631" result="shape"/>
</filter>
<filter id="filter9_d_410:2631" x="129" y="264" width="58" height="57" filterUnits="userSpaceOnUse" color-interpolation-filters="sRGB">
<feFlood flood-opacity="0" result="BackgroundImageFix"/>
<feColorMatrix in="SourceAlpha" type="matrix" values="0 0 0 0 0 0 0 0 0 0 0 0 0 0 0 0 0 0 127 0" result="hardAlpha"/>
<feOffset dy="4"/>
<feGaussianBlur stdDeviation="2"/>
<feComposite in2="hardAlpha" operator="out"/>
<feColorMatrix type="matrix" values="0 0 0 0 0 0 0 0 0 0 0 0 0 0 0 0 0 0 0.25 0"/>
<feBlend mode="normal" in2="BackgroundImageFix" result="effect1_dropShadow_410:2631"/>
<feBlend mode="normal" in="SourceGraphic" in2="effect1_dropShadow_410:2631" result="shape"/>
</filter>
<filter id="filter10_d_410:2631" x="385" y="264" width="58" height="57" filterUnits="userSpaceOnUse" color-interpolation-filters="sRGB">
<feFlood flood-opacity="0" result="BackgroundImageFix"/>
<feColorMatrix in="SourceAlpha" type="matrix" values="0 0 0 0 0 0 0 0 0 0 0 0 0 0 0 0 0 0 127 0" result="hardAlpha"/>
<feOffset dy="4"/>
<feGaussianBlur stdDeviation="2"/>
<feComposite in2="hardAlpha" operator="out"/>
<feColorMatrix type="matrix" values="0 0 0 0 0 0 0 0 0 0 0 0 0 0 0 0 0 0 0.25 0"/>
<feBlend mode="normal" in2="BackgroundImageFix" result="effect1_dropShadow_410:2631"/>
<feBlend mode="normal" in="SourceGraphic" in2="effect1_dropShadow_410:2631" result="shape"/>
</filter>
<filter id="filter11_d_410:2631" x="117" y="190" width="57" height="57" filterUnits="userSpaceOnUse" color-interpolation-filters="sRGB">
<feFlood flood-opacity="0" result="BackgroundImageFix"/>
<feColorMatrix in="SourceAlpha" type="matrix" values="0 0 0 0 0 0 0 0 0 0 0 0 0 0 0 0 0 0 127 0" result="hardAlpha"/>
<feOffset dy="4"/>
<feGaussianBlur stdDeviation="2"/>
<feComposite in2="hardAlpha" operator="out"/>
<feColorMatrix type="matrix" values="0 0 0 0 0 0 0 0 0 0 0 0 0 0 0 0 0 0 0.25 0"/>
<feBlend mode="normal" in2="BackgroundImageFix" result="effect1_dropShadow_410:2631"/>
<feBlend mode="normal" in="SourceGraphic" in2="effect1_dropShadow_410:2631" result="shape"/>
</filter>
<filter id="filter12_d_410:2631" x="373" y="190" width="57" height="57" filterUnits="userSpaceOnUse" color-interpolation-filters="sRGB">
<feFlood flood-opacity="0" result="BackgroundImageFix"/>
<feColorMatrix in="SourceAlpha" type="matrix" values="0 0 0 0 0 0 0 0 0 0 0 0 0 0 0 0 0 0 127 0" result="hardAlpha"/>
<feOffset dy="4"/>
<feGaussianBlur stdDeviation="2"/>
<feComposite in2="hardAlpha" operator="out"/>
<feColorMatrix type="matrix" values="0 0 0 0 0 0 0 0 0 0 0 0 0 0 0 0 0 0 0.25 0"/>
<feBlend mode="normal" in2="BackgroundImageFix" result="effect1_dropShadow_410:2631"/>
<feBlend mode="normal" in="SourceGraphic" in2="effect1_dropShadow_410:2631" result="shape"/>
</filter>
<filter id="filter13_dd_410:2631" x="551" y="279" width="23.75" height="26" filterUnits="userSpaceOnUse" color-interpolation-filters="sRGB">
<feFlood flood-opacity="0" result="BackgroundImageFix"/>
<feColorMatrix in="SourceAlpha" type="matrix" values="0 0 0 0 0 0 0 0 0 0 0 0 0 0 0 0 0 0 127 0" result="hardAlpha"/>
<feOffset dy="4"/>
<feGaussianBlur stdDeviation="2"/>
<feComposite in2="hardAlpha" operator="out"/>
<feColorMatrix type="matrix" values="0 0 0 0 0 0 0 0 0 0 0 0 0 0 0 0 0 0 0.25 0"/>
<feBlend mode="lighten" in2="BackgroundImageFix" result="effect1_dropShadow_410:2631"/>
<feColorMatrix in="SourceAlpha" type="matrix" values="0 0 0 0 0 0 0 0 0 0 0 0 0 0 0 0 0 0 127 0" result="hardAlpha"/>
<feOffset dy="4"/>
<feGaussianBlur stdDeviation="2"/>
<feComposite in2="hardAlpha" operator="out"/>
<feColorMatrix type="matrix" values="0 0 0 0 0 0 0 0 0 0 0 0 0 0 0 0 0 0 0.25 0"/>
<feBlend mode="normal" in2="effect1_dropShadow_410:2631" result="effect2_dropShadow_410:2631"/>
<feBlend mode="normal" in="SourceGraphic" in2="effect2_dropShadow_410:2631" result="shape"/>
</filter>
<linearGradient id="paint0_linear_410:2631" x1="350" y1="0" x2="350" y2="450" gradientUnits="userSpaceOnUse">
<stop stop-color="#76DED8"/>
<stop offset="1" stop-color="#FEFEFE"/>
</linearGradient>
<linearGradient id="paint1_linear_410:2631" x1="224" y1="210" x2="224" y2="270" gradientUnits="userSpaceOnUse">
<stop stop-color="white"/>
<stop offset="1" stop-color="#21BEB4"/>
</linearGradient>
<linearGradient id="paint2_linear_410:2631" x1="480" y1="209" x2="480" y2="269" gradientUnits="userSpaceOnUse">
<stop stop-color="white"/>
<stop offset="1" stop-color="#DEC847"/>
</linearGradient>
<linearGradient id="paint3_linear_410:2631" x1="207.5" y1="136" x2="207.5" y2="185" gradientUnits="userSpaceOnUse">
<stop stop-color="white"/>
<stop offset="1" stop-color="#D1E0FF"/>
</linearGradient>
<linearGradient id="paint4_linear_410:2631" x1="463.5" y1="136" x2="463.5" y2="185" gradientUnits="userSpaceOnUse">
<stop stop-color="#26CAE0"/>
<stop offset="1" stop-color="white"/>
</linearGradient>
<linearGradient id="paint5_linear_410:2631" x1="298.5" y1="239" x2="298.5" y2="289" gradientUnits="userSpaceOnUse">
<stop stop-color="white"/>
<stop offset="1" stop-color="#E8EEFB"/>
</linearGradient>
<linearGradient id="paint6_linear_410:2631" x1="554.5" y1="239" x2="554.5" y2="289" gradientUnits="userSpaceOnUse">
<stop stop-color="white"/>
<stop offset="1" stop-color="#26CAE0"/>
</linearGradient>
<linearGradient id="paint7_linear_410:2631" x1="240.5" y1="289" x2="240.5" y2="338" gradientUnits="userSpaceOnUse">
<stop stop-color="white"/>
<stop offset="1" stop-color="#FFF5BA"/>
</linearGradient>
<linearGradient id="paint8_linear_410:2631" x1="496.5" y1="289" x2="496.5" y2="338" gradientUnits="userSpaceOnUse">
<stop stop-color="white"/>
<stop offset="1" stop-color="#E4F4FF"/>
</linearGradient>
<linearGradient id="paint9_linear_410:2631" x1="158" y1="264" x2="158" y2="313" gradientUnits="userSpaceOnUse">
<stop stop-color="#D1E0FF"/>
<stop offset="1" stop-color="white"/>
</linearGradient>
<linearGradient id="paint10_linear_410:2631" x1="414" y1="264" x2="414" y2="313" gradientUnits="userSpaceOnUse">
<stop stop-color="#26CAE0"/>
<stop offset="1" stop-color="white"/>
</linearGradient>
<linearGradient id="paint11_linear_410:2631" x1="145.5" y1="190" x2="145.5" y2="239" gradientUnits="userSpaceOnUse">
<stop stop-color="#FFF5BA"/>
<stop offset="1" stop-color="white"/>
</linearGradient>
<linearGradient id="paint12_linear_410:2631" x1="401.5" y1="190" x2="401.5" y2="239" gradientUnits="userSpaceOnUse">
<stop stop-color="#E4F4FF"/>
<stop offset="1" stop-color="white"/>
</linearGradient>
<clipPath id="clip0_410:2631">
<rect width="11.4231" height="11.7895" fill="white" transform="translate(50 42)"/>
</clipPath>
<clipPath id="clip1_410:2631">
<rect width="45.4808" height="16" fill="white" transform="translate(65.4424 42)"/>
</clipPath>
</defs>
</svg>
