<svg width="700" height="458" viewBox="0 0 700 458" fill="none" xmlns="http://www.w3.org/2000/svg">
<g filter="url(#filter0_d_410:2776)">
<rect x="4" width="692" height="450" rx="20" fill="url(#paint0_linear_410:2776)" shape-rendering="crispEdges"/>
<g filter="url(#filter1_d_410:2776)">
<rect x="490" y="180" width="150" height="150" rx="5" fill="url(#paint1_linear_410:2776)" fill-opacity="0.5" shape-rendering="crispEdges"/>
</g>
<g filter="url(#filter2_d_410:2776)">
<rect x="277" y="180" width="150" height="150" rx="5" fill="url(#paint2_linear_410:2776)" fill-opacity="0.5" shape-rendering="crispEdges"/>
</g>
<g filter="url(#filter3_d_410:2776)">
<rect x="64" y="180" width="150" height="150" rx="5" fill="url(#paint3_linear_410:2776)" fill-opacity="0.5" shape-rendering="crispEdges"/>
</g>
<path d="M108.94 218.924C108.892 219.012 108.818 219.056 108.718 219.056C108.658 219.056 108.59 219.034 108.514 218.99C108.438 218.946 108.344 218.898 108.232 218.846C108.124 218.79 107.994 218.74 107.842 218.696C107.69 218.648 107.51 218.624 107.302 218.624C107.122 218.624 106.96 218.648 106.816 218.696C106.672 218.74 106.548 218.802 106.444 218.882C106.344 218.962 106.266 219.056 106.21 219.164C106.158 219.268 106.132 219.382 106.132 219.506C106.132 219.662 106.176 219.792 106.264 219.896C106.356 220 106.476 220.09 106.624 220.166C106.772 220.242 106.94 220.31 107.128 220.37C107.316 220.426 107.508 220.488 107.704 220.556C107.904 220.62 108.098 220.692 108.286 220.772C108.474 220.852 108.642 220.952 108.79 221.072C108.938 221.192 109.056 221.34 109.144 221.516C109.236 221.688 109.282 221.896 109.282 222.14C109.282 222.42 109.232 222.68 109.132 222.92C109.032 223.156 108.884 223.362 108.688 223.538C108.492 223.71 108.252 223.846 107.968 223.946C107.684 224.046 107.356 224.096 106.984 224.096C106.56 224.096 106.176 224.028 105.832 223.892C105.488 223.752 105.196 223.574 104.956 223.358L105.208 222.95C105.24 222.898 105.278 222.858 105.322 222.83C105.366 222.802 105.422 222.788 105.49 222.788C105.562 222.788 105.638 222.816 105.718 222.872C105.798 222.928 105.894 222.99 106.006 223.058C106.122 223.126 106.262 223.188 106.426 223.244C106.59 223.3 106.794 223.328 107.038 223.328C107.246 223.328 107.428 223.302 107.584 223.25C107.74 223.194 107.87 223.12 107.974 223.028C108.078 222.936 108.154 222.83 108.202 222.71C108.254 222.59 108.28 222.462 108.28 222.326C108.28 222.158 108.234 222.02 108.142 221.912C108.054 221.8 107.936 221.706 107.788 221.63C107.64 221.55 107.47 221.482 107.278 221.426C107.09 221.366 106.896 221.304 106.696 221.24C106.5 221.176 106.306 221.104 106.114 221.024C105.926 220.94 105.758 220.836 105.61 220.712C105.462 220.588 105.342 220.436 105.25 220.256C105.162 220.072 105.118 219.85 105.118 219.59C105.118 219.358 105.166 219.136 105.262 218.924C105.358 218.708 105.498 218.52 105.682 218.36C105.866 218.196 106.092 218.066 106.36 217.97C106.628 217.874 106.934 217.826 107.278 217.826C107.678 217.826 108.036 217.89 108.352 218.018C108.672 218.142 108.948 218.314 109.18 218.534L108.94 218.924ZM116.7 220.298C116.7 220.05 116.664 219.824 116.592 219.62C116.524 219.412 116.422 219.234 116.286 219.086C116.154 218.934 115.992 218.818 115.8 218.738C115.608 218.654 115.39 218.612 115.146 218.612C114.634 218.612 114.228 218.762 113.928 219.062C113.632 219.358 113.448 219.77 113.376 220.298H116.7ZM117.564 223.148C117.432 223.308 117.274 223.448 117.09 223.568C116.906 223.684 116.708 223.78 116.496 223.856C116.288 223.932 116.072 223.988 115.848 224.024C115.624 224.064 115.402 224.084 115.182 224.084C114.762 224.084 114.374 224.014 114.018 223.874C113.666 223.73 113.36 223.522 113.1 223.25C112.844 222.974 112.644 222.634 112.5 222.23C112.356 221.826 112.284 221.362 112.284 220.838C112.284 220.414 112.348 220.018 112.476 219.65C112.608 219.282 112.796 218.964 113.04 218.696C113.284 218.424 113.582 218.212 113.934 218.06C114.286 217.904 114.682 217.826 115.122 217.826C115.486 217.826 115.822 217.888 116.13 218.012C116.442 218.132 116.71 218.308 116.934 218.54C117.162 218.768 117.34 219.052 117.468 219.392C117.596 219.728 117.66 220.112 117.66 220.544C117.66 220.712 117.642 220.824 117.606 220.88C117.57 220.936 117.502 220.964 117.402 220.964H113.34C113.352 221.348 113.404 221.682 113.496 221.966C113.592 222.25 113.724 222.488 113.892 222.68C114.06 222.868 114.26 223.01 114.492 223.106C114.724 223.198 114.984 223.244 115.272 223.244C115.54 223.244 115.77 223.214 115.962 223.154C116.158 223.09 116.326 223.022 116.466 222.95C116.606 222.878 116.722 222.812 116.814 222.752C116.91 222.688 116.992 222.656 117.06 222.656C117.148 222.656 117.216 222.69 117.264 222.758L117.564 223.148ZM122.831 224.096C122.351 224.096 121.981 223.962 121.721 223.694C121.465 223.426 121.337 223.04 121.337 222.536V218.816H120.605C120.541 218.816 120.487 218.798 120.443 218.762C120.399 218.722 120.377 218.662 120.377 218.582V218.156L121.373 218.03L121.619 216.152C121.631 216.092 121.657 216.044 121.697 216.008C121.741 215.968 121.797 215.948 121.865 215.948H122.405V218.042H124.163V218.816H122.405V222.464C122.405 222.72 122.467 222.91 122.591 223.034C122.715 223.158 122.875 223.22 123.071 223.22C123.183 223.22 123.279 223.206 123.359 223.178C123.443 223.146 123.515 223.112 123.575 223.076C123.635 223.04 123.685 223.008 123.725 222.98C123.769 222.948 123.807 222.932 123.839 222.932C123.895 222.932 123.945 222.966 123.989 223.034L124.301 223.544C124.117 223.716 123.895 223.852 123.635 223.952C123.375 224.048 123.107 224.096 122.831 224.096ZM137.414 217.922V224H136.778C136.626 224 136.53 223.926 136.49 223.778L136.406 223.124C136.142 223.416 135.846 223.652 135.518 223.832C135.19 224.008 134.814 224.096 134.39 224.096C134.058 224.096 133.764 224.042 133.508 223.934C133.256 223.822 133.044 223.666 132.872 223.466C132.7 223.266 132.57 223.024 132.482 222.74C132.398 222.456 132.356 222.142 132.356 221.798V217.922H133.424V221.798C133.424 222.258 133.528 222.614 133.736 222.866C133.948 223.118 134.27 223.244 134.702 223.244C135.018 223.244 135.312 223.17 135.584 223.022C135.86 222.87 136.114 222.662 136.346 222.398V217.922H137.414ZM142.221 222.536C142.417 222.8 142.631 222.986 142.863 223.094C143.095 223.202 143.355 223.256 143.643 223.256C144.211 223.256 144.647 223.054 144.951 222.65C145.255 222.246 145.407 221.67 145.407 220.922C145.407 220.526 145.371 220.186 145.299 219.902C145.231 219.618 145.131 219.386 144.999 219.206C144.867 219.022 144.705 218.888 144.513 218.804C144.321 218.72 144.103 218.678 143.859 218.678C143.511 218.678 143.205 218.758 142.941 218.918C142.681 219.078 142.441 219.304 142.221 219.596V222.536ZM142.167 218.864C142.423 218.548 142.719 218.294 143.055 218.102C143.391 217.91 143.775 217.814 144.207 217.814C144.559 217.814 144.877 217.882 145.161 218.018C145.445 218.15 145.687 218.348 145.887 218.612C146.087 218.872 146.241 219.196 146.349 219.584C146.457 219.972 146.511 220.418 146.511 220.922C146.511 221.37 146.451 221.788 146.331 222.176C146.211 222.56 146.037 222.894 145.809 223.178C145.585 223.458 145.309 223.68 144.981 223.844C144.657 224.004 144.291 224.084 143.883 224.084C143.511 224.084 143.191 224.022 142.923 223.898C142.659 223.77 142.425 223.594 142.221 223.37V226.058H141.147V217.922H141.789C141.941 217.922 142.035 217.996 142.071 218.144L142.167 218.864ZM155.42 224V218.834L154.748 218.756C154.664 218.736 154.594 218.706 154.538 218.666C154.486 218.622 154.46 218.56 154.46 218.48V218.042H155.42V217.454C155.42 217.106 155.468 216.798 155.564 216.53C155.664 216.258 155.804 216.03 155.984 215.846C156.168 215.658 156.388 215.516 156.644 215.42C156.9 215.324 157.188 215.276 157.508 215.276C157.78 215.276 158.03 215.316 158.258 215.396L158.234 215.93C158.226 216.026 158.172 216.078 158.072 216.086C157.976 216.094 157.846 216.098 157.682 216.098C157.498 216.098 157.33 216.122 157.178 216.17C157.03 216.218 156.902 216.296 156.794 216.404C156.686 216.512 156.602 216.654 156.542 216.83C156.486 217.006 156.458 217.224 156.458 217.484V218.042H158.21V218.816H156.494V224H155.42ZM163.634 217.826C164.078 217.826 164.478 217.9 164.834 218.048C165.19 218.196 165.494 218.406 165.746 218.678C165.998 218.95 166.19 219.28 166.322 219.668C166.458 220.052 166.526 220.482 166.526 220.958C166.526 221.438 166.458 221.87 166.322 222.254C166.19 222.638 165.998 222.966 165.746 223.238C165.494 223.51 165.19 223.72 164.834 223.868C164.478 224.012 164.078 224.084 163.634 224.084C163.186 224.084 162.782 224.012 162.422 223.868C162.066 223.72 161.762 223.51 161.51 223.238C161.258 222.966 161.064 222.638 160.928 222.254C160.796 221.87 160.73 221.438 160.73 220.958C160.73 220.482 160.796 220.052 160.928 219.668C161.064 219.28 161.258 218.95 161.51 218.678C161.762 218.406 162.066 218.196 162.422 218.048C162.782 217.9 163.186 217.826 163.634 217.826ZM163.634 223.25C164.234 223.25 164.682 223.05 164.978 222.65C165.274 222.246 165.422 221.684 165.422 220.964C165.422 220.24 165.274 219.676 164.978 219.272C164.682 218.868 164.234 218.666 163.634 218.666C163.33 218.666 163.064 218.718 162.836 218.822C162.612 218.926 162.424 219.076 162.272 219.272C162.124 219.468 162.012 219.71 161.936 219.998C161.864 220.282 161.828 220.604 161.828 220.964C161.828 221.684 161.976 222.246 162.272 222.65C162.572 223.05 163.026 223.25 163.634 223.25ZM170.935 219.14C171.127 218.724 171.363 218.4 171.643 218.168C171.923 217.932 172.265 217.814 172.669 217.814C172.797 217.814 172.919 217.828 173.035 217.856C173.155 217.884 173.261 217.928 173.353 217.988L173.275 218.786C173.251 218.886 173.191 218.936 173.095 218.936C173.039 218.936 172.957 218.924 172.849 218.9C172.741 218.876 172.619 218.864 172.483 218.864C172.291 218.864 172.119 218.892 171.967 218.948C171.819 219.004 171.685 219.088 171.565 219.2C171.449 219.308 171.343 219.444 171.247 219.608C171.155 219.768 171.071 219.952 170.995 220.16V224H169.921V217.922H170.533C170.649 217.922 170.729 217.944 170.773 217.988C170.817 218.032 170.847 218.108 170.863 218.216L170.935 219.14ZM84.1583 250.248C84.553 250.248 84.897 250.2 85.1903 250.104C85.4836 250.003 85.7263 249.861 85.9183 249.68C86.1156 249.493 86.2623 249.269 86.3583 249.008C86.4543 248.741 86.5023 248.445 86.5023 248.12C86.5023 247.811 86.4543 247.531 86.3583 247.28C86.2623 247.029 86.1183 246.816 85.9263 246.64C85.7343 246.464 85.4916 246.331 85.1983 246.24C84.905 246.144 84.5583 246.096 84.1583 246.096H82.5503V250.248H84.1583ZM84.1583 244.432C84.9316 244.432 85.601 244.523 86.1663 244.704C86.7316 244.885 87.1983 245.139 87.5663 245.464C87.9343 245.789 88.2063 246.179 88.3823 246.632C88.5636 247.085 88.6543 247.581 88.6543 248.12C88.6543 248.68 88.561 249.195 88.3743 249.664C88.1876 250.128 87.9076 250.528 87.5343 250.864C87.161 251.2 86.6916 251.461 86.1263 251.648C85.5663 251.835 84.9103 251.928 84.1583 251.928H82.5503V256H80.3983V244.432H84.1583ZM97.6256 250.952C97.6256 250.696 97.5882 250.456 97.5136 250.232C97.4442 250.003 97.3376 249.803 97.1936 249.632C97.0496 249.461 96.8656 249.328 96.6416 249.232C96.4229 249.131 96.1669 249.08 95.8736 249.08C95.3029 249.08 94.8522 249.243 94.5216 249.568C94.1962 249.893 93.9882 250.355 93.8976 250.952H97.6256ZM93.8576 252.144C93.8896 252.565 93.9642 252.931 94.0816 253.24C94.1989 253.544 94.3536 253.797 94.5456 254C94.7376 254.197 94.9642 254.347 95.2256 254.448C95.4922 254.544 95.7856 254.592 96.1056 254.592C96.4256 254.592 96.7002 254.555 96.9296 254.48C97.1642 254.405 97.3669 254.323 97.5376 254.232C97.7136 254.141 97.8656 254.059 97.9936 253.984C98.1269 253.909 98.2549 253.872 98.3776 253.872C98.5429 253.872 98.6656 253.933 98.7456 254.056L99.3136 254.776C99.0949 255.032 98.8496 255.248 98.5776 255.424C98.3056 255.595 98.0202 255.733 97.7216 255.84C97.4282 255.941 97.1269 256.013 96.8176 256.056C96.5136 256.099 96.2176 256.12 95.9296 256.12C95.3589 256.12 94.8282 256.027 94.3376 255.84C93.8469 255.648 93.4202 255.368 93.0576 255C92.6949 254.627 92.4096 254.168 92.2016 253.624C91.9936 253.075 91.8896 252.44 91.8896 251.72C91.8896 251.16 91.9802 250.635 92.1616 250.144C92.3429 249.648 92.6016 249.219 92.9376 248.856C93.2789 248.488 93.6922 248.197 94.1776 247.984C94.6682 247.771 95.2202 247.664 95.8336 247.664C96.3509 247.664 96.8282 247.747 97.2656 247.912C97.7029 248.077 98.0789 248.32 98.3936 248.64C98.7082 248.955 98.9536 249.344 99.1296 249.808C99.3109 250.267 99.4016 250.792 99.4016 251.384C99.4016 251.683 99.3696 251.885 99.3056 251.992C99.2416 252.093 99.1189 252.144 98.9376 252.144H93.8576ZM105.468 249.216C105.724 248.725 106.028 248.341 106.38 248.064C106.732 247.781 107.148 247.64 107.628 247.64C108.007 247.64 108.311 247.723 108.54 247.888L108.412 249.368C108.386 249.464 108.346 249.533 108.292 249.576C108.244 249.613 108.178 249.632 108.092 249.632C108.012 249.632 107.892 249.619 107.732 249.592C107.578 249.565 107.426 249.552 107.276 249.552C107.058 249.552 106.863 249.584 106.692 249.648C106.522 249.712 106.367 249.805 106.228 249.928C106.095 250.045 105.975 250.189 105.868 250.36C105.767 250.531 105.671 250.725 105.58 250.944V256H103.604V247.792H104.764C104.967 247.792 105.108 247.829 105.188 247.904C105.268 247.973 105.322 248.101 105.348 248.288L105.468 249.216ZM117.27 249.392C117.217 249.477 117.161 249.539 117.102 249.576C117.043 249.608 116.969 249.624 116.878 249.624C116.782 249.624 116.678 249.597 116.566 249.544C116.459 249.491 116.334 249.432 116.19 249.368C116.046 249.299 115.881 249.237 115.694 249.184C115.513 249.131 115.297 249.104 115.046 249.104C114.657 249.104 114.35 249.187 114.126 249.352C113.907 249.517 113.798 249.733 113.798 250C113.798 250.176 113.854 250.325 113.966 250.448C114.083 250.565 114.235 250.669 114.422 250.76C114.614 250.851 114.83 250.933 115.07 251.008C115.31 251.077 115.553 251.155 115.798 251.24C116.049 251.325 116.294 251.424 116.534 251.536C116.774 251.643 116.987 251.781 117.174 251.952C117.366 252.117 117.518 252.317 117.63 252.552C117.747 252.787 117.806 253.069 117.806 253.4C117.806 253.795 117.734 254.16 117.59 254.496C117.451 254.827 117.243 255.115 116.966 255.36C116.689 255.6 116.345 255.789 115.934 255.928C115.529 256.061 115.059 256.128 114.526 256.128C114.243 256.128 113.966 256.101 113.694 256.048C113.427 256 113.169 255.931 112.918 255.84C112.673 255.749 112.443 255.643 112.23 255.52C112.022 255.397 111.838 255.264 111.678 255.12L112.134 254.368C112.193 254.277 112.262 254.208 112.342 254.16C112.422 254.112 112.523 254.088 112.646 254.088C112.769 254.088 112.883 254.123 112.99 254.192C113.102 254.261 113.23 254.336 113.374 254.416C113.518 254.496 113.686 254.571 113.878 254.64C114.075 254.709 114.323 254.744 114.622 254.744C114.857 254.744 115.057 254.717 115.222 254.664C115.393 254.605 115.531 254.531 115.638 254.44C115.75 254.349 115.83 254.245 115.878 254.128C115.931 254.005 115.958 253.88 115.958 253.752C115.958 253.56 115.899 253.403 115.782 253.28C115.67 253.157 115.518 253.051 115.326 252.96C115.139 252.869 114.923 252.789 114.678 252.72C114.438 252.645 114.19 252.565 113.934 252.48C113.683 252.395 113.435 252.296 113.19 252.184C112.95 252.067 112.734 251.92 112.542 251.744C112.355 251.568 112.203 251.352 112.086 251.096C111.974 250.84 111.918 250.531 111.918 250.168C111.918 249.832 111.985 249.512 112.118 249.208C112.251 248.904 112.446 248.64 112.702 248.416C112.963 248.187 113.286 248.005 113.67 247.872C114.059 247.733 114.507 247.664 115.014 247.664C115.579 247.664 116.094 247.757 116.558 247.944C117.022 248.131 117.409 248.376 117.718 248.68L117.27 249.392ZM125.645 247.664C126.253 247.664 126.805 247.763 127.301 247.96C127.803 248.157 128.229 248.437 128.581 248.8C128.939 249.163 129.213 249.605 129.405 250.128C129.597 250.651 129.693 251.235 129.693 251.88C129.693 252.531 129.597 253.117 129.405 253.64C129.213 254.163 128.939 254.608 128.581 254.976C128.229 255.344 127.803 255.627 127.301 255.824C126.805 256.021 126.253 256.12 125.645 256.12C125.032 256.12 124.475 256.021 123.973 255.824C123.472 255.627 123.043 255.344 122.685 254.976C122.333 254.608 122.059 254.163 121.861 253.64C121.669 253.117 121.573 252.531 121.573 251.88C121.573 251.235 121.669 250.651 121.861 250.128C122.059 249.605 122.333 249.163 122.685 248.8C123.043 248.437 123.472 248.157 123.973 247.96C124.475 247.763 125.032 247.664 125.645 247.664ZM125.645 254.6C126.328 254.6 126.832 254.371 127.157 253.912C127.488 253.453 127.653 252.781 127.653 251.896C127.653 251.011 127.488 250.336 127.157 249.872C126.832 249.408 126.328 249.176 125.645 249.176C124.952 249.176 124.437 249.411 124.101 249.88C123.771 250.344 123.605 251.016 123.605 251.896C123.605 252.776 123.771 253.448 124.101 253.912C124.437 254.371 124.952 254.6 125.645 254.6ZM135.769 248.8C135.934 248.635 136.107 248.483 136.289 248.344C136.475 248.2 136.67 248.08 136.873 247.984C137.081 247.883 137.302 247.805 137.537 247.752C137.771 247.693 138.027 247.664 138.305 247.664C138.753 247.664 139.15 247.741 139.497 247.896C139.843 248.045 140.131 248.259 140.361 248.536C140.595 248.808 140.771 249.136 140.889 249.52C141.011 249.899 141.073 250.317 141.073 250.776V256H139.097V250.776C139.097 250.275 138.982 249.888 138.753 249.616C138.523 249.339 138.174 249.2 137.705 249.2C137.363 249.2 137.043 249.277 136.745 249.432C136.446 249.587 136.163 249.797 135.897 250.064V256H133.921V247.792H135.129C135.385 247.792 135.553 247.912 135.633 248.152L135.769 248.8ZM150.008 252.496C149.437 252.523 148.957 252.573 148.568 252.648C148.179 252.717 147.867 252.808 147.632 252.92C147.397 253.032 147.229 253.163 147.128 253.312C147.027 253.461 146.976 253.624 146.976 253.8C146.976 254.147 147.077 254.395 147.28 254.544C147.488 254.693 147.757 254.768 148.088 254.768C148.493 254.768 148.843 254.696 149.136 254.552C149.435 254.403 149.725 254.179 150.008 253.88V252.496ZM145.48 248.936C146.424 248.072 147.56 247.64 148.888 247.64C149.368 247.64 149.797 247.72 150.176 247.88C150.555 248.035 150.875 248.253 151.136 248.536C151.397 248.813 151.595 249.147 151.728 249.536C151.867 249.925 151.936 250.352 151.936 250.816V256H151.04C150.853 256 150.709 255.973 150.608 255.92C150.507 255.861 150.427 255.747 150.368 255.576L150.192 254.984C149.984 255.171 149.781 255.336 149.584 255.48C149.387 255.619 149.181 255.736 148.968 255.832C148.755 255.928 148.525 256 148.28 256.048C148.04 256.101 147.773 256.128 147.48 256.128C147.133 256.128 146.813 256.083 146.52 255.992C146.227 255.896 145.973 255.755 145.76 255.568C145.547 255.381 145.381 255.149 145.264 254.872C145.147 254.595 145.088 254.272 145.088 253.904C145.088 253.696 145.123 253.491 145.192 253.288C145.261 253.08 145.373 252.883 145.528 252.696C145.688 252.509 145.893 252.333 146.144 252.168C146.395 252.003 146.701 251.859 147.064 251.736C147.432 251.613 147.859 251.515 148.344 251.44C148.829 251.36 149.384 251.312 150.008 251.296V250.816C150.008 250.267 149.891 249.861 149.656 249.6C149.421 249.333 149.083 249.2 148.64 249.2C148.32 249.2 148.053 249.237 147.84 249.312C147.632 249.387 147.448 249.472 147.288 249.568C147.128 249.659 146.981 249.741 146.848 249.816C146.72 249.891 146.576 249.928 146.416 249.928C146.277 249.928 146.16 249.893 146.064 249.824C145.968 249.749 145.891 249.664 145.832 249.568L145.48 248.936ZM158.517 244.112V256H156.541V244.112H158.517ZM176.888 247.792V256H175.68C175.419 256 175.254 255.88 175.184 255.64L175.048 254.984C174.712 255.325 174.342 255.603 173.936 255.816C173.531 256.024 173.054 256.128 172.504 256.128C172.056 256.128 171.659 256.053 171.312 255.904C170.971 255.749 170.683 255.533 170.448 255.256C170.214 254.979 170.035 254.651 169.912 254.272C169.795 253.888 169.736 253.467 169.736 253.008V247.792H171.712V253.008C171.712 253.509 171.827 253.899 172.056 254.176C172.291 254.448 172.64 254.584 173.104 254.584C173.446 254.584 173.766 254.509 174.064 254.36C174.363 254.205 174.646 253.995 174.912 253.728V247.792H176.888ZM186.576 249.392C186.522 249.477 186.466 249.539 186.408 249.576C186.349 249.608 186.274 249.624 186.184 249.624C186.088 249.624 185.984 249.597 185.872 249.544C185.765 249.491 185.64 249.432 185.496 249.368C185.352 249.299 185.186 249.237 185 249.184C184.818 249.131 184.602 249.104 184.352 249.104C183.962 249.104 183.656 249.187 183.432 249.352C183.213 249.517 183.104 249.733 183.104 250C183.104 250.176 183.16 250.325 183.272 250.448C183.389 250.565 183.541 250.669 183.728 250.76C183.92 250.851 184.136 250.933 184.376 251.008C184.616 251.077 184.858 251.155 185.104 251.24C185.354 251.325 185.6 251.424 185.84 251.536C186.08 251.643 186.293 251.781 186.48 251.952C186.672 252.117 186.824 252.317 186.936 252.552C187.053 252.787 187.112 253.069 187.112 253.4C187.112 253.795 187.04 254.16 186.896 254.496C186.757 254.827 186.549 255.115 186.272 255.36C185.994 255.6 185.65 255.789 185.24 255.928C184.834 256.061 184.365 256.128 183.832 256.128C183.549 256.128 183.272 256.101 183 256.048C182.733 256 182.474 255.931 182.224 255.84C181.978 255.749 181.749 255.643 181.536 255.52C181.328 255.397 181.144 255.264 180.984 255.12L181.44 254.368C181.498 254.277 181.568 254.208 181.648 254.16C181.728 254.112 181.829 254.088 181.952 254.088C182.074 254.088 182.189 254.123 182.296 254.192C182.408 254.261 182.536 254.336 182.68 254.416C182.824 254.496 182.992 254.571 183.184 254.64C183.381 254.709 183.629 254.744 183.928 254.744C184.162 254.744 184.362 254.717 184.528 254.664C184.698 254.605 184.837 254.531 184.944 254.44C185.056 254.349 185.136 254.245 185.184 254.128C185.237 254.005 185.264 253.88 185.264 253.752C185.264 253.56 185.205 253.403 185.088 253.28C184.976 253.157 184.824 253.051 184.632 252.96C184.445 252.869 184.229 252.789 183.984 252.72C183.744 252.645 183.496 252.565 183.24 252.48C182.989 252.395 182.741 252.296 182.496 252.184C182.256 252.067 182.04 251.92 181.848 251.744C181.661 251.568 181.509 251.352 181.392 251.096C181.28 250.84 181.224 250.531 181.224 250.168C181.224 249.832 181.29 249.512 181.424 249.208C181.557 248.904 181.752 248.64 182.008 248.416C182.269 248.187 182.592 248.005 182.976 247.872C183.365 247.733 183.813 247.664 184.32 247.664C184.885 247.664 185.4 247.757 185.864 247.944C186.328 248.131 186.714 248.376 187.024 248.68L186.576 249.392ZM196.607 250.952C196.607 250.696 196.569 250.456 196.495 250.232C196.425 250.003 196.319 249.803 196.175 249.632C196.031 249.461 195.847 249.328 195.623 249.232C195.404 249.131 195.148 249.08 194.855 249.08C194.284 249.08 193.833 249.243 193.503 249.568C193.177 249.893 192.969 250.355 192.879 250.952H196.607ZM192.839 252.144C192.871 252.565 192.945 252.931 193.063 253.24C193.18 253.544 193.335 253.797 193.527 254C193.719 254.197 193.945 254.347 194.207 254.448C194.473 254.544 194.767 254.592 195.087 254.592C195.407 254.592 195.681 254.555 195.911 254.48C196.145 254.405 196.348 254.323 196.519 254.232C196.695 254.141 196.847 254.059 196.975 253.984C197.108 253.909 197.236 253.872 197.359 253.872C197.524 253.872 197.647 253.933 197.727 254.056L198.295 254.776C198.076 255.032 197.831 255.248 197.559 255.424C197.287 255.595 197.001 255.733 196.703 255.84C196.409 255.941 196.108 256.013 195.799 256.056C195.495 256.099 195.199 256.12 194.911 256.12C194.34 256.12 193.809 256.027 193.319 255.84C192.828 255.648 192.401 255.368 192.039 255C191.676 254.627 191.391 254.168 191.183 253.624C190.975 253.075 190.871 252.44 190.871 251.72C190.871 251.16 190.961 250.635 191.143 250.144C191.324 249.648 191.583 249.219 191.919 248.856C192.26 248.488 192.673 248.197 193.159 247.984C193.649 247.771 194.201 247.664 194.815 247.664C195.332 247.664 195.809 247.747 196.247 247.912C196.684 248.077 197.06 248.32 197.375 248.64C197.689 248.955 197.935 249.344 198.111 249.808C198.292 250.267 198.383 250.792 198.383 251.384C198.383 251.683 198.351 251.885 198.287 251.992C198.223 252.093 198.1 252.144 197.919 252.144H192.839ZM125.48 274.688C124.68 277.104 123.4 279.504 121.976 281.056C122.184 281.344 122.504 282 122.6 282.256C123.144 281.648 123.656 280.928 124.152 280.144V289.232H125.288V278.096C125.784 277.104 126.216 276.048 126.568 274.992L125.48 274.688ZM133.16 284.992H130.456V282.512H133.16V284.992ZM134.728 279.856V278.944H132.264V277.136H131.288V278.944H128.888V279.856H131.288V281.616H129.544V285.872H134.104V281.616H132.264V279.856H134.728ZM128.232 287.2V276.624H135.272V287.2H128.232ZM127.128 275.584V289.2H128.232V288.256H135.272V289.072H136.408V275.584H127.128ZM147.544 275.104C147.432 277.216 147.432 284.848 140.952 288.16C141.32 288.4 141.704 288.784 141.912 289.072C145.96 286.88 147.608 283.024 148.312 279.824C149.08 283.024 150.84 287.12 154.968 289.072C155.144 288.752 155.512 288.352 155.848 288.096C149.832 285.344 148.968 277.952 148.824 275.84C148.84 275.568 148.84 275.312 148.856 275.104H147.544Z" fill="black"/>
<path d="M319.514 217.924C319.466 218.012 319.392 218.056 319.292 218.056C319.232 218.056 319.164 218.034 319.088 217.99C319.012 217.946 318.918 217.898 318.806 217.846C318.698 217.79 318.568 217.74 318.416 217.696C318.264 217.648 318.084 217.624 317.876 217.624C317.696 217.624 317.534 217.648 317.39 217.696C317.246 217.74 317.122 217.802 317.018 217.882C316.918 217.962 316.84 218.056 316.784 218.164C316.732 218.268 316.706 218.382 316.706 218.506C316.706 218.662 316.75 218.792 316.838 218.896C316.93 219 317.05 219.09 317.198 219.166C317.346 219.242 317.514 219.31 317.702 219.37C317.89 219.426 318.082 219.488 318.278 219.556C318.478 219.62 318.672 219.692 318.86 219.772C319.048 219.852 319.216 219.952 319.364 220.072C319.512 220.192 319.63 220.34 319.718 220.516C319.81 220.688 319.856 220.896 319.856 221.14C319.856 221.42 319.806 221.68 319.706 221.92C319.606 222.156 319.458 222.362 319.262 222.538C319.066 222.71 318.826 222.846 318.542 222.946C318.258 223.046 317.93 223.096 317.558 223.096C317.134 223.096 316.75 223.028 316.406 222.892C316.062 222.752 315.77 222.574 315.53 222.358L315.782 221.95C315.814 221.898 315.852 221.858 315.896 221.83C315.94 221.802 315.996 221.788 316.064 221.788C316.136 221.788 316.212 221.816 316.292 221.872C316.372 221.928 316.468 221.99 316.58 222.058C316.696 222.126 316.836 222.188 317 222.244C317.164 222.3 317.368 222.328 317.612 222.328C317.82 222.328 318.002 222.302 318.158 222.25C318.314 222.194 318.444 222.12 318.548 222.028C318.652 221.936 318.728 221.83 318.776 221.71C318.828 221.59 318.854 221.462 318.854 221.326C318.854 221.158 318.808 221.02 318.716 220.912C318.628 220.8 318.51 220.706 318.362 220.63C318.214 220.55 318.044 220.482 317.852 220.426C317.664 220.366 317.47 220.304 317.27 220.24C317.074 220.176 316.88 220.104 316.688 220.024C316.5 219.94 316.332 219.836 316.184 219.712C316.036 219.588 315.916 219.436 315.824 219.256C315.736 219.072 315.692 218.85 315.692 218.59C315.692 218.358 315.74 218.136 315.836 217.924C315.932 217.708 316.072 217.52 316.256 217.36C316.44 217.196 316.666 217.066 316.934 216.97C317.202 216.874 317.508 216.826 317.852 216.826C318.252 216.826 318.61 216.89 318.926 217.018C319.246 217.142 319.522 217.314 319.754 217.534L319.514 217.924ZM327.274 219.298C327.274 219.05 327.238 218.824 327.166 218.62C327.098 218.412 326.996 218.234 326.86 218.086C326.728 217.934 326.566 217.818 326.374 217.738C326.182 217.654 325.964 217.612 325.72 217.612C325.208 217.612 324.802 217.762 324.502 218.062C324.206 218.358 324.022 218.77 323.95 219.298H327.274ZM328.138 222.148C328.006 222.308 327.848 222.448 327.664 222.568C327.48 222.684 327.282 222.78 327.07 222.856C326.862 222.932 326.646 222.988 326.422 223.024C326.198 223.064 325.976 223.084 325.756 223.084C325.336 223.084 324.948 223.014 324.592 222.874C324.24 222.73 323.934 222.522 323.674 222.25C323.418 221.974 323.218 221.634 323.074 221.23C322.93 220.826 322.858 220.362 322.858 219.838C322.858 219.414 322.922 219.018 323.05 218.65C323.182 218.282 323.37 217.964 323.614 217.696C323.858 217.424 324.156 217.212 324.508 217.06C324.86 216.904 325.256 216.826 325.696 216.826C326.06 216.826 326.396 216.888 326.704 217.012C327.016 217.132 327.284 217.308 327.508 217.54C327.736 217.768 327.914 218.052 328.042 218.392C328.17 218.728 328.234 219.112 328.234 219.544C328.234 219.712 328.216 219.824 328.18 219.88C328.144 219.936 328.076 219.964 327.976 219.964H323.914C323.926 220.348 323.978 220.682 324.07 220.966C324.166 221.25 324.298 221.488 324.466 221.68C324.634 221.868 324.834 222.01 325.066 222.106C325.298 222.198 325.558 222.244 325.846 222.244C326.114 222.244 326.344 222.214 326.536 222.154C326.732 222.09 326.9 222.022 327.04 221.95C327.18 221.878 327.296 221.812 327.388 221.752C327.484 221.688 327.566 221.656 327.634 221.656C327.722 221.656 327.79 221.69 327.838 221.758L328.138 222.148ZM333.404 223.096C332.924 223.096 332.554 222.962 332.294 222.694C332.038 222.426 331.91 222.04 331.91 221.536V217.816H331.178C331.114 217.816 331.06 217.798 331.016 217.762C330.972 217.722 330.95 217.662 330.95 217.582V217.156L331.946 217.03L332.192 215.152C332.204 215.092 332.23 215.044 332.27 215.008C332.314 214.968 332.37 214.948 332.438 214.948H332.978V217.042H334.736V217.816H332.978V221.464C332.978 221.72 333.04 221.91 333.164 222.034C333.288 222.158 333.448 222.22 333.644 222.22C333.756 222.22 333.852 222.206 333.932 222.178C334.016 222.146 334.088 222.112 334.148 222.076C334.208 222.04 334.258 222.008 334.298 221.98C334.342 221.948 334.38 221.932 334.412 221.932C334.468 221.932 334.518 221.966 334.562 222.034L334.874 222.544C334.69 222.716 334.468 222.852 334.208 222.952C333.948 223.048 333.68 223.096 333.404 223.096ZM347.988 216.922V223H347.352C347.2 223 347.104 222.926 347.064 222.778L346.98 222.124C346.716 222.416 346.42 222.652 346.092 222.832C345.764 223.008 345.388 223.096 344.964 223.096C344.632 223.096 344.338 223.042 344.082 222.934C343.83 222.822 343.618 222.666 343.446 222.466C343.274 222.266 343.144 222.024 343.056 221.74C342.972 221.456 342.93 221.142 342.93 220.798V216.922H343.998V220.798C343.998 221.258 344.102 221.614 344.31 221.866C344.522 222.118 344.844 222.244 345.276 222.244C345.592 222.244 345.886 222.17 346.158 222.022C346.434 221.87 346.688 221.662 346.92 221.398V216.922H347.988ZM352.795 221.536C352.991 221.8 353.205 221.986 353.437 222.094C353.669 222.202 353.929 222.256 354.217 222.256C354.785 222.256 355.221 222.054 355.525 221.65C355.829 221.246 355.981 220.67 355.981 219.922C355.981 219.526 355.945 219.186 355.873 218.902C355.805 218.618 355.705 218.386 355.573 218.206C355.441 218.022 355.279 217.888 355.087 217.804C354.895 217.72 354.677 217.678 354.433 217.678C354.085 217.678 353.779 217.758 353.515 217.918C353.255 218.078 353.015 218.304 352.795 218.596V221.536ZM352.741 217.864C352.997 217.548 353.293 217.294 353.629 217.102C353.965 216.91 354.349 216.814 354.781 216.814C355.133 216.814 355.451 216.882 355.735 217.018C356.019 217.15 356.261 217.348 356.461 217.612C356.661 217.872 356.815 218.196 356.923 218.584C357.031 218.972 357.085 219.418 357.085 219.922C357.085 220.37 357.025 220.788 356.905 221.176C356.785 221.56 356.611 221.894 356.383 222.178C356.159 222.458 355.883 222.68 355.555 222.844C355.231 223.004 354.865 223.084 354.457 223.084C354.085 223.084 353.765 223.022 353.497 222.898C353.233 222.77 352.999 222.594 352.795 222.37V225.058H351.721V216.922H352.363C352.515 216.922 352.609 216.996 352.645 217.144L352.741 217.864ZM365.994 223V217.834L365.322 217.756C365.238 217.736 365.168 217.706 365.112 217.666C365.06 217.622 365.034 217.56 365.034 217.48V217.042H365.994V216.454C365.994 216.106 366.042 215.798 366.138 215.53C366.238 215.258 366.378 215.03 366.558 214.846C366.742 214.658 366.962 214.516 367.218 214.42C367.474 214.324 367.762 214.276 368.082 214.276C368.354 214.276 368.604 214.316 368.832 214.396L368.808 214.93C368.8 215.026 368.746 215.078 368.646 215.086C368.55 215.094 368.42 215.098 368.256 215.098C368.072 215.098 367.904 215.122 367.752 215.17C367.604 215.218 367.476 215.296 367.368 215.404C367.26 215.512 367.176 215.654 367.116 215.83C367.06 216.006 367.032 216.224 367.032 216.484V217.042H368.784V217.816H367.068V223H365.994ZM374.208 216.826C374.652 216.826 375.052 216.9 375.408 217.048C375.764 217.196 376.068 217.406 376.32 217.678C376.572 217.95 376.764 218.28 376.896 218.668C377.032 219.052 377.1 219.482 377.1 219.958C377.1 220.438 377.032 220.87 376.896 221.254C376.764 221.638 376.572 221.966 376.32 222.238C376.068 222.51 375.764 222.72 375.408 222.868C375.052 223.012 374.652 223.084 374.208 223.084C373.76 223.084 373.356 223.012 372.996 222.868C372.64 222.72 372.336 222.51 372.084 222.238C371.832 221.966 371.638 221.638 371.502 221.254C371.37 220.87 371.304 220.438 371.304 219.958C371.304 219.482 371.37 219.052 371.502 218.668C371.638 218.28 371.832 217.95 372.084 217.678C372.336 217.406 372.64 217.196 372.996 217.048C373.356 216.9 373.76 216.826 374.208 216.826ZM374.208 222.25C374.808 222.25 375.256 222.05 375.552 221.65C375.848 221.246 375.996 220.684 375.996 219.964C375.996 219.24 375.848 218.676 375.552 218.272C375.256 217.868 374.808 217.666 374.208 217.666C373.904 217.666 373.638 217.718 373.41 217.822C373.186 217.926 372.998 218.076 372.846 218.272C372.698 218.468 372.586 218.71 372.51 218.998C372.438 219.282 372.402 219.604 372.402 219.964C372.402 220.684 372.55 221.246 372.846 221.65C373.146 222.05 373.6 222.25 374.208 222.25ZM381.508 218.14C381.7 217.724 381.936 217.4 382.216 217.168C382.496 216.932 382.838 216.814 383.242 216.814C383.37 216.814 383.492 216.828 383.608 216.856C383.728 216.884 383.834 216.928 383.926 216.988L383.848 217.786C383.824 217.886 383.764 217.936 383.668 217.936C383.612 217.936 383.53 217.924 383.422 217.9C383.314 217.876 383.192 217.864 383.056 217.864C382.864 217.864 382.692 217.892 382.54 217.948C382.392 218.004 382.258 218.088 382.138 218.2C382.022 218.308 381.916 218.444 381.82 218.608C381.728 218.768 381.644 218.952 381.568 219.16V223H380.494V216.922H381.106C381.222 216.922 381.302 216.944 381.346 216.988C381.39 217.032 381.42 217.108 381.436 217.216L381.508 218.14ZM338.413 245.2H334.925V255H332.773V245.2H329.285V243.432H338.413V245.2ZM345.701 249.952C345.701 249.696 345.664 249.456 345.589 249.232C345.52 249.003 345.413 248.803 345.269 248.632C345.125 248.461 344.941 248.328 344.717 248.232C344.498 248.131 344.242 248.08 343.949 248.08C343.378 248.08 342.928 248.243 342.597 248.568C342.272 248.893 342.064 249.355 341.973 249.952H345.701ZM341.933 251.144C341.965 251.565 342.04 251.931 342.157 252.24C342.274 252.544 342.429 252.797 342.621 253C342.813 253.197 343.04 253.347 343.301 253.448C343.568 253.544 343.861 253.592 344.181 253.592C344.501 253.592 344.776 253.555 345.005 253.48C345.24 253.405 345.442 253.323 345.613 253.232C345.789 253.141 345.941 253.059 346.069 252.984C346.202 252.909 346.33 252.872 346.453 252.872C346.618 252.872 346.741 252.933 346.821 253.056L347.389 253.776C347.17 254.032 346.925 254.248 346.653 254.424C346.381 254.595 346.096 254.733 345.797 254.84C345.504 254.941 345.202 255.013 344.893 255.056C344.589 255.099 344.293 255.12 344.005 255.12C343.434 255.12 342.904 255.027 342.413 254.84C341.922 254.648 341.496 254.368 341.133 254C340.77 253.627 340.485 253.168 340.277 252.624C340.069 252.075 339.965 251.44 339.965 250.72C339.965 250.16 340.056 249.635 340.237 249.144C340.418 248.648 340.677 248.219 341.013 247.856C341.354 247.488 341.768 247.197 342.253 246.984C342.744 246.771 343.296 246.664 343.909 246.664C344.426 246.664 344.904 246.747 345.341 246.912C345.778 247.077 346.154 247.32 346.469 247.64C346.784 247.955 347.029 248.344 347.205 248.808C347.386 249.267 347.477 249.792 347.477 250.384C347.477 250.683 347.445 250.885 347.381 250.992C347.317 251.093 347.194 251.144 347.013 251.144H341.933ZM356.016 251.496C355.445 251.523 354.965 251.573 354.576 251.648C354.186 251.717 353.874 251.808 353.64 251.92C353.405 252.032 353.237 252.163 353.136 252.312C353.034 252.461 352.984 252.624 352.984 252.8C352.984 253.147 353.085 253.395 353.288 253.544C353.496 253.693 353.765 253.768 354.096 253.768C354.501 253.768 354.85 253.696 355.144 253.552C355.442 253.403 355.733 253.179 356.016 252.88V251.496ZM351.488 247.936C352.432 247.072 353.568 246.64 354.896 246.64C355.376 246.64 355.805 246.72 356.184 246.88C356.562 247.035 356.882 247.253 357.144 247.536C357.405 247.813 357.602 248.147 357.736 248.536C357.874 248.925 357.944 249.352 357.944 249.816V255H357.048C356.861 255 356.717 254.973 356.616 254.92C356.514 254.861 356.434 254.747 356.376 254.576L356.2 253.984C355.992 254.171 355.789 254.336 355.592 254.48C355.394 254.619 355.189 254.736 354.976 254.832C354.762 254.928 354.533 255 354.288 255.048C354.048 255.101 353.781 255.128 353.488 255.128C353.141 255.128 352.821 255.083 352.528 254.992C352.234 254.896 351.981 254.755 351.768 254.568C351.554 254.381 351.389 254.149 351.272 253.872C351.154 253.595 351.096 253.272 351.096 252.904C351.096 252.696 351.13 252.491 351.2 252.288C351.269 252.08 351.381 251.883 351.536 251.696C351.696 251.509 351.901 251.333 352.152 251.168C352.402 251.003 352.709 250.859 353.072 250.736C353.44 250.613 353.866 250.515 354.352 250.44C354.837 250.36 355.392 250.312 356.016 250.296V249.816C356.016 249.267 355.898 248.861 355.664 248.6C355.429 248.333 355.09 248.2 354.648 248.2C354.328 248.2 354.061 248.237 353.848 248.312C353.64 248.387 353.456 248.472 353.296 248.568C353.136 248.659 352.989 248.741 352.856 248.816C352.728 248.891 352.584 248.928 352.424 248.928C352.285 248.928 352.168 248.893 352.072 248.824C351.976 248.749 351.898 248.664 351.84 248.568L351.488 247.936ZM362.525 255V246.792H363.733C363.989 246.792 364.157 246.912 364.237 247.152L364.365 247.76C364.509 247.6 364.658 247.453 364.813 247.32C364.973 247.187 365.141 247.072 365.317 246.976C365.498 246.88 365.69 246.805 365.893 246.752C366.101 246.693 366.327 246.664 366.573 246.664C367.09 246.664 367.514 246.805 367.845 247.088C368.181 247.365 368.431 247.736 368.597 248.2C368.725 247.928 368.885 247.696 369.077 247.504C369.269 247.307 369.479 247.147 369.709 247.024C369.938 246.901 370.181 246.811 370.437 246.752C370.698 246.693 370.959 246.664 371.221 246.664C371.674 246.664 372.077 246.733 372.429 246.872C372.781 247.011 373.077 247.213 373.317 247.48C373.557 247.747 373.738 248.072 373.861 248.456C373.989 248.84 374.053 249.28 374.053 249.776V255H372.077V249.776C372.077 249.253 371.962 248.861 371.733 248.6C371.503 248.333 371.167 248.2 370.725 248.2C370.522 248.2 370.333 248.235 370.157 248.304C369.986 248.373 369.834 248.475 369.701 248.608C369.573 248.736 369.471 248.899 369.397 249.096C369.322 249.293 369.285 249.52 369.285 249.776V255H367.301V249.776C367.301 249.227 367.189 248.827 366.965 248.576C366.746 248.325 366.423 248.2 365.997 248.2C365.709 248.2 365.439 248.272 365.189 248.416C364.943 248.555 364.714 248.747 364.501 248.992V255H362.525ZM345.632 278.312V279H343.088V278.312H345.632ZM345.632 280.296H343.088V279.592H345.632V280.296ZM343.088 281.688V280.904H345.312L344.688 281.336C344.816 281.432 344.944 281.528 345.056 281.64L343.088 281.688ZM339.632 280.296V279.592H342.08V280.296H339.632ZM339.632 278.312H342.08V279H339.632V278.312ZM342.08 277.688H338.688V280.904H342.08V281.704C340.56 281.72 339.168 281.736 338.096 281.736L338.144 282.472C340.128 282.44 342.992 282.36 345.76 282.264C346.016 282.52 346.24 282.76 346.4 282.968L347.072 282.472C346.72 282.008 345.984 281.352 345.344 280.904H346.624V277.688H343.088V277.048H347.184V276.296H343.088V275.544H342.08V276.296H338.064V277.048H342.08V277.688ZM339.568 284.296C340.096 284.744 340.688 285.368 340.944 285.816L341.76 285.336C341.488 284.92 340.88 284.296 340.336 283.896L339.568 284.296ZM347.408 283.08H345.12V282.488H344.112V283.08H337.872V283.816H344.112V285.272C344.112 285.432 344.064 285.48 343.872 285.48C343.712 285.496 343.12 285.496 342.48 285.48C342.576 285.672 342.704 285.928 342.752 286.152C343.712 286.152 344.304 286.152 344.656 286.04C345.024 285.928 345.12 285.768 345.12 285.304V283.816H347.408V283.08ZM337.328 286.44V275.288H347.936V286.44H337.328ZM336.224 274.344V288.232H337.328V287.4H347.936V288.152H349.072V274.344H336.224ZM367.792 278.52C367.248 279.16 366.384 279.992 365.632 280.632C365.296 279.608 365.024 278.488 364.816 277.336H368.512V276.296H365.872C366.288 275.672 366.768 274.792 367.2 273.976L366.064 273.624C365.776 274.36 365.248 275.416 364.848 276.088L365.456 276.296H361.856L362.464 276.072C362.272 275.416 361.808 274.424 361.312 273.688L360.352 274.024C360.784 274.712 361.2 275.64 361.376 276.296H359.136V277.336H362.704C361.616 278.392 360.096 279.336 358.688 279.96C358.912 280.168 359.28 280.6 359.408 280.808C360.128 280.44 360.88 279.992 361.6 279.48C361.904 279.768 362.176 280.072 362.4 280.392C361.552 281.208 360.144 282.152 359.072 282.664C359.088 282.552 359.088 282.456 359.088 282.344C359.088 281.368 358.816 280.216 357.664 278.92C358.192 277.656 358.768 276.024 359.248 274.712L358.48 274.248L358.288 274.296H354.704V288.216H355.76V275.384H357.856C357.52 276.472 357.056 277.896 356.592 279.064C357.744 280.296 358.016 281.368 358.016 282.232C358.016 282.696 357.936 283.144 357.696 283.32C357.568 283.4 357.392 283.448 357.184 283.448C356.944 283.48 356.624 283.464 356.256 283.432C356.448 283.736 356.544 284.184 356.56 284.488C356.928 284.504 357.312 284.488 357.632 284.456C357.952 284.424 358.24 284.328 358.464 284.168C358.816 283.912 359.024 283.4 359.072 282.76C359.296 282.968 359.536 283.304 359.68 283.544C360.704 282.968 361.968 282.04 362.88 281.176C363.104 281.576 363.28 282.008 363.424 282.424C362.208 283.896 359.968 285.448 358.08 286.168C358.352 286.392 358.64 286.76 358.8 287.032C360.448 286.28 362.384 284.904 363.696 283.528C363.968 285 363.76 286.312 363.312 286.776C363.072 287.096 362.784 287.144 362.432 287.144C362.128 287.144 361.712 287.112 361.232 287.064C361.44 287.368 361.52 287.864 361.536 288.152C361.952 288.184 362.352 288.2 362.656 288.2C363.312 288.184 363.744 288.04 364.176 287.592C365.472 286.392 365.376 281.544 362.416 278.872C362.944 278.456 363.44 278.008 363.872 277.544C364.544 281.416 365.792 284.696 368.016 286.44C368.192 286.136 368.576 285.72 368.816 285.528C367.6 284.68 366.656 283.272 365.968 281.544C366.8 280.904 367.808 280.056 368.592 279.272L367.792 278.52Z" fill="black"/>
<path d="M532.514 216.924C532.466 217.012 532.392 217.056 532.292 217.056C532.232 217.056 532.164 217.034 532.088 216.99C532.012 216.946 531.918 216.898 531.806 216.846C531.698 216.79 531.568 216.74 531.416 216.696C531.264 216.648 531.084 216.624 530.876 216.624C530.696 216.624 530.534 216.648 530.39 216.696C530.246 216.74 530.122 216.802 530.018 216.882C529.918 216.962 529.84 217.056 529.784 217.164C529.732 217.268 529.706 217.382 529.706 217.506C529.706 217.662 529.75 217.792 529.838 217.896C529.93 218 530.05 218.09 530.198 218.166C530.346 218.242 530.514 218.31 530.702 218.37C530.89 218.426 531.082 218.488 531.278 218.556C531.478 218.62 531.672 218.692 531.86 218.772C532.048 218.852 532.216 218.952 532.364 219.072C532.512 219.192 532.63 219.34 532.718 219.516C532.81 219.688 532.856 219.896 532.856 220.14C532.856 220.42 532.806 220.68 532.706 220.92C532.606 221.156 532.458 221.362 532.262 221.538C532.066 221.71 531.826 221.846 531.542 221.946C531.258 222.046 530.93 222.096 530.558 222.096C530.134 222.096 529.75 222.028 529.406 221.892C529.062 221.752 528.77 221.574 528.53 221.358L528.782 220.95C528.814 220.898 528.852 220.858 528.896 220.83C528.94 220.802 528.996 220.788 529.064 220.788C529.136 220.788 529.212 220.816 529.292 220.872C529.372 220.928 529.468 220.99 529.58 221.058C529.696 221.126 529.836 221.188 530 221.244C530.164 221.3 530.368 221.328 530.612 221.328C530.82 221.328 531.002 221.302 531.158 221.25C531.314 221.194 531.444 221.12 531.548 221.028C531.652 220.936 531.728 220.83 531.776 220.71C531.828 220.59 531.854 220.462 531.854 220.326C531.854 220.158 531.808 220.02 531.716 219.912C531.628 219.8 531.51 219.706 531.362 219.63C531.214 219.55 531.044 219.482 530.852 219.426C530.664 219.366 530.47 219.304 530.27 219.24C530.074 219.176 529.88 219.104 529.688 219.024C529.5 218.94 529.332 218.836 529.184 218.712C529.036 218.588 528.916 218.436 528.824 218.256C528.736 218.072 528.692 217.85 528.692 217.59C528.692 217.358 528.74 217.136 528.836 216.924C528.932 216.708 529.072 216.52 529.256 216.36C529.44 216.196 529.666 216.066 529.934 215.97C530.202 215.874 530.508 215.826 530.852 215.826C531.252 215.826 531.61 215.89 531.926 216.018C532.246 216.142 532.522 216.314 532.754 216.534L532.514 216.924ZM540.274 218.298C540.274 218.05 540.238 217.824 540.166 217.62C540.098 217.412 539.996 217.234 539.86 217.086C539.728 216.934 539.566 216.818 539.374 216.738C539.182 216.654 538.964 216.612 538.72 216.612C538.208 216.612 537.802 216.762 537.502 217.062C537.206 217.358 537.022 217.77 536.95 218.298H540.274ZM541.138 221.148C541.006 221.308 540.848 221.448 540.664 221.568C540.48 221.684 540.282 221.78 540.07 221.856C539.862 221.932 539.646 221.988 539.422 222.024C539.198 222.064 538.976 222.084 538.756 222.084C538.336 222.084 537.948 222.014 537.592 221.874C537.24 221.73 536.934 221.522 536.674 221.25C536.418 220.974 536.218 220.634 536.074 220.23C535.93 219.826 535.858 219.362 535.858 218.838C535.858 218.414 535.922 218.018 536.05 217.65C536.182 217.282 536.37 216.964 536.614 216.696C536.858 216.424 537.156 216.212 537.508 216.06C537.86 215.904 538.256 215.826 538.696 215.826C539.06 215.826 539.396 215.888 539.704 216.012C540.016 216.132 540.284 216.308 540.508 216.54C540.736 216.768 540.914 217.052 541.042 217.392C541.17 217.728 541.234 218.112 541.234 218.544C541.234 218.712 541.216 218.824 541.18 218.88C541.144 218.936 541.076 218.964 540.976 218.964H536.914C536.926 219.348 536.978 219.682 537.07 219.966C537.166 220.25 537.298 220.488 537.466 220.68C537.634 220.868 537.834 221.01 538.066 221.106C538.298 221.198 538.558 221.244 538.846 221.244C539.114 221.244 539.344 221.214 539.536 221.154C539.732 221.09 539.9 221.022 540.04 220.95C540.18 220.878 540.296 220.812 540.388 220.752C540.484 220.688 540.566 220.656 540.634 220.656C540.722 220.656 540.79 220.69 540.838 220.758L541.138 221.148ZM546.404 222.096C545.924 222.096 545.554 221.962 545.294 221.694C545.038 221.426 544.91 221.04 544.91 220.536V216.816H544.178C544.114 216.816 544.06 216.798 544.016 216.762C543.972 216.722 543.95 216.662 543.95 216.582V216.156L544.946 216.03L545.192 214.152C545.204 214.092 545.23 214.044 545.27 214.008C545.314 213.968 545.37 213.948 545.438 213.948H545.978V216.042H547.736V216.816H545.978V220.464C545.978 220.72 546.04 220.91 546.164 221.034C546.288 221.158 546.448 221.22 546.644 221.22C546.756 221.22 546.852 221.206 546.932 221.178C547.016 221.146 547.088 221.112 547.148 221.076C547.208 221.04 547.258 221.008 547.298 220.98C547.342 220.948 547.38 220.932 547.412 220.932C547.468 220.932 547.518 220.966 547.562 221.034L547.874 221.544C547.69 221.716 547.468 221.852 547.208 221.952C546.948 222.048 546.68 222.096 546.404 222.096ZM560.988 215.922V222H560.352C560.2 222 560.104 221.926 560.064 221.778L559.98 221.124C559.716 221.416 559.42 221.652 559.092 221.832C558.764 222.008 558.388 222.096 557.964 222.096C557.632 222.096 557.338 222.042 557.082 221.934C556.83 221.822 556.618 221.666 556.446 221.466C556.274 221.266 556.144 221.024 556.056 220.74C555.972 220.456 555.93 220.142 555.93 219.798V215.922H556.998V219.798C556.998 220.258 557.102 220.614 557.31 220.866C557.522 221.118 557.844 221.244 558.276 221.244C558.592 221.244 558.886 221.17 559.158 221.022C559.434 220.87 559.688 220.662 559.92 220.398V215.922H560.988ZM565.795 220.536C565.991 220.8 566.205 220.986 566.437 221.094C566.669 221.202 566.929 221.256 567.217 221.256C567.785 221.256 568.221 221.054 568.525 220.65C568.829 220.246 568.981 219.67 568.981 218.922C568.981 218.526 568.945 218.186 568.873 217.902C568.805 217.618 568.705 217.386 568.573 217.206C568.441 217.022 568.279 216.888 568.087 216.804C567.895 216.72 567.677 216.678 567.433 216.678C567.085 216.678 566.779 216.758 566.515 216.918C566.255 217.078 566.015 217.304 565.795 217.596V220.536ZM565.741 216.864C565.997 216.548 566.293 216.294 566.629 216.102C566.965 215.91 567.349 215.814 567.781 215.814C568.133 215.814 568.451 215.882 568.735 216.018C569.019 216.15 569.261 216.348 569.461 216.612C569.661 216.872 569.815 217.196 569.923 217.584C570.031 217.972 570.085 218.418 570.085 218.922C570.085 219.37 570.025 219.788 569.905 220.176C569.785 220.56 569.611 220.894 569.383 221.178C569.159 221.458 568.883 221.68 568.555 221.844C568.231 222.004 567.865 222.084 567.457 222.084C567.085 222.084 566.765 222.022 566.497 221.898C566.233 221.77 565.999 221.594 565.795 221.37V224.058H564.721V215.922H565.363C565.515 215.922 565.609 215.996 565.645 216.144L565.741 216.864ZM578.994 222V216.834L578.322 216.756C578.238 216.736 578.168 216.706 578.112 216.666C578.06 216.622 578.034 216.56 578.034 216.48V216.042H578.994V215.454C578.994 215.106 579.042 214.798 579.138 214.53C579.238 214.258 579.378 214.03 579.558 213.846C579.742 213.658 579.962 213.516 580.218 213.42C580.474 213.324 580.762 213.276 581.082 213.276C581.354 213.276 581.604 213.316 581.832 213.396L581.808 213.93C581.8 214.026 581.746 214.078 581.646 214.086C581.55 214.094 581.42 214.098 581.256 214.098C581.072 214.098 580.904 214.122 580.752 214.17C580.604 214.218 580.476 214.296 580.368 214.404C580.26 214.512 580.176 214.654 580.116 214.83C580.06 215.006 580.032 215.224 580.032 215.484V216.042H581.784V216.816H580.068V222H578.994ZM587.208 215.826C587.652 215.826 588.052 215.9 588.408 216.048C588.764 216.196 589.068 216.406 589.32 216.678C589.572 216.95 589.764 217.28 589.896 217.668C590.032 218.052 590.1 218.482 590.1 218.958C590.1 219.438 590.032 219.87 589.896 220.254C589.764 220.638 589.572 220.966 589.32 221.238C589.068 221.51 588.764 221.72 588.408 221.868C588.052 222.012 587.652 222.084 587.208 222.084C586.76 222.084 586.356 222.012 585.996 221.868C585.64 221.72 585.336 221.51 585.084 221.238C584.832 220.966 584.638 220.638 584.502 220.254C584.37 219.87 584.304 219.438 584.304 218.958C584.304 218.482 584.37 218.052 584.502 217.668C584.638 217.28 584.832 216.95 585.084 216.678C585.336 216.406 585.64 216.196 585.996 216.048C586.356 215.9 586.76 215.826 587.208 215.826ZM587.208 221.25C587.808 221.25 588.256 221.05 588.552 220.65C588.848 220.246 588.996 219.684 588.996 218.964C588.996 218.24 588.848 217.676 588.552 217.272C588.256 216.868 587.808 216.666 587.208 216.666C586.904 216.666 586.638 216.718 586.41 216.822C586.186 216.926 585.998 217.076 585.846 217.272C585.698 217.468 585.586 217.71 585.51 217.998C585.438 218.282 585.402 218.604 585.402 218.964C585.402 219.684 585.55 220.246 585.846 220.65C586.146 221.05 586.6 221.25 587.208 221.25ZM594.508 217.14C594.7 216.724 594.936 216.4 595.216 216.168C595.496 215.932 595.838 215.814 596.242 215.814C596.37 215.814 596.492 215.828 596.608 215.856C596.728 215.884 596.834 215.928 596.926 215.988L596.848 216.786C596.824 216.886 596.764 216.936 596.668 216.936C596.612 216.936 596.53 216.924 596.422 216.9C596.314 216.876 596.192 216.864 596.056 216.864C595.864 216.864 595.692 216.892 595.54 216.948C595.392 217.004 595.258 217.088 595.138 217.2C595.022 217.308 594.916 217.444 594.82 217.608C594.728 217.768 594.644 217.952 594.568 218.16V222H593.494V215.922H594.106C594.222 215.922 594.302 215.944 594.346 215.988C594.39 216.032 594.42 216.108 594.436 216.216L594.508 217.14ZM533.139 244.536C533.075 244.648 533.006 244.731 532.931 244.784C532.862 244.832 532.774 244.856 532.667 244.856C532.555 244.856 532.432 244.816 532.299 244.736C532.171 244.651 532.016 244.557 531.835 244.456C531.654 244.355 531.44 244.264 531.195 244.184C530.955 244.099 530.67 244.056 530.339 244.056C530.04 244.056 529.779 244.093 529.555 244.168C529.331 244.237 529.142 244.336 528.987 244.464C528.838 244.592 528.726 244.747 528.651 244.928C528.576 245.104 528.539 245.299 528.539 245.512C528.539 245.784 528.614 246.011 528.763 246.192C528.918 246.373 529.12 246.528 529.371 246.656C529.622 246.784 529.907 246.899 530.227 247C530.547 247.101 530.875 247.211 531.211 247.328C531.547 247.44 531.875 247.573 532.195 247.728C532.515 247.877 532.8 248.069 533.051 248.304C533.302 248.533 533.502 248.816 533.651 249.152C533.806 249.488 533.883 249.896 533.883 250.376C533.883 250.899 533.792 251.389 533.611 251.848C533.435 252.301 533.174 252.699 532.827 253.04C532.486 253.376 532.067 253.643 531.571 253.84C531.075 254.032 530.507 254.128 529.867 254.128C529.499 254.128 529.136 254.091 528.779 254.016C528.422 253.947 528.078 253.845 527.747 253.712C527.422 253.579 527.115 253.419 526.827 253.232C526.539 253.045 526.283 252.837 526.059 252.608L526.691 251.576C526.744 251.501 526.814 251.44 526.899 251.392C526.984 251.339 527.075 251.312 527.171 251.312C527.304 251.312 527.448 251.368 527.603 251.48C527.758 251.587 527.942 251.707 528.155 251.84C528.368 251.973 528.616 252.096 528.899 252.208C529.187 252.315 529.531 252.368 529.931 252.368C530.544 252.368 531.019 252.224 531.355 251.936C531.691 251.643 531.859 251.224 531.859 250.68C531.859 250.376 531.782 250.128 531.627 249.936C531.478 249.744 531.278 249.584 531.027 249.456C530.776 249.323 530.491 249.211 530.171 249.12C529.851 249.029 529.526 248.931 529.195 248.824C528.864 248.717 528.539 248.589 528.219 248.44C527.899 248.291 527.614 248.096 527.363 247.856C527.112 247.616 526.91 247.317 526.755 246.96C526.606 246.597 526.531 246.152 526.531 245.624C526.531 245.203 526.614 244.792 526.779 244.392C526.95 243.992 527.195 243.637 527.515 243.328C527.835 243.019 528.23 242.771 528.699 242.584C529.168 242.397 529.707 242.304 530.315 242.304C530.998 242.304 531.627 242.411 532.203 242.624C532.779 242.837 533.27 243.136 533.675 243.52L533.139 244.536ZM540.545 254.128C539.83 254.128 539.281 253.928 538.897 253.528C538.518 253.123 538.329 252.565 538.329 251.856V247.272H537.489C537.382 247.272 537.291 247.237 537.217 247.168C537.142 247.099 537.105 246.995 537.105 246.856V246.072L538.425 245.856L538.841 243.616C538.867 243.509 538.918 243.427 538.993 243.368C539.067 243.309 539.163 243.28 539.281 243.28H540.305V245.864H542.497V247.272H540.305V251.72C540.305 251.976 540.366 252.176 540.489 252.32C540.617 252.464 540.79 252.536 541.009 252.536C541.131 252.536 541.233 252.523 541.313 252.496C541.398 252.464 541.47 252.432 541.529 252.4C541.593 252.368 541.649 252.339 541.697 252.312C541.745 252.28 541.793 252.264 541.841 252.264C541.899 252.264 541.947 252.28 541.985 252.312C542.022 252.339 542.062 252.381 542.105 252.44L542.697 253.4C542.409 253.64 542.078 253.821 541.705 253.944C541.331 254.067 540.945 254.128 540.545 254.128ZM550.818 250.496C550.247 250.523 549.767 250.573 549.378 250.648C548.989 250.717 548.677 250.808 548.442 250.92C548.207 251.032 548.039 251.163 547.938 251.312C547.837 251.461 547.786 251.624 547.786 251.8C547.786 252.147 547.887 252.395 548.09 252.544C548.298 252.693 548.567 252.768 548.898 252.768C549.303 252.768 549.653 252.696 549.946 252.552C550.245 252.403 550.535 252.179 550.818 251.88V250.496ZM546.29 246.936C547.234 246.072 548.37 245.64 549.698 245.64C550.178 245.64 550.607 245.72 550.986 245.88C551.365 246.035 551.685 246.253 551.946 246.536C552.207 246.813 552.405 247.147 552.538 247.536C552.677 247.925 552.746 248.352 552.746 248.816V254H551.85C551.663 254 551.519 253.973 551.418 253.92C551.317 253.861 551.237 253.747 551.178 253.576L551.002 252.984C550.794 253.171 550.591 253.336 550.394 253.48C550.197 253.619 549.991 253.736 549.778 253.832C549.565 253.928 549.335 254 549.09 254.048C548.85 254.101 548.583 254.128 548.29 254.128C547.943 254.128 547.623 254.083 547.33 253.992C547.037 253.896 546.783 253.755 546.57 253.568C546.357 253.381 546.191 253.149 546.074 252.872C545.957 252.595 545.898 252.272 545.898 251.904C545.898 251.696 545.933 251.491 546.002 251.288C546.071 251.08 546.183 250.883 546.338 250.696C546.498 250.509 546.703 250.333 546.954 250.168C547.205 250.003 547.511 249.859 547.874 249.736C548.242 249.613 548.669 249.515 549.154 249.44C549.639 249.36 550.194 249.312 550.818 249.296V248.816C550.818 248.267 550.701 247.861 550.466 247.6C550.231 247.333 549.893 247.2 549.45 247.2C549.13 247.2 548.863 247.237 548.65 247.312C548.442 247.387 548.258 247.472 548.098 247.568C547.938 247.659 547.791 247.741 547.658 247.816C547.53 247.891 547.386 247.928 547.226 247.928C547.087 247.928 546.97 247.893 546.874 247.824C546.778 247.749 546.701 247.664 546.642 247.568L546.29 246.936ZM559.191 247.216C559.447 246.725 559.751 246.341 560.103 246.064C560.455 245.781 560.871 245.64 561.351 245.64C561.73 245.64 562.034 245.723 562.263 245.888L562.135 247.368C562.108 247.464 562.068 247.533 562.015 247.576C561.967 247.613 561.9 247.632 561.815 247.632C561.735 247.632 561.615 247.619 561.455 247.592C561.3 247.565 561.148 247.552 560.999 247.552C560.78 247.552 560.586 247.584 560.415 247.648C560.244 247.712 560.09 247.805 559.951 247.928C559.818 248.045 559.698 248.189 559.591 248.36C559.49 248.531 559.394 248.725 559.303 248.944V254H557.327V245.792H558.487C558.69 245.792 558.831 245.829 558.911 245.904C558.991 245.973 559.044 246.101 559.071 246.288L559.191 247.216ZM568.752 254.128C568.037 254.128 567.488 253.928 567.104 253.528C566.725 253.123 566.536 252.565 566.536 251.856V247.272H565.696C565.589 247.272 565.498 247.237 565.424 247.168C565.349 247.099 565.312 246.995 565.312 246.856V246.072L566.632 245.856L567.048 243.616C567.074 243.509 567.125 243.427 567.2 243.368C567.274 243.309 567.37 243.28 567.488 243.28H568.512V245.864H570.704V247.272H568.512V251.72C568.512 251.976 568.573 252.176 568.696 252.32C568.824 252.464 568.997 252.536 569.216 252.536C569.338 252.536 569.44 252.523 569.52 252.496C569.605 252.464 569.677 252.432 569.736 252.4C569.8 252.368 569.856 252.339 569.904 252.312C569.952 252.28 570 252.264 570.048 252.264C570.106 252.264 570.154 252.28 570.192 252.312C570.229 252.339 570.269 252.381 570.312 252.44L570.904 253.4C570.616 253.64 570.285 253.821 569.912 253.944C569.538 254.067 569.152 254.128 568.752 254.128ZM581.761 245.792V254H580.553C580.291 254 580.126 253.88 580.057 253.64L579.921 252.984C579.585 253.325 579.214 253.603 578.809 253.816C578.403 254.024 577.926 254.128 577.377 254.128C576.929 254.128 576.531 254.053 576.185 253.904C575.843 253.749 575.555 253.533 575.321 253.256C575.086 252.979 574.907 252.651 574.785 252.272C574.667 251.888 574.609 251.467 574.609 251.008V245.792H576.585V251.008C576.585 251.509 576.699 251.899 576.929 252.176C577.163 252.448 577.513 252.584 577.977 252.584C578.318 252.584 578.638 252.509 578.937 252.36C579.235 252.205 579.518 251.995 579.785 251.728V245.792H581.761ZM588.416 251.872C588.64 252.144 588.883 252.336 589.144 252.448C589.411 252.56 589.699 252.616 590.008 252.616C590.307 252.616 590.576 252.56 590.816 252.448C591.056 252.336 591.259 252.165 591.424 251.936C591.595 251.707 591.725 251.419 591.816 251.072C591.907 250.72 591.952 250.307 591.952 249.832C591.952 249.352 591.912 248.947 591.832 248.616C591.757 248.28 591.648 248.008 591.504 247.8C591.36 247.592 591.184 247.44 590.976 247.344C590.773 247.248 590.541 247.2 590.28 247.2C589.869 247.2 589.52 247.288 589.232 247.464C588.944 247.635 588.672 247.877 588.416 248.192V251.872ZM588.312 246.912C588.648 246.533 589.029 246.227 589.456 245.992C589.883 245.757 590.384 245.64 590.96 245.64C591.408 245.64 591.816 245.733 592.184 245.92C592.557 246.107 592.877 246.379 593.144 246.736C593.416 247.088 593.624 247.525 593.768 248.048C593.917 248.565 593.992 249.16 593.992 249.832C593.992 250.445 593.909 251.013 593.744 251.536C593.579 252.059 593.341 252.512 593.032 252.896C592.728 253.28 592.357 253.581 591.92 253.8C591.488 254.013 591.003 254.12 590.464 254.12C590.005 254.12 589.613 254.051 589.288 253.912C588.963 253.768 588.672 253.571 588.416 253.32V256.68H586.44V245.792H587.648C587.904 245.792 588.072 245.912 588.152 246.152L588.312 246.912ZM603.262 247.392C603.208 247.477 603.152 247.539 603.094 247.576C603.035 247.608 602.96 247.624 602.87 247.624C602.774 247.624 602.67 247.597 602.558 247.544C602.451 247.491 602.326 247.432 602.182 247.368C602.038 247.299 601.872 247.237 601.686 247.184C601.504 247.131 601.288 247.104 601.038 247.104C600.648 247.104 600.342 247.187 600.118 247.352C599.899 247.517 599.79 247.733 599.79 248C599.79 248.176 599.846 248.325 599.958 248.448C600.075 248.565 600.227 248.669 600.414 248.76C600.606 248.851 600.822 248.933 601.062 249.008C601.302 249.077 601.544 249.155 601.79 249.24C602.04 249.325 602.286 249.424 602.526 249.536C602.766 249.643 602.979 249.781 603.166 249.952C603.358 250.117 603.51 250.317 603.622 250.552C603.739 250.787 603.798 251.069 603.798 251.4C603.798 251.795 603.726 252.16 603.582 252.496C603.443 252.827 603.235 253.115 602.958 253.36C602.68 253.6 602.336 253.789 601.926 253.928C601.52 254.061 601.051 254.128 600.518 254.128C600.235 254.128 599.958 254.101 599.686 254.048C599.419 254 599.16 253.931 598.91 253.84C598.664 253.749 598.435 253.643 598.222 253.52C598.014 253.397 597.83 253.264 597.67 253.12L598.126 252.368C598.184 252.277 598.254 252.208 598.334 252.16C598.414 252.112 598.515 252.088 598.638 252.088C598.76 252.088 598.875 252.123 598.982 252.192C599.094 252.261 599.222 252.336 599.366 252.416C599.51 252.496 599.678 252.571 599.87 252.64C600.067 252.709 600.315 252.744 600.614 252.744C600.848 252.744 601.048 252.717 601.214 252.664C601.384 252.605 601.523 252.531 601.63 252.44C601.742 252.349 601.822 252.245 601.87 252.128C601.923 252.005 601.95 251.88 601.95 251.752C601.95 251.56 601.891 251.403 601.774 251.28C601.662 251.157 601.51 251.051 601.318 250.96C601.131 250.869 600.915 250.789 600.67 250.72C600.43 250.645 600.182 250.565 599.926 250.48C599.675 250.395 599.427 250.296 599.182 250.184C598.942 250.067 598.726 249.92 598.534 249.744C598.347 249.568 598.195 249.352 598.078 249.096C597.966 248.84 597.91 248.531 597.91 248.168C597.91 247.832 597.976 247.512 598.11 247.208C598.243 246.904 598.438 246.64 598.694 246.416C598.955 246.187 599.278 246.005 599.662 245.872C600.051 245.733 600.499 245.664 601.006 245.664C601.571 245.664 602.086 245.757 602.55 245.944C603.014 246.131 603.4 246.376 603.71 246.68L603.262 247.392ZM555.688 274.288H552.776V272.672H551.624V274.288H548.68V275.28H555.688V274.288ZM553.848 277.84C554.152 277.264 554.472 276.368 554.776 275.568L553.688 275.312C553.544 276 553.176 276.992 552.888 277.632L553.848 277.84ZM551.256 277.616C551.176 277.008 550.904 276.064 550.568 275.344L549.64 275.584C549.944 276.304 550.2 277.264 550.264 277.888L551.256 277.616ZM555.304 284.032C554.936 283.696 553.384 282.432 552.776 281.984V281.6H555.752V280.592H552.776V278.912H555.88V277.904H548.456V278.912H551.624V280.592H548.504V281.6H551.368C550.568 283.008 549.304 284.448 548.152 285.2C548.408 285.408 548.76 285.792 548.952 286.064C549.848 285.36 550.84 284.224 551.624 282.992V287.184H552.776V283.12C553.448 283.728 554.264 284.512 554.6 284.912L555.304 284.032ZM562.936 277.968H557.592V275.12C559.368 274.768 561.368 274.288 562.728 273.68L561.768 272.8C560.744 273.312 558.952 273.824 557.32 274.176L556.456 273.904V279.472C556.456 281.712 556.232 284.48 554.2 286.464C554.472 286.624 554.904 287.04 555.048 287.296C557.288 285.072 557.592 281.872 557.592 279.488V279.088H559.976V287.12H561.144V279.088H562.936V277.968ZM573.88 278.304V279.216H569.688V278.304H573.88ZM569.672 280.928C569.688 280.608 569.688 280.304 569.688 280.016V280H573.88V280.928H569.672ZM574.136 283.728V285.616H570.456V283.728H574.136ZM574.952 281.824V277.408H568.632V280C568.632 281.824 568.456 284.304 566.952 286.128C567.176 286.256 567.608 286.64 567.752 286.864C568.648 285.76 569.144 284.384 569.416 283.024V287.184H570.456V286.528H574.136V287.072H575.192V282.816H569.448C569.512 282.48 569.56 282.144 569.592 281.824H574.952ZM571.144 272.768C570.36 274.064 568.936 275.68 566.952 276.864C567.192 277.024 567.56 277.424 567.704 277.664C568.584 277.104 569.368 276.48 570.024 275.856V276.528H573.912V275.664H570.216C570.872 275.024 571.416 274.368 571.864 273.792C572.968 274.656 574.264 275.904 574.952 276.672L575.736 275.776C574.936 274.944 573.416 273.664 572.232 272.768H571.144ZM577.384 274.528H576.264V283.328H577.384V274.528ZM579.832 272.928V285.664C579.832 285.952 579.704 286.048 579.432 286.048C579.128 286.064 578.184 286.08 577.096 286.032C577.272 286.368 577.464 286.912 577.512 287.216C578.936 287.232 579.784 287.2 580.28 287.008C580.776 286.8 580.984 286.448 580.984 285.648V272.928H579.832Z" fill="black"/>
<path d="M280.528 118.104H277.456V119.768C277.456 120.728 277.792 120.968 278.976 120.968H281.12C281.968 120.968 282.272 120.68 282.384 119.608C282.096 119.544 281.712 119.416 281.504 119.272C281.456 120.024 281.376 120.12 280.992 120.12H279.088C278.56 120.12 278.464 120.056 278.464 119.752V118.936H281.584V116.232H277.152V117.064H280.528V118.104ZM275.376 118.104H272.24V119.768C272.24 120.728 272.544 120.968 273.728 120.968H275.712C276.528 120.968 276.832 120.696 276.944 119.656C276.656 119.608 276.272 119.48 276.064 119.32C276.016 120.024 275.936 120.12 275.552 120.12H273.824C273.312 120.12 273.232 120.056 273.232 119.768V118.936H276.384V116.232H271.952V117.064H275.376V118.104ZM275.632 123.24H278.256V124.76H275.632V123.24ZM282.288 124.76H279.392V123.24H281.792V122.328H279.392V121.176H278.256V122.328H275.632V121.176H274.528V122.328H272.16V123.24H274.528V124.76H271.648V125.688H282.288V124.76ZM282.048 127.816C281.296 127.224 279.984 126.456 278.816 125.896L277.968 126.424C279.072 126.984 280.224 127.736 280.896 128.328L282.048 127.816ZM275.056 125.864C274.352 126.504 273.168 127.112 272.08 127.544C272.336 127.704 272.768 128.088 272.96 128.296C274.016 127.784 275.296 127 276.112 126.232L275.056 125.864ZM271.344 118.648C270.896 117.848 269.84 116.744 268.896 115.992L267.984 116.6C268.912 117.384 269.936 118.52 270.352 119.32L271.344 118.648ZM270.976 121.88H267.904V123H269.872V127.128C269.168 127.8 268.384 128.472 267.712 128.968L268.336 130.072C269.104 129.368 269.824 128.696 270.496 127.992C271.488 129.256 272.944 129.832 275.056 129.912C276.864 129.976 280.32 129.944 282.128 129.864C282.176 129.528 282.368 129 282.512 128.744C280.56 128.872 276.832 128.92 275.024 128.84C273.152 128.76 271.728 128.216 270.976 127.016V121.88ZM291.248 122.344C290.72 122.52 290.192 122.696 289.664 122.856V119.912H291.376V118.824H289.664V115.624H288.56V118.824H286.56V119.912H288.56V123.192C287.728 123.448 286.96 123.688 286.352 123.848L286.656 125L288.56 124.376V128.84C288.56 129.08 288.48 129.128 288.288 129.128C288.096 129.144 287.472 129.144 286.784 129.128C286.944 129.448 287.088 129.944 287.136 130.216C288.128 130.232 288.736 130.184 289.12 130.008C289.52 129.816 289.664 129.496 289.664 128.84V124.024L291.408 123.448L291.248 122.344ZM297.824 125.144H294.608L295.056 125.016C294.976 124.632 294.72 124.056 294.48 123.624H298.112C297.936 124.072 297.664 124.648 297.456 125.032L297.824 125.144ZM295.536 117.128H297.12V118.808H295.536V117.128ZM294.576 118.808H293.056V117.128H294.576V118.808ZM298.08 117.128H299.696V118.808H298.08V117.128ZM301.168 122.68H296.816V121.544H300.384V120.648H296.816V119.656H300.688V116.264H292.08V119.656H295.696V120.648H292.256V121.544H295.696V122.68H291.472V123.624H294.096L293.44 123.784C293.664 124.184 293.888 124.728 294 125.144H291.616V126.072H295.696V127.208H291.952V128.136H295.696V130.344H296.816V128.136H300.592V127.208H296.816V126.072H300.944V125.144H298.464C298.72 124.728 299.008 124.216 299.312 123.688L299.072 123.624H301.168V122.68ZM315.84 119.56H312.864L313.152 119.48C313.056 119.048 312.784 118.392 312.48 117.912H316.416C316.224 118.424 315.92 119.08 315.664 119.512L315.84 119.56ZM315.76 125.672H313.232V124.296H315.76V125.672ZM311.408 118.056C311.68 118.504 311.952 119.096 312.08 119.56H310V127.864H311.088V120.504H314.016V121.576H311.632V122.392H314.016V123.544H312.368V127.032H313.232V126.424H316.64V123.544H314.928V122.392H317.328V121.576H314.928V120.504H317.968V126.6C317.968 126.776 317.92 126.84 317.728 126.84C317.52 126.856 316.896 126.856 316.176 126.824C316.336 127.112 316.496 127.56 316.544 127.848C317.488 127.848 318.144 127.832 318.56 127.672C318.976 127.48 319.088 127.176 319.088 126.6V119.56H316.752C317.008 119.128 317.312 118.568 317.6 118.024L317.184 117.912H319.648V116.952H315.008V115.608H313.84V116.952H309.424V117.912H311.968L311.408 118.056ZM308.992 118.616C308.496 117.832 307.392 116.744 306.416 116.008L305.504 116.68C306.48 117.448 307.552 118.552 308.032 119.352L308.992 118.616ZM308.512 121.88H305.36V123H307.392V127.096C306.672 127.768 305.856 128.44 305.184 128.936L305.808 130.072C306.592 129.384 307.328 128.712 308.032 128.024C309.024 129.272 310.464 129.832 312.56 129.912C314.352 129.992 317.728 129.96 319.52 129.88C319.568 129.528 319.76 128.984 319.904 128.712C317.984 128.84 314.304 128.888 312.544 128.808C310.672 128.744 309.264 128.2 308.512 127.016V121.88ZM334.96 124.936V128.504H327.616V124.936H334.96ZM326.448 130.232H327.616V129.576H334.96V130.232H336.176V123.864H326.448V130.232ZM327.28 120.808V121.864H335.296V120.808H327.28ZM330.576 115.656C329.328 117.704 326.656 120.136 323.872 121.544C324.144 121.8 324.464 122.216 324.608 122.488C327.344 121.032 329.936 118.76 331.248 116.808C332.736 118.856 335.536 121.096 338.016 122.392C338.224 122.056 338.512 121.64 338.8 121.368C336.288 120.232 333.472 118.008 331.776 115.656H330.576ZM346.272 115.672C345.376 118.104 343.888 120.488 342.32 122.024C342.544 122.296 342.864 122.904 342.992 123.192C343.536 122.6 344.096 121.944 344.608 121.208V130.184H345.744V119.432C346.368 118.344 346.928 117.192 347.392 116.008L346.272 115.672ZM349.184 122.424C348.752 124.312 348 126.216 346.992 127.432C347.28 127.592 347.792 127.896 348.016 128.088C348.992 126.76 349.84 124.744 350.352 122.648L349.184 122.424ZM355.952 119.784C355.824 120.6 355.68 121.448 355.584 122.024L356.576 122.216C356.784 121.368 357.072 119.992 357.28 118.824L356.464 118.632L356.272 118.68H349.792C350.112 117.8 350.4 116.872 350.64 115.944L349.472 115.688C348.944 118.024 348.016 120.312 346.848 121.784C347.104 121.96 347.6 122.36 347.792 122.536C348.368 121.784 348.896 120.84 349.344 119.784H351.776V128.776C351.776 128.984 351.712 129.048 351.504 129.048C351.296 129.048 350.608 129.064 349.856 129.032C350.016 129.368 350.208 129.896 350.272 130.232C351.28 130.232 351.952 130.2 352.384 129.992C352.8 129.8 352.944 129.448 352.944 128.776V119.784H355.952ZM354.112 122.648C354.96 124.328 355.76 126.568 356.016 128.024L357.152 127.64C356.88 126.184 356.064 123.992 355.152 122.296L354.112 122.648ZM366.608 122.584H363.248V119.24H366.608V122.584ZM363.248 127.48V123.64H366.608V127.48H363.248ZM364.592 115.576C364.48 116.328 364.192 117.4 363.952 118.168H362.16V129.816H363.248V128.552H367.696V118.168H365.04C365.312 117.48 365.6 116.6 365.872 115.816L364.592 115.576ZM375.52 118.12H370.736C371.008 117.368 371.232 116.6 371.424 115.816L370.288 115.544C369.776 117.736 368.912 119.944 367.84 121.352C368.096 121.512 368.608 121.832 368.816 122.024C369.376 121.272 369.872 120.296 370.32 119.224H374.384C374.176 125.592 373.936 128.024 373.408 128.584C373.248 128.792 373.072 128.824 372.752 128.824C372.384 128.824 371.424 128.824 370.384 128.728C370.608 129.064 370.752 129.544 370.784 129.896C371.68 129.944 372.592 129.976 373.152 129.912C373.696 129.864 374.064 129.72 374.416 129.272C375.056 128.488 375.264 126.024 375.52 118.728V118.12ZM372.992 125.32C372.48 124.376 371.376 122.84 370.48 121.704L369.552 122.248C370.432 123.4 371.504 124.984 371.984 125.944L372.992 125.32ZM394.544 119.496V118.36H387.984V115.576H386.784V118.36H380.336V119.496H385.248C385.056 123.176 384.592 127.32 380.176 129.304C380.48 129.544 380.848 129.976 381.024 130.28C384.272 128.712 385.552 126.072 386.112 123.24H391.392C391.12 126.936 390.816 128.504 390.336 128.92C390.176 129.08 389.952 129.096 389.584 129.096C389.184 129.096 388.048 129.096 386.912 128.984C387.136 129.304 387.296 129.8 387.328 130.136C388.4 130.2 389.44 130.216 390 130.184C390.608 130.152 390.992 130.04 391.36 129.656C391.984 129.016 392.304 127.256 392.624 122.696C392.64 122.504 392.656 122.12 392.656 122.12H386.288C386.416 121.24 386.48 120.36 386.528 119.496H394.544ZM400.608 117.816H411.76V119.096H412.896V116.808H406.72V115.624H405.552V116.808H399.488V119.096H400.608V117.816ZM408.704 120.456C408.32 121.176 407.76 121.768 406.88 122.232C405.696 121.944 404.496 121.688 403.424 121.48C403.68 121.16 403.952 120.808 404.224 120.456H408.704ZM402.496 122.6L402.8 122.232C403.632 122.408 404.512 122.6 405.392 122.824C404.048 123.224 402.224 123.48 399.744 123.64C399.888 123.88 400.08 124.328 400.128 124.584C403.28 124.36 405.488 123.944 407.056 123.24C408.832 123.72 410.496 124.232 411.584 124.68L412.304 123.816C411.248 123.432 409.792 122.984 408.24 122.584C409.04 122.008 409.6 121.304 410 120.456H413.072V119.48H404.976C405.28 119.08 405.568 118.696 405.824 118.328L404.72 118.008C404.4 118.456 404.032 118.968 403.632 119.48H399.312V120.456H402.88C402.352 121.112 401.84 121.752 401.392 122.248L402.496 122.6ZM413.296 126.296V125.304H406.704V123.976H405.536V125.304H399.056V126.296H404.608C403.2 127.512 400.88 128.568 398.752 129.048C399.008 129.256 399.344 129.72 399.504 130.008C401.696 129.416 404.048 128.168 405.536 126.68V130.2H406.704V126.616C408.224 128.152 410.656 129.416 412.88 130.024C413.056 129.72 413.392 129.272 413.648 129.032C411.504 128.568 409.168 127.528 407.712 126.296H413.296ZM424.88 120.296C425.52 120.296 426.096 119.832 426.096 119.096C426.096 118.36 425.52 117.896 424.88 117.896C424.24 117.896 423.68 118.36 423.68 119.096C423.68 119.832 424.24 120.296 424.88 120.296ZM424.88 128.136C425.52 128.136 426.096 127.656 426.096 126.936C426.096 126.2 425.52 125.72 424.88 125.72C424.24 125.72 423.68 126.2 423.68 126.936C423.68 127.656 424.24 128.136 424.88 128.136Z" fill="black"/>
<line x1="524" y1="299.75" x2="605" y2="299.75" stroke="white" stroke-width="0.5"/>
<line x1="309" y1="299.75" x2="390" y2="299.75" stroke="white" stroke-width="0.5"/>
<line x1="98" y1="299.75" x2="179" y2="299.75" stroke="white" stroke-width="0.5"/>
<rect x="4" y="53" width="692" height="38" fill="white" fill-opacity="0.3"/>
<g clip-path="url(#clip0_410:2776)">
<path d="M310.745 71.4485C310.745 71.4485 306.866 69.5971 305.019 65.6943C305.019 65.6943 302.708 70.0695 305.047 72.8119C306.948 75.0387 309.85 73.5912 310.745 71.4485Z" fill="#ECEDEF"/>
<path d="M312.747 68.7207C312.747 68.7207 314.604 64.8556 318.521 63.0156C318.521 63.0156 314.13 60.7121 311.378 63.0433C309.144 64.9372 310.596 67.8297 312.747 68.7207Z" fill="#ECEDEF"/>
<path d="M314.39 70.1796C314.39 70.1796 318.272 72.0302 320.115 75.9337C320.115 75.9337 322.427 71.5585 320.087 68.8161C318.188 66.5894 315.283 68.0377 314.39 70.1796Z" fill="#ECEDEF"/>
<path d="M313.146 72.9629C313.146 72.9629 311.287 76.8313 307.372 78.6681C307.372 78.6681 311.763 80.9715 314.515 78.6403C316.749 76.7481 315.3 73.8531 313.146 72.9629Z" fill="#ECEDEF"/>
</g>
<g clip-path="url(#clip1_410:2776)">
<path d="M327.164 77.8424V74.8687C327.911 75.3966 328.714 75.8419 329.558 76.1966C330.374 76.5355 331.061 76.705 331.618 76.705C332.147 76.718 332.667 76.5684 333.108 76.2767C333.523 75.9934 333.73 75.6545 333.731 75.2599C333.736 75.073 333.703 74.887 333.634 74.7133C333.565 74.5396 333.46 74.382 333.328 74.2501C333.059 73.9823 332.478 73.5954 331.583 73.0893C329.8 72.1004 328.633 71.2543 328.083 70.5509C327.55 69.9023 327.258 69.0903 327.254 68.2515C327.243 67.7466 327.351 67.2461 327.569 66.7903C327.787 66.3345 328.109 65.9361 328.509 65.6271C329.345 64.9493 330.422 64.6104 331.739 64.6104C333.107 64.6104 334.511 64.9945 335.951 65.7629V68.4999C334.309 67.5056 332.966 67.008 331.922 67.0072C331.385 67.0072 330.951 67.1233 330.622 67.3554C330.469 67.4512 330.343 67.5846 330.256 67.743C330.17 67.9013 330.125 68.0793 330.128 68.2596C330.128 68.5835 330.278 68.8922 330.575 69.1882C330.873 69.4842 331.398 69.8277 332.148 70.241L333.137 70.8027C335.469 72.1182 336.635 73.5745 336.635 75.1717C336.645 75.7129 336.529 76.2492 336.295 76.7378C336.062 77.2264 335.717 77.6539 335.289 77.9864C334.393 78.7192 333.24 79.0856 331.831 79.0856C331.083 79.096 330.336 79.0066 329.611 78.8198C328.768 78.5672 327.949 78.2402 327.164 77.8424V77.8424Z" fill="#ECEDEF"/>
<path d="M351.28 72.1214H341.445C341.516 73.4569 341.965 74.5194 342.79 75.3087C343.616 76.0979 344.683 76.4926 345.99 76.4926C347.814 76.4926 349.497 75.9258 351.037 74.7921V77.4931C350.26 78.0247 349.407 78.4342 348.506 78.7072C347.547 78.9663 346.557 79.089 345.565 79.0717C344.025 79.0717 342.778 78.7529 341.824 78.1153C340.858 77.4629 340.071 76.5784 339.537 75.5431C338.963 74.466 338.675 73.2194 338.675 71.8033C338.675 69.6784 339.279 67.9509 340.487 66.6207C341.695 65.2906 343.261 64.6255 345.187 64.6255C347.042 64.6255 348.521 65.2728 349.625 66.5674C350.729 67.8619 351.281 69.5972 351.28 71.7731V72.1214ZM341.506 70.4731H348.544C348.473 69.3705 348.143 68.5193 347.556 67.9196C346.968 67.3199 346.178 67.0208 345.187 67.0224C344.194 67.0224 343.38 67.321 342.745 67.9184C342.11 68.5158 341.697 69.3674 341.506 70.4731Z" fill="#ECEDEF"/>
<path d="M352.172 67.099L357.371 62V64.8832H361.795V67.3718H357.371V74.2049C357.371 75.8012 358.035 76.599 359.363 76.5982C360.356 76.5982 361.404 76.2694 362.509 75.6116V78.1919C361.446 78.7887 360.244 79.0973 359.024 79.0868C357.758 79.0868 356.704 78.7177 355.863 77.9795C355.606 77.7652 355.386 77.5117 355.209 77.2285C355.011 76.8876 354.865 76.5191 354.775 76.1351C354.662 75.6879 354.606 74.8305 354.606 73.563V67.3718H352.172V67.099Z" fill="#ECEDEF"/>
<path d="M377.036 78.8824V77.0891C376.469 77.7153 375.785 78.2245 375.022 78.5876C374.319 78.9319 373.547 79.1147 372.764 79.1227C371.905 79.1297 371.06 78.9012 370.322 78.4622C369.596 78.043 369.01 77.4207 368.635 76.6724C368.254 75.918 368.064 74.6659 368.065 72.9164V64.9214H370.831V72.8781C370.831 74.3429 371.042 75.3658 371.463 75.947C371.884 76.5281 372.62 76.8187 373.672 76.8187C374.99 76.8187 376.11 76.176 377.031 74.8907V64.9214H379.799V78.8824H377.036Z" fill="#ECEDEF"/>
<path d="M382.675 85.9999V64.9214H387.519C390 64.9214 391.931 65.5385 393.311 66.7727C394.692 68.0069 395.383 69.7318 395.385 71.9472C395.385 74.0411 394.734 75.7609 393.433 77.1065C392.133 78.4522 390.476 79.125 388.463 79.125C387.572 79.125 386.585 78.9277 385.503 78.533V85.9999H382.675ZM387.46 67.5005H385.503V76.0897C386.329 76.5195 387.246 76.7433 388.178 76.7421C389.472 76.7421 390.532 76.2921 391.356 75.3921C392.18 74.4922 392.592 73.3338 392.592 71.917C392.61 71.076 392.409 70.2447 392.01 69.5039C391.655 68.8391 391.097 68.3048 390.417 67.9787C389.74 67.6607 388.755 67.5013 387.46 67.5005Z" fill="#ECEDEF"/>
</g>
</g>
<defs>
<filter id="filter0_d_410:2776" x="0" y="0" width="700" height="458" filterUnits="userSpaceOnUse" color-interpolation-filters="sRGB">
<feFlood flood-opacity="0" result="BackgroundImageFix"/>
<feColorMatrix in="SourceAlpha" type="matrix" values="0 0 0 0 0 0 0 0 0 0 0 0 0 0 0 0 0 0 127 0" result="hardAlpha"/>
<feOffset dy="4"/>
<feGaussianBlur stdDeviation="2"/>
<feComposite in2="hardAlpha" operator="out"/>
<feColorMatrix type="matrix" values="0 0 0 0 0 0 0 0 0 0 0 0 0 0 0 0 0 0 0.25 0"/>
<feBlend mode="normal" in2="BackgroundImageFix" result="effect1_dropShadow_410:2776"/>
<feBlend mode="normal" in="SourceGraphic" in2="effect1_dropShadow_410:2776" result="shape"/>
</filter>
<filter id="filter1_d_410:2776" x="486" y="178" width="158" height="158" filterUnits="userSpaceOnUse" color-interpolation-filters="sRGB">
<feFlood flood-opacity="0" result="BackgroundImageFix"/>
<feColorMatrix in="SourceAlpha" type="matrix" values="0 0 0 0 0 0 0 0 0 0 0 0 0 0 0 0 0 0 127 0" result="hardAlpha"/>
<feOffset dy="2"/>
<feGaussianBlur stdDeviation="2"/>
<feComposite in2="hardAlpha" operator="out"/>
<feColorMatrix type="matrix" values="0 0 0 0 0 0 0 0 0 0 0 0 0 0 0 0 0 0 0.25 0"/>
<feBlend mode="normal" in2="BackgroundImageFix" result="effect1_dropShadow_410:2776"/>
<feBlend mode="normal" in="SourceGraphic" in2="effect1_dropShadow_410:2776" result="shape"/>
</filter>
<filter id="filter2_d_410:2776" x="267" y="172" width="170" height="170" filterUnits="userSpaceOnUse" color-interpolation-filters="sRGB">
<feFlood flood-opacity="0" result="BackgroundImageFix"/>
<feColorMatrix in="SourceAlpha" type="matrix" values="0 0 0 0 0 0 0 0 0 0 0 0 0 0 0 0 0 0 127 0" result="hardAlpha"/>
<feOffset dy="2"/>
<feGaussianBlur stdDeviation="5"/>
<feComposite in2="hardAlpha" operator="out"/>
<feColorMatrix type="matrix" values="0 0 0 0 1 0 0 0 0 1 0 0 0 0 1 0 0 0 1 0"/>
<feBlend mode="lighten" in2="BackgroundImageFix" result="effect1_dropShadow_410:2776"/>
<feBlend mode="normal" in="SourceGraphic" in2="effect1_dropShadow_410:2776" result="shape"/>
</filter>
<filter id="filter3_d_410:2776" x="60" y="178" width="158" height="158" filterUnits="userSpaceOnUse" color-interpolation-filters="sRGB">
<feFlood flood-opacity="0" result="BackgroundImageFix"/>
<feColorMatrix in="SourceAlpha" type="matrix" values="0 0 0 0 0 0 0 0 0 0 0 0 0 0 0 0 0 0 127 0" result="hardAlpha"/>
<feOffset dy="2"/>
<feGaussianBlur stdDeviation="2"/>
<feComposite in2="hardAlpha" operator="out"/>
<feColorMatrix type="matrix" values="0 0 0 0 0 0 0 0 0 0 0 0 0 0 0 0 0 0 0.25 0"/>
<feBlend mode="normal" in2="BackgroundImageFix" result="effect1_dropShadow_410:2776"/>
<feBlend mode="normal" in="SourceGraphic" in2="effect1_dropShadow_410:2776" result="shape"/>
</filter>
<linearGradient id="paint0_linear_410:2776" x1="350" y1="0" x2="350" y2="450" gradientUnits="userSpaceOnUse">
<stop stop-color="#F24D2E" stop-opacity="0.5"/>
<stop offset="1" stop-color="#3C64B1" stop-opacity="0.5"/>
</linearGradient>
<linearGradient id="paint1_linear_410:2776" x1="565" y1="180" x2="565" y2="330" gradientUnits="userSpaceOnUse">
<stop stop-color="white"/>
<stop offset="1" stop-color="#F24D2E"/>
</linearGradient>
<linearGradient id="paint2_linear_410:2776" x1="352" y1="180" x2="352" y2="330" gradientUnits="userSpaceOnUse">
<stop stop-color="white"/>
<stop offset="1" stop-color="#2869D1"/>
</linearGradient>
<linearGradient id="paint3_linear_410:2776" x1="139" y1="180" x2="139" y2="330" gradientUnits="userSpaceOnUse">
<stop stop-color="white" stop-opacity="0.3"/>
<stop offset="1" stop-color="#FBFBFB"/>
</linearGradient>
<clipPath id="clip0_410:2776">
<rect width="17.1346" height="17.6842" fill="white" transform="translate(304 62)"/>
</clipPath>
<clipPath id="clip1_410:2776">
<rect width="68.2212" height="24" fill="white" transform="translate(327.164 62)"/>
</clipPath>
</defs>
</svg>
