<svg width="700" height="458" viewBox="0 0 700 458" fill="none" xmlns="http://www.w3.org/2000/svg">
<g filter="url(#filter0_d_410:2574)">
<rect x="4" width="692" height="450" rx="20" fill="url(#paint0_linear_410:2574)" shape-rendering="crispEdges"/>
<path d="M304.635 122.076L300.603 135H298.875L295.725 125.415C295.653 125.223 295.59 124.992 295.536 124.722C295.47 124.998 295.407 125.229 295.347 125.415L292.161 135H290.442L286.41 122.076H288.012C288.18 122.076 288.321 122.118 288.435 122.202C288.549 122.28 288.624 122.388 288.66 122.526L291.207 131.175C291.255 131.343 291.297 131.526 291.333 131.724C291.375 131.922 291.417 132.129 291.459 132.345C291.501 132.129 291.543 131.922 291.585 131.724C291.633 131.526 291.687 131.343 291.747 131.175L294.663 122.526C294.699 122.406 294.774 122.301 294.888 122.211C295.008 122.121 295.149 122.076 295.311 122.076H295.86C296.028 122.076 296.166 122.118 296.274 122.202C296.382 122.286 296.46 122.394 296.508 122.526L299.415 131.175C299.523 131.505 299.619 131.88 299.703 132.3C299.775 131.886 299.853 131.511 299.937 131.175L302.493 122.526C302.523 122.406 302.598 122.301 302.718 122.211C302.838 122.121 302.979 122.076 303.141 122.076H304.635ZM311.843 129.411C311.843 129.063 311.792 128.742 311.69 128.448C311.594 128.154 311.45 127.899 311.258 127.683C311.066 127.467 310.832 127.299 310.556 127.179C310.28 127.059 309.962 126.999 309.602 126.999C308.864 126.999 308.282 127.212 307.856 127.638C307.436 128.064 307.169 128.655 307.055 129.411H311.843ZM313.292 133.695C313.076 133.947 312.827 134.166 312.545 134.352C312.263 134.532 311.963 134.679 311.645 134.793C311.327 134.907 310.997 134.991 310.655 135.045C310.319 135.099 309.986 135.126 309.656 135.126C309.026 135.126 308.441 135.021 307.901 134.811C307.367 134.595 306.902 134.283 306.506 133.875C306.116 133.461 305.81 132.951 305.588 132.345C305.372 131.733 305.264 131.031 305.264 130.239C305.264 129.603 305.363 129.012 305.561 128.466C305.759 127.914 306.041 127.434 306.407 127.026C306.779 126.618 307.232 126.297 307.766 126.063C308.3 125.829 308.9 125.712 309.566 125.712C310.124 125.712 310.637 125.805 311.105 125.991C311.579 126.171 311.987 126.435 312.329 126.783C312.671 127.131 312.938 127.56 313.13 128.07C313.328 128.58 313.427 129.162 313.427 129.816C313.427 130.086 313.397 130.269 313.337 130.365C313.277 130.455 313.166 130.5 313.004 130.5H307.01C307.028 131.046 307.106 131.523 307.244 131.931C307.382 132.333 307.571 132.669 307.811 132.939C308.057 133.209 308.348 133.41 308.684 133.542C309.02 133.674 309.395 133.74 309.809 133.74C310.199 133.74 310.535 133.695 310.817 133.605C311.105 133.515 311.351 133.419 311.555 133.317C311.765 133.209 311.939 133.11 312.077 133.02C312.221 132.93 312.347 132.885 312.455 132.885C312.599 132.885 312.71 132.939 312.788 133.047L313.292 133.695ZM317.834 121.716V135H316.07V121.716H317.834ZM327.468 127.566C327.414 127.632 327.36 127.686 327.306 127.728C327.258 127.764 327.186 127.782 327.09 127.782C326.994 127.782 326.892 127.746 326.784 127.674C326.682 127.596 326.55 127.515 326.388 127.431C326.232 127.341 326.04 127.26 325.812 127.188C325.59 127.11 325.314 127.071 324.984 127.071C324.552 127.071 324.171 127.149 323.841 127.305C323.511 127.461 323.235 127.683 323.013 127.971C322.797 128.259 322.632 128.61 322.518 129.024C322.404 129.438 322.347 129.903 322.347 130.419C322.347 130.953 322.407 131.43 322.527 131.85C322.647 132.264 322.818 132.615 323.04 132.903C323.262 133.185 323.532 133.401 323.85 133.551C324.168 133.695 324.522 133.767 324.912 133.767C325.29 133.767 325.602 133.722 325.848 133.632C326.094 133.536 326.298 133.434 326.46 133.326C326.622 133.218 326.757 133.119 326.865 133.029C326.973 132.933 327.084 132.885 327.198 132.885C327.342 132.885 327.453 132.939 327.531 133.047L328.035 133.695C327.825 133.953 327.588 134.172 327.324 134.352C327.066 134.532 326.79 134.679 326.496 134.793C326.202 134.907 325.893 134.991 325.569 135.045C325.251 135.099 324.927 135.126 324.597 135.126C324.027 135.126 323.493 135.021 322.995 134.811C322.503 134.601 322.074 134.295 321.708 133.893C321.348 133.491 321.063 132.999 320.853 132.417C320.643 131.829 320.538 131.163 320.538 130.419C320.538 129.741 320.631 129.114 320.817 128.538C321.009 127.962 321.288 127.467 321.654 127.053C322.026 126.633 322.482 126.306 323.022 126.072C323.562 125.832 324.18 125.712 324.876 125.712C325.53 125.712 326.106 125.817 326.604 126.027C327.102 126.237 327.546 126.534 327.936 126.918L327.468 127.566ZM334.132 125.712C334.804 125.712 335.41 125.823 335.95 126.045C336.496 126.261 336.958 126.576 337.336 126.99C337.72 127.398 338.014 127.893 338.218 128.475C338.422 129.051 338.524 129.699 338.524 130.419C338.524 131.139 338.422 131.79 338.218 132.372C338.014 132.954 337.72 133.449 337.336 133.857C336.958 134.265 336.496 134.58 335.95 134.802C335.41 135.018 334.804 135.126 334.132 135.126C333.454 135.126 332.842 135.018 332.296 134.802C331.756 134.58 331.294 134.265 330.91 133.857C330.526 133.449 330.229 132.954 330.019 132.372C329.815 131.79 329.713 131.139 329.713 130.419C329.713 129.699 329.815 129.051 330.019 128.475C330.229 127.893 330.526 127.398 330.91 126.99C331.294 126.576 331.756 126.261 332.296 126.045C332.842 125.823 333.454 125.712 334.132 125.712ZM334.132 133.758C334.996 133.758 335.641 133.467 336.067 132.885C336.493 132.303 336.706 131.484 336.706 130.428C336.706 129.372 336.493 128.553 336.067 127.971C335.641 127.383 334.996 127.089 334.132 127.089C333.256 127.089 332.602 127.383 332.17 127.971C331.744 128.553 331.531 129.372 331.531 130.428C331.531 131.484 331.744 132.303 332.17 132.885C332.602 133.467 333.256 133.758 334.132 133.758ZM341.203 135V125.856H342.256C342.502 125.856 342.655 125.973 342.715 126.207L342.841 127.08C343.177 126.678 343.549 126.351 343.957 126.099C344.371 125.841 344.854 125.712 345.406 125.712C346.012 125.712 346.504 125.88 346.882 126.216C347.26 126.546 347.536 126.996 347.71 127.566C347.842 127.242 348.013 126.963 348.223 126.729C348.433 126.495 348.667 126.303 348.925 126.153C349.183 126.003 349.456 125.892 349.744 125.82C350.038 125.748 350.335 125.712 350.635 125.712C351.121 125.712 351.553 125.79 351.931 125.946C352.315 126.096 352.639 126.318 352.903 126.612C353.167 126.906 353.368 127.269 353.506 127.701C353.644 128.133 353.713 128.625 353.713 129.177V135H351.949V129.177C351.949 128.493 351.799 127.977 351.499 127.629C351.205 127.281 350.773 127.107 350.203 127.107C349.951 127.107 349.711 127.152 349.483 127.242C349.255 127.326 349.054 127.455 348.88 127.629C348.712 127.803 348.577 128.019 348.475 128.277C348.379 128.535 348.331 128.835 348.331 129.177V135H346.567V129.177C346.567 128.469 346.426 127.947 346.144 127.611C345.862 127.275 345.448 127.107 344.902 127.107C344.524 127.107 344.173 127.206 343.849 127.404C343.525 127.602 343.228 127.872 342.958 128.214V135H341.203ZM362.852 129.411C362.852 129.063 362.801 128.742 362.699 128.448C362.603 128.154 362.459 127.899 362.267 127.683C362.075 127.467 361.841 127.299 361.565 127.179C361.289 127.059 360.971 126.999 360.611 126.999C359.873 126.999 359.291 127.212 358.865 127.638C358.445 128.064 358.178 128.655 358.064 129.411H362.852ZM364.301 133.695C364.085 133.947 363.836 134.166 363.554 134.352C363.272 134.532 362.972 134.679 362.654 134.793C362.336 134.907 362.006 134.991 361.664 135.045C361.328 135.099 360.995 135.126 360.665 135.126C360.035 135.126 359.45 135.021 358.91 134.811C358.376 134.595 357.911 134.283 357.515 133.875C357.125 133.461 356.819 132.951 356.597 132.345C356.381 131.733 356.273 131.031 356.273 130.239C356.273 129.603 356.372 129.012 356.57 128.466C356.768 127.914 357.05 127.434 357.416 127.026C357.788 126.618 358.241 126.297 358.775 126.063C359.309 125.829 359.909 125.712 360.575 125.712C361.133 125.712 361.646 125.805 362.114 125.991C362.588 126.171 362.996 126.435 363.338 126.783C363.68 127.131 363.947 127.56 364.139 128.07C364.337 128.58 364.436 129.162 364.436 129.816C364.436 130.086 364.406 130.269 364.346 130.365C364.286 130.455 364.175 130.5 364.013 130.5H358.019C358.037 131.046 358.115 131.523 358.253 131.931C358.391 132.333 358.58 132.669 358.82 132.939C359.066 133.209 359.357 133.41 359.693 133.542C360.029 133.674 360.404 133.74 360.818 133.74C361.208 133.74 361.544 133.695 361.826 133.605C362.114 133.515 362.36 133.419 362.564 133.317C362.774 133.209 362.948 133.11 363.086 133.02C363.23 132.93 363.356 132.885 363.464 132.885C363.608 132.885 363.719 132.939 363.797 133.047L364.301 133.695ZM374.07 132.75C374.358 133.128 374.67 133.392 375.006 133.542C375.342 133.692 375.708 133.767 376.104 133.767C376.92 133.767 377.547 133.476 377.985 132.894C378.429 132.312 378.651 131.433 378.651 130.257C378.651 129.171 378.456 128.376 378.066 127.872C377.676 127.362 377.124 127.107 376.41 127.107C375.906 127.107 375.468 127.221 375.096 127.449C374.73 127.677 374.388 128.001 374.07 128.421V132.75ZM374.07 127.116C374.448 126.696 374.877 126.357 375.357 126.099C375.837 125.841 376.383 125.712 376.995 125.712C377.529 125.712 378.009 125.817 378.435 126.027C378.867 126.231 379.233 126.528 379.533 126.918C379.833 127.302 380.064 127.77 380.226 128.322C380.388 128.874 380.469 129.498 380.469 130.194C380.469 130.932 380.376 131.604 380.19 132.21C380.01 132.816 379.749 133.335 379.407 133.767C379.071 134.199 378.66 134.535 378.174 134.775C377.688 135.009 377.142 135.126 376.536 135.126C376.242 135.126 375.972 135.096 375.726 135.036C375.48 134.982 375.252 134.901 375.042 134.793C374.838 134.685 374.649 134.553 374.475 134.397C374.301 134.241 374.136 134.064 373.98 133.866L373.899 134.631C373.851 134.877 373.701 135 373.449 135H372.315V121.716H374.07V127.116ZM388.056 130.941C387.342 130.965 386.736 131.022 386.238 131.112C385.74 131.196 385.335 131.31 385.023 131.454C384.711 131.598 384.486 131.769 384.348 131.967C384.21 132.159 384.141 132.375 384.141 132.615C384.141 132.843 384.177 133.041 384.249 133.209C384.327 133.371 384.429 133.506 384.555 133.614C384.687 133.716 384.84 133.791 385.014 133.839C385.188 133.887 385.377 133.911 385.581 133.911C385.851 133.911 386.097 133.884 386.319 133.83C386.547 133.776 386.76 133.701 386.958 133.605C387.156 133.503 387.345 133.38 387.525 133.236C387.705 133.092 387.882 132.927 388.056 132.741V130.941ZM382.908 127.134C383.418 126.648 383.97 126.285 384.564 126.045C385.164 125.805 385.821 125.685 386.535 125.685C387.057 125.685 387.519 125.772 387.921 125.946C388.323 126.114 388.662 126.351 388.938 126.657C389.214 126.963 389.421 127.329 389.559 127.755C389.703 128.181 389.775 128.652 389.775 129.168V135H388.992C388.818 135 388.686 134.973 388.596 134.919C388.506 134.859 388.434 134.751 388.38 134.595L388.191 133.794C387.957 134.01 387.726 134.202 387.498 134.37C387.27 134.532 387.03 134.673 386.778 134.793C386.532 134.907 386.268 134.994 385.986 135.054C385.704 135.114 385.392 135.144 385.05 135.144C384.69 135.144 384.351 135.096 384.033 135C383.721 134.898 383.448 134.745 383.214 134.541C382.98 134.337 382.794 134.082 382.656 133.776C382.524 133.47 382.458 133.113 382.458 132.705C382.458 132.345 382.554 132 382.746 131.67C382.944 131.334 383.262 131.034 383.7 130.77C384.144 130.506 384.72 130.29 385.428 130.122C386.142 129.954 387.018 129.858 388.056 129.834V129.168C388.056 128.478 387.909 127.962 387.615 127.62C387.321 127.278 386.889 127.107 386.319 127.107C385.935 127.107 385.611 127.155 385.347 127.251C385.089 127.347 384.864 127.455 384.672 127.575C384.486 127.689 384.321 127.794 384.177 127.89C384.039 127.986 383.895 128.034 383.745 128.034C383.625 128.034 383.52 128.001 383.43 127.935C383.346 127.869 383.277 127.791 383.223 127.701L382.908 127.134ZM399.252 127.566C399.198 127.632 399.144 127.686 399.09 127.728C399.042 127.764 398.97 127.782 398.874 127.782C398.778 127.782 398.676 127.746 398.568 127.674C398.466 127.596 398.334 127.515 398.172 127.431C398.016 127.341 397.824 127.26 397.596 127.188C397.374 127.11 397.098 127.071 396.768 127.071C396.336 127.071 395.955 127.149 395.625 127.305C395.295 127.461 395.019 127.683 394.797 127.971C394.581 128.259 394.416 128.61 394.302 129.024C394.188 129.438 394.131 129.903 394.131 130.419C394.131 130.953 394.191 131.43 394.311 131.85C394.431 132.264 394.602 132.615 394.824 132.903C395.046 133.185 395.316 133.401 395.634 133.551C395.952 133.695 396.306 133.767 396.696 133.767C397.074 133.767 397.386 133.722 397.632 133.632C397.878 133.536 398.082 133.434 398.244 133.326C398.406 133.218 398.541 133.119 398.649 133.029C398.757 132.933 398.868 132.885 398.982 132.885C399.126 132.885 399.237 132.939 399.315 133.047L399.819 133.695C399.609 133.953 399.372 134.172 399.108 134.352C398.85 134.532 398.574 134.679 398.28 134.793C397.986 134.907 397.677 134.991 397.353 135.045C397.035 135.099 396.711 135.126 396.381 135.126C395.811 135.126 395.277 135.021 394.779 134.811C394.287 134.601 393.858 134.295 393.492 133.893C393.132 133.491 392.847 132.999 392.637 132.417C392.427 131.829 392.322 131.163 392.322 130.419C392.322 129.741 392.415 129.114 392.601 128.538C392.793 127.962 393.072 127.467 393.438 127.053C393.81 126.633 394.266 126.306 394.806 126.072C395.346 125.832 395.964 125.712 396.66 125.712C397.314 125.712 397.89 125.817 398.388 126.027C398.886 126.237 399.33 126.534 399.72 126.918L399.252 127.566ZM403.933 121.716V129.483H404.347C404.473 129.483 404.578 129.465 404.662 129.429C404.746 129.393 404.833 129.321 404.923 129.213L407.659 126.198C407.743 126.084 407.836 126 407.938 125.946C408.04 125.886 408.169 125.856 408.325 125.856H409.927L406.696 129.393C406.522 129.615 406.336 129.786 406.138 129.906C406.252 129.984 406.351 130.074 406.435 130.176C406.525 130.278 406.612 130.389 406.696 130.509L410.134 135H408.559C408.415 135 408.289 134.976 408.181 134.928C408.079 134.88 407.986 134.793 407.902 134.667L405.076 130.995C404.986 130.857 404.896 130.77 404.806 130.734C404.716 130.692 404.581 130.671 404.401 130.671H403.933V135H402.178V121.716H403.933ZM414.222 122.076V127.224C414.222 127.494 414.216 127.758 414.204 128.016C414.192 128.274 414.174 128.535 414.15 128.799C414.132 129.057 414.108 129.324 414.078 129.6C414.048 129.876 414.015 130.167 413.979 130.473H412.791C412.755 130.167 412.722 129.876 412.692 129.6C412.662 129.324 412.635 129.057 412.611 128.799C412.593 128.535 412.578 128.274 412.566 128.016C412.554 127.758 412.548 127.494 412.548 127.224V122.076H414.222ZM412.17 133.947C412.17 133.785 412.2 133.632 412.26 133.488C412.32 133.344 412.404 133.218 412.512 133.11C412.62 133.002 412.746 132.918 412.89 132.858C413.034 132.792 413.19 132.759 413.358 132.759C413.52 132.759 413.673 132.792 413.817 132.858C413.961 132.918 414.087 133.002 414.195 133.11C414.303 133.218 414.387 133.344 414.447 133.488C414.513 133.632 414.546 133.785 414.546 133.947C414.546 134.115 414.513 134.271 414.447 134.415C414.387 134.559 414.303 134.685 414.195 134.793C414.087 134.901 413.961 134.985 413.817 135.045C413.673 135.105 413.52 135.135 413.358 135.135C413.19 135.135 413.034 135.105 412.89 135.045C412.746 134.985 412.62 134.901 412.512 134.793C412.404 134.685 412.32 134.559 412.26 134.415C412.2 134.271 412.17 134.115 412.17 133.947Z" fill="black"/>
<g filter="url(#filter1_d_410:2574)">
<rect x="174" y="264" width="352" height="32" rx="5" fill="#2869D1"/>
<path d="M345.122 282.88C344.906 283.396 344.558 284.116 344.258 284.572L344.642 284.68H341.75L342.302 284.512C342.17 284.056 341.87 283.396 341.546 282.88H345.122ZM340.886 280.564H345.734V282.136H340.886V280.564ZM345.41 282.88H346.622V279.82H340.034V282.88H341.39L340.718 283.06C341.006 283.552 341.294 284.212 341.414 284.68H338.15V285.436H348.518V284.68H345.098C345.386 284.236 345.71 283.624 345.998 283.036L345.41 282.88ZM347.834 276.268C347.438 276.7 346.778 277.264 346.19 277.696C345.902 277.42 345.626 277.12 345.374 276.808C345.95 276.4 346.634 275.86 347.186 275.344L346.514 274.864C346.118 275.284 345.506 275.836 344.966 276.268C344.63 275.8 344.354 275.296 344.126 274.792L343.37 275.032C343.874 276.16 344.57 277.192 345.398 278.08H341.33C342.026 277.336 342.614 276.46 342.998 275.476L342.434 275.176L342.266 275.212H338.858V275.968H341.834C341.522 276.556 341.102 277.12 340.622 277.624C340.25 277.216 339.59 276.736 339.026 276.4L338.534 276.892C339.086 277.24 339.722 277.744 340.094 278.128C339.35 278.8 338.498 279.352 337.682 279.688C337.862 279.844 338.102 280.156 338.222 280.336C339.218 279.88 340.238 279.184 341.114 278.308V278.848H345.53V278.212C346.346 279.052 347.294 279.736 348.314 280.192C348.446 279.964 348.698 279.64 348.902 279.46C348.134 279.16 347.39 278.704 346.718 278.164C347.306 277.756 347.978 277.228 348.506 276.736L347.834 276.268ZM352.562 275.488V276.376H355.514C355.538 276.832 355.586 277.36 355.67 277.912L355.142 277.828C354.41 281.188 352.934 283.6 350.282 284.98C350.522 285.136 350.918 285.508 351.086 285.688C353.474 284.284 354.986 282.1 355.874 278.992C356.414 281.26 357.686 283.888 360.638 285.676C360.794 285.46 361.154 285.076 361.358 284.932C356.654 282.136 356.378 277.612 356.378 275.488H352.562Z" fill="white"/>
</g>
<path d="M300.011 341.156H298.607V339.128H300.011V341.156ZM300.011 344H298.607V341.948H300.011V344ZM294.359 341.948H295.691V344H294.359V341.948ZM297.839 341.948V344H296.447V341.948H297.839ZM296.447 341.156V339.128H297.839V341.156H296.447ZM294.359 339.128H295.691V341.156H294.359V339.128ZM293.555 341.156H291.887V341.948H293.555V344H292.079V344.804H302.363V344H300.851V341.948H302.531V341.156H300.851V339.128H302.087V338.336H294.515C294.755 337.976 294.971 337.592 295.151 337.208L294.299 336.956C293.735 338.168 292.775 339.332 291.743 340.088C291.959 340.208 292.307 340.508 292.475 340.676C292.835 340.376 293.207 340.004 293.555 339.608V341.156ZM292.643 347.924C293.291 347.36 293.831 346.412 294.119 345.512L293.291 345.308C292.991 346.172 292.427 347.084 291.803 347.576L292.643 347.924ZM295.367 345.608C295.511 346.328 295.607 347.252 295.619 347.804L296.471 347.684C296.459 347.144 296.327 346.232 296.183 345.524L295.367 345.608ZM297.791 345.62C298.091 346.328 298.403 347.252 298.523 347.816L299.387 347.636C299.267 347.072 298.943 346.148 298.619 345.464L297.791 345.62ZM300.227 345.536C300.815 346.28 301.499 347.3 301.787 347.936L302.675 347.612C302.351 346.964 301.643 345.98 301.043 345.26L300.227 345.536ZM307.655 338.276C307.151 337.844 306.131 337.34 305.303 337.04L304.823 337.7C305.651 338.024 306.659 338.588 307.151 339.008L307.655 338.276ZM307.031 341.408C306.503 341.024 305.459 340.568 304.655 340.304L304.187 340.988C305.015 341.276 306.047 341.78 306.551 342.164L307.031 341.408ZM306.755 343.34C306.107 344.708 305.219 346.256 304.607 347.192L305.363 347.768C306.035 346.652 306.827 345.176 307.427 343.916L306.755 343.34ZM315.251 347.468C314.843 346.52 313.859 345.08 312.959 344.024L312.203 344.42C312.623 344.936 313.055 345.536 313.439 346.124C312.023 346.22 310.595 346.304 309.359 346.364C309.887 345.32 310.451 343.952 310.895 342.812H315.047V341.96H311.639V339.764H314.483V338.924H311.639V336.968H310.727V338.924H307.991V339.764H310.727V341.96H307.391V342.812H309.839C309.479 343.952 308.903 345.404 308.399 346.424L307.403 346.472L307.535 347.36C309.191 347.252 311.603 347.096 313.919 346.916C314.135 347.288 314.303 347.636 314.423 347.936L315.251 347.468ZM323.963 345.08C323.747 345.596 323.399 346.316 323.099 346.772L323.483 346.88H320.591L321.143 346.712C321.011 346.256 320.711 345.596 320.387 345.08H323.963ZM319.727 342.764H324.575V344.336H319.727V342.764ZM324.251 345.08H325.463V342.02H318.875V345.08H320.231L319.559 345.26C319.847 345.752 320.135 346.412 320.255 346.88H316.991V347.636H327.359V346.88H323.939C324.227 346.436 324.551 345.824 324.839 345.236L324.251 345.08ZM326.675 338.468C326.279 338.9 325.619 339.464 325.031 339.896C324.743 339.62 324.467 339.32 324.215 339.008C324.791 338.6 325.475 338.06 326.027 337.544L325.355 337.064C324.959 337.484 324.347 338.036 323.807 338.468C323.471 338 323.195 337.496 322.967 336.992L322.211 337.232C322.715 338.36 323.411 339.392 324.239 340.28H320.171C320.867 339.536 321.455 338.66 321.839 337.676L321.275 337.376L321.107 337.412H317.699V338.168H320.675C320.363 338.756 319.943 339.32 319.463 339.824C319.091 339.416 318.431 338.936 317.867 338.6L317.375 339.092C317.927 339.44 318.563 339.944 318.935 340.328C318.191 341 317.339 341.552 316.523 341.888C316.703 342.044 316.943 342.356 317.063 342.536C318.059 342.08 319.079 341.384 319.955 340.508V341.048H324.371V340.412C325.187 341.252 326.135 341.936 327.155 342.392C327.287 342.164 327.539 341.84 327.743 341.66C326.975 341.36 326.231 340.904 325.559 340.364C326.147 339.956 326.819 339.428 327.347 338.936L326.675 338.468ZM331.403 337.688V338.576H334.355C334.379 339.032 334.427 339.56 334.511 340.112L333.983 340.028C333.251 343.388 331.775 345.8 329.123 347.18C329.363 347.336 329.759 347.708 329.927 347.888C332.315 346.484 333.827 344.3 334.715 341.192C335.255 343.46 336.527 346.088 339.479 347.876C339.635 347.66 339.995 347.276 340.199 347.132C335.495 344.336 335.219 339.812 335.219 337.688H331.403ZM346.463 344.096H347.447C347.123 342.296 349.991 341.924 349.991 340.112C349.991 338.732 348.911 337.868 347.219 337.868C345.911 337.868 344.975 338.42 344.183 339.26L344.831 339.86C345.527 339.128 346.283 338.768 347.099 338.768C348.323 338.768 348.923 339.368 348.923 340.196C348.923 341.564 346.091 342.104 346.463 344.096ZM346.979 347.06C347.399 347.06 347.747 346.748 347.747 346.268C347.747 345.788 347.399 345.464 346.979 345.464C346.547 345.464 346.199 345.788 346.199 346.268C346.199 346.748 346.547 347.06 346.979 347.06ZM367.073 348.44V336.44H366.521V348.44H367.073Z" fill="#363B3F"/>
<path d="M291.203 348.8H353.603V349.4H291.203V348.8Z" fill="#363B3F"/>
<path d="M174 185C174 182.239 176.239 180 179 180H521C523.761 180 526 182.239 526 185V207C526 209.761 523.761 212 521 212H179C176.239 212 174 209.761 174 207V185Z" fill="white" fill-opacity="0.8"/>
<path d="M184.735 195.839H185.803V196.931H184.735V195.839ZM184.735 194.123H185.803V195.203H184.735V194.123ZM187.483 195.203H186.403V194.123H187.483V195.203ZM187.483 196.931H186.403V195.839H187.483V196.931ZM186.499 197.603H188.167V193.451H186.499V192.539H188.419V191.771H186.499V190.475H185.707V191.771H183.883V192.539H185.707V193.451H184.063V197.603H185.707V198.563H183.739V199.355H185.707V201.443H186.499V199.355H188.383V198.563H186.499V197.603ZM189.379 198.407V197.411H190.735V198.407H189.379ZM190.735 195.851V196.775H189.379V195.851H190.735ZM191.395 195.179H188.719V201.395H189.379V199.079H190.735V200.663C190.735 200.747 190.711 200.783 190.627 200.783H190.027C190.099 200.963 190.195 201.251 190.207 201.419C190.651 201.419 190.939 201.419 191.143 201.299C191.335 201.179 191.395 200.987 191.395 200.663V195.179ZM193.183 193.535H189.883V194.255H193.183V193.535ZM192.727 195.431H192.067V199.631H192.727V195.431ZM193.675 200.555C193.675 200.687 193.627 200.711 193.495 200.723C193.363 200.735 192.919 200.735 192.427 200.723C192.523 200.915 192.619 201.215 192.655 201.395C193.351 201.395 193.771 201.383 194.059 201.287C194.323 201.155 194.407 200.951 194.407 200.567V194.987H193.675V200.555ZM191.107 190.523C190.543 191.651 189.403 192.959 188.191 193.667C188.335 193.871 188.539 194.183 188.635 194.399C189.847 193.631 190.939 192.407 191.539 191.351C192.211 192.419 193.375 193.607 194.479 194.303C194.611 194.063 194.803 193.727 194.959 193.535C193.843 192.923 192.643 191.735 191.899 190.523H191.107ZM198.463 191.207V192.095H201.415C201.439 192.551 201.487 193.079 201.571 193.631L201.043 193.547C200.311 196.907 198.835 199.319 196.183 200.699C196.423 200.855 196.819 201.227 196.987 201.407C199.375 200.003 200.887 197.819 201.775 194.711C202.315 196.979 203.587 199.607 206.539 201.395C206.695 201.179 207.055 200.795 207.259 200.651C202.555 197.855 202.279 193.331 202.279 191.207H198.463ZM213.715 195.803H214.579V193.067H218.407V194.747H219.235V192.419H214.579V191.687H218.539V190.991H209.827V191.687H213.715V192.419H209.143V194.747H209.947V193.067H213.715V195.803ZM215.215 195.491H218.071V194.927H215.215V195.491ZM215.215 193.715V194.267H217.783V193.715H215.215ZM213.103 193.715H210.571V194.267H213.103V193.715ZM210.343 195.491H213.103V194.927H210.343V195.491ZM211.015 199.103V198.287H213.679V199.103H211.015ZM213.679 196.859V197.687H211.015V196.859H213.679ZM217.387 197.687H214.531V196.859H217.387V197.687ZM214.531 199.103V198.287H217.387V199.103H214.531ZM215.431 200.615C214.675 200.615 214.531 200.543 214.531 200.135V199.751H218.251V196.211H210.163V200.375H211.015V199.751H213.679V200.135C213.679 201.095 214.051 201.323 215.395 201.323H218.155C219.283 201.323 219.559 200.963 219.691 199.511C219.439 199.463 219.115 199.343 218.911 199.211C218.851 200.411 218.731 200.615 218.095 200.615H215.431ZM232.087 195.803H227.143V194.627C228.475 193.907 230.047 192.791 231.067 191.759L230.419 191.267L230.203 191.315H222.511V192.179H229.267C228.571 192.779 227.647 193.415 226.795 193.883H226.231V195.803H221.275V196.691H226.231V200.279C226.231 200.495 226.159 200.555 225.895 200.567C225.643 200.579 224.755 200.579 223.795 200.543C223.951 200.795 224.107 201.203 224.179 201.455C225.319 201.467 226.099 201.443 226.543 201.299C226.987 201.155 227.143 200.879 227.143 200.279V196.691H232.087V195.803ZM238.411 197.507H237.307V196.019H238.411V197.507ZM235.435 197.507V196.019H236.491V197.507H235.435ZM235.435 193.811H236.491V195.251H235.435V193.811ZM238.411 193.811V195.251H237.307V193.811H238.411ZM239.119 193.811H240.019V193.055H237.307V191.807C238.315 191.687 239.263 191.519 240.007 191.327L239.467 190.631C238.135 190.991 235.771 191.279 233.815 191.411C233.911 191.615 234.007 191.903 234.043 192.119C234.823 192.071 235.663 191.999 236.491 191.903V193.055H233.959V193.811H234.727V195.251H233.659V196.019H234.727V197.507H233.911V198.263H236.491V199.835C235.435 199.955 234.451 200.063 233.683 200.147L233.803 200.999C235.459 200.783 237.859 200.471 240.115 200.159L240.103 199.391C239.179 199.511 238.219 199.619 237.307 199.727V198.263H240.007V197.507H239.119V196.019H240.151V195.251H239.119V193.811ZM244.027 191.063L243.871 191.099H240.535V201.431H241.363V191.915H243.523C243.187 192.863 242.707 194.171 242.251 195.191C243.331 196.259 243.631 197.159 243.631 197.903C243.631 198.335 243.547 198.707 243.319 198.851C243.175 198.935 242.995 198.959 242.815 198.983C242.563 198.983 242.227 198.983 241.843 198.959C242.011 199.199 242.107 199.571 242.119 199.823C242.467 199.847 242.875 199.847 243.175 199.811C243.475 199.775 243.739 199.691 243.943 199.547C244.339 199.283 244.495 198.707 244.495 197.975C244.495 197.159 244.219 196.211 243.139 195.071C243.655 193.943 244.219 192.575 244.651 191.459L244.027 191.063ZM248.863 190.523C248.227 192.335 247.171 194.123 246.055 195.287C246.211 195.491 246.475 195.947 246.559 196.163C246.931 195.743 247.315 195.275 247.663 194.759V201.419H248.515V193.379C248.971 192.551 249.367 191.663 249.703 190.787L248.863 190.523ZM256.999 196.427H253.747V193.799H256.483V192.923H253.747V190.631H252.859V192.923H251.263C251.419 192.383 251.551 191.819 251.659 191.255L250.819 191.075C250.543 192.623 250.051 194.183 249.343 195.167C249.571 195.275 249.943 195.491 250.111 195.623C250.435 195.119 250.723 194.495 250.975 193.799H252.859V196.427H249.439V197.303H252.859V201.443H253.747V197.303H256.999V196.427Z" fill="#A9AEB2"/>
<path d="M174 227C174 224.239 176.239 222 179 222H521C523.761 222 526 224.239 526 227V249C526 251.761 523.761 254 521 254H179C176.239 254 174 251.761 174 249V227Z" fill="white" fill-opacity="0.8"/>
<path d="M184.735 237.839H185.803V238.931H184.735V237.839ZM184.735 236.123H185.803V237.203H184.735V236.123ZM187.483 237.203H186.403V236.123H187.483V237.203ZM187.483 238.931H186.403V237.839H187.483V238.931ZM186.499 239.603H188.167V235.451H186.499V234.539H188.419V233.771H186.499V232.475H185.707V233.771H183.883V234.539H185.707V235.451H184.063V239.603H185.707V240.563H183.739V241.355H185.707V243.443H186.499V241.355H188.383V240.563H186.499V239.603ZM189.379 240.407V239.411H190.735V240.407H189.379ZM190.735 237.851V238.775H189.379V237.851H190.735ZM191.395 237.179H188.719V243.395H189.379V241.079H190.735V242.663C190.735 242.747 190.711 242.783 190.627 242.783H190.027C190.099 242.963 190.195 243.251 190.207 243.419C190.651 243.419 190.939 243.419 191.143 243.299C191.335 243.179 191.395 242.987 191.395 242.663V237.179ZM193.183 235.535H189.883V236.255H193.183V235.535ZM192.727 237.431H192.067V241.631H192.727V237.431ZM193.675 242.555C193.675 242.687 193.627 242.711 193.495 242.723C193.363 242.735 192.919 242.735 192.427 242.723C192.523 242.915 192.619 243.215 192.655 243.395C193.351 243.395 193.771 243.383 194.059 243.287C194.323 243.155 194.407 242.951 194.407 242.567V236.987H193.675V242.555ZM191.107 232.523C190.543 233.651 189.403 234.959 188.191 235.667C188.335 235.871 188.539 236.183 188.635 236.399C189.847 235.631 190.939 234.407 191.539 233.351C192.211 234.419 193.375 235.607 194.479 236.303C194.611 236.063 194.803 235.727 194.959 235.535C193.843 234.923 192.643 233.735 191.899 232.523H191.107ZM198.463 233.207V234.095H201.415C201.439 234.551 201.487 235.079 201.571 235.631L201.043 235.547C200.311 238.907 198.835 241.319 196.183 242.699C196.423 242.855 196.819 243.227 196.987 243.407C199.375 242.003 200.887 239.819 201.775 236.711C202.315 238.979 203.587 241.607 206.539 243.395C206.695 243.179 207.055 242.795 207.259 242.651C202.555 239.855 202.279 235.331 202.279 233.207H198.463ZM210.019 234.311H218.347V235.835H219.247V233.507H214.603V232.487H213.703V233.507H209.155V235.835H210.019V234.311ZM214.951 235.739C214.495 235.331 213.607 234.803 212.875 234.491L212.419 235.007C213.163 235.343 214.039 235.895 214.471 236.315L214.951 235.739ZM210.391 235.895C210.127 236.723 209.599 237.551 208.795 238.019L209.479 238.499C210.355 237.971 210.835 237.059 211.135 236.171L210.391 235.895ZM215.815 239.147C216.799 239.147 217.051 238.823 217.159 237.503C216.931 237.455 216.607 237.347 216.415 237.215C216.367 238.259 216.271 238.427 215.731 238.427H213.439H213.223C214.759 237.611 216.115 236.591 217.075 235.307L216.307 234.971C215.443 236.135 214.171 237.083 212.671 237.839V235.703H211.855V238.043C211.855 238.103 211.855 238.163 211.855 238.211C210.859 238.655 209.779 239.003 208.675 239.267C208.843 239.447 209.107 239.807 209.191 239.999C210.211 239.711 211.219 239.363 212.179 238.931C212.407 239.087 212.791 239.147 213.391 239.147H215.815ZM217.459 242.099H214.603V239.327H213.715V242.099H211.015V240.011H210.151V243.431H211.015V242.915H217.459V243.407H218.347V240.011H217.459V242.099ZM216.895 236.387C217.711 237.071 218.599 238.043 218.995 238.715L219.679 238.223C219.271 237.551 218.359 236.603 217.531 235.955L216.895 236.387ZM224.431 241.127H222.895V237.539H224.431V241.127ZM225.211 241.907V236.771H222.931C223.183 235.859 223.375 234.875 223.531 233.867H225.667V233.051H221.287V233.867H222.679C222.379 235.943 221.875 237.899 220.999 239.183C221.167 239.363 221.443 239.783 221.527 239.963C221.743 239.651 221.947 239.303 222.127 238.931V242.891H222.895V241.907H225.211ZM225.763 242.891C226.339 242.243 226.555 241.127 226.675 240.095L226.003 239.927C225.895 240.911 225.655 241.943 225.139 242.531L225.763 242.891ZM227.155 240.299C227.287 240.995 227.359 241.907 227.335 242.507L227.995 242.399C228.007 241.811 227.911 240.911 227.767 240.203L227.155 240.299ZM228.427 240.203C228.667 240.791 228.883 241.547 228.955 242.051L229.567 241.871C229.483 241.379 229.255 240.611 229.003 240.047L228.427 240.203ZM226.987 237.419H228.643V238.559H226.987V237.419ZM228.643 233.771V234.863H226.987V233.771H228.643ZM228.643 236.699H226.987V235.583H228.643V236.699ZM229.435 238.559V237.419H231.439V236.699H229.435V235.583H231.439V234.863H229.435V233.771H231.715V232.991H226.171V239.339H231.115C231.007 241.511 230.863 242.351 230.671 242.579C230.563 242.687 230.479 242.711 230.287 242.711C230.107 242.711 229.627 242.699 229.123 242.651C229.243 242.867 229.327 243.191 229.339 243.419C229.879 243.455 230.383 243.455 230.659 243.431C230.983 243.407 231.175 243.323 231.367 243.095C231.667 242.747 231.811 241.715 231.943 238.931C231.955 238.811 231.955 238.559 231.955 238.559H229.435ZM230.935 241.127C230.779 240.755 230.443 240.167 230.107 239.735L229.615 239.939C229.927 240.383 230.275 240.983 230.419 241.379L230.935 241.127Z" fill="#A9AEB2"/>
<line x1="173.999" y1="317.5" x2="525.999" y2="316.5" stroke="#D7D8DC"/>
<path d="M384.356 337.16H380.996V338.24H384.356V337.16ZM385.04 338.804H380.18V339.956H385.04V338.804ZM384.476 340.532H380.852V341.624H384.476V340.532ZM380.852 343.28H384.476V342.188H380.852V343.28ZM383.288 344.912V346.292H382.04V344.912H383.288ZM384.608 343.856H380.756V347.876H382.04V347.348H384.608V343.856ZM388.868 346.292V343.916H390.98V342.596H388.868V340.424H391.16V339.092H388.868V336.848H387.44V339.092H385.196V340.424H387.44V342.596H385.448V343.916H387.44V346.292H384.92V347.636H391.364V346.292H388.868ZM400.148 341.804V338.912H401.372V341.804H400.148ZM397.64 341.804V338.912H398.816V341.804H397.64ZM395.192 341.804V338.912H396.32V341.804H395.192ZM403.856 341.804H402.788V337.508H393.788V341.804H392.648V343.208H393.788V348.056H395.192V343.208H396.32V347.864H397.64V343.208H398.816V347.864H400.148V343.208H401.372V346.46C401.372 346.592 401.336 346.652 401.204 346.652C401.072 346.652 400.7 346.664 400.34 346.64C400.532 347.012 400.724 347.636 400.772 348.032C401.456 348.032 401.948 347.984 402.32 347.744C402.692 347.516 402.788 347.12 402.788 346.484V343.208H403.856V341.804Z" fill="#2869D1"/>
<path d="M465.836 191.376H462.128V192.096H465.836V191.376ZM464.948 198.492V200.508H462.848V198.492H464.948ZM465.752 197.76H462.056V201.78H462.848V201.228H465.752V197.76ZM462.068 196.872H465.788V196.152H462.068V196.872ZM462.068 195.276H465.788V194.568H462.068V195.276ZM461.504 193.68H466.232V192.948H461.504V193.68ZM468.596 200.94C467.936 200.94 467.816 200.844 467.816 200.376V196.368H470.996V197.028H471.884V191.64H466.784V192.48H470.996V195.516H466.916V200.376C466.916 201.504 467.288 201.78 468.524 201.78H470.924C472.112 201.78 472.388 201.252 472.52 199.332C472.268 199.272 471.896 199.128 471.68 198.96C471.608 200.628 471.512 200.94 470.864 200.94H468.596ZM476.828 190.992C476.132 192.804 474.968 194.58 473.756 195.72C473.912 195.924 474.176 196.392 474.26 196.584C474.716 196.128 475.16 195.6 475.592 195V201.876H476.432V193.716C476.9 192.936 477.32 192.084 477.656 191.244L476.828 190.992ZM481.616 200.652V197.652H484.46V196.8H481.616V194.172H484.808V193.332H481.892L482.408 192.744C481.832 192.204 480.656 191.436 479.768 190.932L479.18 191.568C480.02 192.06 481.076 192.792 481.664 193.332H477.572V194.172H480.728V196.8H477.968V197.652H480.728V200.652H477.26V201.504H484.988V200.652H481.616ZM496.976 193.272C496.592 192.708 495.752 191.868 495.068 191.28L494.384 191.748C495.08 192.36 495.896 193.224 496.256 193.788L496.976 193.272ZM495.908 195.888C495.5 196.656 494.972 197.388 494.336 198.072C494.132 197.28 493.964 196.356 493.844 195.336H497.276V194.484H493.748C493.652 193.416 493.604 192.264 493.604 191.064H492.692C492.704 192.24 492.752 193.392 492.86 194.484H490.112V192.396C490.844 192.24 491.54 192.048 492.116 191.844L491.48 191.112C490.352 191.532 488.42 191.94 486.74 192.192C486.86 192.408 486.98 192.72 487.028 192.936C487.736 192.84 488.492 192.72 489.236 192.576V194.484H486.668V195.336H489.236V197.436C488.192 197.652 487.22 197.856 486.5 197.976L486.752 198.876C487.472 198.72 488.336 198.516 489.236 198.324V200.76C489.236 200.976 489.164 201.036 488.948 201.036C488.744 201.048 488.036 201.06 487.268 201.024C487.4 201.276 487.556 201.684 487.604 201.924C488.576 201.924 489.224 201.9 489.596 201.756C489.968 201.612 490.112 201.348 490.112 200.772V198.108C490.844 197.94 491.588 197.772 492.32 197.592L492.26 196.788C491.552 196.944 490.82 197.1 490.112 197.256V195.336H492.932C493.088 196.632 493.316 197.82 493.604 198.816C492.752 199.608 491.768 200.268 490.76 200.76C490.988 200.952 491.24 201.252 491.372 201.468C492.272 201 493.124 200.4 493.904 199.704C494.456 201.108 495.176 201.948 496.124 201.948C497.024 201.948 497.336 201.372 497.504 199.392C497.252 199.308 496.94 199.104 496.748 198.912C496.676 200.448 496.532 201.06 496.208 201.06C495.608 201.06 495.068 200.292 494.612 199.032C495.452 198.18 496.16 197.232 496.7 196.212L495.908 195.888Z" fill="#3C64B1"/>
<path d="M512.714 202H503.286C502.576 202 502 201.424 502 200.714V191.286C502 190.576 502.576 190 503.286 190H512.714C513.424 190 514 190.576 514 191.286V200.714C514 201.424 513.424 202 512.714 202ZM507.232 199.373L512.16 194.445C512.328 194.277 512.328 194.006 512.16 193.839L511.554 193.233C511.387 193.065 511.115 193.065 510.948 193.233L506.929 197.252L505.052 195.376C504.885 195.208 504.613 195.208 504.446 195.376L503.84 195.982C503.672 196.149 503.672 196.42 503.84 196.588L506.626 199.373C506.793 199.541 507.064 199.541 507.232 199.373Z" fill="#2869D1"/>
<path d="M300.352 147.872H298.408V146.996H300.352V147.872ZM300.352 149.396H298.408V148.544H300.352V149.396ZM300.352 150.98H298.408V150.068H300.352V150.98ZM297.556 151.7H304.24V150.98H301.192V150.068H303.592V149.396H301.192V148.544H303.568V147.872H301.192V146.996H303.916V146.276H301.264C301.48 145.928 301.72 145.532 301.936 145.148L300.988 144.968C300.832 145.34 300.604 145.856 300.364 146.276H298.696C298.936 145.916 299.14 145.532 299.32 145.16L298.468 144.908C297.928 146.084 297.016 147.224 296.044 147.968C296.248 148.112 296.596 148.424 296.74 148.58C297.016 148.34 297.292 148.076 297.556 147.776V151.7ZM294.568 152.108C295.288 151.328 296.092 150.404 296.776 149.564L296.296 148.964C295.516 149.876 294.592 150.848 293.944 151.424L294.568 152.108ZM296.872 145.928C296.428 145.64 295.6 145.244 294.94 145.028L294.496 145.64C295.156 145.892 295.972 146.324 296.404 146.624L296.872 145.928ZM295.984 147.8C295.552 147.548 294.688 147.188 294.04 146.996L293.596 147.62C294.256 147.848 295.12 148.22 295.54 148.508L295.984 147.8ZM304.456 152.768H299.488V151.784H298.588V152.768H293.752V153.572H298.588V155.924H299.488V153.572H304.456V152.768ZM311.224 147.848H312.04V146.864H314.284V147.848H315.124V146.864H317.008V146.084H315.124V145.064H314.284V146.084H312.04V145.064H311.224V146.084H309.28V146.864H311.224V147.848ZM308.38 145.028C307.804 146.876 306.856 148.7 305.824 149.9C305.968 150.116 306.208 150.584 306.292 150.8C306.688 150.332 307.06 149.792 307.42 149.192V155.912H308.272V147.596C308.632 146.84 308.944 146.048 309.208 145.256L308.38 145.028ZM314.212 153.308V152.276H315.976V153.308H314.212ZM311.8 153.308V152.276H313.492V153.308H311.8ZM313.492 150.608V151.652H311.8V150.608H313.492ZM315.976 150.608V151.652H314.212V150.608H315.976ZM316.756 149.924H311.032V155.912H311.8V153.944H313.492V155.84H314.212V153.944H315.976V155.048C315.976 155.18 315.952 155.204 315.808 155.216C315.664 155.228 315.244 155.228 314.728 155.216C314.824 155.42 314.92 155.72 314.956 155.912C315.664 155.924 316.12 155.912 316.408 155.78C316.684 155.66 316.756 155.444 316.756 155.048V149.924ZM317.056 148.256H309.496V150.824C309.496 152.18 309.4 154.028 308.548 155.36C308.74 155.468 309.064 155.756 309.196 155.912C310.144 154.472 310.3 152.324 310.3 150.836V149.048H317.056V148.256ZM322.168 148.244C322.012 149.816 321.7 151.136 321.244 152.216C320.788 151.892 320.308 151.592 319.852 151.328C320.092 150.38 320.344 149.312 320.584 148.244H322.168ZM322.54 147.392L322.384 147.428H320.764C320.944 146.6 321.112 145.796 321.256 145.064L320.404 144.968C320.272 145.712 320.104 146.564 319.912 147.428H318.604V148.244H319.744C319.408 149.744 319.048 151.22 318.76 152.252L319.504 152.636L319.636 152.132C320.056 152.396 320.476 152.684 320.872 152.984C320.308 154.016 319.576 154.76 318.7 155.216C318.892 155.396 319.132 155.72 319.252 155.936C320.188 155.372 320.956 154.592 321.556 153.524C322.06 153.944 322.492 154.364 322.78 154.724L323.32 154.016C322.996 153.62 322.516 153.176 321.952 152.744C322.54 151.4 322.912 149.684 323.068 147.512L322.54 147.392ZM329.56 149.768H326.704V148.7C327.616 147.992 328.636 146.912 329.308 145.952L328.72 145.52L328.54 145.58H323.404V146.396H327.892C327.412 147.008 326.776 147.692 326.176 148.172H325.816V149.768H323.008V150.596H325.816V154.784C325.816 154.964 325.756 155.024 325.552 155.036C325.348 155.048 324.676 155.048 323.92 155.024C324.052 155.252 324.208 155.648 324.256 155.888C325.204 155.888 325.828 155.864 326.2 155.732C326.584 155.588 326.704 155.324 326.704 154.784V150.596H329.56V149.768ZM338.752 146.624H340.684V152C340.684 152.144 340.636 152.192 340.492 152.192C340.336 152.192 339.88 152.204 339.352 152.18C339.46 152.384 339.58 152.732 339.628 152.948C340.348 152.948 340.828 152.936 341.116 152.816C341.428 152.672 341.512 152.432 341.512 152.012V145.844H337.948V154.4H338.752V146.624ZM334.18 153.116C335.128 152.84 336.388 152.468 337.564 152.12L337.456 151.352C336.808 151.532 336.16 151.712 335.56 151.88V146.636C336.34 146.336 337.168 145.976 337.816 145.592L337.156 144.932C336.712 145.28 335.944 145.688 335.236 146.012L334.732 145.868V152.096C334.444 152.18 334.18 152.24 333.952 152.3L334.18 153.116ZM333.688 147.224C333.352 146.624 332.56 145.796 331.852 145.232L331.168 145.688C331.864 146.276 332.632 147.128 332.944 147.728L333.688 147.224ZM333.412 149.66H331.108V150.5H332.584V153.596C332.056 154.1 331.468 154.604 330.964 154.976L331.432 155.804C332.008 155.276 332.548 154.772 333.052 154.244C333.796 155.192 334.888 155.624 336.472 155.684C337.828 155.732 340.42 155.708 341.776 155.648C341.812 155.396 341.956 155 342.064 154.808C340.6 154.904 337.804 154.94 336.448 154.88C335.044 154.82 333.976 154.412 333.412 153.512V149.66ZM352.156 146.996C352 147.596 351.712 148.436 351.484 148.976L351.76 149.024H349.6L349.924 148.94C349.876 148.448 349.672 147.632 349.408 146.996H352.156ZM352.096 151.748C351.892 152.54 351.568 153.164 351.076 153.656C350.428 153.392 349.78 153.164 349.168 152.984C349.372 152.6 349.576 152.18 349.78 151.748H352.096ZM354.46 149.804V149.024H352.288C352.528 148.496 352.804 147.728 353.044 147.056L352.612 146.996H354.124V146.24H351.22V144.956H350.344V146.24H347.512V146.996H349.216L348.64 147.116C348.868 147.716 349.048 148.496 349.12 149.024H347.032V149.804H349.732C349.576 150.176 349.408 150.584 349.216 150.992H347.308L347.2 150.212L346.048 150.548V148.184H347.212V147.368H346.048V144.968H345.184V147.368H343.576V148.184H345.184V150.8C344.5 151.004 343.864 151.184 343.372 151.304L343.576 152.168L345.184 151.676V154.832C345.184 155.012 345.136 155.06 344.98 155.06C344.824 155.072 344.332 155.072 343.792 155.048C343.912 155.288 344.02 155.684 344.056 155.9C344.848 155.912 345.328 155.888 345.64 155.744C345.94 155.588 346.048 155.336 346.048 154.832V151.412L347.092 151.088V151.748H348.868C348.52 152.48 348.16 153.176 347.872 153.704L348.652 153.98L348.832 153.644C349.324 153.812 349.84 154.004 350.356 154.208C349.516 154.712 348.364 155.012 346.792 155.168C346.936 155.348 347.08 155.66 347.152 155.912C348.976 155.672 350.296 155.264 351.232 154.592C352.192 155.024 353.056 155.504 353.632 155.924L354.196 155.24C353.62 154.844 352.792 154.4 351.892 154.004C352.42 153.416 352.768 152.672 352.984 151.748H354.412V150.992H350.14C350.332 150.584 350.524 150.176 350.692 149.804H354.46ZM361.516 146.216H359.332V145.004H358.468V146.216H356.26V146.96H361.516V146.216ZM360.136 148.88C360.364 148.448 360.604 147.776 360.832 147.176L360.016 146.984C359.908 147.5 359.632 148.244 359.416 148.724L360.136 148.88ZM358.192 148.712C358.132 148.256 357.928 147.548 357.676 147.008L356.98 147.188C357.208 147.728 357.4 148.448 357.448 148.916L358.192 148.712ZM361.228 153.524C360.952 153.272 359.788 152.324 359.332 151.988V151.7H361.564V150.944H359.332V149.684H361.66V148.928H356.092V149.684H358.468V150.944H356.128V151.7H358.276C357.676 152.756 356.728 153.836 355.864 154.4C356.056 154.556 356.32 154.844 356.464 155.048C357.136 154.52 357.88 153.668 358.468 152.744V155.888H359.332V152.84C359.836 153.296 360.448 153.884 360.7 154.184L361.228 153.524ZM366.952 148.976H362.944V146.84C364.276 146.576 365.776 146.216 366.796 145.76L366.076 145.1C365.308 145.484 363.964 145.868 362.74 146.132L362.092 145.928V150.104C362.092 151.784 361.924 153.86 360.4 155.348C360.604 155.468 360.928 155.78 361.036 155.972C362.716 154.304 362.944 151.904 362.944 150.116V149.816H364.732V155.84H365.608V149.816H366.952V148.976ZM372.376 150.188H369.856V147.68H372.376V150.188ZM369.856 153.86V150.98H372.376V153.86H369.856ZM370.864 144.932C370.78 145.496 370.564 146.3 370.384 146.876H369.04V155.612H369.856V154.664H373.192V146.876H371.2C371.404 146.36 371.62 145.7 371.824 145.112L370.864 144.932ZM379.06 146.84H375.472C375.676 146.276 375.844 145.7 375.988 145.112L375.136 144.908C374.752 146.552 374.104 148.208 373.3 149.264C373.492 149.384 373.876 149.624 374.032 149.768C374.452 149.204 374.824 148.472 375.16 147.668H378.208C378.052 152.444 377.872 154.268 377.476 154.688C377.356 154.844 377.224 154.868 376.984 154.868C376.708 154.868 375.988 154.868 375.208 154.796C375.376 155.048 375.484 155.408 375.508 155.672C376.18 155.708 376.864 155.732 377.284 155.684C377.692 155.648 377.968 155.54 378.232 155.204C378.712 154.616 378.868 152.768 379.06 147.296V146.84ZM377.164 152.24C376.78 151.532 375.952 150.38 375.28 149.528L374.584 149.936C375.244 150.8 376.048 151.988 376.408 152.708L377.164 152.24ZM384.592 148.544C384.796 148.064 385.024 147.296 385.24 146.672L384.712 146.48C384.604 147.032 384.376 147.872 384.196 148.388L384.592 148.544ZM382.276 146.636C382.48 147.212 382.624 147.968 382.648 148.46L383.128 148.328C383.092 147.848 382.936 147.092 382.72 146.516L382.276 146.636ZM382.108 146.048H383.404V148.928H382.108V146.048ZM385.396 148.928H384.016V146.048H385.396V148.928ZM381.112 152.924C382.492 152.852 384.448 152.732 386.356 152.588L386.38 151.868C385.612 151.916 384.844 151.964 384.112 152V151.112H386.188V150.404H384.112V149.576H386.116V145.4H381.412V149.576H383.308V150.404H381.328V151.112H383.308V152.048C382.456 152.084 381.688 152.132 381.064 152.156L381.112 152.924ZM381.472 155.912C382 155.384 382.18 154.46 382.3 153.572L381.664 153.404C381.568 154.232 381.34 155.096 380.872 155.588L381.472 155.912ZM382.684 153.44C382.852 154.112 382.972 154.964 382.972 155.528L383.584 155.444C383.584 154.892 383.452 154.028 383.26 153.38L382.684 153.44ZM383.824 153.38C384.088 153.992 384.34 154.784 384.4 155.312L385.012 155.18C384.928 154.652 384.664 153.86 384.388 153.26L383.824 153.38ZM384.964 153.224C385.36 153.776 385.78 154.544 385.948 155.048L386.548 154.784C386.368 154.292 385.936 153.548 385.516 152.996L384.964 153.224ZM390.616 154.532H387.592V151.448H390.616V154.532ZM391.936 148.4V147.56H389.38V144.98H388.504V150.62H386.776V155.9H387.592V155.336H390.616V155.852H391.456V150.62H389.38V148.4H391.936ZM404.344 150.284H399.4V149.108C400.732 148.388 402.304 147.272 403.324 146.24L402.676 145.748L402.46 145.796H394.768V146.66H401.524C400.828 147.26 399.904 147.896 399.052 148.364H398.488V150.284H393.532V151.172H398.488V154.76C398.488 154.976 398.416 155.036 398.152 155.048C397.9 155.06 397.012 155.06 396.052 155.024C396.208 155.276 396.364 155.684 396.436 155.936C397.576 155.948 398.356 155.924 398.8 155.78C399.244 155.636 399.4 155.36 399.4 154.76V151.172H404.344V150.284Z" fill="#363B3F"/>
<path d="M506 242C504.104 242 502.569 240.532 502.427 238.672L499.805 236.646C499.46 237.078 499.143 237.535 498.887 238.035C498.83 238.148 498.8 238.273 498.8 238.4C498.8 238.527 498.83 238.652 498.887 238.765C500.243 241.41 502.927 243.2 506 243.2C506.673 243.2 507.322 243.1 507.947 242.939L506.65 241.935C506.436 241.976 506.218 241.998 506 242ZM513.845 243.453L511.082 241.317C511.921 240.609 512.612 239.742 513.113 238.765C513.17 238.652 513.2 238.527 513.2 238.4C513.2 238.273 513.17 238.148 513.113 238.035C511.757 235.39 509.073 233.6 506 233.6C504.713 233.602 503.447 233.926 502.317 234.543L499.136 232.084C499.095 232.052 499.048 232.028 498.997 232.014C498.946 232 498.893 231.997 498.841 232.003C498.789 232.01 498.739 232.026 498.693 232.052C498.647 232.078 498.607 232.113 498.575 232.155L498.084 232.786C498.019 232.87 497.99 232.976 498.003 233.081C498.016 233.187 498.071 233.282 498.154 233.348L512.863 244.716C512.905 244.748 512.952 244.772 513.003 244.786C513.054 244.8 513.107 244.804 513.159 244.797C513.211 244.79 513.261 244.774 513.307 244.748C513.353 244.722 513.393 244.687 513.425 244.646L513.916 244.014C513.981 243.93 514.01 243.824 513.997 243.719C513.984 243.613 513.929 243.518 513.845 243.453ZM509.252 239.903L508.27 239.143C508.353 238.904 508.397 238.653 508.4 238.4C508.405 238.03 508.323 237.663 508.16 237.33C507.998 236.997 507.76 236.707 507.465 236.483C507.17 236.259 506.826 236.107 506.462 236.039C506.098 235.972 505.723 235.991 505.367 236.095C505.518 236.299 505.599 236.546 505.6 236.8C505.596 236.885 505.583 236.968 505.561 237.05L503.721 235.628C504.36 235.094 505.167 234.801 506 234.8C506.473 234.8 506.941 234.893 507.378 235.074C507.815 235.254 508.212 235.52 508.546 235.854C508.88 236.188 509.146 236.585 509.326 237.022C509.507 237.459 509.6 237.927 509.6 238.4C509.6 238.941 509.468 239.445 509.252 239.903V239.903Z" fill="black" fill-opacity="0.8"/>
<rect x="4" y="53" width="692" height="38" fill="white" fill-opacity="0.3"/>
<g clip-path="url(#clip0_410:2574)">
<path d="M310.745 71.4485C310.745 71.4485 306.866 69.5971 305.019 65.6943C305.019 65.6943 302.708 70.0695 305.047 72.8119C306.948 75.0387 309.85 73.5912 310.745 71.4485Z" fill="#ECEDEF"/>
<path d="M312.747 68.7207C312.747 68.7207 314.604 64.8556 318.521 63.0156C318.521 63.0156 314.131 60.7121 311.378 63.0433C309.144 64.9372 310.596 67.8297 312.747 68.7207Z" fill="#ECEDEF"/>
<path d="M314.39 70.1796C314.39 70.1796 318.272 72.0302 320.115 75.9337C320.115 75.9337 322.427 71.5585 320.087 68.8161C318.188 66.5894 315.283 68.0377 314.39 70.1796Z" fill="#ECEDEF"/>
<path d="M313.146 72.9629C313.146 72.9629 311.288 76.8313 307.372 78.6681C307.372 78.6681 311.763 80.9715 314.515 78.6403C316.749 76.7481 315.3 73.8531 313.146 72.9629Z" fill="#ECEDEF"/>
</g>
<g clip-path="url(#clip1_410:2574)">
<path d="M327.163 77.8424V74.8687C327.911 75.3966 328.714 75.8419 329.558 76.1966C330.374 76.5355 331.061 76.705 331.618 76.705C332.147 76.718 332.667 76.5684 333.108 76.2767C333.522 75.9934 333.73 75.6545 333.731 75.2599C333.736 75.073 333.703 74.887 333.634 74.7133C333.564 74.5396 333.46 74.382 333.327 74.2501C333.059 73.9823 332.478 73.5954 331.583 73.0893C329.8 72.1004 328.633 71.2543 328.083 70.5509C327.55 69.9023 327.257 69.0903 327.254 68.2515C327.243 67.7466 327.351 67.2461 327.569 66.7903C327.787 66.3345 328.109 65.9361 328.509 65.6271C329.345 64.9493 330.422 64.6104 331.739 64.6104C333.107 64.6104 334.511 64.9945 335.951 65.7629V68.4999C334.309 67.5056 332.966 67.008 331.922 67.0072C331.384 67.0072 330.951 67.1233 330.622 67.3554C330.468 67.4512 330.343 67.5846 330.256 67.743C330.169 67.9013 330.125 68.0793 330.127 68.2596C330.127 68.5835 330.277 68.8922 330.575 69.1882C330.873 69.4842 331.398 69.8277 332.148 70.241L333.137 70.8027C335.469 72.1182 336.634 73.5745 336.634 75.1717C336.645 75.7129 336.529 76.2492 336.295 76.7378C336.062 77.2264 335.717 77.6539 335.289 77.9864C334.393 78.7192 333.24 79.0856 331.831 79.0856C331.082 79.096 330.336 79.0066 329.611 78.8198C328.768 78.5672 327.949 78.2402 327.163 77.8424V77.8424Z" fill="#ECEDEF"/>
<path d="M351.28 72.1214H341.445C341.516 73.4569 341.965 74.5194 342.79 75.3087C343.616 76.0979 344.683 76.4926 345.99 76.4926C347.814 76.4926 349.497 75.9258 351.037 74.7921V77.4931C350.26 78.0247 349.407 78.4342 348.505 78.7072C347.547 78.9663 346.557 79.089 345.565 79.0717C344.024 79.0717 342.778 78.7529 341.824 78.1153C340.858 77.4629 340.071 76.5784 339.537 75.5431C338.962 74.466 338.675 73.2194 338.675 71.8033C338.675 69.6784 339.279 67.9509 340.487 66.6207C341.695 65.2906 343.261 64.6255 345.187 64.6255C347.042 64.6255 348.521 65.2728 349.625 66.5674C350.729 67.8619 351.281 69.5972 351.28 71.7731V72.1214ZM341.505 70.4731H348.544C348.472 69.3705 348.143 68.5193 347.555 67.9196C346.968 67.3199 346.178 67.0208 345.187 67.0224C344.194 67.0224 343.38 67.321 342.745 67.9184C342.11 68.5158 341.697 69.3674 341.505 70.4731Z" fill="#ECEDEF"/>
<path d="M352.172 67.099L357.37 62V64.8832H361.795V67.3718H357.37V74.2049C357.37 75.8012 358.034 76.599 359.362 76.5982C360.355 76.5982 361.404 76.2694 362.509 75.6116V78.1919C361.445 78.7887 360.244 79.0973 359.024 79.0868C357.758 79.0868 356.704 78.7177 355.862 77.9795C355.606 77.7652 355.386 77.5117 355.209 77.2285C355.011 76.8876 354.864 76.5191 354.775 76.1351C354.662 75.6879 354.605 74.8305 354.605 73.563V67.3718H352.172V67.099Z" fill="#ECEDEF"/>
<path d="M377.036 78.8824V77.0891C376.469 77.7153 375.785 78.2245 375.022 78.5876C374.318 78.9319 373.547 79.1147 372.764 79.1227C371.904 79.1297 371.06 78.9012 370.322 78.4622C369.596 78.043 369.01 77.4207 368.634 76.6724C368.254 75.918 368.064 74.6659 368.065 72.9164V64.9214H370.831V72.8781C370.831 74.3429 371.041 75.3658 371.462 75.947C371.883 76.5281 372.62 76.8187 373.672 76.8187C374.99 76.8187 376.109 76.176 377.031 74.8907V64.9214H379.798V78.8824H377.036Z" fill="#ECEDEF"/>
<path d="M382.675 85.9999V64.9214H387.519C390 64.9214 391.931 65.5385 393.311 66.7727C394.692 68.0069 395.383 69.7318 395.385 71.9472C395.385 74.0411 394.734 75.7609 393.433 77.1065C392.133 78.4522 390.476 79.125 388.463 79.125C387.572 79.125 386.585 78.9277 385.503 78.533V85.9999H382.675ZM387.46 67.5005H385.503V76.0897C386.329 76.5195 387.246 76.7433 388.178 76.7421C389.472 76.7421 390.532 76.2921 391.356 75.3921C392.18 74.4922 392.592 73.3338 392.592 71.917C392.61 71.076 392.409 70.2447 392.01 69.5039C391.655 68.8391 391.097 68.3048 390.417 67.9787C389.74 67.6607 388.755 67.5013 387.46 67.5005Z" fill="#ECEDEF"/>
</g>
</g>
<defs>
<filter id="filter0_d_410:2574" x="0" y="0" width="700" height="458" filterUnits="userSpaceOnUse" color-interpolation-filters="sRGB">
<feFlood flood-opacity="0" result="BackgroundImageFix"/>
<feColorMatrix in="SourceAlpha" type="matrix" values="0 0 0 0 0 0 0 0 0 0 0 0 0 0 0 0 0 0 127 0" result="hardAlpha"/>
<feOffset dy="4"/>
<feGaussianBlur stdDeviation="2"/>
<feComposite in2="hardAlpha" operator="out"/>
<feColorMatrix type="matrix" values="0 0 0 0 0 0 0 0 0 0 0 0 0 0 0 0 0 0 0.25 0"/>
<feBlend mode="normal" in2="BackgroundImageFix" result="effect1_dropShadow_410:2574"/>
<feBlend mode="normal" in="SourceGraphic" in2="effect1_dropShadow_410:2574" result="shape"/>
</filter>
<filter id="filter1_d_410:2574" x="170" y="264" width="360" height="40" filterUnits="userSpaceOnUse" color-interpolation-filters="sRGB">
<feFlood flood-opacity="0" result="BackgroundImageFix"/>
<feColorMatrix in="SourceAlpha" type="matrix" values="0 0 0 0 0 0 0 0 0 0 0 0 0 0 0 0 0 0 127 0" result="hardAlpha"/>
<feOffset dy="4"/>
<feGaussianBlur stdDeviation="2"/>
<feComposite in2="hardAlpha" operator="out"/>
<feColorMatrix type="matrix" values="0 0 0 0 0 0 0 0 0 0 0 0 0 0 0 0 0 0 0.25 0"/>
<feBlend mode="normal" in2="BackgroundImageFix" result="effect1_dropShadow_410:2574"/>
<feBlend mode="normal" in="SourceGraphic" in2="effect1_dropShadow_410:2574" result="shape"/>
</filter>
<linearGradient id="paint0_linear_410:2574" x1="350" y1="0" x2="350" y2="450" gradientUnits="userSpaceOnUse">
<stop stop-color="#F24D2E" stop-opacity="0.5"/>
<stop offset="1" stop-color="#3C64B1" stop-opacity="0.5"/>
</linearGradient>
<clipPath id="clip0_410:2574">
<rect width="17.1346" height="17.6842" fill="white" transform="translate(304 62)"/>
</clipPath>
<clipPath id="clip1_410:2574">
<rect width="68.2212" height="24" fill="white" transform="translate(327.163 62)"/>
</clipPath>
</defs>
</svg>
