<svg width="19" height="18" viewBox="0 0 19 18" fill="none" xmlns="http://www.w3.org/2000/svg">
<path d="M9.00402 4.38503C6.44951 4.38503 4.38904 6.4455 4.38904 9C4.38904 11.5545 6.44951 13.615 9.00402 13.615C11.5585 13.615 13.619 11.5545 13.619 9C13.619 6.4455 11.5585 4.38503 9.00402 4.38503ZM9.00402 12.0003C7.35323 12.0003 6.00368 10.6548 6.00368 9C6.00368 7.3452 7.34921 5.99967 9.00402 5.99967C10.6588 5.99967 12.0044 7.3452 12.0044 9C12.0044 10.6548 10.6548 12.0003 9.00402 12.0003ZM14.8842 4.19625C14.8842 4.79471 14.4022 5.27268 13.8078 5.27268C13.2093 5.27268 12.7313 4.79069 12.7313 4.19625C12.7313 3.60181 13.2133 3.11983 13.8078 3.11983C14.4022 3.11983 14.8842 3.60181 14.8842 4.19625ZM17.9408 5.28874C17.8725 3.84681 17.5431 2.56956 16.4868 1.51724C15.4345 0.464911 14.1572 0.135557 12.7153 0.0632601C11.2292 -0.0210867 6.77485 -0.0210867 5.28874 0.0632601C3.85083 0.131541 2.57358 0.460895 1.51724 1.51322C0.460895 2.56555 0.135557 3.8428 0.0632601 5.28473C-0.0210867 6.77084 -0.0210867 11.2251 0.0632601 12.7113C0.131541 14.1532 0.460895 15.4304 1.51724 16.4828C2.57358 17.5351 3.84681 17.8644 5.28874 17.9367C6.77485 18.0211 11.2292 18.0211 12.7153 17.9367C14.1572 17.8685 15.4345 17.5391 16.4868 16.4828C17.5391 15.4304 17.8685 14.1532 17.9408 12.7113C18.0251 11.2251 18.0251 6.77485 17.9408 5.28874ZM16.0209 14.3058C15.7076 15.093 15.1011 15.6995 14.3098 16.0168C13.125 16.4868 10.3134 16.3783 9.00402 16.3783C7.69463 16.3783 4.87906 16.4828 3.6982 16.0168C2.91097 15.7036 2.30447 15.0971 1.98717 14.3058C1.51724 13.1209 1.62568 10.3094 1.62568 9C1.62568 7.69062 1.52125 4.87504 1.98717 3.69419C2.30046 2.90695 2.90695 2.30046 3.6982 1.98315C4.88307 1.51322 7.69463 1.62167 9.00402 1.62167C10.3134 1.62167 13.129 1.51724 14.3098 1.98315C15.0971 2.29644 15.7036 2.90293 16.0209 3.69419C16.4908 4.87906 16.3823 7.69062 16.3823 9C16.3823 10.3094 16.4908 13.125 16.0209 14.3058Z" fill="black"/>
</svg>
